<svg width="117" height="78" viewBox="0 0 117 78" fill="none" xmlns="http://www.w3.org/2000/svg">
<path d="M70 54.3803C64.4493 68.2225 51.4978 78 36.4905 78C16.3436 78 0 60.4225 0 39V38.8902H0.20558V36.0339H1.23348V38.8902H3.90602V21.5324H4.93392V38.8902H7.70925V15.0507H8.73715V38.8902H11.5125V39C11.5125 53.7211 22.7166 65.6958 36.4905 65.6958C46.1527 65.6958 54.5815 59.7634 58.6931 51.1944L70 54.3803ZM11.5125 31.4198V10.5465H12.5404V31.4198H11.5125ZM15.5213 22.9606V7.03101H16.5492V22.9606H15.5213ZM19.3245 18.6761V4.6141H20.3524V18.6761H19.3245ZM23.3333 15.7099V2.63665H24.3612V15.7099H23.3333ZM27.2394 13.8423V1.20849H28.2673V13.8423H27.2394ZM31.0426 0.439463H32.0705V12.7437H31.0426V0.439463ZM34.743 0H35.7709V12.4141H34.743V0ZM38.649 12.4141V0.219732H39.6769V12.4141H38.649ZM42.3495 13.0733V0.769028H43.3774V13.0733H42.3495ZM46.2555 1.75779H47.2834V14.3916H46.2555V1.75779ZM50.2643 3.29577H51.2922V16.6986H50.2643V3.29577ZM54.0676 19.9944V5.38313H55.0955V19.9944H54.0676ZM58.0764 8.34934H59.1043V25.4873H58.0764V8.34934ZM61.8796 12.0845H62.9075V26.4761H61.8796V12.0845ZM65.3745 16.6986H66.4024V24.2789H65.3745V16.6986Z" fill="#ED00A4"/>
<path d="M74 0H75V65.52H77.4V0H78.4V65.52H80.8V0H81.8V65.52H84.2V0H85.2V65.52H117V78H74V0ZM87.6 12.48V0H117V12.48H87.6ZM87.6 44.6828V32.2029H109.7V44.6828H87.6Z" fill="#ED00A4"/>
</svg>
