<?xml version="1.0" encoding="UTF-8"?>
<svg version="1.1" xmlns="http://www.w3.org/2000/svg" width="310" height="195">
<path d="M0 0 C0.99 0 1.98 0 3 0 C3 19.8 3 39.6 3 60 C5.31 60 7.62 60 10 60 C10.23783203 61.72283203 10.23783203 61.72283203 10.48046875 63.48046875 C12.59383615 77.90466884 16.35516381 90.02878119 25 102 C25.51046875 102.70769531 26.0209375 103.41539062 26.546875 104.14453125 C35.97436101 115.97555949 50.76286555 123.25265784 65.48828125 125.71875 C83.46793438 127.73202376 99.74641306 122.84566127 114 112 C115.5159375 110.9171875 115.5159375 110.9171875 117.0625 109.8125 C122.69390588 105.00402162 127.97514124 97.70939416 131 91 C137.69429542 91.64475378 143.96000376 93.15693577 150.4375 94.9375 C151.44232422 95.20240234 152.44714844 95.46730469 153.48242188 95.74023438 C154.43568359 95.99998047 155.38894531 96.25972656 156.37109375 96.52734375 C157.23661865 96.76187256 158.10214355 96.99640137 158.99389648 97.23803711 C161 98 161 98 162 100 C160.98229843 102.36241236 159.91015118 104.55760593 158.6875 106.8125 C158.14706055 107.81422241 158.14706055 107.81422241 157.59570312 108.83618164 C144.18417163 132.96037384 123.13129567 148.50939768 96.90234375 156.2734375 C80.4229226 160.39883768 61.00142382 159.68691718 45 154 C43.94167969 153.62617188 42.88335937 153.25234375 41.79296875 152.8671875 C29.81896586 148.22514787 19.59175523 141.47679005 10 133 C9.37609375 132.45988281 8.7521875 131.91976562 8.109375 131.36328125 C-6.41010545 117.89544542 -14.85038622 99.03664625 -19 80 C-19.17724609 79.21890869 -19.35449219 78.43781738 -19.53710938 77.63305664 C-20.01273989 74.92753178 -20.11370799 72.44406624 -20.09765625 69.69921875 C-20.09443359 68.72275391 -20.09121094 67.74628906 -20.08789062 66.74023438 C-20.07951172 65.73283203 -20.07113281 64.72542969 -20.0625 63.6875 C-20.05798828 62.66076172 -20.05347656 61.63402344 -20.04882812 60.57617188 C-20.03708184 58.05072118 -20.02065565 55.52539095 -20 53 C-18.68 53 -17.36 53 -16 53 C-16 55.31 -16 57.62 -16 60 C-14.02 60 -12.04 60 -10 60 C-10 45.48 -10 30.96 -10 16 C-9.01 16 -8.02 16 -7 16 C-7 30.52 -7 45.04 -7 60 C-4.69 60 -2.38 60 0 60 C0 40.2 0 20.4 0 0 Z " fill="#ED00A4" transform="translate(20,37)"/>
<path d="M0 0 C1.32 0 2.64 0 4 0 C4 53.13 4 106.26 4 161 C5.65 161 7.3 161 9 161 C9 107.87 9 54.74 9 0 C10.32 0 11.64 0 13 0 C13 53.13 13 106.26 13 161 C14.65 161 16.3 161 18 161 C18 107.87 18 54.74 18 0 C19.32 0 20.64 0 22 0 C22 53.13 22 106.26 22 161 C23.65 161 25.3 161 27 161 C27 107.87 27 54.74 27 0 C28.32 0 29.64 0 31 0 C31 53.13 31 106.26 31 161 C58.72 161 86.44 161 115 161 C115 171.56 115 182.12 115 193 C77.05 193 39.1 193 0 193 C0 129.31 0 65.62 0 0 Z " fill="#EC00A4" transform="translate(194,1)"/>
<path d="M0 0 C26.07 0 52.14 0 79 0 C79 10.23 79 20.46 79 31 C52.93 31 26.86 31 0 31 C0 20.77 0 10.54 0 0 Z " fill="#ED00A4" transform="translate(230,1)"/>
<path d="M0 0 C19.8 0 39.6 0 60 0 C60 10.56 60 21.12 60 32 C40.2 32 20.4 32 0 32 C0 21.44 0 10.88 0 0 Z " fill="#EC00A3" transform="translate(230,80)"/>
<path d="M0 0 C1.32 0 2.64 0 4 0 C4 17.49 4 34.98 4 53 C2.68 53 1.36 53 0 53 C0 35.51 0 18.02 0 0 Z " fill="#ED00A3" transform="translate(29,26)"/>
<path d="M0 0 C1.32 0 2.64 0 4 0 C4 10.89 4 21.78 4 33 C2.02 33.495 2.02 33.495 0 34 C0 22.78 0 11.56 0 0 Z " fill="#ED00A2" transform="translate(60,6)"/>
<path d="M0 0 C0.99 0 1.98 0 3 0 C3 14.52 3 29.04 3 44 C2.01 44 1.02 44 0 44 C0 29.48 0 14.96 0 0 Z " fill="#EC00A4" transform="translate(150,20)"/>
<path d="M0 0 C1.32 0 2.64 0 4 0 C4 10.56 4 21.12 4 32 C2.68 32 1.36 32 0 32 C0 21.44 0 10.88 0 0 Z " fill="#ED00A4" transform="translate(119,4)"/>
<path d="M0 0 C1.32 0 2.64 0 4 0 C4 10.56 4 21.12 4 32 C2.68 32 1.36 32 0 32 C0 21.44 0 10.88 0 0 Z " fill="#EC00A3" transform="translate(70,3)"/>
<path d="M0 0 C1.32 0 2.64 0 4 0 C4 10.56 4 21.12 4 32 C2.68 32 1.36 32 0 32 C0 21.44 0 10.88 0 0 Z " fill="#EC00A4" transform="translate(109,1)"/>
<path d="M0 0 C0.99 0 1.98 0 3 0 C3 13.53 3 27.06 3 41 C2.01 41 1.02 41 0 41 C0 27.47 0 13.94 0 0 Z " fill="#ED00A4" transform="translate(40,17)"/>
<path d="M0 0 C0.99 0 1.98 0 3 0 C3 12.21 3 24.42 3 37 C2.01 37 1.02 37 0 37 C0 24.79 0 12.58 0 0 Z " fill="#ED00A4" transform="translate(160,30)"/>
<path d="M0 0 C0.99 0 1.98 0 3 0 C3 12.21 3 24.42 3 37 C2.01 37 1.02 37 0 37 C0 24.79 0 12.58 0 0 Z " fill="#EC00A4" transform="translate(140,13)"/>
<path d="M0 0 C0.99 0 1.98 0 3 0 C3 11.88 3 23.76 3 36 C2.01 36 1.02 36 0 36 C0 24.12 0 12.24 0 0 Z " fill="#ED00A4" transform="translate(50,11)"/>
<path d="M0 0 C0.99 0 1.98 0 3 0 C3 11.22 3 22.44 3 34 C2.01 34 1.02 34 0 34 C0 22.78 0 11.56 0 0 Z " fill="#ED00A4" transform="translate(130,8)"/>
<path d="M0 0 C0.99 0 1.98 0 3 0 C3 10.23 3 20.46 3 31 C2.01 31 1.02 31 0 31 C0 20.77 0 10.54 0 0 Z " fill="#EC00A4" transform="translate(80,1)"/>
<path d="M0 0 C0.99 0 1.98 0 3 0 C3 10.23 3 20.46 3 31 C2.01 31 1.02 31 0 31 C0 20.77 0 10.54 0 0 Z " fill="#ED00A4" transform="translate(100,0)"/>
<path d="M0 0 C0.99 0 1.98 0 3 0 C3 10.23 3 20.46 3 31 C2.01 31 1.02 31 0 31 C0 20.77 0 10.54 0 0 Z " fill="#ED00A4" transform="translate(90,0)"/>
<path d="M0 0 C0.99 0 1.98 0 3 0 C3 6.6 3 13.2 3 20 C2.01 20 1.02 20 0 20 C0 13.4 0 6.8 0 0 Z " fill="#ED00A3" transform="translate(169,41)"/>
</svg>
