<svg width="114" height="75" viewBox="0 0 114 75" fill="none" xmlns="http://www.w3.org/2000/svg">
<path d="M66.8694 52.2887C61.567 65.5986 49.1947 75 34.8585 75C15.6127 75 0 58.0986 0 37.5V37.3944H0.196386V34.6479H1.17832V37.3944H3.73133V20.7043H4.71326V37.3944H7.36447V14.4718H8.3464V37.3944H10.9976V37.5C10.9976 51.6549 21.7006 63.1691 34.8585 63.1691C44.0886 63.1691 52.1405 57.4648 56.0682 49.2254L66.8694 52.2887ZM10.9976 30.2113V10.1409H11.9795V30.2113H10.9976ZM14.8271 22.0775V6.76059H15.8091V22.0775H14.8271ZM18.4603 17.9577V4.43663H19.4422V17.9577H18.4603ZM22.2898 15.1057V2.53524H23.2717V15.1057H22.2898ZM26.0211 13.3099V1.16201H27.0031V13.3099H26.0211ZM29.6543 0.422561H30.6362V12.2536H29.6543V0.422561ZM33.1892 0H34.1712V11.9367H33.1892V0ZM36.9206 11.9367V0.211281H37.9025V11.9367H36.9206ZM40.4555 12.5704V0.73945H41.4374V12.5704H40.4555ZM44.1868 1.69018H45.1688V13.8381H44.1868V1.69018ZM48.0164 3.16901H48.9983V16.0564H48.0164V3.16901ZM51.6495 19.2254V5.17608H52.6314V19.2254H51.6495ZM55.479 8.02821H56.461V24.5071H55.479V8.02821ZM59.1122 11.6197H60.0941V25.4578H59.1122V11.6197ZM62.4507 16.0564H63.4327V23.3451H62.4507V16.0564Z" fill="#ED00A4"/>
<path d="M72 0H72.9767V63H75.3209V0H76.2977V63H78.6419V0H79.6186V63H81.9628V0H82.9395V63H114V75H72V0ZM85.2837 12V0H114V12H85.2837ZM85.2837 42.9643V30.9643H106.87V42.9643H85.2837Z" fill="#ED00A4"/>
</svg>
