<svg width="103" height="65" viewBox="0 0 103 65" fill="none" xmlns="http://www.w3.org/2000/svg">
<path d="M60.4175 45.3169C55.6267 56.8521 44.4481 65 31.4952 65C14.1063 65 0 50.3521 0 32.5V32.4085H0.177438V30.0282H1.06463V32.4085H3.37131V17.9437H4.2585V32.4085H6.65391V12.5423H7.54109V32.4085H9.9365V32.5C9.9365 44.7676 19.6068 54.7465 31.4952 54.7465C39.8347 54.7465 47.1097 49.8028 50.6584 42.662L60.4175 45.3169ZM9.9365 26.1831V8.78877H10.8237V26.1831H9.9365ZM13.3965 19.1338V5.85918H14.2837V19.1338H13.3965ZM16.6791 15.5634V3.84508H17.5663V15.5634H16.6791ZM20.1392 13.0916V2.19721H21.0263V13.0916H20.1392ZM23.5105 11.5352V1.00708H24.3977V11.5352H23.5105ZM26.7931 0.36622H27.6803V10.6198H26.7931V0.36622ZM29.9869 0H30.8741V10.3451H29.9869V0ZM33.3582 10.3451V0.18311H34.2454V10.3451H33.3582ZM36.5521 10.8944V0.640856H37.4393V10.8944H36.5521ZM39.9234 1.46482H40.8106V11.993H39.9234V1.46482ZM43.3835 2.74648H44.2707V13.9155H43.3835V2.74648ZM46.6661 16.662V4.48594H47.5532V16.662H46.6661ZM50.1261 6.95778H51.0133V21.2394H50.1261V6.95778ZM53.4087 10.0704H54.2959V22.0634H53.4087V10.0704ZM56.4251 13.9155H57.3123V20.2324H56.4251V13.9155Z" fill="#ED00A4"/>
<path d="M64.8516 0.36615H65.7387V54.1971H67.868V0.36615H68.7552V54.1971H70.8844V0.36615H71.7716V54.1971H73.9009V0.36615H74.7881V54.1971H103.001V64.4507H64.8516V0.36615ZM76.9173 10.6197V0.36615H103.001V10.6197H76.9173ZM76.9173 37.0774V26.8239H96.5242V37.0774H76.9173Z" fill="#ED00A4"/>
</svg>
