<svg width="336" height="258" viewBox="0 0 336 258" fill="none" xmlns="http://www.w3.org/2000/svg">
<g filter="url(#filter0_d_2178_33008)">
<rect x="4" width="328" height="250" rx="4" fill="white"/>
<rect x="4.5" y="0.5" width="327" height="249" rx="3.5" stroke="black"/>
</g>
<path d="M213.057 160.002C200.128 191.04 169.959 212.964 135.001 212.964C88.0707 212.964 50 173.551 50 125.515V125.269H50.4789V118.864H52.8733V125.269H59.0987V86.3477H61.493V125.269H67.9579V71.8139H70.3523V125.269H76.8171V125.515C76.8171 158.524 102.916 185.375 135.001 185.375C157.508 185.375 177.142 172.073 186.719 152.858L213.057 160.002ZM76.7692 108.518V61.7141H79.1636V108.518H76.7692ZM86.1073 89.5501V53.8314H88.5017V89.5501H86.1073ZM94.9665 79.943V48.412H97.3609V79.943H94.9665ZM104.305 73.2919V43.978H106.699V73.2919H104.305ZM113.403 69.1042V40.7756H115.798V69.1042H113.403ZM122.262 39.0513H124.657V66.6409H122.262V39.0513ZM130.882 38.0659H133.277V65.9018H130.882V38.0659ZM139.981 65.9018V38.5586H142.375V65.9018H139.981ZM148.649 67.3799V39.7903H151.043V67.3799H148.649ZM157.747 42.0073H160.142V70.3359H157.747V42.0073ZM167.085 45.456H169.48V75.5089H167.085V45.456ZM175.945 82.899V50.1364H178.339V82.899H175.945ZM185.283 56.7874H187.677V95.2158H185.283V56.7874ZM194.142 65.1628H196.536V97.4328H194.142V65.1628ZM202.283 75.5089H204.677V92.5061H202.283V75.5089Z" fill="#11A8CF"/>
<path d="M224.984 39.0483H251.801V211.483H249.407V137.829H243.661V211.483H241.266V137.829H235.52V211.483H233.125V137.829H227.379V211.483H224.984V39.0483Z" fill="#11A8CF"/>
<defs>
<filter id="filter0_d_2178_33008" x="0" y="0" width="336" height="258" filterUnits="userSpaceOnUse" color-interpolation-filters="sRGB">
<feFlood flood-opacity="0" result="BackgroundImageFix"/>
<feColorMatrix in="SourceAlpha" type="matrix" values="0 0 0 0 0 0 0 0 0 0 0 0 0 0 0 0 0 0 127 0" result="hardAlpha"/>
<feOffset dy="4"/>
<feGaussianBlur stdDeviation="2"/>
<feComposite in2="hardAlpha" operator="out"/>
<feColorMatrix type="matrix" values="0 0 0 0 0 0 0 0 0 0.780392 0 0 0 0 0.92549 0 0 0 1 0"/>
<feBlend mode="normal" in2="BackgroundImageFix" result="effect1_dropShadow_2178_33008"/>
<feBlend mode="normal" in="SourceGraphic" in2="effect1_dropShadow_2178_33008" result="shape"/>
</filter>
</defs>
</svg>
