<svg width="75" height="66" viewBox="0 0 75 66" fill="none" xmlns="http://www.w3.org/2000/svg">
<path d="M61 46.0141C56.163 57.7268 44.8766 66 31.7988 66C14.2423 66 0 51.1268 0 33V32.907H0.179149V30.4901H1.07489V32.907H3.40382V18.2197H4.29956V32.907H6.71806V12.7352H7.6138V32.907H10.0323V33C10.0323 45.4563 19.7959 55.5887 31.7988 55.5887C40.2188 55.5887 47.5639 50.569 51.1468 43.3183L61 46.0141ZM10.0144 26.5859V8.92394H10.9101V26.5859H10.0144ZM13.5078 19.4282V5.9493H14.4035V19.4282H13.5078ZM16.822 15.8028V3.90423H17.7178V15.8028H16.822ZM20.3154 13.293V2.23099H21.2112V13.293H20.3154ZM23.7192 11.7127V1.02254H24.615V11.7127H23.7192ZM27.0335 0.371831H27.9292V10.7831H27.0335V0.371831ZM30.2581 0H31.1539V10.5042H30.2581V0ZM33.662 10.5042V0.185915H34.5577V10.5042H33.662ZM36.9045 11.062V0.650704H37.8003V11.062H36.9045ZM40.3084 1.48732H41.2041V12.1775H40.3084V1.48732ZM43.8018 2.78873H44.6975V14.1296H43.8018V2.78873ZM47.116 16.9183V4.55493H48.0117V16.9183H47.116ZM50.6094 7.06479H51.5051V21.5662H50.6094V7.06479ZM53.9236 10.2254H54.8194V22.4028H53.9236V10.2254ZM56.9692 14.1296H57.8649V20.5437H56.9692V14.1296Z" fill="#11A8CF"/>
<path d="M65 0H75V65H74.1071V37.2357H71.9643V65H71.0714V37.2357H68.9286V65H68.0357V37.2357H65.8929V65H65V0Z" fill="#11A8CF"/>
</svg>
