<?xml version="1.0" encoding="UTF-8"?>
<svg version="1.1" xmlns="http://www.w3.org/2000/svg" width="222" height="195">
<path d="M0 0 C1.32 0 2.64 0 4 0 C4 19.8 4 39.6 4 60 C6.31 60 8.62 60 11 60 C11.17015625 61.17175781 11.3403125 62.34351563 11.515625 63.55078125 C12.85502615 72.39497617 14.25894549 80.80042847 18 89 C18.39703125 89.886875 18.7940625 90.77375 19.203125 91.6875 C26.75879071 106.97252488 39.33887523 116.85247174 55.03125 123 C71.27973065 128.47317243 88.02435813 126.47151019 103.375 119.25 C115.58152483 112.63399738 124.5872341 103.29113464 131 91 C137.69429542 91.64475378 143.96000376 93.15693577 150.4375 94.9375 C151.44232422 95.20240234 152.44714844 95.46730469 153.48242188 95.74023438 C154.43568359 95.99998047 155.38894531 96.25972656 156.37109375 96.52734375 C157.23661865 96.76187256 158.10214355 96.99640137 158.99389648 97.23803711 C161 98 161 98 162 100 C160.98228762 102.36243746 159.91026325 104.55763597 158.6875 106.8125 C158.32648193 107.48104004 157.96546387 108.14958008 157.59350586 108.83837891 C145.16265267 131.18378246 125.18268324 148.13370807 100.5 155.375 C77.44332571 161.57013445 53.03715402 159.15320233 32 148 C31.00613281 147.49855469 30.01226562 146.99710938 28.98828125 146.48046875 C20.45976738 141.89848287 13.77492869 135.81331355 7 129 C6.3090625 128.3090625 5.618125 127.618125 4.90625 126.90625 C-10.90023923 109.95019791 -19.25441461 86.507126 -19.0625 63.625 C-19.05798828 62.60277344 -19.05347656 61.58054688 -19.04882812 60.52734375 C-19.037103 58.01816806 -19.02069176 55.5091151 -19 53 C-17.68 53 -16.36 53 -15 53 C-15 55.31 -15 57.62 -15 60 C-13.02 60 -11.04 60 -9 60 C-9 45.48 -9 30.96 -9 16 C-8.01 16 -7.02 16 -6 16 C-6 30.52 -6 45.04 -6 60 C-4.02 60 -2.04 60 0 60 C0 40.2 0 20.4 0 0 Z " fill="#11A8CF" transform="translate(19,37)"/>
<path d="M0 0 C9.9 0 19.8 0 30 0 C30 63.36 30 126.72 30 192 C29.01 192 28.02 192 27 192 C27 164.94 27 137.88 27 110 C25.02 110 23.04 110 21 110 C21 137.06 21 164.12 21 192 C20.01 192 19.02 192 18 192 C18 164.94 18 137.88 18 110 C16.02 110 14.04 110 12 110 C12 137.06 12 164.12 12 192 C11.01 192 10.02 192 9 192 C9 164.94 9 137.88 9 110 C7.02 110 5.04 110 3 110 C3 137.06 3 164.12 3 192 C2.01 192 1.02 192 0 192 C0 128.64 0 65.28 0 0 Z " fill="#11A8CF" transform="translate(192,0)"/>
<path d="M0 0 C1.32 0 2.64 0 4 0 C4 17.49 4 34.98 4 53 C2.68 53 1.36 53 0 53 C0 35.51 0 18.02 0 0 Z " fill="#12A7CF" transform="translate(29,26)"/>
<path d="M0 0 C1.32 0.33 2.64 0.66 4 1 C4 15.19 4 29.38 4 44 C2.68 44 1.36 44 0 44 C0 29.48 0 14.96 0 0 Z " fill="#10A7CF" transform="translate(149,20)"/>
<path d="M0 0 C1.32 0 2.64 0 4 0 C4 13.53 4 27.06 4 41 C2.68 41 1.36 41 0 41 C0 27.47 0 13.94 0 0 Z " fill="#11A7CF" transform="translate(39,17)"/>
<path d="M0 0 C1.32 0 2.64 0 4 0 C4 11.88 4 23.76 4 36 C2.68 36 1.36 36 0 36 C0 24.12 0 12.24 0 0 Z " fill="#11A7CF" transform="translate(49,11)"/>
<path d="M0 0 C1.32 0 2.64 0 4 0 C4 10.23 4 20.46 4 31 C2.68 31 1.36 31 0 31 C0 20.77 0 10.54 0 0 Z " fill="#10A7CF" transform="translate(79,1)"/>
<path d="M0 0 C1.32 0 2.64 0 4 0 C4 10.23 4 20.46 4 31 C2.68 31 1.36 31 0 31 C0 20.77 0 10.54 0 0 Z " fill="#11A7CF" transform="translate(99,0)"/>
<path d="M0 0 C0.99 0 1.98 0 3 0 C3 12.21 3 24.42 3 37 C2.01 37 1.02 37 0 37 C0 24.79 0 12.58 0 0 Z " fill="#11A7CF" transform="translate(159,30)"/>
<path d="M0 0 C0.99 0 1.98 0 3 0 C3 12.21 3 24.42 3 37 C2.01 37 1.02 37 0 37 C0 24.79 0 12.58 0 0 Z " fill="#11A7CF" transform="translate(139,13)"/>
<path d="M0 0 C0.99 0 1.98 0 3 0 C3 11.22 3 22.44 3 34 C2.01 34 1.02 34 0 34 C0 22.78 0 11.56 0 0 Z " fill="#11A7CF" transform="translate(129,8)"/>
<path d="M0 0 C0.99 0 1.98 0 3 0 C3 11.22 3 22.44 3 34 C2.01 34 1.02 34 0 34 C0 22.78 0 11.56 0 0 Z " fill="#11A7CF" transform="translate(60,6)"/>
<path d="M0 0 C0.99 0 1.98 0 3 0 C3 10.56 3 21.12 3 32 C2.01 32 1.02 32 0 32 C0 21.44 0 10.88 0 0 Z " fill="#11A8CF" transform="translate(119,4)"/>
<path d="M0 0 C0.99 0 1.98 0 3 0 C3 10.56 3 21.12 3 32 C2.01 32 1.02 32 0 32 C0 21.44 0 10.88 0 0 Z " fill="#11A8CF" transform="translate(70,3)"/>
<path d="M0 0 C0.99 0 1.98 0 3 0 C3 10.56 3 21.12 3 32 C2.01 32 1.02 32 0 32 C0 21.44 0 10.88 0 0 Z " fill="#11A8CF" transform="translate(109,1)"/>
<path d="M0 0 C0.99 0 1.98 0 3 0 C3 10.23 3 20.46 3 31 C2.01 31 1.02 31 0 31 C0 20.77 0 10.54 0 0 Z " fill="#11A7CF" transform="translate(89,0)"/>
<path d="M0 0 C0.99 0 1.98 0 3 0 C3 6.6 3 13.2 3 20 C2.01 20 1.02 20 0 20 C0 13.4 0 6.8 0 0 Z " fill="#11A7CF" transform="translate(168,41)"/>
</svg>
