<svg width="74" height="65" viewBox="0 0 74 65" fill="none" xmlns="http://www.w3.org/2000/svg">
<path d="M60.0758 45.3169C55.312 56.8521 44.1967 65 31.317 65C14.0265 65 0 50.3521 0 32.5V32.4085H0.176434V30.0282H1.0586V32.4085H3.35224V17.9437H4.23441V32.4085H6.61627V12.5423H7.49844V32.4085H9.8803V32.5C9.8803 44.7676 19.4959 54.7465 31.317 54.7465C39.6094 54.7465 46.8432 49.8028 50.3719 42.662L60.0758 45.3169ZM9.86266 26.1831V8.78873H10.7448V26.1831H9.86266ZM13.3031 19.1338V5.85915H14.1853V19.1338H13.3031ZM16.5671 15.5634V3.84507H17.4493V15.5634H16.5671ZM20.0076 13.0915V2.19718H20.8898V13.0915H20.0076ZM23.3599 11.5352V1.00704H24.242V11.5352H23.3599ZM26.6239 0.366197H27.506V10.6197H26.6239V0.366197ZM29.7997 0H30.6819V10.3451H29.7997V0ZM33.1519 10.3451V0.183099H34.0341V10.3451H33.1519ZM36.3454 10.8944V0.640845H37.2276V10.8944H36.3454ZM39.6976 1.46479H40.5798V11.993H39.6976V1.46479ZM43.1381 2.74648H44.0203V13.9155H43.1381V2.74648ZM46.4021 16.662V4.48592H47.2843V16.662H46.4021ZM49.8426 6.95775H50.7248V21.2394H49.8426V6.95775ZM53.1066 10.0704H53.9888V22.0634H53.1066V10.0704ZM56.106 13.9155H56.9882V20.2324H56.106V13.9155Z" fill="#11A8CF"/>
<path d="M64.0156 0H73.8641V64.0152H72.9848V36.6715H70.8744V64.0152H69.9951V36.6715H67.8847V64.0152H67.0053V36.6715H64.895V64.0152H64.0156V0Z" fill="#11A8CF"/>
</svg>
