<svg width="69" height="65" viewBox="0 0 69 65" fill="none" xmlns="http://www.w3.org/2000/svg">
<path d="M0 0H10.397V64.9815H9.46873V37.2251H7.24079V64.9815H6.31249V37.2251H4.08455V64.9815H3.15624V37.2251H0.928307V64.9815H0V0Z" fill="#0A8298"/>
<path d="M25.4361 31.6552V64.9815H24.5078V28.7775L22.2799 22.0009V64.9815H21.3515V19.216L19.1236 12.4393V64.9815H18.1953V9.56155L15.9674 2.78492V64.9815H15.0391V0H25.9931L44.9305 57.6478V37.3179H45.8588V60.4327L47.3441 64.9815H36.3901L25.4361 31.6552ZM48.2724 27.1994H49.2008V57.555H48.2724V27.1994ZM51.4287 17.4522H52.357V47.8078H51.4287V17.4522ZM54.4921 8.07628H55.4204V38.7104H54.4921V8.07628ZM68.0454 65H57.6483V0.0185276H68.0454V65Z" fill="#0A8298"/>
</svg>
