<svg width="71" height="67" viewBox="0 0 71 67" fill="none" xmlns="http://www.w3.org/2000/svg">
<path d="M0 0H10.7169V66.9809H9.76007V38.3705H7.46359V66.9809H6.50672V38.3705H4.21023V66.9809H3.25336V38.3705H0.95687V66.9809H0V0Z" fill="#0A8298"/>
<path d="M26.2169 32.6292V66.9809H25.2601V29.663L22.9636 22.6778V66.9809H22.0067V19.8072L19.7102 12.822V66.9809H18.7534V9.85575L16.4569 2.87061V66.9809H15.5V0H26.7911L46.3112 59.4216V38.4662H47.2681V62.2922L48.7991 66.9809H37.508L26.2169 32.6292ZM49.7559 28.0363H50.7128V59.3259H49.7559V28.0363ZM53.0093 17.9891H53.9662V49.2788H53.0093V17.9891ZM56.167 8.32478H57.1238V39.9015H56.167V8.32478ZM70.1373 67H59.4203V0.0190977H70.1373V67Z" fill="#0A8298"/>
</svg>
