<?xml version="1.0" encoding="UTF-8"?>
<svg version="1.1" xmlns="http://www.w3.org/2000/svg" width="205" height="195">
<path d="M0 0 C11.22 0 22.44 0 34 0 C38.32265531 13.07770846 42.64446351 26.15569612 46.96492958 39.234128 C48.97287512 45.31225306 50.98113911 51.39027244 52.99023438 57.46801758 C61.55237556 83.37023427 70.09969555 109.27667558 78.51773071 135.22615051 C78.78499088 136.0495096 79.05225105 136.87286869 79.32761002 137.72117805 C79.80833196 139.20259636 80.28855291 140.68417744 80.76803207 142.16599846 C83.13423288 149.45941705 85.57496154 156.72488462 88 164 C88.33 146.84 88.66 129.68 89 112 C90.32 112 91.64 112 93 112 C93.00586624 112.85475922 93.01173248 113.70951843 93.01777649 114.59017944 C93.07589752 122.68112374 93.14808408 130.77179767 93.23571491 138.86247826 C93.28027063 143.02109175 93.31955846 147.1796106 93.34643555 151.33837891 C93.37261736 155.35861367 93.41312235 159.37848133 93.46318626 163.39848709 C93.47975512 164.9252729 93.49133111 166.45212205 93.49761391 167.97898483 C93.53237023 175.65544693 93.68700478 182.80180721 96.36174011 190.0921936 C97 192 97 192 97 195 C85.78 195 74.56 195 63 195 C62.175 192.46441406 61.35 189.92882812 60.5 187.31640625 C51.35191118 159.2048558 42.17925173 131.10139346 33 103 C32.67 133.36 32.34 163.72 32 195 C30.68 195 29.36 195 28 195 C27.99853344 194.44415096 27.99706688 193.88830193 27.99555588 193.31560898 C27.9583786 179.74195227 27.89897159 166.16854614 27.81609726 152.59508896 C27.77668014 146.03083076 27.74446319 139.46670556 27.72900391 132.90234375 C27.71379965 126.56090202 27.67928646 120.21982608 27.63169098 113.87854767 C27.61691614 111.46583495 27.60896124 109.05307 27.60811615 106.64031219 C27.60573308 103.2464705 27.57854423 99.85362875 27.54589844 96.45996094 C27.5509288 95.47452301 27.55595917 94.48908508 27.56114197 93.4737854 C27.44331825 85.49580202 25.72757181 81.18271542 23 73 C22.67 113.26 22.34 153.52 22 195 C21.01 195 20.02 195 19 195 C18.99780016 193.95888298 18.99780016 193.95888298 18.99555588 192.89673328 C18.95840356 175.95962733 18.89927794 159.02275227 18.81609726 142.08581257 C18.77639312 133.89501456 18.74395704 125.70431142 18.72900391 117.51342773 C18.71594243 110.3690644 18.68886409 103.22491058 18.64538693 96.08066529 C18.62287243 92.30249278 18.60708324 88.52457771 18.60811615 84.74633217 C18.60886876 81.17978271 18.59068124 77.61380015 18.55883217 74.04739761 C18.54643982 72.13552534 18.55335015 70.22355733 18.56114197 68.31166077 C18.45485347 59.36865512 16.79062039 54.06951627 14 45 C13.67 94.5 13.34 144 13 195 C11.68 195 10.36 195 9 195 C8.99853344 194.14523449 8.99706688 193.29046898 8.99555588 192.40980148 C8.95844443 171.57587184 8.89937223 150.74210431 8.81609726 129.90830612 C8.77635062 119.83307389 8.74393593 109.75791928 8.72900391 99.68261719 C8.71596469 90.89718844 8.6889422 82.11193078 8.64538693 73.32659841 C8.62282311 68.67824051 8.60708626 64.03009323 8.60811615 59.38167572 C8.60886578 54.99850037 8.59079447 50.6157897 8.55883217 46.23273468 C8.55037515 44.63168968 8.54855443 43.0305923 8.55419731 41.42953491 C8.56092336 39.22615544 8.54271776 37.02421836 8.51898193 34.82098389 C8.51529476 33.59315563 8.51160759 32.36532738 8.50780869 31.10029221 C7.95864266 25.56106513 7.95864266 25.56106513 4 15 C3.67 74.4 3.34 133.8 3 195 C2.01 195 1.02 195 0 195 C0 130.65 0 66.3 0 0 Z " fill="#0A8297" transform="translate(45,0)"/>
<path d="M0 0 C10.56 0 21.12 0 32 0 C32 64.35 32 128.7 32 195 C21.44 195 10.88 195 0 195 C0 130.65 0 66.3 0 0 Z " fill="#0A8297" transform="translate(173,0)"/>
<path d="M0 0 C10.56 0 21.12 0 32 0 C32 64.35 32 128.7 32 195 C30.68 195 29.36 195 28 195 C28 167.61 28 140.22 28 112 C26.02 112 24.04 112 22 112 C22 139.39 22 166.78 22 195 C20.68 195 19.36 195 18 195 C18 167.61 18 140.22 18 112 C16.35 112 14.7 112 13 112 C13 139.39 13 166.78 13 195 C11.68 195 10.36 195 9 195 C9 167.61 9 140.22 9 112 C7.02 112 5.04 112 3 112 C3 139.39 3 166.78 3 195 C2.01 195 1.02 195 0 195 C0 130.65 0 66.3 0 0 Z " fill="#0A8297" transform="translate(0,0)"/>
<path d="M0 0 C1.32 0 2.64 0 4 0 C4 30.69 4 61.38 4 93 C2.68 93 1.36 93 0 93 C0 62.31 0 31.62 0 0 Z " fill="#0A8297" transform="translate(163,24)"/>
<path d="M0 0 C1.32 0 2.64 0 4 0 C4 30.36 4 60.72 4 92 C2.68 92 1.36 92 0 92 C0 61.64 0 31.28 0 0 Z " fill="#098297" transform="translate(144,81)"/>
<path d="M0 0 C1.32 0 2.64 0 4 0 C4 30.36 4 60.72 4 92 C2.68 92 1.36 92 0 92 C0 61.64 0 31.28 0 0 Z " fill="#0B8397" transform="translate(154,52)"/>
</svg>
