<svg width="70" height="67" viewBox="0 0 70 67" fill="none" xmlns="http://www.w3.org/2000/svg">
<path d="M10.6959 32.6293V66.9809H9.74088V29.663L7.4489 22.6778V66.9809H6.49392V19.8072L4.20195 12.822V66.9809H3.24696V9.85577L0.954988 2.87061V66.9809H0V0H11.2689L30.7506 59.4216V38.4662H31.7056V62.2922L33.2336 66.9809H21.9647L10.6959 32.6293ZM34.1886 28.0363H35.1436V59.3259H34.1886V28.0363ZM37.4355 17.9892H38.3905V49.2788H37.4355V17.9892ZM40.587 8.32478H41.542V39.9015H40.587V8.32478ZM54.5298 67H43.8339V0.0191561H54.5298V67Z" fill="#AE3794"/>
<path d="M59.3047 0H70.0005V66.9809H69.0456V38.3705H66.7536V66.9809H65.7986V38.3705H63.5066V66.9809H62.5516V38.3705H60.2597V66.9809H59.3047V0Z" fill="#AE3794"/>
</svg>
