<svg width="68" height="65" viewBox="0 0 68 65" fill="none" xmlns="http://www.w3.org/2000/svg">
<path d="M10.3766 31.6553V64.9815H9.4501V28.7775L7.22655 22.0009V64.9815H6.30007V19.216L4.07651 12.4393V64.9815H3.15003V9.56157L0.926481 2.78492V64.9815H0V0H10.9325L29.8327 57.6478V37.3179H30.7592V60.4327L32.2415 64.9815H21.3091L10.3766 31.6553ZM33.168 27.1994H34.0945V57.555H33.168V27.1994ZM36.318 17.4522H37.2445V47.8078H36.318V17.4522ZM39.3754 8.07628H40.3019V38.7104H39.3754V8.07628ZM52.902 65H42.5255V0.0185843H52.902V65Z" fill="#AE3794"/>
<path d="M57.5352 0H67.9117V64.9815H66.9853V37.2251H64.7617V64.9815H63.8352V37.2251H61.6117V64.9815H60.6852V37.2251H58.4616V64.9815H57.5352V0Z" fill="#AE3794"/>
</svg>
