<?xml version="1.0" encoding="UTF-8"?>
<svg version="1.1" xmlns="http://www.w3.org/2000/svg" width="204" height="195">
<path d="M0 0 C11.22 0 22.44 0 34 0 C34.7321875 2.25714844 35.464375 4.51429688 36.21875 6.83984375 C44.04843605 30.95329117 51.95095736 55.04243946 59.875 79.125 C69.28948387 107.73727384 78.66351482 136.36212718 88 165 C88.33 147.51 88.66 130.02 89 112 C90.32 112 91.64 112 93 112 C93.00586624 112.86284607 93.01173248 113.72569214 93.01777649 114.61468506 C93.07596466 122.79330011 93.14818831 130.97164962 93.23571491 139.15000534 C93.280218 143.35340158 93.31951673 147.55670536 93.34643555 151.76025391 C93.37267075 155.82588105 93.41321141 159.89114846 93.46318626 163.9565506 C93.47971964 165.49843073 93.49131733 167.04037288 93.49761391 168.5823288 C93.50740476 170.76196477 93.53563331 172.94070799 93.56762695 175.12011719 C93.57873001 176.35477722 93.58983307 177.58943726 93.60127258 178.86151123 C94.12849377 184.33366811 95.66666135 189.66664541 97 195 C85.78 195 74.56 195 63 195 C60.97609653 188.9519456 58.9533925 182.90350898 56.93310547 176.85424805 C56.25335892 174.81987046 55.57306676 172.78567505 54.89208984 170.75170898 C47.45805211 148.54461731 40.25047617 126.26931965 33 104 C32.67 134.03 32.34 164.06 32 195 C30.68 195 29.36 195 28 195 C27.99853344 194.44415096 27.99706688 193.88830193 27.99555588 193.31560898 C27.9583786 179.74195227 27.89897159 166.16854614 27.81609726 152.59508896 C27.77668014 146.03083076 27.74446319 139.46670556 27.72900391 132.90234375 C27.71379965 126.56090202 27.67928646 120.21982608 27.63169098 113.87854767 C27.61691614 111.46583495 27.60896124 109.05307 27.60811615 106.64031219 C27.60573308 103.2464705 27.57854423 99.85362875 27.54589844 96.45996094 C27.5509288 95.47452301 27.55595917 94.48908508 27.56114197 93.4737854 C27.44331825 85.49580202 25.72757181 81.18271542 23 73 C22.67 113.26 22.34 153.52 22 195 C20.68 195 19.36 195 18 195 C17.99761165 194.28677361 17.99522329 193.57354723 17.99276257 192.83870792 C17.93355074 175.46074199 17.85796121 158.08292396 17.76428509 140.7051096 C17.71937578 132.30122191 17.67994996 123.89737615 17.65356445 115.4934082 C17.6305449 108.16599589 17.59710285 100.83871677 17.55129844 93.51141018 C17.52741941 89.63392012 17.50865588 85.75656154 17.50238609 81.87899971 C17.49631101 78.22390323 17.47622464 74.56914292 17.44572449 70.91417122 C17.43283743 68.94427535 17.43450755 66.97430079 17.4367218 65.00436401 C17.41791458 63.21883369 17.41791458 63.21883369 17.39872742 61.39723206 C17.39411845 60.37312005 17.38950949 59.34900805 17.38476086 58.29386234 C16.99133436 53.95388577 16.99133436 53.95388577 14 46 C13.67 95.17 13.34 144.34 13 195 C11.68 195 10.36 195 9 195 C8.99853344 194.14523449 8.99706688 193.29046898 8.99555588 192.40980148 C8.95844443 171.57587184 8.89937223 150.74210431 8.81609726 129.90830612 C8.77635062 119.83307389 8.74393593 109.75791928 8.72900391 99.68261719 C8.71596469 90.89718844 8.6889422 82.11193078 8.64538693 73.32659841 C8.62282311 68.67824051 8.60708626 64.03009323 8.60811615 59.38167572 C8.60886578 54.99850037 8.59079447 50.6157897 8.55883217 46.23273468 C8.55037515 44.63168968 8.54855443 43.0305923 8.55419731 41.42953491 C8.56092336 39.22615544 8.54271776 37.02421836 8.51898193 34.82098389 C8.51529476 33.59315563 8.51160759 32.36532738 8.50780869 31.10029221 C7.95864266 25.56106513 7.95864266 25.56106513 4 15 C3.67 74.4 3.34 133.8 3 195 C2.01 195 1.02 195 0 195 C0 130.65 0 66.3 0 0 Z " fill="#AE3794" transform="translate(0,0)"/>
<path d="M0 0 C10.56 0 21.12 0 32 0 C32 64.35 32 128.7 32 195 C21.44 195 10.88 195 0 195 C0 130.65 0 66.3 0 0 Z " fill="#AD3793" transform="translate(127,0)"/>
<path d="M0 0 C10.56 0 21.12 0 32 0 C32 64.35 32 128.7 32 195 C31.01 195 30.02 195 29 195 C29 167.61 29 140.22 29 112 C27.02 112 25.04 112 23 112 C23 139.39 23 166.78 23 195 C21.68 195 20.36 195 19 195 C19 167.61 19 140.22 19 112 C17.02 112 15.04 112 13 112 C13 139.39 13 166.78 13 195 C12.01 195 11.02 195 10 195 C10 167.61 10 140.22 10 112 C8.02 112 6.04 112 4 112 C4 139.39 4 166.78 4 195 C2.68 195 1.36 195 0 195 C0 130.65 0 66.3 0 0 Z " fill="#AD3793" transform="translate(172,0)"/>
<path d="M0 0 C1.32 0 2.64 0 4 0 C4 30.36 4 60.72 4 92 C2.68 92 1.36 92 0 92 C0 61.64 0 31.28 0 0 Z " fill="#AE3793" transform="translate(99,81)"/>
<path d="M0 0 C0.99 0 1.98 0 3 0 C3 30.69 3 61.38 3 93 C2.01 93 1.02 93 0 93 C0 62.31 0 31.62 0 0 Z " fill="#AE3794" transform="translate(118,24)"/>
<path d="M0 0 C0.99 0 1.98 0 3 0 C3 30.36 3 60.72 3 92 C2.01 92 1.02 92 0 92 C0 61.64 0 31.28 0 0 Z " fill="#AD3793" transform="translate(109,52)"/>
</svg>
