<svg width="83" height="67" viewBox="0 0 83 67" fill="none" xmlns="http://www.w3.org/2000/svg">
<path d="M0 30.9521H0.952001V36.4254H0V30.9521ZM3.42721 18.4958H4.37921V48.5042H3.42721V18.4958ZM6.94961 12.9282H7.90161V54.0718H6.94961V12.9282ZM10.472 26.9887V9.05916H11.424V26.9887H10.472ZM11.424 57.9408H10.472V40.0113H11.424V57.9408ZM14.1848 19.7225V6.03943H15.1368V19.7225H14.1848ZM15.1368 60.9606H14.1848V47.2775H15.1368V60.9606ZM17.7072 16.0423V3.96339H18.6592V16.0423H17.7072ZM18.6592 63.0366H17.7072V50.9577H18.6592V63.0366ZM21.42 13.4944V2.26478H22.372V13.4944H21.42ZM22.372 64.7352H21.42V53.5056H22.372V64.7352ZM25.0376 11.8901V1.03803H25.9896V11.8901H25.0376ZM25.9896 65.962H25.0376V55.1099H25.9896V65.962ZM28.56 0.377459H29.512V10.9465H28.56V0.377459ZM29.512 56.0535V66.6225H28.56V56.0535H29.512ZM31.9873 0H32.9393V10.6634H31.9873V0ZM32.9393 56.3366V67H31.9873V56.3366H32.9393ZM35.3193 0C53.2169 0.943662 67.4017 15.5704 67.4017 33.5C67.4017 51.4296 53.1217 66.0563 35.3193 67V56.3366C47.2193 55.4873 56.7393 45.5789 56.7393 33.5C56.7393 21.4211 46.5529 12.362 35.3193 10.7577V0Z" fill="#B60087"/>
<path d="M72.1602 0.377808H82.8226V66.4341H81.8706V38.2187H79.5858V66.4341H78.6338V38.2187H76.349V66.4341H75.397V38.2187H73.1122V66.4341H72.1602V0.377808Z" fill="#B60087"/>
</svg>
