<svg width="81" height="65" viewBox="0 0 81 65" fill="none" xmlns="http://www.w3.org/2000/svg">
<path d="M0 30.0282H0.923583V35.338H0V30.0282ZM3.3249 17.9437H4.24848V47.0563H3.3249V17.9437ZM6.74216 12.5423H7.66574V52.4578H6.74216V12.5423ZM10.1594 26.1831V8.78874H11.083V26.1831H10.1594ZM11.083 56.2113H10.1594V38.8169H11.083V56.2113ZM13.7614 19.1338V5.85915H14.685V19.1338H13.7614ZM14.685 59.1409H13.7614V45.8662H14.685V59.1409ZM17.1787 15.5634V3.84508H18.1022V15.5634H17.1787ZM18.1022 61.1549H17.1787V49.4366H18.1022V61.1549ZM20.7806 13.0916V2.19718H21.7042V13.0916H20.7806ZM21.7042 62.8028H20.7806V51.9085H21.7042V62.8028ZM24.2902 11.5352V1.00705H25.2138V11.5352H24.2902ZM25.2138 63.993H24.2902V53.4648H25.2138V63.993ZM27.7075 0.366192H28.6311V10.6197H27.7075V0.366192ZM28.6311 54.3803V64.6338H27.7075V54.3803H28.6311ZM31.0324 0H31.956V10.3451H31.0324V0ZM31.956 54.6549V65H31.0324V54.6549H31.956ZM34.265 0C51.6283 0.915493 65.3897 15.1056 65.3897 32.5C65.3897 49.8944 51.536 64.0845 34.265 65V54.6549C45.8097 53.831 55.0456 44.2183 55.0456 32.5C55.0456 20.7817 45.1632 11.993 34.265 10.4366V0Z" fill="#B60087"/>
<path d="M70.0078 0.366516H80.352V64.451H79.4284V37.0778H77.2118V64.451H76.2882V37.0778H74.0716V64.451H73.148V37.0778H70.9314V64.451H70.0078V0.366516Z" fill="#B60087"/>
</svg>
