<?xml version="1.0" encoding="UTF-8"?>
<svg version="1.1" xmlns="http://www.w3.org/2000/svg" width="242" height="195">
<path d="M0 0 C6.78445659 0 12.02125297 0.08345161 18.375 1.6875 C19.4738855 1.95868652 19.4738855 1.95868652 20.5949707 2.23535156 C46.71991658 8.95327653 68.40008324 25.75208668 82.09130859 48.84033203 C89.76795545 62.26140851 94.63319524 77.4631985 95 93 C95.03867188 93.69222656 95.07734375 94.38445312 95.1171875 95.09765625 C95.98534022 120.90108437 85.74698257 144.834797 69 164 C68.34386719 164.75796875 67.68773437 165.5159375 67.01171875 166.296875 C52.59202031 181.7355243 30.89731335 192.39731164 10 195 C6.66473304 195.07734588 3.33543342 195.05932589 0 195 C-0.02465504 190.60343827 -0.04283842 186.2069128 -0.05493164 181.81030273 C-0.05997121 180.31355082 -0.06680287 178.81680384 -0.07543945 177.32006836 C-0.08752159 175.17300193 -0.09323191 173.02600038 -0.09765625 170.87890625 C-0.10289307 169.5854126 -0.10812988 168.29191895 -0.11352539 166.95922852 C0 164 0 164 1 163 C3.2658449 162.55700787 5.5380345 162.14636076 7.8125 161.75 C19.33944721 159.55857561 28.72959385 155.22430632 38 148 C39.03060547 147.25169922 39.03060547 147.25169922 40.08203125 146.48828125 C52.52208792 136.74725069 59.6472142 120.03148279 61.71875 104.75390625 C63.46035493 87.70069128 58.50430423 72.19474904 48.125 58.625 C35.16507546 43.48859958 19.26671048 35.8533421 0 32 C0 21.44 0 10.88 0 0 Z " fill="#B50086" transform="translate(102,0)"/>
<path d="M0 0 C10.56 0 21.12 0 32 0 C32 63.69 32 127.38 32 193 C30.68 193 29.36 193 28 193 C28 165.94 28 138.88 28 111 C26.02 111 24.04 111 22 111 C22 138.06 22 165.12 22 193 C20.68 193 19.36 193 18 193 C18 165.94 18 138.88 18 111 C16.35 111 14.7 111 13 111 C13 138.06 13 165.12 13 193 C11.68 193 10.36 193 9 193 C9 165.94 9 138.88 9 111 C7.02 111 5.04 111 3 111 C3 138.06 3 165.12 3 193 C2.01 193 1.02 193 0 193 C0 129.31 0 65.62 0 0 Z " fill="#B60087" transform="translate(210,1)"/>
<path d="M0 0 C0.99 0 1.98 0 3 0 C3 39.93 3 79.86 3 121 C2.01 121 1.02 121 0 121 C0 81.07 0 41.14 0 0 Z " fill="#B60086" transform="translate(20,37)"/>
<path d="M0 0 C0.99 0 1.98 0 3 0 C3 29.37 3 58.74 3 89 C2.01 89 1.02 89 0 89 C0 59.63 0 30.26 0 0 Z " fill="#B50087" transform="translate(10,53)"/>
<path d="M0 0 C1.32 0 2.64 0 4 0 C4 17.49 4 34.98 4 53 C2.68 53 1.36 53 0 53 C0 35.51 0 18.02 0 0 Z " fill="#B60087" transform="translate(30,116)"/>
<path d="M0 0 C1.32 0 2.64 0 4 0 C4 17.49 4 34.98 4 53 C2.68 53 1.36 53 0 53 C0 35.51 0 18.02 0 0 Z " fill="#B60086" transform="translate(30,26)"/>
<path d="M0 0 C1.32 0 2.64 0 4 0 C4 11.88 4 23.76 4 36 C2.68 36 1.36 36 0 36 C0 24.12 0 12.24 0 0 Z " fill="#B60087" transform="translate(51,148)"/>
<path d="M0 0 C1.32 0 2.64 0 4 0 C4 11.88 4 23.76 4 36 C2.68 36 1.36 36 0 36 C0 24.12 0 12.24 0 0 Z " fill="#B60087" transform="translate(51,11)"/>
<path d="M0 0 C1.32 0 2.64 0 4 0 C4 11.22 4 22.44 4 34 C2.68 34 1.36 34 0 34 C0 22.78 0 11.56 0 0 Z " fill="#B60086" transform="translate(62,155)"/>
<path d="M0 0 C1.32 0 2.64 0 4 0 C4 10.89 4 21.78 4 33 C2.02 33.495 2.02 33.495 0 34 C0 22.78 0 11.56 0 0 Z " fill="#B60086" transform="translate(62,6)"/>
<path d="M0 0 C1.32 0 2.64 0 4 0 C4 10.56 4 21.12 4 32 C2.68 32 1.36 32 0 32 C0 21.44 0 10.88 0 0 Z " fill="#B60086" transform="translate(72,160)"/>
<path d="M0 0 C1.32 0 2.64 0 4 0 C4 10.56 4 21.12 4 32 C2.68 32 1.36 32 0 32 C0 21.44 0 10.88 0 0 Z " fill="#B60086" transform="translate(72,3)"/>
<path d="M0 0 C0.99 0 1.98 0 3 0 C3 13.53 3 27.06 3 41 C2.01 41 1.02 41 0 41 C0 27.47 0 13.94 0 0 Z " fill="#B60086" transform="translate(41,137)"/>
<path d="M0 0 C0.99 0 1.98 0 3 0 C3 13.53 3 27.06 3 41 C2.01 41 1.02 41 0 41 C0 27.47 0 13.94 0 0 Z " fill="#B60086" transform="translate(41,17)"/>
<path d="M0 0 C0.99 0 1.98 0 3 0 C3 10.23 3 20.46 3 31 C2.01 31 1.02 31 0 31 C0 20.77 0 10.54 0 0 Z " fill="#B60087" transform="translate(93,164)"/>
<path d="M0 0 C0.99 0 1.98 0 3 0 C3 10.23 3 20.46 3 31 C2.01 31 1.02 31 0 31 C0 20.77 0 10.54 0 0 Z " fill="#B60087" transform="translate(83,163)"/>
<path d="M0 0 C0.99 0 1.98 0 3 0 C3 10.23 3 20.46 3 31 C2.01 31 1.02 31 0 31 C0 20.77 0 10.54 0 0 Z " fill="#B60087" transform="translate(83,1)"/>
<path d="M0 0 C0.99 0 1.98 0 3 0 C3 10.23 3 20.46 3 31 C2.01 31 1.02 31 0 31 C0 20.77 0 10.54 0 0 Z " fill="#B60087" transform="translate(93,0)"/>
<path d="M0 0 C0.99 0 1.98 0 3 0 C3 5.28 3 10.56 3 16 C2.01 16 1.02 16 0 16 C0 10.72 0 5.44 0 0 Z " fill="#B60087" transform="translate(0,90)"/>
</svg>
