<?xml version="1.0" encoding="UTF-8"?>
<svg version="1.1" xmlns="http://www.w3.org/2000/svg" width="257" height="195">
<path d="M0 0 C1.32 0 2.64 0 4 0 C4 26.4 4 52.8 4 80 C5.65 80 7.3 80 9 80 C9 53.6 9 27.2 9 0 C9.99 0 10.98 0 12 0 C12 26.4 12 52.8 12 80 C13.98 80 15.96 80 18 80 C18 53.6 18 27.2 18 0 C18.99 0 19.98 0 21 0 C21 26.4 21 52.8 21 80 C22.98 80 24.96 80 27 80 C27 53.6 27 27.2 27 0 C27.99 0 28.98 0 30 0 C30 26.4 30 52.8 30 80 C37.26 79.896875 44.52 79.79375 52 79.6875 C54.27648437 79.66260498 56.55296875 79.63770996 58.8984375 79.61206055 C60.7239787 79.57974379 62.54950155 79.54636631 64.375 79.51171875 C65.30570312 79.50547485 66.23640625 79.49923096 67.1953125 79.49279785 C73.73625156 79.34988803 79.60877233 78.57173651 84.98828125 74.4921875 C90.08471903 68.26821924 92.67505655 61.51227093 92.34765625 53.3984375 C91.47345854 47.36745553 89.77592427 41.06631351 85.0625 36.9375 C79.10755568 33.17008624 74.47806508 32.68798901 67.578125 32.62109375 C66.67753357 32.60409927 65.77694214 32.5871048 64.84906006 32.56959534 C61.98277721 32.51660986 59.1165084 32.47621061 56.25 32.4375 C53.36928009 32.3936056 50.48867325 32.34698669 47.60809326 32.29469299 C45.81753047 32.26267054 44.026867 32.23580099 42.23614502 32.21446228 C36.11178664 32.11178664 36.11178664 32.11178664 35 31 C34.91209025 28.70848583 34.89305962 26.41427476 34.90234375 24.12109375 C34.9037587 23.4344313 34.90517365 22.74776886 34.90663147 22.04029846 C34.91224521 19.83932199 34.92479993 17.63844591 34.9375 15.4375 C34.94251324 13.94856917 34.94707645 12.45963676 34.95117188 10.97070312 C34.96221907 7.31376925 34.97949287 3.65689442 35 0 C41.47365664 -0.10228521 47.94710128 -0.17183275 54.42138672 -0.21972656 C56.61905708 -0.23971418 58.81667514 -0.26691362 61.01416016 -0.30175781 C78.92186584 -0.57838752 93.93785328 0.40500578 107.75 13.25 C118.92488131 25.2399903 122.18944499 39.61262619 122.3125 55.4375 C122.35600586 57.25024414 122.35600586 57.25024414 122.40039062 59.09960938 C122.51078949 74.95458537 117.3523619 88.06066889 106.609375 99.6328125 C101.13478873 104.59927849 94.56356947 107.72390293 88 111 C88.35489502 111.81936035 88.70979004 112.6387207 89.07543945 113.48291016 C96.89523439 131.56564283 104.59671769 149.69642509 112.14755249 167.89324951 C113.00789857 169.96533429 113.87006311 172.03666497 114.73403931 174.10723877 C115.95177951 177.02762499 117.1624428 179.95084241 118.37109375 182.875 C118.73913116 183.7547348 119.10716858 184.6344696 119.48635864 185.54086304 C119.81884613 186.34980011 120.15133362 187.15873718 120.49389648 187.9921875 C120.93233131 189.04962158 120.93233131 189.04962158 121.37962341 190.12841797 C122 192 122 192 122 195 C111.11 195 100.22 195 89 195 C80.28834849 174.22056895 71.66693749 153.414713 63.37841797 132.46240234 C62.37122432 129.93246604 61.35494636 127.40739645 60.32861328 124.88525391 C60.05058365 124.19913528 59.77255402 123.51301666 59.48609924 122.80610657 C58.94574659 121.47372784 58.40267132 120.14244923 57.85655212 118.81242371 C56 114.22400462 56 114.22400462 56 112 C47.42 112 38.84 112 30 112 C30 139.39 30 166.78 30 195 C29.01 195 28.02 195 27 195 C27 167.61 27 140.22 27 112 C25.02 112 23.04 112 21 112 C21 139.39 21 166.78 21 195 C20.01 195 19.02 195 18 195 C18 167.61 18 140.22 18 112 C16.02 112 14.04 112 12 112 C12 139.39 12 166.78 12 195 C11.01 195 10.02 195 9 195 C9 167.61 9 140.22 9 112 C7.35 112 5.7 112 4 112 C4 139.39 4 166.78 4 195 C2.68 195 1.36 195 0 195 C0 130.65 0 66.3 0 0 Z " fill="#11A7CF" transform="translate(134,0)"/>
<path d="M0 0 C0.99 0 1.98 0 3 0 C3 26.4 3 52.8 3 80 C4.65 80 6.3 80 8 80 C8 53.6 8 27.2 8 0 C9.32 0 10.64 0 12 0 C12 26.4 12 52.8 12 80 C13.65 80 15.3 80 17 80 C17 53.6 17 27.2 17 0 C18.32 0 19.64 0 21 0 C21 26.4 21 52.8 21 80 C22.65 80 24.3 80 26 80 C26 53.6 26 27.2 26 0 C26.99 0 27.98 0 29 0 C29 26.4 29 52.8 29 80 C36.425 79.896875 43.85 79.79375 51.5 79.6875 C53.82869141 79.66260498 56.15738281 79.63770996 58.55664062 79.61206055 C60.42319702 79.57974504 62.28973546 79.54636773 64.15625 79.51171875 C65.10854492 79.50547485 66.06083984 79.49923096 67.04199219 79.49279785 C73.64392827 79.3516943 79.55578806 78.61191711 84.98828125 74.4921875 C89.8866702 68.51008418 92.64688503 61.98486525 92.28515625 54.10546875 C91.30873919 46.89603322 89.374176 41.00775491 84 36 C78.30167241 32.96298676 73.52173526 32.53456619 67.12890625 32.48828125 C65.74541237 32.46135445 65.74541237 32.46135445 64.33396912 32.43388367 C61.41019152 32.38003264 58.4865748 32.34596615 55.5625 32.3125 C53.57094128 32.27930466 51.57940371 32.24481296 49.58789062 32.20898438 C44.72524049 32.12189818 39.86330536 32.06161462 35 32 C35 21.44 35 10.88 35 0 C41.47452641 -0.09234665 47.94672393 -0.17182996 54.42138672 -0.21972656 C56.61905708 -0.23971418 58.81667514 -0.26691362 61.01416016 -0.30175781 C78.91041928 -0.5782107 93.79315889 0.43483512 107.6875 13.125 C117.43819394 23.63459229 122.37902374 37.79854297 123 52 C123.05994141 53.01707031 123.05994141 53.01707031 123.12109375 54.0546875 C123.60235306 69.5116043 119.51592115 83.7618626 110 96 C109.52304688 96.61488281 109.04609375 97.22976562 108.5546875 97.86328125 C101.08592566 106.32662695 89.9114338 110.43310726 79 112 C75.02457875 112.24386989 71.06760346 112.23492641 67.0859375 112.1953125 C66.11309814 112.19329834 65.14025879 112.19128418 64.13793945 112.18920898 C60.55024408 112.17885044 56.96261663 112.15092905 53.375 112.125 C45.33125 112.08375 37.2875 112.0425 29 112 C29 139.39 29 166.78 29 195 C28.01 195 27.02 195 26 195 C26 167.61 26 140.22 26 112 C24.35 112 22.7 112 21 112 C21 139.39 21 166.78 21 195 C19.68 195 18.36 195 17 195 C17 167.61 17 140.22 17 112 C15.35 112 13.7 112 12 112 C12 139.39 12 166.78 12 195 C10.68 195 9.36 195 8 195 C8 167.61 8 140.22 8 112 C6.35 112 4.7 112 3 112 C3 139.39 3 166.78 3 195 C2.01 195 1.02 195 0 195 C0 130.65 0 66.3 0 0 Z " fill="#11A7CF" transform="translate(0,0)"/>
</svg>
