<svg width="89" height="67" viewBox="0 0 89 67" fill="none" xmlns="http://www.w3.org/2000/svg">
<path d="M0 0H0.889436V27.622H3.02408V0H3.91352V27.622H6.04816V0H6.9376V27.622H9.07224V0H9.96168V27.622H24.1926C28.9067 27.622 32.0197 24.2767 32.0197 19.1156C32.0197 13.9544 28.9067 10.7047 24.1926 10.7047H12.0963V0H24.3705C34.9548 0 41.9814 7.64622 41.9814 19.4023C41.9814 31.1583 34.9548 38.3267 24.3705 38.3267H9.96168V66.9044H9.07224V38.3267H6.9376V66.9044H6.04816V38.3267H3.91352V66.9044H3.02408V38.3267H0.889436V66.9044H0V0Z" fill="#11A8CF"/>
<path d="M49.2741 38.3267H47.1394V67H46.25V0.0955763H47.1394V27.622H49.2741V0H50.1635V27.622H52.2982V0H53.1876V27.622H55.3222V0H56.2117V27.622H70.2648C74.9788 27.622 78.0918 24.2768 78.0918 19.1156C78.0918 13.9544 74.9788 10.7047 70.2648 10.7047H58.3463V0H70.4426C81.0269 0 88.0535 7.64622 88.0535 19.4023C88.0535 28.7689 83.3395 35.5549 75.7793 37.6576L88.0535 66.9044H76.8466L65.2839 38.3267H56.2117V66.9044H55.3222V38.3267H53.1876V66.9044H52.2982V38.3267H50.1635V66.9044H49.2741V38.3267Z" fill="#11A8CF"/>
</svg>
