<svg width="86" height="65" viewBox="0 0 86 65" fill="none" xmlns="http://www.w3.org/2000/svg">
<path d="M0 0H0.862886V26.7974H2.93381V0H3.7967V26.7974H5.86762V0H6.73051V26.7974H8.80143V0H9.66432V26.7974H23.4705C28.0438 26.7974 31.0639 23.5521 31.0639 18.5449C31.0639 13.5378 28.0438 10.3852 23.4705 10.3852H11.7352V0H23.6431C33.9114 0 40.7282 7.41798 40.7282 18.8231C40.7282 30.2283 33.9114 37.1826 23.6431 37.1826H9.66432V64.9073H8.80143V37.1826H6.73051V64.9073H5.86762V37.1826H3.7967V64.9073H2.93381V37.1826H0.862886V64.9073H0V0Z" fill="#11A8CF"/>
<path d="M47.8049 37.1826H45.734V65H44.8711V0.0927233H45.734V26.7974H47.8049V0H48.6678V26.7974H50.7387V0H51.6016V26.7974H53.6725V0H54.5354V26.7974H68.169C72.7423 26.7974 75.7624 23.5521 75.7624 18.5449C75.7624 13.5378 72.7423 10.3852 68.169 10.3852H56.6063V0H68.3416C78.6099 0 85.4267 7.41798 85.4267 18.8231C85.4267 27.9101 80.8534 34.4936 73.5189 36.5335L85.4267 64.9073H74.5543L63.3368 37.1826H54.5354V64.9073H53.6725V37.1826H51.6016V64.9073H50.7387V37.1826H48.6678V64.9073H47.8049V37.1826Z" fill="#11A8CF"/>
</svg>
