<svg width="92" height="67" viewBox="0 0 92 67" fill="none" xmlns="http://www.w3.org/2000/svg">
<path d="M0 12.1862H0.929281V20.1213H0V12.1862ZM25.834 29.1901C34.848 33.3466 43.6762 39.1091 43.6762 50.3506C43.6762 62.2533 33.64 66.4099 23.1391 66.4099C13.5675 66.4099 3.6242 63.0091 0.278784 58.6636L3.99591 49.1225C8.73524 53.279 16.4483 55.8296 22.8603 55.8296C28.6219 55.8296 33.2683 53.7514 33.2683 48.9336C33.2683 45.0605 30.2016 42.6988 25.834 40.5261V29.1901ZM3.34541 6.32925H4.27469V27.3008H3.34541V6.32925ZM6.69082 3.49525H7.62011V30.7016H6.69082V3.49525ZM9.85038 1.88933H10.7797V33.0632H9.85038V1.88933ZM13.1029 23.1443H14.0321V34.7636H13.1029V23.1443ZM13.2887 0.75572H14.218V12.0917H13.2887V0.75572ZM16.2624 25.0336H17.1917V36.2751H16.2624V25.0336ZM16.6341 0.18893H17.5634V10.9581H16.6341V0.18893ZM19.422 26.6395H20.3513V37.6921H19.422V26.6395ZM19.9795 0H20.9088V10.6747H19.9795V0ZM22.5815 28.151H23.5108V38.9201H22.5815V28.151ZM23.325 0.18893H24.2542V10.7692H23.325V0.18893ZM26.5774 0.56679H27.5067V11.2415H26.5774V0.56679ZM29.8299 1.22805H30.7592V12.0917H29.8299V1.22805ZM33.0824 2.17272H34.0117V13.2253H33.0824V2.17272ZM36.4278 3.40078H37.3571V14.8312H36.4278V3.40078ZM39.5874 5.10118H40.5167V17.1929H39.5874V5.10118ZM42.7469 7.8407H43.6762V10.5802H42.7469V7.8407Z" fill="#F26329"/>
<path d="M48.3242 0.377747H49.2535V55.924H51.4838V0.377747H52.4131V55.924H54.6433V0.377747H55.5726V55.924H57.8029V0.377747H58.7322V55.924H92.0004V66.5042H48.3242V0.377747Z" fill="#F26329"/>
</svg>
