<svg width="90" height="65" viewBox="0 0 90 65" fill="none" xmlns="http://www.w3.org/2000/svg">
<path d="M0 11.9105H0.908262V19.6662H0V11.9105ZM25.2497 28.5299C34.0598 32.5924 42.6883 38.2245 42.6883 49.2117C42.6883 60.8453 32.8791 64.9078 22.6157 64.9078C13.2606 64.9078 3.54222 61.5839 0.272479 57.3367L3.90553 48.0114C8.53766 52.074 16.0762 54.5669 22.3432 54.5669C27.9745 54.5669 32.5158 52.5356 32.5158 47.8268C32.5158 44.0413 29.5185 41.733 25.2497 39.6094V28.5299ZM3.26974 6.18609H4.17801V26.6833H3.26974V6.18609ZM6.53949 3.4162H7.44775V30.0072H6.53949V3.4162ZM9.62758 1.84659H10.5358V32.3154H9.62758V1.84659ZM12.8065 22.6208H13.7148V33.9773H12.8065V22.6208ZM12.9881 0.738626H13.8964V11.8182H12.9881V0.738626ZM15.8946 24.4674H16.8028V35.4546H15.8946V24.4674ZM16.2579 0.184657H17.1662V10.7102H16.2579V0.184657ZM18.9827 26.037H19.8909V36.8395H18.9827V26.037ZM19.5276 0H20.4359V10.4332H19.5276V0ZM22.0708 27.5142H22.979V38.0398H22.0708V27.5142ZM22.7974 0.184657H23.7056V10.5256H22.7974V0.184657ZM25.9763 0.55397H26.8846V10.9872H25.9763V0.55397ZM29.1552 1.20027H30.0635V11.8182H29.1552V1.20027ZM32.3341 2.12357H33.2424V12.9262H32.3341V2.12357ZM35.6039 3.32386H36.5121V14.4958H35.6039V3.32386ZM38.692 4.9858H39.6002V16.804H38.692V4.9858ZM41.7801 7.66335H42.6883V10.3409H41.7801V7.66335Z" fill="#F26329"/>
<path d="M47.2305 0.369202H48.1387V54.6591H50.3186V0.369202H51.2268V54.6591H53.4067V0.369202H54.3149V54.6591H56.4947V0.369202H57.403V54.6591H89.9188V65H47.2305V0.369202Z" fill="#F26329"/>
</svg>
