<?xml version="1.0" encoding="UTF-8"?>
<svg version="1.1" xmlns="http://www.w3.org/2000/svg" width="270" height="195">
<path d="M0 0 C1.32 0 2.64 0 4 0 C4 53.79 4 107.58 4 163 C5.98 163 7.96 163 10 163 C10 109.21 10 55.42 10 0 C10.99 0 11.98 0 13 0 C13 53.79 13 107.58 13 163 C14.98 163 16.96 163 19 163 C19 109.21 19 55.42 19 0 C19.99 0 20.98 0 22 0 C22 53.79 22 107.58 22 163 C23.98 163 25.96 163 28 163 C28 109.21 28 55.42 28 0 C29.32 0 30.64 0 32 0 C32 53.79 32 107.58 32 163 C64.01 163 96.02 163 129 163 C129 173.23 129 183.46 129 194 C86.43 194 43.86 194 0 194 C0 129.98 0 65.96 0 0 Z " fill="#F16329" transform="translate(141,1)"/>
<path d="M0 0 C12.39367843 3.93018787 24.43194597 11.24367619 34 20 C34.77601562 20.68449219 35.55203125 21.36898437 36.3515625 22.07421875 C47.38932648 32.35521296 52.97475523 45.09538874 54 60.046875 C54 73.68966353 50.91154434 84.84936227 41.421875 94.7421875 C26.14624219 108.98301938 6.1244489 110.71066707 -13.8359375 110.28125 C-32.22796254 109.60320299 -51.43428547 105.16427855 -67 95 C-67.74378906 94.52820313 -68.48757812 94.05640625 -69.25390625 93.5703125 C-72.94474385 90.89788606 -72.94474385 90.89788606 -74 89 C-73.91228658 81.90318664 -71.20032142 75.94799363 -68.4375 69.5 C-68.01275391 68.48679687 -67.58800781 67.47359375 -67.15039062 66.4296875 C-66.1090724 63.94924408 -65.05881459 61.47301316 -64 59 C-60.65407142 60.29342458 -57.95054054 61.62257212 -55.0625 63.75 C-37.99350042 75.27930779 -16.00733325 79.81766308 4.27734375 76.45703125 C10.66723065 74.71782895 16.44569462 71.79912984 20 66 C21.82511893 60.5246432 21.82717072 55.12287937 19.4375 49.8125 C16.6488147 44.90557987 12.76670836 41.0684486 7.45605469 39.01757812 C4.28197487 37.69106221 2.3395775 36.54725448 0 34 C-1.28472346 28.17731425 -0.94475611 22.54591792 -0.625 16.625 C-0.5748022 15.01446042 -0.52918117 13.40377127 -0.48828125 11.79296875 C-0.37842265 7.85827305 -0.20614866 3.93077927 0 0 Z " fill="#F26328" transform="translate(75,85)"/>
<path d="M0 0 C1.32 0 2.64 0 4 0 C4 30.36 4 60.72 4 92 C2.68 92 1.36 92 0 92 C0 61.64 0 31.28 0 0 Z " fill="#F16229" transform="translate(28,5)"/>
<path d="M0 0 C1.32 0 2.64 0 4 0 C4 26.4 4 52.8 4 80 C2.68 80 1.36 80 0 80 C0 53.6 0 27.2 0 0 Z " fill="#F2632A" transform="translate(19,10)"/>
<path d="M0 0 C1.32 0 2.64 0 4 0 C4 20.46 4 40.92 4 62 C2.68 62 1.36 62 0 62 C0 41.54 0 21.08 0 0 Z " fill="#F26329" transform="translate(9,18)"/>
<path d="M0 0 C1.32 0.33 2.64 0.66 4 1 C4 12.22 4 23.44 4 35 C2.68 35 1.36 35 0 35 C0 23.45 0 11.9 0 0 Z " fill="#F16428" transform="translate(38,67)"/>
<path d="M0 0 C1.32 0 2.64 0 4 0 C4 11.22 4 22.44 4 34 C2.68 34 1.36 34 0 34 C0 22.78 0 11.56 0 0 Z " fill="#F1632A" transform="translate(47,73)"/>
<path d="M0 0 C1.32 0 2.64 0 4 0 C4 11.22 4 22.44 4 34 C2.68 34 1.36 34 0 34 C0 22.78 0 11.56 0 0 Z " fill="#F26329" transform="translate(106,10)"/>
<path d="M0 0 C1.32 0 2.64 0 4 0 C4 10.89 4 21.78 4 33 C2.68 33 1.36 33 0 33 C0 22.11 0 11.22 0 0 Z " fill="#F16329" transform="translate(87,3)"/>
<path d="M0 0 C1.32 0 2.64 0 4 0 C4 10.89 4 21.78 4 33 C2.68 32.67 1.36 32.34 0 32 C0 21.44 0 10.88 0 0 Z " fill="#F26328" transform="translate(48,0)"/>
<path d="M0 0 C1.32 0 2.64 0 4 0 C4 10.56 4 21.12 4 32 C2.68 32 1.36 32 0 32 C0 21.44 0 10.88 0 0 Z " fill="#F16229" transform="translate(77,1)"/>
<path d="M0 0 C1.32 0 2.64 0 4 0 C4 10.56 4 21.12 4 32 C2.68 32 1.36 32 0 32 C0 21.44 0 10.88 0 0 Z " fill="#F16428" transform="translate(68,0)"/>
<path d="M0 0 C1.32 0 2.64 0 4 0 C4 10.56 4 21.12 4 32 C2.68 32 1.36 32 0 32 C0 21.44 0 10.88 0 0 Z " fill="#F2622A" transform="translate(58,0)"/>
<path d="M0 0 C0.99 0 1.98 0 3 0 C3 11.88 3 23.76 3 36 C2.01 36 1.02 36 0 36 C0 24.12 0 12.24 0 0 Z " fill="#F26229" transform="translate(116,15)"/>
<path d="M0 0 C0.99 0 1.98 0 3 0 C3 11.22 3 22.44 3 34 C2.01 34 1.02 34 0 34 C0 22.78 0 11.56 0 0 Z " fill="#F16329" transform="translate(39,2)"/>
<path d="M0 0 C0.99 0 1.98 0 3 0 C3 10.89 3 21.78 3 33 C2.01 33 1.02 33 0 33 C0 22.11 0 11.22 0 0 Z " fill="#F26328" transform="translate(66,82)"/>
<path d="M0 0 C0.99 0 1.98 0 3 0 C3 10.89 3 21.78 3 33 C2.01 33 1.02 33 0 33 C0 22.11 0 11.22 0 0 Z " fill="#F16329" transform="translate(57,78)"/>
<path d="M0 0 C0.99 0 1.98 0 3 0 C3 10.89 3 21.78 3 33 C2.01 33 1.02 33 0 33 C0 22.11 0 11.22 0 0 Z " fill="#F26329" transform="translate(97,6)"/>
<path d="M0 0 C0.99 0 1.98 0 3 0 C3 7.92 3 15.84 3 24 C2.01 24 1.02 24 0 24 C0 16.08 0 8.16 0 0 Z " fill="#F26329" transform="translate(0,35)"/>
<path d="M0 0 C1.32 0 2.64 0 4 0 C4 2.64 4 5.28 4 8 C2.68 8 1.36 8 0 8 C0 5.36 0 2.72 0 0 Z " fill="#F16428" transform="translate(125,23)"/>
</svg>
