<svg width="283" height="159" viewBox="0 0 283 159" fill="none" xmlns="http://www.w3.org/2000/svg">
<g clip-path="url(#clip0_2523_16251)">
<g clip-path="url(#clip1_2523_16251)">
<g clip-path="url(#clip2_2523_16251)">
<path d="M0 -0.234375H282.66V159.215H0V-0.234375Z" fill="url(#paint0_linear_2523_16251)"/>
<path d="M26.0923 25.0605H256.207C257.04 25.0605 257.729 25.7491 257.729 26.5826V132.399C257.729 133.232 257.04 133.921 256.207 133.921H26.0923C25.2588 133.921 24.5703 133.232 24.5703 132.399V26.5826C24.5703 25.7491 25.2588 25.0605 26.0923 25.0605Z" stroke="#040404" stroke-width="0.543577"/>
<path d="M24.5703 26.5826C24.5703 25.7491 25.2588 25.0605 26.0923 25.0605H256.207C257.04 25.0605 257.729 25.7491 257.729 26.5826V36.4394H24.5703V26.5826Z" fill="#205BC3" stroke="#040404" stroke-width="0.543577"/>
<path d="M34.9334 33.0329C36.0206 33.0329 36.8903 32.1632 36.8903 31.076C36.8903 29.9889 36.0206 29.1191 34.9334 29.1191C33.8463 29.1191 32.9766 29.9889 32.9766 31.076C32.9766 32.1632 33.8463 33.0329 34.9334 33.0329ZM42.4348 33.0329C43.522 33.0329 44.3917 32.1632 44.3917 31.076C44.3917 29.9889 43.522 29.1191 42.4348 29.1191C41.3476 29.1191 40.4779 29.9889 40.4779 31.076C40.4779 32.1632 41.3476 33.0329 42.4348 33.0329ZM50.1536 33.0329C51.2407 33.0329 52.1105 32.1632 52.1105 31.076C52.1105 29.9889 51.2407 29.1191 50.1536 29.1191C49.0664 29.1191 48.1967 29.9889 48.1967 31.076C48.1967 32.1632 49.0664 33.0329 50.1536 33.0329Z" fill="white" stroke="#040404" stroke-width="0.543577" stroke-miterlimit="10"/>
<path d="M249.829 43.6143H205.002C204.603 43.6143 204.277 43.9404 204.277 44.339V80.0339C204.277 80.4325 204.603 80.7587 205.002 80.7587H249.829C250.228 80.7587 250.554 80.4325 250.554 80.0339V44.339C250.554 43.9404 250.228 43.6143 249.829 43.6143Z" fill="#C7DBF9" stroke="#040404" stroke-width="0.543577" stroke-miterlimit="10"/>
<path d="M222.031 57.1309H217.32V74.779H222.031V57.1309Z" fill="#205BC3" stroke="#040404" stroke-width="0.543577" stroke-miterlimit="10" stroke-linejoin="round"/>
<path d="M214.461 66.5889H209.75V74.7788H214.461V66.5889Z" fill="white" stroke="#040404" stroke-width="0.543577" stroke-miterlimit="10"/>
<path d="M229.606 60.1748H224.895V74.7789H229.606V60.1748Z" fill="#205BC3" stroke="#040404" stroke-width="0.543577" stroke-miterlimit="10" stroke-linejoin="round"/>
<path d="M237.18 53.3258H232.469V74.7789H237.18V53.3258ZM244.717 49.4482H240.006V74.7789H244.717V49.4482Z" fill="#0C3F89" stroke="#040404" stroke-width="0.543577" stroke-miterlimit="10"/>
<path d="M249.972 85.2881H177.205C176.807 85.2881 176.48 85.6142 176.48 86.0129V125.513C176.48 125.911 176.807 126.238 177.205 126.238H249.972C250.371 126.238 250.697 125.911 250.697 125.513V86.0129C250.697 85.6142 250.371 85.2881 249.972 85.2881Z" stroke="#040404" stroke-width="0.543577" stroke-miterlimit="10"/>
<path d="M183.078 118.229L198.371 110.076L213.663 114.134L228.92 101.922L244.212 110.076" stroke="#040404" stroke-width="0.543577" stroke-linecap="round" stroke-linejoin="round"/>
<path d="M183.078 101.922L198.371 93.7324L213.663 105.981L228.92 110.076L244.212 97.8274" stroke="#040404" stroke-width="0.543577" stroke-linecap="round" stroke-linejoin="round"/>
<path d="M184.201 119.389C185.216 119.389 186.049 118.555 186.049 117.541C186.049 116.526 185.216 115.693 184.201 115.693C183.186 115.693 182.353 116.526 182.353 117.541C182.316 118.555 183.15 119.389 184.201 119.389ZM198.515 111.96C199.53 111.96 200.363 111.127 200.363 110.112C200.363 109.097 199.53 108.264 198.515 108.264C197.5 108.264 196.667 109.097 196.667 110.112C196.667 111.127 197.5 111.96 198.515 111.96ZM213.59 115.33C214.605 115.33 215.438 114.497 215.438 113.482C215.438 112.467 214.605 111.634 213.59 111.634C212.576 111.634 211.742 112.467 211.742 113.482C211.706 114.497 212.539 115.33 213.59 115.33Z" fill="#0C3F89" stroke="#040404" stroke-width="0.543577" stroke-miterlimit="10"/>
<path d="M228.844 103.697C229.859 103.697 230.692 102.864 230.692 101.849C230.692 100.834 229.859 100.001 228.844 100.001C227.83 100.001 226.996 100.834 226.996 101.849C226.996 102.864 227.83 103.697 228.844 103.697Z" fill="white" stroke="#040404" stroke-width="0.543577" stroke-linecap="round" stroke-linejoin="round"/>
<path d="M243.704 111.488C244.718 111.488 245.552 110.655 245.552 109.64C245.552 108.625 244.718 107.792 243.704 107.792C242.689 107.792 241.855 108.625 241.855 109.64C241.855 110.655 242.689 111.488 243.704 111.488Z" fill="#0C3F89" stroke="#040404" stroke-width="0.543577" stroke-miterlimit="10"/>
<path d="M184.201 103.081C185.216 103.081 186.049 102.248 186.049 101.233C186.049 100.219 185.216 99.385 184.201 99.385C183.186 99.385 182.353 100.219 182.353 101.233C182.316 102.248 183.15 103.081 184.201 103.081ZM198.515 95.6162C199.53 95.6162 200.363 94.7828 200.363 93.7681C200.363 92.7534 199.53 91.9199 198.515 91.9199C197.5 91.9199 196.667 92.7534 196.667 93.7681C196.667 94.7828 197.5 95.6162 198.515 95.6162ZM213.59 107.176C214.605 107.176 215.438 106.343 215.438 105.328C215.438 104.313 214.605 103.48 213.59 103.48C212.576 103.48 211.742 104.313 211.742 105.328C211.706 106.343 212.539 107.176 213.59 107.176Z" fill="white" stroke="#040404" stroke-width="0.543577" stroke-miterlimit="10"/>
<path d="M228.844 111.488C229.859 111.488 230.692 110.655 230.692 109.64C230.692 108.625 229.859 107.792 228.844 107.792C227.83 107.792 226.996 108.625 226.996 109.64C226.996 110.655 227.83 111.488 228.844 111.488Z" fill="#0C3F89" stroke="#040404" stroke-width="0.543577" stroke-miterlimit="10"/>
<path d="M243.704 99.9649C244.718 99.9649 245.552 99.1314 245.552 98.1167C245.552 97.102 244.718 96.2686 243.704 96.2686C242.689 96.2686 241.855 97.102 241.855 98.1167C241.855 99.1314 242.689 99.9649 243.704 99.9649Z" fill="white" stroke="#040404" stroke-width="0.543577" stroke-miterlimit="10"/>
<path d="M171.009 85.2881H95.3068C94.9082 85.2881 94.582 85.6142 94.582 86.0129V125.513C94.582 125.911 94.9082 126.238 95.3068 126.238H171.009C171.408 126.238 171.734 125.911 171.734 125.513V86.0129C171.734 85.6142 171.408 85.2881 171.009 85.2881Z" fill="#A1C2F8" stroke="#040404" stroke-width="0.543577" stroke-miterlimit="10"/>
<path d="M152.816 114.569C152.853 113.736 153.179 112.902 153.831 112.25C153.867 112.214 153.903 112.214 153.903 112.177C154.592 111.525 155.462 111.235 156.295 111.235V107.611C154.483 107.611 152.708 108.264 151.331 109.604C151.294 109.641 151.258 109.641 151.258 109.677C149.917 111.018 149.192 112.793 149.156 114.569H152.816Z" fill="#205BC3" stroke="#040404" stroke-width="0.543577" stroke-miterlimit="10"/>
<path d="M158.724 112.177L161.297 109.605C159.92 108.264 158.144 107.575 156.332 107.575V111.199C157.202 111.235 158.071 111.561 158.724 112.177Z" fill="white" stroke="#040404" stroke-width="0.543577" stroke-linecap="round" stroke-linejoin="round"/>
<path d="M156.332 121.853C158.144 121.853 159.956 121.165 161.369 119.751C161.405 119.715 161.405 119.679 161.441 119.679L158.868 117.106C158.832 117.142 158.832 117.179 158.796 117.179C158.107 117.867 157.238 118.193 156.332 118.193C155.426 118.193 154.52 117.867 153.831 117.179L153.759 117.106C153.07 116.381 152.78 115.475 152.817 114.569H149.193C149.157 116.417 149.845 118.266 151.222 119.679L151.295 119.751C152.672 121.165 154.52 121.853 156.332 121.853Z" fill="#C7DBF9" stroke="#040404" stroke-width="0.543577" stroke-linecap="round" stroke-linejoin="round"/>
<path d="M163.435 114.569C163.399 112.793 162.71 111.018 161.333 109.677L161.26 109.604L158.688 112.177L158.76 112.25C159.412 112.902 159.738 113.736 159.775 114.569C159.811 115.475 159.485 116.381 158.832 117.106L161.405 119.679C162.819 118.265 163.471 116.417 163.435 114.569Z" fill="#A1C2F8" stroke="#040404" stroke-width="0.543577" stroke-miterlimit="10"/>
<path d="M152.71 96.6677C152.746 95.8343 153.072 94.9645 153.724 94.3485L153.797 94.276C154.485 93.6237 155.355 93.3338 156.189 93.3338V89.71C154.413 89.71 152.601 90.3623 151.224 91.7031L151.152 91.7756C149.811 93.1164 149.086 94.8921 149.086 96.6677H152.71Z" fill="#205BC3" stroke="#040404" stroke-width="0.543577" stroke-miterlimit="10"/>
<path d="M156.189 103.951C158.001 103.951 159.813 103.262 161.19 101.885L161.263 101.813L158.69 99.2398L158.617 99.3123C157.929 100.001 157.059 100.327 156.153 100.327C155.247 100.327 154.341 100.001 153.653 99.3123L153.58 99.2398C152.892 98.515 152.566 97.6091 152.602 96.7031H148.978C148.942 98.5513 149.63 100.399 151.007 101.813L151.08 101.885C152.566 103.262 154.377 103.951 156.189 103.951Z" fill="#C7DBF9" stroke="#040404" stroke-width="0.543577" stroke-miterlimit="10"/>
<path d="M163.325 96.6677C163.289 94.8921 162.601 93.1164 161.26 91.7756L161.187 91.7031C161.187 91.7031 161.006 91.5219 160.897 91.4494C159.557 90.2898 157.89 89.71 156.223 89.71V93.3338C156.984 93.3338 157.708 93.5875 158.324 94.0586L158.361 94.0948C158.397 94.1311 158.433 94.1311 158.469 94.2035L158.506 94.2398L158.614 94.3485L158.687 94.421C159.339 95.0733 159.665 95.9067 159.702 96.7402C159.738 97.6462 159.412 98.5521 158.759 99.2769L161.332 101.85C162.673 100.364 163.362 98.5159 163.325 96.6677Z" fill="white" stroke="#040404" stroke-width="0.543577" stroke-miterlimit="10"/>
<path d="M138.034 108.372C139.483 99.5303 133.468 91.1592 124.589 89.7097C115.747 88.2601 107.376 94.2757 105.926 103.154C104.477 111.996 110.492 120.367 119.371 121.817C128.249 123.23 136.62 117.215 138.034 108.372Z" fill="#205BC3" stroke="#040404" stroke-width="0.543577" stroke-miterlimit="10" stroke-linejoin="round"/>
<path d="M135.678 114.569C137.272 112.032 138.25 109.025 138.25 105.799C138.25 96.8484 130.967 89.5645 122.016 89.5645V105.872L135.678 114.569Z" fill="white" stroke="#040404" stroke-width="0.543577" stroke-miterlimit="10" stroke-linejoin="round"/>
<path d="M138.034 108.372C139.483 99.5303 133.468 91.1592 124.589 89.7097C115.747 88.2601 107.376 94.2757 105.926 103.154C104.477 111.996 110.492 120.367 119.371 121.817C128.249 123.23 136.62 117.215 138.034 108.372Z" stroke="#040404" stroke-width="0.543577" stroke-linecap="round" stroke-linejoin="round"/>
<path d="M122.016 89.5283V105.836L135.605 114.533" stroke="#040404" stroke-width="0.543577" stroke-linecap="round" stroke-linejoin="round"/>
<path d="M89.1474 43.7955L32.6154 43.6143C32.2168 43.6143 31.8906 43.9404 31.8906 44.339V125.151C31.8906 125.549 32.2168 125.876 32.6154 125.876L89.1474 126.057C89.546 126.057 89.8722 125.731 89.8722 125.332V44.5202C89.8722 44.1216 89.546 43.7955 89.1474 43.7955Z" stroke="#040404" stroke-width="0.543577" stroke-miterlimit="10"/>
<path d="M77.7662 107.575H43.9557C40.8755 107.575 38.375 105.075 38.375 101.995V68.1842C38.375 65.104 40.8755 62.6035 43.9557 62.6035H77.7662C80.8465 62.6035 83.3469 65.104 83.3469 68.1842V101.995C83.3469 105.075 80.8465 107.575 77.7662 107.575Z" fill="#2C80CC"/>
<path opacity="0.5" d="M94.6914 46.4766H199.674M94.6914 53.3256H199.674M94.6914 60.1385H199.674M94.6914 67.0238H199.674M94.6914 73.8366H199.674" stroke="#040404" stroke-width="0.362385" stroke-miterlimit="10"/>
<path d="M94.9453 79.853C98.0256 76.4828 100.635 73.1489 103.751 69.7787C104.259 69.1989 104.838 68.6191 105.708 68.2929C107.846 67.4957 110.419 68.6553 112.05 69.8874C113.681 71.1195 115.71 72.4603 118.102 72.2067C119.443 72.0617 120.53 71.4094 121.508 70.7934C124.77 68.6915 127.922 66.4085 130.894 64.1255C131.909 63.3282 132.959 62.4948 134.409 62.1324C139.301 60.7553 144.193 64.7778 149.557 64.6691C154.92 64.5603 158 60.5016 163.074 59.342C167.893 58.2186 173.039 60.0305 177.931 60.9727C179.635 61.2989 181.447 61.5526 183.15 61.2989C184.527 61.0815 185.686 60.5016 186.81 59.9943C190.905 58.1099 195.072 56.1893 199.203 54.2324C199.421 54.1237 199.602 54.3411 199.602 54.6672L199.566 80.3966L94.9453 79.853Z" fill="#205BC3" stroke="#040404" stroke-width="0.543577" stroke-miterlimit="10" stroke-linecap="round" stroke-linejoin="round"/>
<path d="M94.9453 80.0337C98.5329 78.0769 100.562 76.6273 104.331 76.4461C108.462 76.1925 112.63 77.2434 116.761 76.8085C122.632 76.2649 127.415 72.9672 133.322 72.9672C136.692 72.9672 139.809 73.9819 143.106 74.4892C149.339 75.3952 155.862 74.2356 161.697 72.6411C167.603 71.0466 173.22 68.9448 179.381 68.0026C180.504 67.8576 181.628 67.6764 182.787 67.7489C183.802 67.7851 184.78 68.0026 185.759 68.1838C190.252 68.8723 195.036 68.1838 199.53 67.459L199.566 80.3961" fill="white"/>
<path d="M94.9453 80.0337C98.5329 78.0769 100.562 76.6273 104.331 76.4461C108.462 76.1925 112.63 77.2434 116.761 76.8085C122.632 76.2649 127.415 72.9672 133.322 72.9672C136.692 72.9672 139.809 73.9819 143.106 74.4892C149.339 75.3952 155.862 74.2356 161.697 72.6411C167.603 71.0466 173.22 68.9448 179.381 68.0026C180.504 67.8576 181.628 67.6764 182.787 67.7489C183.802 67.7851 184.78 68.0026 185.759 68.1838C190.252 68.8723 195.036 68.1838 199.53 67.459L199.566 80.3961" stroke="#040404" stroke-width="0.543577" stroke-miterlimit="10"/>
<path d="M94.582 43.6143V79.5266C94.582 79.9252 94.9082 80.2513 95.3068 80.2513H199.529" stroke="#040404" stroke-width="0.543577" stroke-miterlimit="10" stroke-linecap="round" stroke-linejoin="round"/>
</g>
</g>
</g>
<defs>
<linearGradient id="paint0_linear_2523_16251" x1="77.3427" y1="136.352" x2="409.287" y2="-158.629" gradientUnits="userSpaceOnUse">
<stop stop-color="#C7DBF9"/>
<stop offset="1" stop-color="white"/>
</linearGradient>
<clipPath id="clip0_2523_16251">
<rect width="282.66" height="158.98" rx="8" fill="white"/>
</clipPath>
<clipPath id="clip1_2523_16251">
<rect width="282.66" height="158.98" fill="white"/>
</clipPath>
<clipPath id="clip2_2523_16251">
<rect width="282.66" height="159.449" fill="white" transform="translate(0 -0.234375)"/>
</clipPath>
</defs>
</svg>
