<svg width="30" height="30" viewBox="0 0 30 30" fill="none" xmlns="http://www.w3.org/2000/svg">
<path d="M24.8984 19.998H5.10547C3.66992 19.998 2.50391 18.832 2.50391 17.3965V7.59961C2.50391 6.16406 3.66992 4.99805 5.10547 4.99805H24.9043C26.3398 4.99805 27.5059 6.16406 27.5059 7.59961V17.3965C27.5 18.832 26.334 19.998 24.8984 19.998ZM5.10547 7.5C5.04687 7.5 5.00586 7.54687 5.00586 7.59961V17.3965C5.00586 17.4551 5.05273 17.4961 5.10547 17.4961H24.9043C24.9629 17.4961 25.0039 17.4492 25.0039 17.3965V7.59961C25.0039 7.54102 24.957 7.5 24.9043 7.5H5.10547Z" fill="white"/>
<path d="M18.7537 25.002H11.2537C10.7498 25.002 10.2928 24.6973 10.0994 24.2285C9.90603 23.7598 10.0115 23.2266 10.3689 22.8691L11.617 21.6211C11.8513 21.3867 12.1678 21.2578 12.5017 21.2578H17.4998C17.8338 21.2578 18.1502 21.3867 18.3846 21.6211L19.6326 22.8691C19.99 23.2266 20.0955 23.7656 19.9021 24.2285C19.7146 24.6973 19.2576 25.002 18.7537 25.002Z" fill="white"/>
</svg>
