<svg width="24" height="24" viewBox="0 0 24 24" fill="none" xmlns="http://www.w3.org/2000/svg">
<path d="M19.9156 15.9985H4.08125C2.93281 15.9985 2 15.0657 2 13.9173V6.07978C2 4.93135 2.93281 3.99854 4.08125 3.99854H19.9203C21.0687 3.99854 22.0016 4.93135 22.0016 6.07978V13.9173C21.9969 15.0657 21.0641 15.9985 19.9156 15.9985ZM4.08125 6.0001C4.03437 6.0001 4.00156 6.0376 4.00156 6.07978V13.9173C4.00156 13.9642 4.03906 13.997 4.08125 13.997H19.9203C19.9672 13.997 20 13.9595 20 13.9173V6.07978C20 6.03291 19.9625 6.0001 19.9203 6.0001H4.08125Z" fill="black"/>
<path d="M14.9998 20.0017H8.99983C8.5967 20.0017 8.23108 19.7579 8.07639 19.3829C7.9217 19.0079 8.00608 18.5813 8.29201 18.2954L9.29045 17.297C9.47795 17.1095 9.73108 17.0063 9.99826 17.0063H13.9967C14.2639 17.0063 14.517 17.1095 14.7045 17.297L15.703 18.2954C15.9889 18.5813 16.0733 19.0126 15.9186 19.3829C15.7686 19.7579 15.403 20.0017 14.9998 20.0017Z" fill="black"/>
</svg>
