<svg width="40" height="31" viewBox="0 0 40 31" fill="none" xmlns="http://www.w3.org/2000/svg">
<g clip-path="url(#clip0_1746_36412)">
<g clip-path="url(#clip1_1746_36412)">
<g clip-path="url(#clip2_1746_36412)">
<path d="M0.134248 6.781C0.134248 4.936 0.859248 3.368 2.30925 2.076C3.75925 0.692 5.46825 0 7.43725 0C8.26525 0 9.14625 0.184 10.0782 0.554L9.92325 0.415L10.8552 0.83H11.0112C11.3212 1.015 11.6842 1.245 12.0982 1.522C12.0982 1.615 12.2542 1.799 12.5652 2.076C15.1542 4.382 16.2422 7.842 15.8282 12.455C15.4142 19.099 11.4772 25.095 4.01825 30.446C3.60325 30.816 3.13725 31 2.62025 31C1.79025 31 1.11725 30.677 0.599248 30.031C-0.332752 28.924 -0.177752 27.91 1.06525 26.986C7.17825 22.558 10.4932 17.76 11.0112 12.594C9.87125 13.24 8.68025 13.563 7.43725 13.563C5.46825 13.563 3.75925 12.917 2.30925 11.625C0.859248 10.241 0.134248 8.627 0.134248 6.781ZM24.2192 6.781C24.2192 4.936 24.9452 3.368 26.3952 2.076C27.8452 0.692 29.5542 0 31.5232 0C32.3522 0 33.2323 0.184 34.1652 0.554L34.0092 0.415C34.3202 0.507 34.6312 0.646 34.9412 0.83H35.0972C35.5112 1.015 35.8742 1.245 36.1842 1.522C36.1842 1.615 36.3412 1.799 36.6512 2.076C39.2412 4.382 40.3282 7.842 39.9152 12.455C39.5002 19.099 35.5632 25.095 28.1042 30.446C27.6902 30.816 27.2232 31 26.7062 31C25.8772 31 25.2552 30.677 24.8412 30.031C23.8052 28.924 23.9092 27.91 25.1522 26.986C31.2642 22.558 34.5792 17.76 35.0972 12.594C33.9582 13.24 32.7663 13.563 31.5232 13.563C29.5542 13.563 27.8452 12.917 26.3952 11.625C24.9452 10.241 24.2192 8.627 24.2192 6.781Z" fill="#11A8CF"/>
</g>
</g>
</g>
<defs>
<clipPath id="clip0_1746_36412">
<rect width="40" height="31" fill="white"/>
</clipPath>
<clipPath id="clip1_1746_36412">
<rect width="40" height="31" fill="white"/>
</clipPath>
<clipPath id="clip2_1746_36412">
<rect width="40" height="31" fill="white"/>
</clipPath>
</defs>
</svg>
