<svg width="61" height="73" viewBox="0 0 61 73" fill="none" xmlns="http://www.w3.org/2000/svg">
<path d="M35.8041 14.4254C35.7622 13.1055 35.4227 14.5513 35.6134 14.9404C35.6201 14.9522 35.6291 14.9625 35.6399 14.9709C35.6506 14.9792 35.6629 14.9853 35.676 14.9888C35.6891 14.9924 35.7028 14.9933 35.7163 14.9915C35.7298 14.9898 35.7428 14.9853 35.7545 14.9785C35.7699 14.9688 35.783 14.9558 35.7927 14.9404C35.8251 14.7702 35.8251 14.5955 35.7927 14.4254H35.8041ZM32.1955 19.7964C31.9399 19.7964 29.1857 19.6553 29.201 19.8651C29.0293 19.8155 29.201 21.0476 29.201 21.1926C29.201 21.3376 29.4947 21.3147 29.5824 21.3223C30.3454 21.3795 32.4587 21.3643 32.6342 21.3643C32.8096 21.3643 32.7066 19.9147 32.7028 19.9109C32.699 19.7507 32.287 19.8002 32.1955 19.7964ZM32.5273 21.1812C31.875 21.1812 30.0135 21.1354 29.3955 21.1812C29.3497 20.7615 29.304 20.3419 29.262 19.9223L32.5388 19.9872C32.5121 20.3839 32.5273 20.7844 32.5273 21.1812ZM27.4043 21.6923C27.4189 21.6907 27.4325 21.6841 27.4429 21.6737C27.4533 21.6633 27.4598 21.6497 27.4615 21.6351V20.6624C27.4615 20.5174 27.2288 20.4907 27.2364 20.6395C27.2364 20.9752 27.2784 21.307 27.3051 21.6389C27.3054 21.6503 27.3087 21.6615 27.3146 21.6713C27.3206 21.681 27.3291 21.689 27.3392 21.6944C27.3492 21.6998 27.3606 21.7025 27.372 21.7021C27.3834 21.7018 27.3946 21.6984 27.4043 21.6923ZM35.6592 19.3768C35.6443 19.3789 35.6305 19.3855 35.6196 19.3957C35.6086 19.406 35.6012 19.4194 35.5981 19.434C35.5981 19.5943 35.4951 20.5098 35.6859 20.5288C35.9224 20.5288 35.7622 19.64 35.7393 19.4264C35.7348 19.4095 35.724 19.3949 35.7091 19.3857C35.6942 19.3765 35.6763 19.3733 35.6592 19.3768ZM35.7622 21.4978C35.724 21.2346 35.5905 21.2536 35.5753 21.6122V22.0395C35.5753 22.3141 35.9033 22.5315 35.7622 21.4978ZM35.6782 23.2106C35.4723 23.2296 35.6325 24.1795 35.6592 24.3549C35.6592 24.4198 35.7774 24.4351 35.7812 24.3549C35.7812 24.0116 35.7812 23.6683 35.8041 23.325C35.8048 23.3088 35.802 23.2926 35.7957 23.2776C35.7895 23.2626 35.78 23.2492 35.768 23.2382C35.756 23.2273 35.7417 23.2192 35.7262 23.2144C35.7107 23.2096 35.6943 23.2083 35.6782 23.2106ZM35.7812 15.7949C35.7812 15.7148 35.6401 15.7262 35.6248 15.7949C35.6096 15.8635 35.4951 17.0918 35.7622 16.7867C35.8195 16.4573 35.8195 16.1204 35.7622 15.791L35.7812 15.7949ZM35.5714 17.8395V18.6024C35.5714 18.755 35.8118 18.7321 35.8041 18.6024C35.8041 18.3507 35.8041 18.0989 35.766 17.8395C35.7431 17.4352 35.5791 17.4123 35.5714 17.8395ZM35.6248 25.2934C35.5675 25.624 35.5675 25.9621 35.6248 26.2928C35.6248 26.3767 35.766 26.3615 35.7812 26.2928C35.7965 26.2241 35.8919 24.9882 35.6248 25.2934ZM45.8405 14.7535C46.0571 14.7888 46.2564 14.8932 46.4089 15.051C46.4928 15.1387 46.5996 14.9862 46.2868 14.7344C45.768 14.3262 45.5506 14.7001 45.8405 14.7535ZM45.562 16.2297C45.9015 16.1344 45.6192 15.4287 45.5162 15.9741C45.5048 16.0199 45.4705 16.2564 45.562 16.2297ZM45.8214 18.6291C46.9658 18.652 46.6263 16.8744 46.4089 17.2559C45.9053 18.1142 45.0509 17.9311 44.9898 18.0188C44.9288 18.1065 45.2836 18.6215 45.8214 18.6291ZM46.4661 17.4542C46.7217 18.5071 45.5887 18.8313 45.1386 18.1142C45.3977 18.1261 45.6556 18.0717 45.8879 17.9563C46.1202 17.8408 46.3192 17.668 46.4661 17.4542ZM35.7355 13.1513C35.7504 13.1443 35.7635 13.1339 35.7736 13.1208C35.8366 12.788 35.8366 12.4465 35.7736 12.1137C35.7736 12.0527 35.663 12.0336 35.6439 12.1137C35.5843 12.4461 35.5753 12.7857 35.6172 13.1208C35.6297 13.1395 35.6487 13.153 35.6705 13.1586C35.6923 13.1643 35.7155 13.1617 35.7355 13.1513ZM44.1201 17.1262C44.1964 17.4695 45.0966 17.0957 44.307 17.0575C44.3566 16.5645 44.4603 16.0784 44.616 15.6079C44.677 15.4019 44.3451 15.4935 44.1506 16.863C44.1252 16.9482 44.1148 17.0373 44.1201 17.1262ZM27.2479 22.6422C27.2559 22.9794 27.2852 23.3157 27.3356 23.6492C27.3356 23.6654 27.342 23.6809 27.3535 23.6924C27.3649 23.7038 27.3804 23.7103 27.3966 23.7103C27.4128 23.7103 27.4283 23.7038 27.4398 23.6924C27.4512 23.6809 27.4577 23.6654 27.4577 23.6492C27.5874 21.9517 27.2479 22.6193 27.2479 22.6422ZM43.5898 15.5088C43.4525 15.6919 43.4792 16.0237 43.6318 15.8902C43.7844 15.7567 43.6852 15.3791 43.5898 15.5088ZM27.2707 26.6247C27.0838 27.0367 27.5034 28.532 27.4844 26.8879C27.4805 26.6247 27.3585 26.4378 27.2707 26.6247ZM27.2784 25.5985C27.2784 25.6786 27.4233 25.6672 27.4386 25.5985C27.4538 25.5299 27.5645 24.3015 27.3013 24.6029C27.2363 24.9323 27.2286 25.2704 27.2784 25.6023V25.5985Z" fill="black"/>
<path d="M42.202 12.7736C42.4509 12.9992 42.7326 13.1857 43.0374 13.3267C42.5568 14.9174 41.5345 20.0252 44.2391 20.3304C44.2391 20.5745 44.2162 20.8187 44.2047 21.0666C43.3693 21.3252 42.5667 21.6798 41.8129 22.1233C41.504 22.6268 41.195 23.1342 40.905 23.6492C40.5231 24.3597 40.1805 25.0906 39.8789 25.8388C40.4152 26.0349 40.9153 26.3185 41.359 26.678C41.8168 27.0213 41.0004 27.5439 40.6724 27.9597C41.601 29.6633 42.8152 31.1949 44.2619 32.4877C44.3497 31.9613 44.4527 31.5112 44.4946 31.3433C43.6173 29.8175 42.4729 24.0955 42.6064 21.9593C42.8353 21.8448 43.0641 21.7418 43.293 21.6465C43.293 22.0813 43.7088 23.1304 44.1513 23.2372C44.2009 23.3898 44.3993 23.0846 44.5328 22.9511C44.6053 23.2143 44.7044 23.4851 44.7502 23.6835C45.0672 23.6156 45.3971 23.6408 45.7001 23.756C45.8603 23.5347 46.1311 23.2181 46.2646 23.0693C46.3295 23.1571 46.4363 23.344 46.5507 23.3249C47.4624 23.1533 48.8395 22.2835 49.3087 21.4367C49.591 21.5091 49.8657 21.5892 50.1403 21.6808C47.6494 24.4121 45.1813 29.0774 44.5404 32.6441C46.1883 31.454 48.9006 29.4703 50.1861 28.2458C49.1905 26.6933 48.3589 26.8077 50.3578 26.4148C50.7392 26.3423 51.1016 26.2698 51.4755 26.2164C51.3763 24.7262 51.2084 23.2435 50.9719 21.7685C50.1201 21.4026 49.2213 21.1573 48.3017 21.0399C48.2788 20.4487 48.3017 19.8536 48.3017 19.2623C48.3017 19.2623 51.0215 16.016 50.7011 13.8684C50.5752 13.0101 49.9038 12.9452 49.2057 13.1703C49.7436 12.6553 50.3883 12.7354 50.3501 12.4074C50.2929 11.9229 49.0684 12.2128 48.6717 12.9223C47.5464 10.5992 44.857 9.93929 46.3371 11.6864C45.3644 11.0455 44.2772 10.4848 43.0794 10.4848C41.2903 10.4581 41.0767 11.7512 42.202 12.7736ZM44.2085 23.0731C43.9801 22.8905 43.7903 22.6642 43.6501 22.4075C43.51 22.1508 43.4223 21.8687 43.3922 21.5778C43.6707 21.4634 43.9491 21.3604 44.2352 21.265C44.564 21.5622 44.9078 21.8423 45.2652 22.1042C44.8476 22.3526 44.4874 22.6867 44.2085 23.0846V23.0731ZM48.3093 21.1963C48.584 21.2536 48.8548 21.3108 49.1256 21.3794C48.4576 22.1961 47.5791 22.8147 46.5851 23.1685C46.2999 22.7891 45.9723 22.4435 45.6085 22.1386C46.5682 22.0391 47.4922 21.7207 48.3093 21.2078V21.1963ZM43.1671 13.3839C44.0216 13.7425 46.6537 14.124 47.6036 14.0858C47.0466 15.4972 47.6913 16.8743 48.088 16.222C48.1987 16.0351 48.3894 15.7414 48.6984 15.9855C48.8777 16.1305 48.9463 16.4814 48.6335 17.0384C48.303 17.5869 48.1337 18.2176 48.1453 18.858C48.0951 19.6007 48.0849 20.3457 48.1147 21.0895C47.2972 21.5482 46.4047 21.8582 45.4788 22.005L44.3344 21.1582C44.3726 20.6737 44.5061 20.1282 44.3344 20.1282C44.1167 20.1153 43.9043 20.0558 43.7115 19.9538C43.5186 19.8518 43.3499 19.7097 43.2167 19.537C42.1524 18.2591 42.7819 14.8945 43.1671 13.3839Z" fill="black"/>
<path d="M43.3969 14.9718C43.4888 14.8999 43.5944 14.8476 43.7072 14.8181C43.82 14.7886 43.9377 14.7824 44.053 14.8001C44.0695 14.7981 44.0849 14.7908 44.0968 14.7793C44.1087 14.7678 44.1166 14.7527 44.1192 14.7363C44.1218 14.7199 44.1189 14.7031 44.1111 14.6885C44.1033 14.6738 44.091 14.6622 44.0759 14.6552C43.3893 14.495 43.1718 15.1587 43.3969 14.9718ZM44.7664 23.8828C44.4612 25.3883 44.1573 26.8964 43.8547 28.407C44.0299 29.2422 44.2854 30.0585 44.6176 30.8446C44.9182 29.937 45.2658 29.0457 45.659 28.1743C45.5674 27.1138 45.514 24.5237 45.556 24.0392C45.3204 23.8932 45.0398 23.8376 44.7664 23.8828ZM17.1559 14.4225C17.4763 14.3805 16.9156 12.5152 17.0147 14.1402C17.0262 14.2394 17.0147 14.4416 17.1559 14.4225ZM17.0185 30.2037C17.0185 30.3182 16.988 30.7073 17.1711 30.6844C17.4916 30.6424 16.9575 28.922 17.0185 30.2037ZM17.2131 18.6911C17.2095 18.6761 17.2009 18.6628 17.1888 18.6532C17.1767 18.6437 17.1618 18.6385 17.1463 18.6385C17.1309 18.6385 17.116 18.6437 17.1038 18.6532C17.0917 18.6628 17.0832 18.6761 17.0796 18.6911C17.0192 19.0222 17.0115 19.3608 17.0567 19.6943C17.0674 19.716 17.0862 19.7326 17.1091 19.7405C17.1319 19.7484 17.157 19.7468 17.1788 19.7363C17.1931 19.7283 17.206 19.718 17.2169 19.7058C17.2777 19.3702 17.2764 19.0262 17.2131 18.6911ZM17.03 32.4238C17.0529 32.5802 17.2703 32.5688 17.2627 32.2865C17.2284 31.3939 17.0262 31.3786 17.0224 31.8211C17.0071 32.0217 17.0071 32.2232 17.0224 32.4238H17.03ZM17.0185 21.0142C17.0026 21.1805 17.0155 21.3482 17.0567 21.5101C17.0717 21.5335 17.0949 21.5504 17.1217 21.5575C17.1486 21.5645 17.1771 21.5613 17.2017 21.5483L17.2398 21.5101C17.2398 21.472 17.2398 20.2703 17.0681 20.5183C16.9804 20.6366 17.0185 20.8731 17.0185 21.0142ZM17.1864 26.0152C17.185 26.0061 17.1818 25.9974 17.177 25.9896C17.1722 25.9818 17.1659 25.975 17.1584 25.9697C17.151 25.9644 17.1425 25.9606 17.1335 25.9586C17.1246 25.9566 17.1153 25.9564 17.1063 25.958C17.0917 25.9596 17.0781 25.9662 17.0677 25.9766C17.0573 25.987 17.0507 26.0006 17.0491 26.0152C17.0491 26.1754 16.9423 27.091 17.133 27.11C17.3695 27.1405 17.2093 26.2327 17.1864 26.0152ZM17.175 24.1689C17.175 24.1527 17.1685 24.1372 17.1571 24.1258C17.1456 24.1143 17.1301 24.1079 17.1139 24.1079C17.0977 24.1079 17.0822 24.1143 17.0708 24.1258C17.0593 24.1372 17.0529 24.1527 17.0529 24.1689C16.9232 25.8703 17.2627 25.1989 17.2627 25.176C17.2548 24.8388 17.2255 24.5024 17.175 24.1689ZM17.2245 22.3799C17.2245 22.2959 17.0834 22.3112 17.0681 22.3799C17.0529 22.4485 16.9423 23.6768 17.2055 23.3717C17.2692 23.0421 17.2756 22.704 17.2245 22.3722V22.3799ZM17.0262 28.1934V28.6092C17.0262 28.8838 17.3542 29.1013 17.2131 28.0675C17.1749 27.8157 17.0414 27.8463 17.0262 28.1934ZM38.8651 43.5588C38.2828 43.4321 37.7152 43.2455 37.1714 43.0019C37.1981 43.6046 37.2286 44.1882 37.2591 44.7681C38.2662 44.7414 38.7545 44.604 38.8651 43.5665V43.5588ZM53.0976 45.8629L53.1968 44.112C52.3003 44.1952 51.4 44.2309 50.4998 44.2188C50.8698 45.6836 51.6327 45.8247 53.0976 45.8629ZM54.7531 69.6892C54.4823 64.3258 54.3412 49.8187 54.509 43.9556C54.1657 44.009 53.7918 44.0547 53.4027 44.0929C53.1395 52.8666 53.0213 60.9155 53.5744 69.7922C53.9702 69.8115 54.3667 69.7768 54.7531 69.6892ZM27.3715 33.7208L10.381 33.4538C9.69441 33.4538 8.99632 33.4118 8.30587 33.4538C8.22576 33.4538 8.23721 33.5797 8.30587 33.5873C9.14891 33.6674 11.0791 33.6712 12.029 33.6903L27.3525 33.9497C27.5012 33.9497 27.5241 33.7208 27.3715 33.7208Z" fill="black"/>
<path d="M50.439 69.744C51.3917 69.8254 52.3487 69.8433 53.3038 69.7974C52.9223 61.9239 52.7774 54.0466 53.0864 46.1465C52.2548 46.1465 50.8815 45.9405 50.4733 45.0898C50.3297 44.8178 50.2624 44.512 50.2788 44.2048C47.8183 44.14 45.5066 43.6746 44.8887 42.5226C44.7519 42.7904 44.5326 43.0071 44.2631 43.1405C44.2631 43.5907 44.1944 45.7345 44.3775 46.074C44.5186 46.3449 44.8314 46.3067 45.087 46.3525C45.1123 46.3596 45.1337 46.3764 45.1466 46.3993C45.1595 46.4222 45.1627 46.4493 45.1557 46.4746C45.1508 46.4908 45.1419 46.5055 45.13 46.5175C45.118 46.5295 45.1032 46.5383 45.087 46.5432C44.3775 46.6577 44.0609 46.2419 44.0227 45.5819C43.9598 44.8076 43.9598 44.0294 44.0227 43.255C42.9317 43.77 40.9939 43.976 39.0637 43.5983C39.0637 44.7732 38.2664 45.0708 37.2517 45.0975C37.9002 56.7436 39.4566 63.9152 41.4211 69.7783C41.486 69.9652 45.5181 69.9232 45.5105 69.744C45.2129 63.1751 45.0527 57.4112 45.7737 51.6625L45.3922 48.6108C44.3622 48.1683 44.553 47.8478 44.7246 47.9585L45.3502 48.3399C45.4914 48.4048 45.6096 48.3971 45.602 48.5764C46.6358 55.6526 48.2952 62.4084 50.439 69.744ZM13.578 30.8497C12.4839 30.8077 11.3883 30.8332 10.2974 30.926C10.0532 30.9527 9.99219 30.9794 9.99219 31.2236C9.99219 31.5669 9.99219 32.2802 10.1486 32.1887C10.1715 32.2802 12.7349 32.2611 13.4445 32.223C13.639 32.223 13.6771 32.0971 13.5665 32.0513C13.6543 32.0399 13.6848 30.8955 13.578 30.8497ZM10.1753 32.1086C10.1944 31.7668 10.1944 31.4242 10.1753 31.0824C11.232 31.0557 12.4069 31.0824 13.433 31.0099C13.433 31.1511 13.3758 31.9636 13.475 32.0399C13.0668 32.0132 10.2401 32.078 10.1753 32.1086Z" fill="black"/>
<path d="M51.2175 21.8833C51.4844 23.1586 51.6603 24.4512 51.7439 25.7514C51.8088 26.6783 51.9461 26.4418 50.4126 26.7165C50.1151 26.7699 49.8213 26.8386 49.5238 26.8767C49.6878 27.0751 50.8131 28.4026 50.3554 28.4483C49.7374 29.2723 45.5604 32.3126 44.4732 32.9191C44.416 33.3006 44.374 33.6554 44.3511 34.0292C44.2986 34.0313 44.2471 34.0443 44.1998 34.0673C44.1526 34.0902 44.1106 34.1227 44.0765 34.1627C44.0803 33.7154 44.1186 33.269 44.1909 32.8276C42.398 31.5573 40.6929 28.6925 40.4182 27.9753C40.2885 27.6396 40.9713 27.1781 41.1811 26.9721C40.7234 26.5906 39.5485 26.0871 39.6057 25.9002C40.0159 24.6812 40.5731 23.5168 41.265 22.4326C40.834 22.6961 40.4116 22.9734 39.9986 23.2642C39.8384 17.1226 39.8422 10.7903 39.4722 4.6754H40.4602C40.6318 4.6754 40.6204 4.2329 40.4602 4.2329H39.4302C37.0689 3.81329 34.7077 3.39749 32.3578 2.90921C28.6996 2.14628 24.9765 1.2155 21.322 0.53268V0.0787357C21.322 -0.0204453 20.9177 -0.0318893 20.9177 0.0787357V0.502163C15.7259 1.85255 10.4693 2.98169 5.24325 4.13753C4.57486 4.24919 3.91276 4.39562 3.25962 4.57622L1.98934 4.60292C1.8482 4.60292 1.85202 4.98439 1.98934 4.98439H3.30922C3.11848 15.2 3.09941 25.4081 3.0193 35.6161C3.0193 35.8373 2.92012 37.5692 3.11467 37.5692C5.31191 37.615 20.7613 37.5692 20.7613 37.5692C20.7613 47.6551 20.7486 57.7424 20.7231 67.8309C17.6142 69.475 13.3418 71.7676 12.6284 72.191C12.4987 72.2254 1.47818 72.191 0.0629418 72.2253C-0.0209806 72.2253 -0.0209806 72.3856 0.0629418 72.3856C1.91305 72.4504 56.9509 72.4771 56.9509 72.4771C57.1035 72.4771 57.134 72.2215 56.9814 72.2215H54.4561C54.371 71.4883 54.2243 70.7635 54.0175 70.0548C53.1487 70.1425 52.2732 70.1425 51.4044 70.0548C50.7979 70.2722 48.4023 71.1992 48.3069 72.2101H45.5871C45.522 71.5028 45.3865 70.8038 45.1827 70.1235C44.2473 70.3399 43.2774 70.3619 42.3332 70.1883C41.925 70.3333 39.598 71.1763 39.4264 72.2177H29.9393C29.7105 71.9888 21.528 67.9949 21.3907 67.9491V37.5806H36.6722C36.5349 39.488 36.4777 42.4787 36.5654 42.5168C40.4983 44.1914 44.2824 43.5201 44.7631 42.2574C43.8399 40.9871 43.9124 37.6188 43.9201 36.9855C43.9933 37.1026 44.079 37.2113 44.1756 37.3098C44.126 38.4542 44.126 41.9866 45.6672 43.0051C47.2998 44.0884 52.6251 44.1914 54.933 43.6078C54.9559 42.5168 54.9025 41.1054 54.8529 40.3692C52.8234 40.2078 50.8096 39.8889 48.8295 39.4155C48.6197 39.3697 47.174 39.1027 47.1511 38.931C47.1282 38.7594 47.1015 38.5267 47.0862 38.3207L46.3233 38.149C46.3201 37.179 46.4173 36.2113 46.6132 35.2613L47.2007 35.2384C47.2312 35.0401 47.2007 34.6777 47.4333 34.6777C47.9951 34.4923 48.5686 34.3445 49.1499 34.2352C50.124 34.0292 51.0954 33.8321 52.0643 33.6439C51.8134 32.6166 51.6476 31.5704 51.5684 30.5159C51.5684 30.3938 51.7439 30.3633 51.7554 30.4854C51.8804 31.5351 52.0766 32.5751 52.3428 33.5981C53.4558 33.3657 54.582 33.2013 55.715 33.106C55.7346 33.1102 55.7523 33.121 55.765 33.1366C55.7776 33.1523 55.7845 33.1718 55.7845 33.1919C55.7845 33.212 55.7776 33.2315 55.765 33.2471C55.7523 33.2627 55.7346 33.2735 55.715 33.2777C52.9913 33.4951 50.1837 34.2352 47.5135 34.8684C47.2804 36.1707 47.2124 37.4973 47.3113 38.8166C49.0119 39.2631 50.7363 39.6134 52.4763 39.8656C55.3144 40.2127 59.5144 40.9032 60.1056 36.9855C61.044 31.1453 56.4474 24.256 51.2175 21.8833ZM20.7231 72.1987H13.7232C16.0464 70.9284 18.3962 69.7878 20.7422 68.4679L20.7231 72.1987ZM38.1599 4.22527L21.3754 4.39693C21.3754 3.15716 21.3487 2.10813 21.3258 0.860741C26.7617 2.10813 32.6439 3.25253 38.1599 4.22527ZM20.9062 0.887443C20.8833 2.12339 20.8605 3.17624 20.8452 4.40456C15.2109 4.45796 9.91239 4.47322 4.27814 4.57622C9.9429 3.46997 20.9062 0.887443 20.9062 0.887443ZM28.8255 72.2215H21.3525V68.5061C23.5689 69.7763 26.4756 71.142 28.8255 72.2025V72.2215ZM39.2128 26.9416C37.6869 30.1154 36.9659 33.8385 36.6875 37.3518C25.625 37.3518 14.3488 37.0847 3.31684 37.3251C3.38169 36.4973 3.25962 35.1316 3.26725 34.2428C3.34355 24.4849 3.66779 14.7881 3.62965 5.0149C8.16146 5.0149 39.1441 4.68684 39.1441 4.68684C39.3539 10.4699 39.7621 23.1612 39.7888 23.4359C37.622 24.9854 35.6731 26.8188 33.9943 28.887C34.7158 29.0178 35.428 29.1949 36.1267 29.4173C36.1501 29.4274 36.1686 29.4461 36.1786 29.4695C36.1885 29.493 36.1891 29.5193 36.1801 29.5432C36.1716 29.5644 36.1557 29.5818 36.1354 29.5923C36.1151 29.6028 36.0917 29.6057 36.0695 29.6004C34.6237 29.2571 29.3328 28.1355 26.9143 28.3988C26.8571 28.3988 26.8685 28.4979 26.8876 28.6162C26.6618 28.57 26.43 28.5597 26.201 28.5857C25.5334 27.6854 24.8277 26.6783 23.6719 27.4413C23.1569 26.4724 18.7395 18.0229 18.5678 18.0076C18.3542 17.6948 18.1063 18.0076 18.2474 18.2708L23.1874 28.2271C22.8059 28.5552 22.7487 29.0625 23.073 29.1693C22.8746 29.5813 23.1492 30.0696 23.2866 30.0124C23.1378 30.7753 24.2708 31.481 24.7781 31.3856C24.8468 31.5153 25.1596 32.1829 25.2931 32.1753C25.3666 32.2329 25.4577 32.2633 25.5511 32.2613C25.6444 32.2593 25.7342 32.2251 25.8052 32.1644C25.8762 32.1038 25.924 32.0204 25.9405 31.9285C25.957 31.8366 25.9412 31.7419 25.8958 31.6603L26.2162 31.8319C26.1247 31.9845 26.0713 32.0646 26.098 32.0952C27.6734 33.9338 31.5873 36.2112 33.0864 36.4439C34.2995 36.6308 35.7262 36.6689 36.4395 36.4668C36.7676 33.3273 37.5191 29.6385 39.0335 26.8309C39.0392 26.8191 39.0472 26.8085 39.057 26.7998C39.0668 26.7911 39.0782 26.7844 39.0907 26.7801C39.1031 26.7759 39.1162 26.7741 39.1293 26.775C39.1424 26.7759 39.1552 26.7793 39.167 26.7852C39.1793 26.7908 39.1903 26.799 39.1994 26.8091C39.2085 26.8192 39.2153 26.831 39.2196 26.8439C39.2239 26.8568 39.2255 26.8704 39.2244 26.8839C39.2232 26.8974 39.2192 26.9106 39.2128 26.9225V26.9416ZM24.9002 29.3181C24.8757 29.2718 24.8397 29.2327 24.7955 29.2046C24.7514 29.1765 24.7007 29.1604 24.6484 29.1579C24.6911 29.1311 24.7275 29.0954 24.7551 29.0533C24.7828 29.0111 24.801 28.9635 24.8086 28.9137C24.9536 29.0701 24.9955 28.9671 24.9536 28.9137C24.7552 28.6276 24.5721 27.8342 24.4119 27.9067C24.2631 27.8533 23.8054 28.0058 23.5536 27.983C23.4544 27.983 23.3781 27.9181 23.4544 27.8113C23.7425 27.4973 24.1395 27.3049 24.5645 27.2734C25.1291 27.3726 25.8271 28.3186 26.1247 28.7459C26.4566 29.6309 25.8958 30.9851 25.6669 31.2102L24.862 29.6423C24.8976 29.597 24.92 29.5428 24.9268 29.4856C24.9335 29.4284 24.9243 29.3704 24.9002 29.3181ZM23.2828 27.9601L18.3504 18.1106C18.3504 17.8817 18.5144 18.0801 18.5869 18.1984C19.0142 19.0567 23.546 27.5443 23.546 27.5443C23.4718 27.5871 23.409 27.6474 23.3632 27.7198C23.3174 27.7922 23.2898 27.8747 23.2828 27.9601ZM23.4086 28.2805C23.6337 28.1622 24.2784 27.9677 24.4386 28.2576C24.4577 28.3492 24.4767 28.4369 24.492 28.5285C24.2395 28.4819 23.979 28.5073 23.7402 28.6018C23.5014 28.6962 23.294 28.8558 23.1416 29.0625C22.9089 28.7955 23.1378 28.414 23.4086 28.2805ZM23.1798 29.3066C23.3209 28.9252 24.1372 28.475 24.5073 28.7001C24.8773 28.9252 24.4043 29.0816 24.3356 29.1769C24.1108 29.1922 23.8952 29.2724 23.715 29.4078C23.5349 29.5433 23.398 29.7281 23.3209 29.9399C23.2394 29.8588 23.1829 29.7561 23.1579 29.6439C23.1329 29.5317 23.1405 29.4147 23.1798 29.3066ZM24.0228 29.4096C24.183 29.3486 24.9879 29.1541 24.7209 29.5813C24.3394 29.6156 24.0152 29.9055 24.2059 30.2794C24.3661 30.5922 24.5301 30.905 24.698 31.214C23.6184 31.0957 22.8212 29.856 24.0228 29.4096ZM24.2898 29.9895C24.3282 29.9176 24.3826 29.8555 24.4487 29.8079C24.5148 29.7603 24.591 29.7285 24.6713 29.7148C24.8124 29.9895 25.7699 31.7709 25.7699 31.9121C25.7699 32.0532 25.4571 32.1715 25.3885 32.0418C25.0019 31.3678 24.6331 30.6837 24.2822 29.9895H24.2898ZM25.728 31.3093C26.3192 30.8745 26.4909 29.5279 26.3192 28.7116L26.9486 28.8031C27.039 29.8059 26.8165 30.8121 26.3116 31.6832C26.1895 31.6069 25.7775 31.4238 25.7203 31.3093H25.728ZM46.2088 37.6913C45.6939 37.6607 45.1751 37.7676 44.6181 37.4395C44.2062 37.1954 43.7827 36.6766 43.9201 36.1921C44.0726 36.3981 44.1489 36.2188 44.0917 36.154C43.9873 36.0403 43.916 35.9002 43.8858 35.7488C43.8555 35.5975 43.8674 35.4407 43.9201 35.2957C44.0459 35.5512 44.168 35.4025 44.1222 35.3224C43.9353 34.9752 43.8933 34.3534 44.3397 34.178C44.3053 35.0553 45.2666 35.1812 45.198 34.9409C45.198 34.9409 44.8165 33.2739 45.2476 33.3578C45.4574 33.9224 45.7435 35.1545 46.392 35.3262C46.2442 36.1055 46.1803 36.8984 46.2012 37.6913H46.2088Z" fill="black"/>
<path d="M7.75014 32.9675C10.6798 28.7714 14.422 22.3819 16.871 17.9454C16.9634 18.0026 17.0701 18.0326 17.1787 18.032C17.2874 18.0315 17.3938 18.0004 17.4856 17.9423C17.5775 17.8843 17.6512 17.8016 17.6983 17.7036C17.7455 17.6057 17.7641 17.4965 17.7522 17.3885C20.72 18.1514 23.8137 18.5977 26.812 19.2653C26.8692 20.0625 27.9907 19.7574 27.819 19.1051C30.3062 16.595 32.9841 13.9248 35.414 11.4376L35.5056 11.4758C35.6488 11.523 35.8048 11.5119 35.9398 11.4447C36.0748 11.3776 36.1779 11.2599 36.2265 11.1172C36.2762 10.9832 36.2725 10.8353 36.2162 10.704C36.1599 10.5727 36.0553 10.4681 35.924 10.4117C35.7927 10.3554 35.6448 10.3517 35.5108 10.4013C35.3768 10.451 35.2671 10.5502 35.2042 10.6785C35.1501 10.7803 35.1274 10.8959 35.139 11.0107C35.1505 11.1254 35.1958 11.2341 35.2691 11.3232C32.8124 13.8141 30.0811 16.3776 27.7504 18.9525C27.6888 18.8679 27.604 18.803 27.5062 18.7656C27.3757 18.7184 27.2318 18.7244 27.1055 18.7821C26.9793 18.8399 26.8807 18.9449 26.8311 19.0745C25.3052 18.7656 18.4388 17.2626 17.7217 17.2359C17.4432 16.4119 16.1462 17.1253 16.707 17.8119C13.8345 23.0227 10.7599 27.8444 7.62044 32.8798C7.49578 32.8198 7.35459 32.8033 7.21947 32.8331C7.08435 32.8628 6.96313 32.937 6.8752 33.0439C6.78728 33.1507 6.73775 33.2839 6.73454 33.4223C6.73133 33.5606 6.77463 33.696 6.85751 33.8068C7.36486 34.5277 8.43677 33.5893 7.75014 32.9675ZM35.6658 7.8442C35.5247 7.86327 35.5742 8.05782 35.5819 8.15319C35.7421 9.76297 36.0091 7.80987 35.6658 7.8442Z" fill="black"/>
<path d="M27.3765 15.2225C27.1438 15.1996 27.3002 16.1075 27.3231 16.3212C27.3244 16.3302 27.3276 16.3389 27.3324 16.3468C27.3372 16.3546 27.3436 16.3614 27.351 16.3667C27.3585 16.372 27.367 16.3758 27.3759 16.3778C27.3849 16.3798 27.3941 16.38 27.4032 16.3784C27.4178 16.3767 27.4314 16.3702 27.4418 16.3598C27.4522 16.3494 27.4587 16.3358 27.4604 16.3212C27.4566 16.1571 27.5672 15.2569 27.3765 15.2225ZM27.4566 18.1827C27.5863 16.4852 27.2468 17.1528 27.2468 17.1756C27.255 17.5116 27.2843 17.8466 27.3345 18.1789C27.334 18.1951 27.3399 18.2108 27.351 18.2226C27.3621 18.2344 27.3774 18.2413 27.3936 18.2418C27.4098 18.2423 27.4255 18.2364 27.4373 18.2253C27.4492 18.2142 27.4561 18.1989 27.4566 18.1827ZM27.3383 11.6215C27.1972 11.6406 27.2468 11.8351 27.2582 11.9305C27.4299 13.5403 27.6816 11.5872 27.3383 11.6215ZM35.5932 9.36322C35.4941 10.2978 35.8488 10.3817 35.803 9.69128C35.803 9.54251 35.7573 9.39374 35.7382 9.24497C35.7382 9.18012 35.6161 9.12671 35.5932 9.36322ZM31.8701 9.82098C32.5797 9.89346 34.0979 9.84768 34.1894 9.84387C34.7616 9.84387 34.7044 9.84387 34.6625 9.29456C34.6625 9.00464 34.6243 8.68803 34.4908 8.72617L31.626 8.66514C31.4009 8.60411 31.4848 8.97794 31.4963 9.21827C31.5192 9.65314 31.3666 9.76758 31.8701 9.82098ZM31.6832 8.82536L34.4794 8.90928L34.5022 9.64169H31.6794L31.6832 8.82536ZM27.3002 8.89402C27.3055 8.91106 27.3172 8.92537 27.3329 8.93391C27.3485 8.94245 27.3669 8.94457 27.3841 8.9398C27.3953 8.93648 27.4056 8.93063 27.4142 8.92269C27.4228 8.91475 27.4295 8.90494 27.4337 8.89402C27.492 8.56268 27.4997 8.22442 27.4566 7.89076C27.4517 7.8792 27.4444 7.86877 27.4353 7.86012C27.4262 7.85147 27.4154 7.84479 27.4036 7.8405C27.3918 7.8362 27.3792 7.83439 27.3667 7.83516C27.3541 7.83593 27.3419 7.83928 27.3307 7.84499C27.3168 7.85208 27.305 7.86258 27.2964 7.87551C27.2409 8.20891 27.2409 8.54917 27.2964 8.88258L27.3002 8.89402ZM27.3727 9.75995C27.1857 9.75995 27.2582 10.1223 27.2658 10.2253C27.3345 11.6253 27.7312 9.76758 27.3727 9.75995ZM12.0988 16.8056C12.0988 16.8628 12.2018 16.8705 12.3582 16.8705C13.0257 16.8705 15.4366 17.0612 15.4785 16.7942C15.6159 16.7942 15.5663 15.9664 15.5472 15.8062C15.7189 15.398 12.4573 15.6994 12.2208 15.6803C12.114 15.6498 12.0644 15.768 12.0835 15.9435C12.114 16.241 12.0835 16.6683 12.0988 16.8056ZM12.2628 15.8443C13.2928 15.8443 14.3876 15.871 15.4137 15.8443V16.7255C14.338 16.7675 13.2966 16.7255 12.2475 16.756C12.268 16.4526 12.2731 16.1483 12.2628 15.8443ZM7.14352 8.97031C7.0863 11.9572 7.10919 27.5744 7.11682 32.3961C7.11682 32.5487 7.35715 32.5678 7.35715 32.3961C7.35715 29.2986 7.39148 13.6662 7.2923 8.94742C7.40674 8.94742 7.80727 8.92835 7.88738 8.79865C7.96749 8.66895 7.40674 7.18505 7.32281 6.9638C7.2923 6.88751 7.19311 6.94092 7.17786 6.99432C6.99475 7.60085 6.79639 8.19594 6.63617 8.8101C6.5904 8.99702 7.02527 8.97413 7.14352 8.97031ZM27.4833 14.1125V13.6929C27.4833 13.422 27.1552 13.2008 27.2964 14.2384C27.3345 14.4939 27.4566 14.4939 27.4833 14.1125ZM17.0273 16.1762C17.0502 16.3326 17.2714 16.3173 17.26 16.0351C17.2257 15.1424 17.0235 15.1272 17.0197 15.5735C17.0044 15.7741 17.0044 15.9756 17.0197 16.1762H17.0273ZM17.157 9.03135C17.3668 9.01227 17.2028 8.06242 17.157 7.88695C17.157 7.8221 17.0387 7.80684 17.0349 7.88695C17.0349 8.23027 17.0273 8.57359 17.012 8.91691C17.0114 8.93489 17.015 8.95277 17.0225 8.9691C17.0301 8.98543 17.0414 8.99975 17.0555 9.01089C17.0696 9.02204 17.0862 9.0297 17.1038 9.03326C17.1214 9.03681 17.1397 9.03616 17.157 9.03135ZM17.0235 11.9381V12.3654C17.0235 12.6362 17.3515 12.8498 17.2104 11.8199C17.157 11.5567 17.0387 11.5795 17.0235 11.9381ZM17.1303 10.8509C17.3668 10.8738 17.2066 9.96594 17.1837 9.7485C17.1837 9.73029 17.1765 9.71283 17.1636 9.69995C17.1507 9.68707 17.1332 9.67984 17.115 9.67984C17.0968 9.67984 17.0794 9.68707 17.0665 9.69995C17.0536 9.71283 17.0464 9.73029 17.0464 9.7485C17.0464 9.91635 16.9396 10.8319 17.1303 10.8509Z" fill="black"/>
</svg>
