<?xml version="1.0" encoding="UTF-8"?>
<svg version="1.1" xmlns="http://www.w3.org/2000/svg" width="1080" height="700">
<path d="M0 0 C1.64657593 0.00241699 1.64657593 0.00241699 3.32641602 0.00488281 C12.08072797 0.13643932 19.5493324 1.35495905 27.8125 4.375 C28.70453125 4.66375 29.5965625 4.9525 30.515625 5.25 C42.50921365 9.47415701 54.06843826 18.1637051 61.96875 28.08203125 C63.60742149 30.4461265 63.60742149 30.4461265 65.8125 31.375 C66.17601562 30.53001953 66.17601562 30.53001953 66.546875 29.66796875 C73.67353312 16.75639988 90.38549982 7.92199209 103.8125 3.375 C104.71097656 3.05660156 105.60945312 2.73820312 106.53515625 2.41015625 C127.68538516 -3.7669631 150.85940175 -0.20060883 169.94140625 10.1015625 C179.15166895 15.34422139 187.33336314 21.94034184 193.8125 30.375 C194.493125 29.6325 194.493125 29.6325 195.1875 28.875 C196.8125 27.375 196.8125 27.375 198.8125 27.375 C199.03550781 26.81296875 199.25851562 26.2509375 199.48828125 25.671875 C206.22093095 13.99400473 223.10406981 6.52884426 235.5 2.9375 C237.5993378 2.39753192 239.7029359 1.87352182 241.8125 1.375 C242.41908447 1.2006543 243.02566895 1.02630859 243.65063477 0.84667969 C264.23873527 -3.64526951 286.15936712 1.66072785 303.8125 12.375 C310.78509315 17.12010702 317.31336534 22.97262583 322.8125 29.375 C322.8125 30.035 322.8125 30.695 322.8125 31.375 C323.4725 31.375 324.1325 31.375 324.8125 31.375 C325.17021484 30.53388672 325.17021484 30.53388672 325.53515625 29.67578125 C330.33371458 21.03250647 339.40395548 15.10026277 347.8125 10.375 C348.62460937 9.91351563 349.43671875 9.45203125 350.2734375 8.9765625 C368.08898211 -0.53659239 390.7555354 -2.99514987 410.3125 2.125 C412.4927618 2.83450893 414.66196122 3.5799356 416.8125 4.375 C417.70324219 4.66375 418.59398437 4.9525 419.51171875 5.25 C431.50703382 9.46813277 443.0691766 18.16463203 450.96875 28.08203125 C452.60742149 30.4461265 452.60742149 30.4461265 454.8125 31.375 C455.05484375 30.81167969 455.2971875 30.24835938 455.546875 29.66796875 C462.67353312 16.75639988 479.38549982 7.92199209 492.8125 3.375 C493.71097656 3.05660156 494.60945312 2.73820312 495.53515625 2.41015625 C517.0085662 -3.8613511 539.93347988 0.00750985 559.26953125 10.35546875 C563.42822377 12.67094324 567.19134828 15.28637059 570.8125 18.375 C571.84375 19.179375 572.875 19.98375 573.9375 20.8125 C577.24048978 23.75646915 580.02722313 26.94772669 582.8125 30.375 C583.534375 29.653125 584.25625 28.93125 585 28.1875 C586.3921875 26.7953125 586.3921875 26.7953125 587.8125 25.375 C588.699375 24.446875 589.58625 23.51875 590.5 22.5625 C592.8125 20.375 592.8125 20.375 594.8125 20.375 C594.8125 19.715 594.8125 19.055 594.8125 18.375 C614.90837778 2.32139648 638.01730002 -2.10496132 663.31689453 0.64746094 C682.27953628 3.63643729 699.46643287 15.00107643 711.8125 29.375 C711.8125 30.035 711.8125 30.695 711.8125 31.375 C712.4725 31.375 713.1325 31.375 713.8125 31.375 C714.05097656 30.81425781 714.28945313 30.25351562 714.53515625 29.67578125 C719.33371458 21.03250647 728.40395548 15.10026277 736.8125 10.375 C738.03066406 9.68277344 738.03066406 9.68277344 739.2734375 8.9765625 C758.3589662 -1.21473923 781.93253252 -2.91275195 802.58203125 3.25 C815.74688581 7.83461682 828.29779483 15.02265713 837.8125 25.375 C837.8125 26.035 837.8125 26.695 837.8125 27.375 C838.4725 27.375 839.1325 27.375 839.8125 27.375 C855.48125765 44.99176536 860.2835278 67.84220503 859.03125 90.70410156 C857.35442326 111.17785664 846.02608702 131.07898517 830.52734375 144.28515625 C810.79509651 159.47472787 788.96153108 164.83208933 764.35644531 162.10253906 C750.38851143 159.96712085 736.46002842 153.69158736 725.8125 144.375 C724.94625 143.62734375 724.08 142.8796875 723.1875 142.109375 C716.19896789 135.95470183 716.19896789 135.95470183 713.8125 132.375 C713.1525 132.375 712.4925 132.375 711.8125 132.375 C710.41908099 133.83149567 710.41908099 133.83149567 708.9375 135.75 C695.45881414 151.38306598 676.8093495 160.86994333 656.19677734 162.59375 C632.41378672 163.94625702 611.87136462 158.26413042 593.8125 142.375 C592.52859375 141.36953125 592.52859375 141.36953125 591.21875 140.34375 C588.2718502 137.93265017 586.17659983 135.34701122 583.8125 132.375 C580.20644405 135.39231212 576.77247156 138.37713092 573.5625 141.8125 C559.60403793 155.95832398 538.62226268 162.54407931 519.1875 162.75 C496.40083554 162.82387153 477.29894021 155.07965644 460.8125 139.375 C458.66350163 137.10857002 456.73162232 134.84244298 454.8125 132.375 C451.58083219 133.75700913 449.89734623 135.24304908 447.75 138 C435.52807329 152.28469915 415.7524785 161.044193 397.19238281 162.59375 C375.1109994 163.84971209 353.89463758 159.14874061 336.8125 144.375 C336.11640625 143.7975 335.4203125 143.22 334.703125 142.625 C330.95274533 139.44949605 327.86055739 136.24368822 324.8125 132.375 C324.1525 132.375 323.4925 132.375 322.8125 132.375 C321.41908099 133.83149567 321.41908099 133.83149567 319.9375 135.75 C306.45881414 151.38306598 287.8093495 160.86994333 267.19677734 162.59375 C245.07634305 163.85170965 224.3092268 159.1966103 207.140625 144.5390625 C202.90772007 140.60444953 198.82114184 136.5371643 194.8125 132.375 C191.20644405 135.39231212 187.77247156 138.37713092 184.5625 141.8125 C170.60403793 155.95832398 149.62226268 162.54407931 130.1875 162.75 C107.40083554 162.82387153 88.29894021 155.07965644 71.8125 139.375 C69.66350163 137.10857002 67.73162232 134.84244298 65.8125 132.375 C62.69464887 133.02144661 62.69464887 133.02144661 61.8125 135.375 C61.1525 135.375 60.4925 135.375 59.8125 135.375 C59.47605469 136.21804688 59.47605469 136.21804688 59.1328125 137.078125 C51.78557376 149.85971192 33.00128612 156.82552038 19.6796875 160.68359375 C3.96322603 164.47353064 -12.92275253 163.46914516 -28.1875 158.375 C-29.56228516 157.941875 -29.56228516 157.941875 -30.96484375 157.5 C-50.93796131 150.43210374 -66.11288246 133.52600295 -75.0625 114.875 C-82.92902846 97.3311823 -84.55653326 75.26712363 -78.57421875 56.81640625 C-73.89325057 45.19969368 -68.27402915 35.00464664 -60.1875 25.375 C-59.39666016 24.41400391 -59.39666016 24.41400391 -58.58984375 23.43359375 C-43.79370061 7.12377868 -21.43210737 -0.03290919 0 0 Z " fill="#ED1C24" transform="translate(151.1875,268.625)"/>
<path d="M0 0 C11.25 3.375 11.25 3.375 15.625 5.6875 C16.46289062 6.12449219 17.30078125 6.56148438 18.1640625 7.01171875 C18.76992188 7.33785156 19.37578125 7.66398437 20 8 C19.96181529 18.11056138 19.90226893 28.22075613 19.81609726 38.33102894 C19.77673339 43.02660755 19.74449085 47.72200173 19.72900391 52.41772461 C19.71376383 56.95671848 19.67918945 61.49520495 19.63169098 66.03397179 C19.61695253 67.75809993 19.60896335 69.48230054 19.60811615 71.20649147 C19.59272265 86.83831982 17.08698367 97.66383031 5.86328125 109.1953125 C-4.69540387 119.18275986 -15.09054507 120.48689262 -29.05859375 120.2734375 C-39.88517797 119.86412251 -47.43158093 114.49138561 -54.9765625 107.05078125 C-64.09052517 97.1805536 -66.75656373 86.27356358 -66.38671875 73.0546875 C-65.66976833 62.07525181 -59.08172417 52.43593287 -51.40625 44.9609375 C-42.05292998 37.33858904 -30.89776954 34.13470767 -19 35 C-11.91061738 35.85931911 -7.67318664 37.66340668 -1 41 C-0.67 27.47 -0.34 13.94 0 0 Z " fill="#FEFCFC" transform="translate(693,272)"/>
<path d="M0 0 C9.49041677 7.16343958 16.51109246 16.87868615 18.6875 28.75 C19.82769302 42.76560337 16.8281177 53.96107418 7.6875 64.75 C1.69596731 71.2492897 -7.29164827 77.06819633 -16.29858398 77.94287109 C-30.33370902 78.44320503 -40.76141294 77.84362485 -51.8125 68.25 C-56.04678177 64.24154659 -59.86939203 60.08899074 -62.4375 54.8125 C-62.74945312 54.18472656 -63.06140625 53.55695313 -63.3828125 52.91015625 C-67.79891607 42.64920971 -68.37630934 29.70961914 -64.3125 19.1875 C-57.93793733 6.38465643 -48.45383031 -1.23572342 -35.3125 -6.4375 C-22.94053549 -9.63290805 -10.49896395 -6.92013159 0 0 Z " fill="#FEFBFC" transform="translate(823.3125,314.25)"/>
<path d="M0 0 C8.22555864 6.39366567 14.01353417 15.04424059 16.125 25.3125 C17.55337657 39.11452551 15.16704971 49.92903526 7.125 61.3125 C0.7731273 68.99140713 -8.23865728 75.36812704 -18.3269043 76.61572266 C-20.97569408 76.75001049 -23.59802314 76.78055658 -26.25 76.75 C-27.18175049 76.74097656 -28.11350098 76.73195313 -29.07348633 76.72265625 C-41.86356129 76.39939679 -50.10480419 71.38042908 -58.91796875 62.1796875 C-63.48942151 56.74073091 -65.81698439 51.06190605 -67.875 44.3125 C-68.37 42.8275 -68.37 42.8275 -68.875 41.3125 C-69.87677604 27.91169259 -67.56863258 16.86490481 -58.875 6.3125 C-42.37382035 -11.20218781 -19.94344134 -13.43185325 0 0 Z " fill="#FEFBFC" transform="translate(306.875,315.6875)"/>
<path d="M0 0 C7.51479489 6.2181244 14.2139595 15.63465931 15.18505859 25.63452148 C15.68108804 39.54889901 15.10583375 49.99908652 5.6796875 61.0234375 C1.75489503 65.06480796 -2.19167347 68.70728389 -7.0078125 71.6484375 C-7.66265625 72.0609375 -8.3175 72.4734375 -8.9921875 72.8984375 C-17.81687171 77.40465923 -30.72375405 77.61158601 -40.20361328 75.05664062 C-51.86940339 70.75225807 -60.72777553 62.8333679 -66.0078125 51.6484375 C-70.73162348 39.97094203 -71.77032775 29.44847843 -67.33203125 17.53515625 C-61.49572916 4.81236202 -51.95468801 -3.15635272 -39.05078125 -8.1015625 C-25.22346596 -12.29342229 -11.43852165 -8.2541713 0 0 Z " fill="#FEFBFB" transform="translate(956.0078125,316.3515625)"/>
<path d="M0 0 C9.26615792 7.68546039 15.02226162 18.16199207 16.24609375 30.13671875 C16.72736235 40.87987593 13.39041282 51.05534751 6.9921875 59.65234375 C6.2909375 60.66296875 5.5896875 61.67359375 4.8671875 62.71484375 C-0.85419267 69.3206013 -10.53604142 74.84710675 -19.28198242 75.93530273 C-21.67741617 76.05316814 -24.04742673 76.06217986 -26.4453125 76.02734375 C-27.24001953 76.03894531 -28.03472656 76.05054688 -28.85351562 76.0625 C-39.97980653 76.00818125 -48.47082323 71.54549706 -56.6953125 64.27734375 C-65.06820738 54.77297659 -69.32848734 46.92196893 -69.4453125 34.08984375 C-69.45546387 33.29860107 -69.46561523 32.5073584 -69.47607422 31.69213867 C-69.31950237 21.05076608 -65.14252551 11.2788875 -57.96875 3.41796875 C-41.10095911 -12.43656262 -18.8305248 -13.55383928 0 0 Z " fill="#FEFBFB" transform="translate(178.0078125,316.34765625)"/>
<path d="M0 0 C7.54481608 6.25775922 12.61072882 14.12650904 14.9921875 23.65234375 C14.9921875 29.59234375 14.9921875 35.53234375 14.9921875 41.65234375 C-6.1278125 41.65234375 -27.2478125 41.65234375 -49.0078125 41.65234375 C-44.3521181 49.10145479 -40.74008492 54.50784575 -32.0078125 56.65234375 C-24.64313941 57.44209552 -18.4976161 57.15264164 -11.91015625 53.625 C-9.87938763 52.58668093 -8.26212247 52.01115584 -6.0078125 51.65234375 C-4.17675781 52.27319336 -4.17675781 52.27319336 -2.3359375 53.3046875 C-1.67207031 53.66884766 -1.00820313 54.03300781 -0.32421875 54.40820312 C0.69865234 54.99311523 0.69865234 54.99311523 1.7421875 55.58984375 C2.78826172 56.16895508 2.78826172 56.16895508 3.85546875 56.75976562 C5.5737887 57.71308012 7.28382554 58.68129721 8.9921875 59.65234375 C6.43567569 65.45219144 1.87540242 69.32407646 -3.83984375 71.95703125 C-15.50967822 76.23753278 -30.27661583 78.74147316 -42.2890625 74.3359375 C-45.74698418 72.6558386 -48.85420528 70.84690878 -52.0078125 68.65234375 C-52.80445313 68.100625 -53.60109375 67.54890625 -54.421875 66.98046875 C-62.53227297 60.60150405 -68.04180183 50.45864858 -69.30932617 40.21582031 C-69.44370221 37.70713649 -69.47594971 35.2268534 -69.4453125 32.71484375 C-69.43701416 31.83530029 -69.42871582 30.95575684 -69.42016602 30.04956055 C-69.1106394 18.17629588 -64.51009345 10.39999379 -56.3515625 1.93359375 C-40.04472081 -13.1425429 -17.59563526 -12.66499022 0 0 Z " fill="#FEFCFC" transform="translate(567.0078125,316.34765625)"/>
<path d="M0 0 C5.5771479 4.24836434 9.98972981 9.12070319 12.328125 15.7734375 C9.89689231 17.14007137 7.45926337 18.4918242 5.015625 19.8359375 C3.98018555 20.42084961 3.98018555 20.42084961 2.92382812 21.01757812 C1.09886812 22.01381233 -0.78461377 22.90096592 -2.671875 23.7734375 C-5.98330703 22.66962682 -6.30052829 22.15677755 -8.234375 19.4609375 C-12.32098124 14.53267291 -17.5288989 12.44984176 -23.77734375 11.4296875 C-29.82504321 11.13997735 -35.83794245 12.65209921 -40.69140625 16.28515625 C-46.03023795 21.28679858 -48.73633657 26.46478337 -49.10424805 33.79077148 C-49.14530898 35.70009976 -49.17101416 37.60980294 -49.18359375 39.51953125 C-49.20154495 40.53064468 -49.21949615 41.54175812 -49.23799133 42.58351135 C-49.29189542 45.7926118 -49.32592649 49.00156519 -49.359375 52.2109375 C-49.3925656 54.39520266 -49.42705686 56.57944848 -49.46289062 58.76367188 C-49.54761064 64.10015399 -49.61451685 69.43659399 -49.671875 74.7734375 C-55.941875 74.7734375 -62.211875 74.7734375 -68.671875 74.7734375 C-68.77151834 68.29968643 -68.84370734 61.82639192 -68.89160156 55.35205078 C-68.91158918 53.15438042 -68.93878862 50.95676236 -68.97363281 48.75927734 C-69.24848972 30.96633431 -68.58139596 17.38606688 -55.79296875 3.7734375 C-39.61144289 -11.39469987 -18.26000259 -11.60393713 0 0 Z " fill="#FEFBFB" transform="translate(438.671875,315.2265625)"/>
<path d="M0 0 C6.55477242 3.70396664 10.90805348 8.62989645 13.2109375 15.84375 C14.83517773 22.97975626 13.76802354 28.23737419 10.23828125 34.640625 C6.39080096 40.33916003 1.27728874 43.96056338 -5.3125 45.9375 C-13.29911518 47.04504294 -19.75156926 45.70595229 -26.3125 40.9375 C-32.0463401 35.15617468 -34.33884798 29.26017793 -34.8125 21.1875 C-34.67196683 14.52457458 -32.68610185 9.94225171 -28.3125 4.9375 C-19.86273273 -2.11834307 -10.38582472 -4.79950991 0 0 Z " fill="#ED1F27" transform="translate(291.3125,328.0625)"/>
<path d="M0 0 C5.30124181 3.79312992 8.98421389 9.21403818 10.265625 15.62109375 C11.00167562 23.54367497 9.74233159 29.52500209 5.640625 36.30859375 C-0.72604481 42.50771962 -7.85808731 45.05471541 -16.55859375 44.9609375 C-23.07964251 44.26311309 -27.73898162 40.99139833 -32.109375 36.24609375 C-36.43416826 30.65990246 -38.39167698 25.3019591 -38.14453125 18.2421875 C-37.03034812 11.12202671 -33.31735135 5.14717813 -27.609375 0.8046875 C-18.64231847 -4.85576694 -9.29682932 -5.16003263 0 0 Z " fill="#ED1E26" transform="translate(812.734375,329.37890625)"/>
<path d="M0 0 C5.71085137 3.85579591 9.28520192 8.95696394 11.296875 15.55078125 C12.46497156 23.23426085 10.6654245 29.1795214 6.296875 35.55078125 C1.83719834 40.58248294 -3.52612995 44.04352998 -10.30859375 44.8671875 C-18.3446025 45.21079615 -23.53757205 43.36460609 -29.515625 38.05078125 C-35.27420595 31.46954588 -37.19921987 26.11750284 -37.01953125 17.30078125 C-36.24378233 10.55846965 -32.73189802 5.95095764 -27.703125 1.55078125 C-27.084375 0.99390625 -26.465625 0.43703125 -25.828125 -0.13671875 C-17.36943124 -5.36120607 -8.37232309 -4.6151781 0 0 Z " fill="#ED1E26" transform="translate(941.703125,329.44921875)"/>
<path d="M0 0 C6.19558567 3.53439451 10.37207352 8.42441389 12.328125 15.328125 C13.22244395 22.68389839 12.52376782 29.09929953 8.328125 35.328125 C3.49785822 40.71371529 -1.92240486 44.68474168 -9.23828125 45.67578125 C-16.22508207 46.05475932 -21.13409532 44.61369719 -26.671875 40.328125 C-32.54382467 34.91873592 -35.76419872 28.96329614 -36.109375 20.890625 C-35.88921383 14.45311251 -34.27148732 10.07707675 -29.8359375 5.38671875 C-20.56462986 -3.12086048 -11.69211436 -5.22100704 0 0 Z " fill="#ED1E26" transform="translate(162.671875,328.671875)"/>
<path d="M0 0 C5.37699637 3.39766897 9.33946435 7.7901862 11 14 C11.89210791 21.87262236 12.10555156 29.55799524 7 36 C1.57842175 41.86442994 -4.36178258 45.09219346 -12.4375 45.4375 C-17.80669452 45.28283184 -21.55004489 43.9361576 -26 41 C-26.9075 40.401875 -27.815 39.80375 -28.75 39.1875 C-34.02111243 34.06280736 -36.10068927 28.1125832 -36.375 20.875 C-36.30180438 14.03120972 -34.0499864 8.58266009 -29.61328125 3.37109375 C-21.15643429 -4.3906699 -10.00267265 -4.76746088 0 0 Z " fill="#ED1E26" transform="translate(682,329)"/>
<path d="M0 0 C5.17910446 3.02295009 9.78433344 7.79050031 11.6875 13.5 C-2.8325 13.5 -17.3525 13.5 -32.3125 13.5 C-29.67245979 6.89989948 -26.17431787 3.23953635 -20.125 -0.4375 C-13.51077569 -2.28080841 -6.42467445 -2.81235749 0 0 Z " fill="#ED1F27" transform="translate(550.3125,327.5)"/>
</svg>
