<svg id="svg" version="1.1" xmlns="http://www.w3.org/2000/svg" xmlns:xlink="http://www.w3.org/1999/xlink" width="400" height="259.25925925925924" viewBox="0, 0, 400,259.25925925925924"><g id="svgg"><path id="path0" d="M296.758 87.104 C 296.260 87.158,295.734 87.294,295.591 87.407 C 295.448 87.520,294.779 87.693,294.105 87.790 C 293.430 87.888,292.811 88.078,292.727 88.212 C 292.644 88.347,292.321 88.461,292.008 88.465 C 291.695 88.470,290.973 88.700,290.402 88.975 C 289.831 89.251,289.219 89.481,289.040 89.485 C 288.862 89.490,288.716 89.607,288.716 89.745 C 288.716 89.884,288.522 89.922,288.284 89.831 C 287.994 89.720,287.914 89.765,288.040 89.969 C 288.158 90.160,288.044 90.272,287.732 90.272 C 287.460 90.272,286.870 90.623,286.422 91.051 C 285.974 91.479,285.498 91.829,285.363 91.829 C 285.011 91.829,282.781 94.176,282.604 94.732 C 282.522 94.990,282.370 95.201,282.265 95.201 C 282.045 95.201,281.318 97.040,281.409 97.368 C 281.443 97.490,281.364 97.724,281.234 97.887 C 280.815 98.413,280.665 100.983,280.937 102.983 C 281.082 104.053,281.207 105.133,281.213 105.383 C 281.220 105.632,281.335 105.837,281.469 105.837 C 281.603 105.837,281.712 106.063,281.712 106.340 C 281.712 106.617,281.831 106.917,281.976 107.007 C 282.121 107.096,282.172 107.279,282.089 107.413 C 282.006 107.547,282.121 107.839,282.344 108.062 C 282.567 108.285,282.750 108.693,282.750 108.968 C 282.750 109.243,282.857 109.468,282.989 109.468 C 283.121 109.468,283.363 109.877,283.528 110.376 C 283.693 110.875,283.935 111.284,284.067 111.284 C 284.198 111.284,284.306 111.451,284.306 111.655 C 284.306 111.858,284.452 112.180,284.630 112.369 C 284.809 112.558,285.479 113.501,286.120 114.463 C 286.761 115.425,287.374 116.213,287.482 116.213 C 287.590 116.213,287.678 116.342,287.678 116.500 C 287.678 116.770,288.018 117.202,289.418 118.709 C 289.732 119.048,289.929 119.326,289.855 119.326 C 289.782 119.326,290.061 119.647,290.477 120.039 C 290.892 120.431,291.307 120.964,291.399 121.223 C 291.491 121.481,291.676 121.625,291.811 121.542 C 291.946 121.458,292.267 121.692,292.526 122.062 C 292.785 122.431,293.551 123.303,294.228 124.000 C 294.906 124.697,295.460 125.347,295.460 125.444 C 295.460 125.710,296.745 126.848,297.046 126.848 C 297.189 126.848,297.244 126.950,297.167 127.074 C 297.090 127.199,297.394 127.605,297.843 127.976 C 298.292 128.348,298.872 128.976,299.133 129.371 C 299.394 129.767,299.608 129.988,299.609 129.861 C 299.610 129.735,299.874 129.967,300.195 130.377 C 301.210 131.674,301.483 131.967,304.994 135.522 C 306.884 137.436,308.431 139.085,308.431 139.187 C 308.431 139.289,309.184 140.144,310.105 141.087 C 312.226 143.260,313.878 145.140,313.878 145.381 C 313.878 145.484,314.287 146.066,314.786 146.676 C 315.285 147.285,315.694 147.924,315.694 148.097 C 315.694 148.269,315.811 148.337,315.953 148.249 C 316.096 148.161,316.213 148.315,316.213 148.591 C 316.213 148.867,316.387 149.238,316.601 149.415 C 316.814 149.592,317.124 150.190,317.290 150.744 C 317.456 151.298,317.681 151.751,317.790 151.751 C 317.898 151.751,318.070 152.130,318.170 152.594 C 318.271 153.058,318.484 153.520,318.645 153.622 C 319.052 153.881,319.038 160.545,318.629 161.374 C 318.460 161.717,318.083 162.561,317.791 163.250 C 317.500 163.939,316.899 164.961,316.456 165.520 C 315.347 166.920,317.342 166.560,318.990 165.062 C 319.176 164.893,319.561 164.681,319.846 164.591 C 320.130 164.501,320.363 164.318,320.363 164.185 C 320.363 164.052,320.520 163.943,320.713 163.943 C 320.905 163.943,321.308 163.739,321.608 163.489 C 322.866 162.443,323.340 162.127,323.649 162.127 C 323.829 162.127,324.101 161.895,324.253 161.611 C 324.405 161.327,324.616 161.123,324.721 161.157 C 324.827 161.191,325.086 161.071,325.297 160.890 C 325.508 160.709,325.973 160.322,326.329 160.030 C 327.646 158.952,330.480 156.125,330.480 155.889 C 330.480 155.756,330.830 155.312,331.258 154.903 C 331.686 154.494,332.036 154.022,332.036 153.855 C 332.036 153.687,332.211 153.483,332.425 153.401 C 332.639 153.319,332.815 153.098,332.815 152.909 C 332.815 152.721,332.965 152.412,333.149 152.223 C 333.687 151.672,334.625 149.271,334.799 147.997 C 334.888 147.351,335.072 146.822,335.209 146.822 C 335.906 146.822,335.085 140.711,334.102 138.589 C 333.822 137.984,333.593 137.371,333.593 137.227 C 333.593 137.083,333.476 136.965,333.333 136.965 C 333.191 136.965,333.074 136.740,333.074 136.465 C 333.074 136.190,332.923 135.810,332.739 135.622 C 332.554 135.433,332.252 134.908,332.066 134.454 C 331.881 134.001,331.565 133.567,331.364 133.490 C 331.163 133.413,330.999 133.221,330.999 133.064 C 330.999 132.906,330.853 132.614,330.674 132.414 C 330.496 132.214,330.000 131.571,329.572 130.985 C 329.144 130.399,327.927 129.024,326.867 127.930 C 325.808 126.836,324.991 125.940,325.052 125.940 C 325.112 125.939,324.652 125.472,324.029 124.902 C 323.405 124.332,322.324 123.311,321.626 122.633 C 320.928 121.955,320.287 121.401,320.202 121.401 C 320.117 121.401,319.467 120.817,318.757 120.104 C 318.048 119.390,317.359 118.807,317.226 118.807 C 317.093 118.807,316.373 118.217,315.626 117.496 C 313.600 115.542,313.471 115.435,313.143 115.435 C 312.977 115.435,312.840 115.259,312.840 115.045 C 312.840 114.831,312.742 114.656,312.621 114.656 C 312.500 114.656,312.121 114.416,311.778 114.122 C 311.091 113.533,307.126 109.906,306.256 109.070 C 305.415 108.262,302.883 105.317,302.617 104.836 C 302.487 104.602,302.224 104.317,302.033 104.202 C 301.842 104.088,301.686 103.876,301.686 103.730 C 301.686 103.584,301.540 103.302,301.362 103.103 C 300.806 102.483,300.491 102.080,300.458 101.946 C 300.440 101.874,300.301 101.487,300.148 101.086 C 299.995 100.684,299.870 100.198,299.870 100.005 C 299.870 99.812,299.728 99.607,299.554 99.549 C 298.946 99.346,299.126 94.231,299.789 92.866 C 300.500 91.404,302.102 89.659,302.505 89.908 C 302.682 90.018,302.734 89.980,302.632 89.814 C 302.537 89.661,302.782 89.294,303.175 88.999 C 303.569 88.704,304.027 88.349,304.193 88.210 C 304.359 88.072,304.778 87.888,305.123 87.801 C 307.899 87.105,301.608 86.580,296.758 87.104 M279.409 98.186 C 279.069 98.684,278.690 99.092,278.566 99.092 C 278.442 99.092,278.340 99.316,278.340 99.589 C 278.340 99.863,278.238 100.125,278.114 100.173 C 277.783 100.300,276.154 102.965,275.762 104.021 C 275.577 104.520,275.264 105.297,275.067 105.746 C 274.870 106.196,274.708 106.750,274.708 106.978 C 274.708 107.206,274.603 107.393,274.475 107.393 C 274.346 107.393,274.119 108.006,273.970 108.755 C 273.820 109.504,273.580 110.642,273.436 111.284 C 273.091 112.823,273.090 120.208,273.435 121.530 C 273.584 122.101,273.820 123.152,273.961 123.865 C 274.101 124.578,274.385 125.530,274.592 125.980 C 274.798 126.429,274.968 126.984,274.968 127.212 C 274.968 127.440,275.084 127.626,275.227 127.626 C 275.370 127.626,275.486 127.773,275.486 127.953 C 275.486 128.293,276.735 130.772,277.020 130.999 C 277.110 131.070,277.331 131.420,277.512 131.777 C 278.237 133.204,279.486 135.084,280.350 136.048 C 280.529 136.246,280.674 136.522,280.674 136.660 C 280.674 136.798,280.964 137.185,281.318 137.521 C 281.673 137.857,281.965 138.278,281.967 138.457 C 281.969 138.635,282.088 138.781,282.231 138.781 C 282.374 138.781,282.490 138.950,282.490 139.157 C 282.490 139.364,282.639 139.627,282.820 139.741 C 283.001 139.855,283.291 140.269,283.463 140.661 C 283.635 141.054,283.895 141.375,284.041 141.375 C 284.187 141.375,284.306 141.544,284.306 141.751 C 284.306 141.958,284.452 142.221,284.630 142.335 C 285.042 142.598,286.122 144.129,286.122 144.449 C 286.122 144.583,286.297 144.759,286.511 144.841 C 286.725 144.923,286.902 145.140,286.905 145.323 C 286.907 145.505,287.198 145.929,287.552 146.265 C 287.906 146.600,288.130 146.980,288.051 147.108 C 287.972 147.236,288.024 147.341,288.168 147.341 C 288.428 147.341,288.939 148.135,289.546 149.481 C 289.723 149.874,289.946 150.195,290.042 150.195 C 290.138 150.195,290.296 150.514,290.395 150.905 C 290.493 151.296,290.655 151.676,290.755 151.748 C 290.855 151.821,291.266 152.756,291.669 153.826 C 292.072 154.896,292.504 155.971,292.629 156.214 C 292.754 156.458,292.932 157.129,293.024 157.706 C 293.117 158.283,293.284 158.755,293.397 158.755 C 293.510 158.755,293.750 159.805,293.932 161.089 C 294.114 162.374,294.338 163.424,294.430 163.424 C 294.522 163.424,294.623 164.147,294.655 165.030 C 294.687 165.914,294.759 166.710,294.814 166.800 C 294.870 166.891,294.935 168.269,294.959 169.863 L 295.002 172.761 297.242 172.616 C 298.473 172.536,299.773 172.402,300.130 172.318 C 300.486 172.235,301.105 172.193,301.505 172.226 C 301.904 172.259,302.371 172.173,302.542 172.034 C 302.713 171.896,303.583 171.700,304.475 171.599 C 305.366 171.498,306.096 171.320,306.096 171.204 C 306.096 171.087,306.563 170.914,307.134 170.817 C 307.704 170.721,308.171 170.545,308.171 170.426 C 308.171 170.307,308.551 170.130,309.014 170.031 C 310.018 169.819,311.848 168.874,312.140 168.418 C 312.254 168.239,312.463 168.093,312.605 168.093 C 312.747 168.093,313.471 167.455,314.214 166.674 C 315.997 164.799,316.273 164.463,316.028 164.458 C 315.916 164.456,315.953 164.368,316.111 164.263 C 316.529 163.986,317.510 161.647,317.510 160.927 C 317.510 160.588,317.626 160.311,317.769 160.311 C 317.925 160.311,318.029 159.274,318.029 157.717 C 318.029 156.291,317.927 155.123,317.803 155.123 C 317.678 155.123,317.499 154.540,317.405 153.826 C 317.310 153.113,317.132 152.529,317.010 152.529 C 316.888 152.529,316.708 152.213,316.611 151.826 C 316.514 151.439,316.093 150.616,315.675 149.997 C 315.257 149.378,314.916 148.757,314.916 148.617 C 314.916 148.477,314.741 148.295,314.527 148.213 C 314.313 148.131,314.137 147.919,314.137 147.742 C 314.137 147.565,313.933 147.168,313.684 146.860 C 313.434 146.551,312.996 146.001,312.711 145.637 C 312.244 145.041,311.177 143.778,309.922 142.336 C 309.673 142.049,309.468 141.709,309.468 141.579 C 309.468 141.450,309.351 141.416,309.209 141.505 C 309.066 141.593,308.949 141.541,308.949 141.390 C 308.949 141.240,308.482 140.635,307.912 140.047 C 307.341 139.459,306.874 138.875,306.874 138.750 C 306.874 138.624,306.699 138.521,306.485 138.521 C 306.271 138.521,306.125 138.413,306.161 138.281 C 306.196 138.149,305.467 137.300,304.540 136.395 C 303.612 135.490,302.571 134.330,302.225 133.819 C 301.880 133.307,301.267 132.668,300.864 132.398 C 300.461 132.128,300.131 131.816,300.130 131.705 C 300.130 131.594,299.283 130.636,298.249 129.576 C 295.476 126.736,291.086 122.014,288.774 119.384 C 287.338 117.750,287.160 117.518,287.160 117.282 C 287.160 117.157,286.972 116.899,286.742 116.708 C 286.233 116.286,284.306 113.417,284.306 113.082 C 284.306 112.949,284.198 112.840,284.066 112.840 C 283.935 112.840,283.502 112.198,283.104 111.414 C 282.707 110.629,282.290 109.987,282.177 109.987 C 282.064 109.987,281.968 109.841,281.963 109.663 C 281.958 109.484,281.728 108.872,281.453 108.301 C 281.177 107.730,280.947 107.053,280.943 106.796 C 280.938 106.540,280.750 105.974,280.525 105.539 C 279.895 104.320,279.883 100.038,280.507 98.735 C 280.904 97.907,280.927 97.691,280.637 97.507 C 280.119 97.179,280.081 97.200,279.409 98.186 M40.986 148.608 C 40.986 148.734,40.228 148.918,39.302 149.017 C 38.376 149.117,37.556 149.300,37.478 149.425 C 37.401 149.551,37.166 149.587,36.957 149.507 C 36.747 149.427,36.576 149.490,36.576 149.648 C 36.576 149.806,36.298 149.935,35.959 149.935 C 35.620 149.935,35.201 150.106,35.028 150.314 C 34.855 150.523,34.486 150.766,34.207 150.854 C 33.604 151.045,31.650 152.964,31.852 153.166 C 31.930 153.244,31.857 153.307,31.690 153.307 C 31.524 153.307,31.388 153.470,31.388 153.669 C 31.388 153.867,31.213 154.097,30.999 154.179 C 30.785 154.262,30.610 154.507,30.610 154.726 C 30.610 154.944,30.512 155.123,30.393 155.123 C 30.275 155.123,30.162 155.269,30.144 155.447 C 30.042 156.441,29.474 158.495,29.301 158.495 C 29.190 158.495,29.020 158.962,28.924 159.532 C 28.827 160.102,28.649 160.630,28.527 160.705 C 28.405 160.780,28.227 161.365,28.131 162.003 C 28.035 162.642,27.868 163.165,27.759 163.165 C 27.335 163.165,27.226 168.798,27.645 169.076 C 27.798 169.178,27.992 169.448,28.076 169.676 C 28.160 169.905,28.736 170.342,29.355 170.649 C 29.973 170.955,30.363 171.216,30.220 171.228 C 29.978 171.249,32.008 171.826,33.463 172.150 C 34.609 172.406,42.023 172.567,42.023 172.336 C 42.023 172.214,42.680 172.155,43.483 172.205 C 44.286 172.255,45.191 172.175,45.494 172.028 C 46.110 171.728,47.559 171.446,48.444 171.455 C 48.765 171.457,49.027 171.354,49.027 171.224 C 49.027 171.094,49.377 170.911,49.805 170.817 C 50.233 170.723,50.584 170.553,50.584 170.439 C 50.584 170.325,50.925 170.090,51.343 169.917 C 52.492 169.441,54.364 167.459,54.903 166.148 C 55.167 165.507,55.460 164.982,55.554 164.982 C 55.649 164.981,55.805 164.514,55.901 163.943 C 55.998 163.372,56.173 162.905,56.291 162.905 C 56.408 162.905,56.587 162.409,56.689 161.803 C 56.790 161.196,56.970 160.639,57.088 160.563 C 57.207 160.487,57.451 159.649,57.631 158.701 C 57.811 157.753,58.032 157.023,58.123 157.079 C 58.578 157.360,58.518 152.398,58.060 151.889 C 57.871 151.679,57.431 151.154,57.081 150.721 C 56.731 150.289,56.303 149.935,56.130 149.935 C 55.957 149.935,55.774 149.812,55.724 149.661 C 55.673 149.510,54.796 149.246,53.775 149.074 C 52.753 148.902,51.831 148.675,51.726 148.570 C 51.452 148.296,40.986 148.333,40.986 148.608 M63.800 148.755 C 63.665 148.890,63.554 149.202,63.554 149.447 C 63.554 149.692,63.448 149.931,63.318 149.978 C 63.188 150.026,63.003 150.473,62.908 150.973 C 62.812 151.472,62.671 152.202,62.595 152.594 C 62.519 152.986,62.365 153.307,62.252 153.307 C 62.139 153.307,61.966 153.891,61.868 154.604 C 61.770 155.318,61.594 155.901,61.477 155.901 C 61.360 155.901,61.186 156.368,61.090 156.938 C 60.993 157.508,60.818 158.034,60.700 158.106 C 60.483 158.241,60.065 160.238,60.224 160.384 C 60.272 160.428,60.122 160.753,59.890 161.107 C 59.658 161.460,59.386 162.243,59.284 162.846 C 59.182 163.449,59.005 163.943,58.891 163.943 C 58.777 163.943,58.606 164.466,58.510 165.104 C 58.414 165.743,58.236 166.327,58.115 166.402 C 57.993 166.477,57.749 167.351,57.571 168.344 C 57.394 169.337,57.164 170.098,57.060 170.034 C 56.957 169.970,56.800 170.281,56.711 170.724 C 56.388 172.342,56.160 172.263,60.895 172.185 L 65.240 172.114 65.476 170.623 C 65.607 169.802,65.807 169.131,65.922 169.131 C 66.036 169.131,66.207 168.547,66.302 167.834 C 66.397 167.121,66.588 166.537,66.728 166.537 C 66.867 166.537,66.916 166.365,66.835 166.155 C 66.688 165.772,67.012 164.458,67.458 163.629 C 67.589 163.385,67.832 162.363,67.998 161.359 C 68.163 160.355,68.384 159.533,68.487 159.533 C 68.590 159.533,68.752 158.949,68.847 158.236 C 68.942 157.523,69.123 156.939,69.251 156.939 C 69.378 156.939,69.535 156.735,69.601 156.485 C 69.707 156.077,69.897 158.312,69.801 158.847 C 69.779 158.969,69.869 159.203,70.001 159.366 C 70.133 159.529,70.325 160.977,70.428 162.583 C 70.531 164.190,70.697 165.555,70.798 165.617 C 70.899 165.680,70.940 166.290,70.888 166.973 C 70.837 167.656,70.914 168.451,71.060 168.738 C 71.207 169.025,71.358 169.903,71.396 170.687 L 71.466 172.114 75.213 172.186 L 78.960 172.259 79.687 171.408 C 80.087 170.940,80.414 170.465,80.414 170.351 C 80.415 170.237,80.686 169.887,81.018 169.573 C 81.350 169.258,81.696 168.797,81.788 168.547 C 81.880 168.298,82.061 168.093,82.191 168.093 C 82.321 168.093,82.572 167.743,82.750 167.315 C 82.927 166.887,83.167 166.537,83.282 166.537 C 83.398 166.537,83.574 166.274,83.672 165.953 C 83.771 165.632,84.070 165.162,84.336 164.908 C 84.602 164.654,85.304 163.778,85.895 162.962 C 86.486 162.146,87.100 161.362,87.259 161.219 C 87.418 161.077,87.899 160.435,88.326 159.792 C 88.754 159.150,89.173 158.567,89.257 158.495 C 89.342 158.424,89.780 157.852,90.231 157.224 C 90.704 156.565,91.051 156.264,91.051 156.511 C 91.051 156.746,90.947 156.939,90.820 156.939 C 90.605 156.939,90.132 158.649,90.229 159.079 C 90.253 159.186,90.165 159.274,90.034 159.274 C 89.902 159.274,89.712 159.653,89.612 160.117 C 89.511 160.580,89.338 161.018,89.228 161.089 C 89.117 161.161,88.963 161.569,88.884 161.997 C 88.677 163.132,88.411 163.971,88.024 164.714 C 87.835 165.075,87.681 165.574,87.680 165.824 C 87.679 166.073,87.562 166.278,87.419 166.278 C 87.276 166.278,87.159 166.482,87.158 166.732 C 87.157 166.981,86.987 167.510,86.780 167.907 C 86.573 168.304,86.477 168.819,86.566 169.052 C 86.666 169.312,86.624 169.411,86.458 169.308 C 86.294 169.207,86.118 169.571,86.012 170.230 C 85.917 170.830,85.698 171.411,85.526 171.523 C 84.776 172.009,86.218 172.236,90.078 172.240 C 93.950 172.244,94.163 172.218,94.163 171.740 C 94.163 171.463,94.273 171.169,94.408 171.086 C 94.542 171.003,94.731 170.412,94.826 169.773 C 94.922 169.135,95.085 168.612,95.189 168.612 C 95.378 168.612,96.119 165.802,96.028 165.435 C 96.001 165.327,96.083 165.240,96.209 165.240 C 96.336 165.240,96.518 164.717,96.613 164.079 C 96.709 163.440,96.884 162.858,97.002 162.785 C 97.121 162.711,97.299 162.213,97.400 161.676 C 97.500 161.139,97.681 160.580,97.803 160.433 C 97.924 160.286,98.078 159.877,98.144 159.525 C 98.374 158.293,98.646 157.326,98.835 157.069 C 98.939 156.926,99.108 156.342,99.211 155.772 C 99.314 155.201,99.498 154.613,99.621 154.464 C 99.743 154.316,99.914 153.795,100.000 153.307 C 100.086 152.820,100.250 152.299,100.365 152.151 C 100.614 151.828,101.167 149.641,101.167 148.977 C 101.167 148.537,100.755 148.508,94.446 148.508 L 87.725 148.508 87.289 149.157 C 87.050 149.514,86.864 149.893,86.877 150.000 C 86.890 150.107,86.696 150.409,86.446 150.671 C 86.196 150.932,85.817 151.410,85.603 151.732 C 85.389 152.055,85.010 152.559,84.760 152.852 C 84.510 153.146,84.306 153.544,84.306 153.736 C 84.306 153.928,84.186 154.086,84.039 154.086 C 83.891 154.086,83.696 154.290,83.605 154.540 C 83.514 154.789,83.255 155.243,83.030 155.547 C 82.804 155.852,82.445 156.366,82.231 156.690 C 82.017 157.014,81.637 157.462,81.388 157.686 C 81.138 157.909,80.934 158.223,80.934 158.384 C 80.934 158.640,80.680 159.004,79.642 160.235 C 79.496 160.408,79.377 160.607,79.377 160.678 C 79.377 160.749,79.086 161.237,78.729 161.763 L 78.080 162.718 78.047 161.191 C 78.029 160.350,77.969 159.429,77.914 159.144 C 77.773 158.409,77.343 152.721,77.278 150.720 C 77.248 149.797,77.096 148.922,76.939 148.775 C 76.570 148.430,64.144 148.411,63.800 148.755 M112.062 148.638 C 112.062 148.709,111.653 149.227,111.154 149.788 C 110.655 150.349,110.246 150.961,110.246 151.150 C 110.246 151.338,110.123 151.492,109.972 151.492 C 109.821 151.492,109.769 151.608,109.857 151.751 C 109.946 151.894,109.902 152.010,109.760 152.010 C 109.619 152.010,109.429 152.246,109.337 152.533 C 109.246 152.820,109.076 152.996,108.958 152.924 C 108.841 152.851,108.672 153.083,108.583 153.439 C 108.494 153.795,108.303 154.086,108.160 154.086 C 108.016 154.086,107.788 154.377,107.652 154.734 C 107.517 155.091,107.299 155.383,107.168 155.383 C 107.037 155.383,106.857 155.674,106.768 156.031 C 106.678 156.388,106.488 156.680,106.344 156.680 C 106.201 156.680,105.970 156.942,105.831 157.263 C 105.525 157.969,105.063 158.689,104.540 159.273 C 104.326 159.512,103.975 159.971,103.761 160.293 C 103.547 160.615,103.168 161.119,102.918 161.413 C 102.669 161.707,102.464 162.104,102.464 162.297 C 102.464 162.489,102.368 162.646,102.251 162.646 C 102.002 162.646,100.649 164.650,100.649 165.019 C 100.649 165.157,100.540 165.204,100.408 165.122 C 100.275 165.040,100.089 165.220,99.993 165.521 C 99.897 165.823,99.626 166.283,99.391 166.544 C 98.580 167.442,98.314 167.813,98.314 168.043 C 98.314 168.259,98.039 168.627,96.757 170.126 C 96.472 170.459,96.239 170.887,96.239 171.077 C 96.239 171.267,96.093 171.475,95.914 171.538 C 95.736 171.602,95.660 171.730,95.745 171.822 C 95.942 172.038,104.799 172.168,104.799 171.955 C 104.799 171.868,105.149 171.343,105.578 170.788 C 106.006 170.233,106.532 169.551,106.745 169.273 C 106.959 168.994,107.134 168.673,107.134 168.559 C 107.134 168.446,109.468 168.353,112.322 168.353 L 117.510 168.353 117.510 170.024 C 117.510 170.943,117.622 171.764,117.759 171.848 C 118.210 172.127,126.318 172.131,126.424 171.853 C 126.569 171.474,126.442 168.292,126.263 167.834 C 126.180 167.620,126.031 165.927,125.931 164.073 C 125.832 162.218,125.706 160.292,125.651 159.792 C 125.447 157.941,125.065 152.866,125.012 151.289 C 124.982 150.393,124.857 149.598,124.735 149.523 C 124.613 149.447,124.514 149.188,124.514 148.947 C 124.513 148.547,123.961 148.508,118.288 148.508 C 114.864 148.508,112.062 148.567,112.062 148.638 M135.029 149.303 C 134.822 149.740,134.574 150.586,134.478 151.184 C 134.383 151.781,134.216 152.270,134.108 152.270 C 134.000 152.270,133.833 152.792,133.737 153.431 C 133.641 154.070,133.466 154.652,133.348 154.725 C 133.229 154.798,133.051 155.297,132.950 155.834 C 132.850 156.370,132.652 156.950,132.510 157.122 C 132.367 157.294,132.326 157.557,132.418 157.706 C 132.510 157.855,132.462 157.977,132.311 157.977 C 132.160 157.977,132.036 158.298,132.035 158.690 C 132.034 159.082,131.875 159.706,131.682 160.076 C 131.489 160.446,131.248 161.190,131.147 161.729 C 131.046 162.269,130.864 162.900,130.743 163.132 C 130.414 163.764,129.497 166.790,129.299 167.899 C 129.203 168.434,129.032 168.872,128.917 168.872 C 128.803 168.872,128.628 169.368,128.528 169.974 C 128.428 170.580,128.221 171.231,128.068 171.421 C 127.532 172.083,128.506 172.243,132.685 172.179 L 136.835 172.114 137.224 170.298 C 137.438 169.300,137.690 168.365,137.784 168.221 C 137.879 168.077,138.040 167.494,138.143 166.924 C 138.245 166.354,138.416 165.772,138.521 165.629 C 138.627 165.486,138.797 164.903,138.900 164.332 C 139.003 163.761,139.176 163.178,139.286 163.035 C 139.395 162.892,139.629 162.017,139.806 161.089 C 139.982 160.162,140.217 159.287,140.328 159.144 C 140.438 159.001,140.613 158.418,140.716 157.847 C 140.818 157.276,140.996 156.693,141.111 156.550 C 141.225 156.407,141.376 156.057,141.447 155.772 C 141.517 155.486,141.588 155.742,141.604 156.340 C 141.621 156.938,141.733 157.488,141.854 157.563 C 141.975 157.638,142.222 159.133,142.403 160.886 C 142.584 162.639,142.821 164.189,142.930 164.332 C 143.039 164.475,143.212 165.350,143.316 166.278 C 143.419 167.205,143.559 168.197,143.626 168.482 C 143.693 168.768,143.845 169.608,143.964 170.349 C 144.083 171.089,144.256 171.819,144.349 171.970 C 144.544 172.285,157.927 172.357,158.388 172.045 C 158.656 171.864,158.868 171.234,159.540 168.612 C 159.705 167.970,159.895 167.270,159.962 167.056 C 160.030 166.842,160.049 166.655,160.004 166.642 C 159.959 166.628,160.055 166.453,160.216 166.253 C 160.378 166.052,160.594 165.501,160.695 165.028 C 160.796 164.555,161.042 163.854,161.242 163.472 C 161.442 163.089,161.606 162.455,161.607 162.062 C 161.608 161.670,161.725 161.349,161.868 161.349 C 162.010 161.349,162.108 161.261,162.085 161.154 C 162.061 161.047,162.127 160.661,162.230 160.296 C 162.333 159.931,162.446 159.464,162.480 159.258 C 162.513 159.053,162.670 158.651,162.827 158.366 C 162.985 158.080,163.197 157.292,163.298 156.615 C 163.400 155.937,163.579 155.383,163.697 155.383 C 163.815 155.383,163.990 154.857,164.086 154.215 C 164.182 153.573,164.349 153.048,164.456 153.048 C 164.563 153.048,164.800 152.318,164.984 151.427 C 165.167 150.535,165.395 149.689,165.489 149.546 C 166.059 148.685,165.670 148.589,161.439 148.548 C 159.134 148.526,157.302 148.596,157.368 148.703 C 157.434 148.810,157.365 148.898,157.214 148.898 C 157.063 148.898,156.939 149.131,156.939 149.416 C 156.939 149.702,156.847 149.935,156.735 149.935 C 156.623 149.935,156.400 150.548,156.239 151.297 C 155.785 153.406,155.011 156.260,154.807 156.575 C 154.706 156.731,154.545 157.346,154.450 157.942 C 154.355 158.538,154.179 159.086,154.059 159.160 C 153.939 159.234,153.764 159.874,153.671 160.581 C 153.577 161.289,153.409 161.868,153.297 161.868 C 153.186 161.868,152.957 162.684,152.789 163.683 C 152.620 164.681,152.391 165.554,152.280 165.623 C 152.104 165.731,151.589 161.820,151.708 161.284 C 151.732 161.177,151.650 161.089,151.527 161.089 C 151.404 161.089,151.223 160.203,151.125 159.120 C 151.027 158.036,150.845 156.956,150.720 156.720 C 150.550 156.398,149.955 152.402,149.819 150.670 C 149.812 150.575,149.718 150.410,149.611 150.303 C 149.504 150.196,149.416 149.748,149.416 149.308 L 149.417 148.508 142.412 148.508 L 135.407 148.508 135.029 149.303 M188.877 148.823 C 188.716 148.996,188.449 149.434,188.284 149.796 C 188.119 150.158,187.886 150.454,187.766 150.454 C 187.647 150.454,187.549 150.633,187.549 150.851 C 187.549 151.070,187.374 151.316,187.160 151.398 C 186.946 151.480,186.770 151.681,186.770 151.844 C 186.770 152.007,186.507 152.450,186.186 152.829 C 185.866 153.208,185.428 153.779,185.214 154.098 C 184.627 154.971,182.941 157.286,182.632 157.641 C 182.483 157.814,182.361 158.035,182.361 158.134 C 182.361 158.232,181.952 158.811,181.453 159.420 C 180.953 160.030,180.545 160.606,180.545 160.700 C 180.545 160.795,180.136 161.371,179.637 161.980 C 179.137 162.590,178.729 163.169,178.729 163.267 C 178.729 163.441,177.818 164.800,177.302 165.396 C 177.160 165.560,176.868 165.959,176.654 166.282 C 176.440 166.605,176.002 167.190,175.681 167.583 C 175.360 167.976,175.097 168.377,175.097 168.474 C 175.097 168.570,174.951 168.802,174.773 168.988 C 174.595 169.174,174.274 169.588,174.060 169.907 C 173.846 170.227,173.484 170.737,173.255 171.042 C 173.027 171.346,172.881 171.712,172.931 171.855 C 173.047 172.187,181.936 172.089,182.048 171.754 C 182.092 171.622,182.352 171.255,182.626 170.940 C 182.900 170.625,183.193 170.147,183.278 169.878 C 183.363 169.610,183.534 169.390,183.658 169.390 C 183.781 169.390,183.956 169.157,184.047 168.872 C 184.204 168.376,184.439 168.353,189.382 168.353 L 194.553 168.353 194.553 169.634 C 194.553 170.339,194.669 170.988,194.812 171.077 C 194.955 171.165,195.071 171.434,195.071 171.675 C 195.071 172.072,195.478 172.109,199.286 172.056 L 203.502 171.999 203.445 169.722 C 203.413 168.470,203.277 166.044,203.142 164.332 C 203.007 162.620,202.868 160.490,202.834 159.598 C 202.800 158.706,202.688 157.977,202.586 157.977 C 202.484 157.977,202.315 155.971,202.210 153.521 C 202.092 150.750,201.908 148.959,201.723 148.787 C 201.281 148.372,189.266 148.406,188.877 148.823 M212.242 148.805 C 212.089 148.968,211.817 149.814,211.637 150.685 C 211.457 151.557,211.227 152.270,211.125 152.270 C 211.024 152.270,210.862 152.736,210.765 153.306 C 210.669 153.876,210.487 154.406,210.361 154.484 C 210.235 154.562,210.055 155.202,209.962 155.907 C 209.868 156.612,209.687 157.124,209.559 157.045 C 209.431 156.965,209.352 156.997,209.385 157.114 C 209.480 157.458,208.782 160.066,208.397 160.803 C 208.203 161.175,208.044 161.734,208.043 162.047 C 208.042 162.360,207.938 162.679,207.812 162.757 C 207.685 162.836,207.499 163.338,207.399 163.873 C 207.298 164.409,207.143 164.965,207.052 165.108 C 206.962 165.252,206.861 165.486,206.828 165.629 C 206.428 167.329,206.152 168.296,205.966 168.645 C 205.843 168.877,205.663 169.490,205.566 170.007 C 205.469 170.524,205.286 170.947,205.159 170.947 C 205.032 170.947,204.929 171.233,204.929 171.583 L 204.929 172.218 209.210 172.217 L 213.491 172.215 213.844 171.516 C 214.039 171.132,214.282 170.351,214.386 169.781 C 214.489 169.212,214.649 168.628,214.741 168.484 C 214.833 168.341,214.915 168.165,214.924 168.093 C 214.958 167.836,215.342 166.655,215.558 166.148 C 215.680 165.863,215.900 165.162,216.047 164.591 C 216.607 162.421,217.232 160.436,217.395 160.311 C 217.488 160.240,217.650 159.715,217.755 159.144 C 217.860 158.573,218.081 157.938,218.246 157.732 C 218.478 157.444,218.474 157.402,218.228 157.550 C 217.995 157.690,218.005 157.546,218.264 157.016 C 218.795 155.931,219.225 154.635,219.562 153.101 C 219.728 152.346,219.935 151.799,220.022 151.886 C 220.109 151.972,220.262 151.452,220.361 150.730 C 220.460 150.007,220.656 149.416,220.796 149.416 C 220.935 149.416,221.012 149.230,220.966 149.002 C 220.860 148.478,212.719 148.294,212.242 148.805 M224.789 148.898 C 224.730 149.112,224.601 149.695,224.503 150.195 C 224.405 150.694,224.236 151.219,224.128 151.362 C 224.021 151.505,223.854 152.059,223.757 152.594 C 223.661 153.129,223.494 153.567,223.386 153.567 C 223.278 153.567,223.056 154.121,222.894 154.799 C 222.197 157.702,221.683 159.414,221.463 159.562 C 221.333 159.649,221.242 159.796,221.260 159.888 C 221.347 160.322,220.928 161.868,220.723 161.868 C 220.597 161.868,220.510 161.955,220.531 162.062 C 220.629 162.563,220.138 164.462,219.911 164.462 C 219.770 164.462,219.715 164.695,219.790 164.981 C 219.864 165.266,219.830 165.499,219.713 165.499 C 219.596 165.499,219.422 165.966,219.326 166.536 C 219.229 167.106,219.044 167.638,218.914 167.718 C 218.784 167.799,218.676 168.120,218.675 168.433 C 218.675 168.746,218.516 169.304,218.323 169.674 C 218.130 170.044,217.894 170.764,217.798 171.274 L 217.624 172.201 222.007 172.231 L 226.391 172.261 226.589 171.409 C 226.698 170.941,226.767 170.412,226.742 170.233 C 226.716 170.055,226.804 169.909,226.937 169.909 C 227.070 169.909,227.257 169.387,227.353 168.748 C 227.448 168.109,227.637 167.519,227.771 167.436 C 227.906 167.353,228.015 167.029,228.015 166.716 C 228.015 166.152,228.040 166.149,231.738 166.278 C 236.581 166.446,236.744 166.620,235.528 170.325 C 234.847 172.401,234.537 172.244,239.296 172.244 L 243.542 172.244 243.960 171.406 C 244.190 170.944,244.517 169.835,244.687 168.941 C 244.856 168.047,245.085 167.315,245.195 167.315 C 245.573 167.315,245.408 165.055,245.006 164.721 C 244.792 164.544,244.617 164.237,244.617 164.041 C 244.617 163.844,244.442 163.684,244.228 163.684 C 244.014 163.684,243.839 163.567,243.839 163.424 C 243.839 163.281,243.650 163.165,243.418 163.165 C 243.074 163.165,243.056 163.094,243.320 162.776 C 243.498 162.562,243.823 162.387,244.043 162.387 C 244.776 162.387,246.685 161.079,247.087 160.301 C 247.305 159.879,247.589 159.533,247.716 159.533 C 247.844 159.533,248.027 159.175,248.123 158.737 C 248.219 158.300,248.461 157.629,248.661 157.246 C 248.861 156.863,249.025 156.229,249.026 155.837 C 249.027 155.444,249.126 155.123,249.246 155.123 C 249.366 155.123,249.489 154.354,249.520 153.414 C 249.618 150.378,247.902 148.898,244.286 148.898 C 243.660 148.898,243.080 148.830,242.998 148.748 C 242.609 148.359,224.898 148.504,224.789 148.898 M47.400 154.512 C 48.474 154.641,48.791 154.789,48.926 155.223 C 49.020 155.525,49.227 155.857,49.386 155.962 C 49.598 156.101,49.596 156.154,49.381 156.157 C 49.219 156.159,49.007 156.803,48.909 157.588 C 48.811 158.372,48.632 159.014,48.513 159.014 C 48.393 159.014,48.213 159.510,48.112 160.117 C 48.012 160.723,47.857 161.336,47.769 161.479 C 47.681 161.621,47.599 161.796,47.586 161.868 C 47.282 163.663,45.883 165.759,44.990 165.759 C 44.809 165.759,44.614 165.900,44.556 166.072 C 44.410 166.511,37.879 166.448,37.606 166.005 C 37.499 165.833,37.292 165.767,37.145 165.857 C 36.685 166.142,36.528 164.571,36.852 162.923 C 37.023 162.057,37.257 161.349,37.372 161.349 C 37.487 161.349,37.660 160.824,37.757 160.182 C 37.853 159.540,38.035 159.014,38.162 159.014 C 38.288 159.014,38.392 158.788,38.392 158.512 C 38.392 158.236,38.527 157.682,38.693 157.280 C 38.859 156.879,38.973 156.454,38.946 156.336 C 38.919 156.218,39.009 156.191,39.145 156.275 C 39.281 156.359,39.467 156.193,39.558 155.906 C 39.649 155.619,40.007 155.313,40.355 155.225 C 40.702 155.138,40.986 154.971,40.986 154.853 C 40.986 154.424,44.925 154.215,47.400 154.512 M116.905 156.745 C 116.952 157.779,117.062 159.647,117.147 160.895 L 117.304 163.165 114.155 163.165 L 111.006 163.165 111.316 162.586 C 111.486 162.268,111.782 161.851,111.974 161.660 C 112.165 161.469,112.322 161.158,112.322 160.969 C 112.322 160.780,112.504 160.556,112.727 160.471 C 112.950 160.385,113.064 160.203,112.979 160.067 C 112.895 159.930,113.061 159.693,113.349 159.539 C 113.637 159.385,113.942 158.979,114.028 158.636 C 114.114 158.294,114.349 157.951,114.550 157.874 C 114.751 157.797,114.916 157.555,114.916 157.336 C 114.916 157.118,115.032 156.939,115.175 156.939 C 115.318 156.939,115.435 156.763,115.435 156.547 C 115.435 156.332,115.668 155.956,115.953 155.712 C 116.239 155.467,116.472 155.099,116.472 154.893 C 116.472 153.644,116.833 155.190,116.905 156.745 M239.862 155.081 C 240.875 156.705,238.825 159.789,236.653 159.909 C 236.339 159.926,235.999 160.024,235.897 160.126 C 235.795 160.228,234.447 160.311,232.901 160.311 L 230.091 160.311 230.091 159.647 C 230.091 159.282,230.194 159.048,230.321 159.126 C 230.448 159.204,230.630 158.747,230.725 158.110 C 230.821 157.473,231.017 156.878,231.161 156.789 C 231.305 156.700,231.362 156.468,231.287 156.273 C 231.212 156.078,231.263 155.849,231.399 155.765 C 231.536 155.680,231.647 155.385,231.647 155.108 C 231.647 154.353,239.391 154.328,239.862 155.081 M193.981 156.485 C 194.023 157.377,194.119 159.244,194.193 160.636 L 194.329 163.165 191.004 163.161 C 189.175 163.159,187.798 163.071,187.944 162.966 C 188.385 162.651,189.883 160.645,189.883 160.371 C 189.883 160.230,190.076 159.955,190.313 159.759 C 190.549 159.564,190.900 159.024,191.094 158.560 C 191.288 158.097,191.562 157.717,191.703 157.717 C 191.843 157.717,191.958 157.596,191.958 157.447 C 191.958 157.298,192.077 157.036,192.223 156.863 C 193.231 155.667,193.515 155.277,193.515 155.084 C 193.515 154.015,193.922 155.238,193.981 156.485 " stroke="none" fill="#a4acac" fill-rule="evenodd"></path><path id="path1" d="M371.336 85.932 C 371.051 86.250,370.467 86.686,370.039 86.900 C 369.611 87.113,369.202 87.347,369.131 87.419 C 368.827 87.724,366.574 88.716,366.184 88.716 C 365.950 88.716,365.759 88.822,365.759 88.952 C 365.759 89.082,364.912 89.334,363.878 89.512 C 362.844 89.690,361.865 89.938,361.703 90.061 C 361.541 90.185,360.607 90.359,359.628 90.449 C 358.648 90.538,357.764 90.739,357.662 90.896 C 357.399 91.300,337.692 91.284,337.193 90.879 C 336.996 90.720,335.610 90.505,334.112 90.402 C 332.613 90.299,331.271 90.127,331.128 90.019 C 330.986 89.911,329.351 89.672,327.497 89.488 C 325.642 89.304,324.008 89.066,323.865 88.961 C 323.722 88.855,322.584 88.684,321.336 88.582 C 320.088 88.479,319.066 88.309,319.066 88.204 C 319.066 88.098,318.109 87.933,316.940 87.835 C 315.771 87.738,314.682 87.548,314.520 87.414 C 313.970 86.957,306.096 86.980,306.096 87.438 C 306.096 87.547,305.747 87.714,305.320 87.808 C 304.580 87.970,301.686 90.512,301.686 91.000 C 301.686 91.127,301.453 91.500,301.167 91.829 C 300.882 92.158,300.649 92.691,300.649 93.014 C 300.649 93.337,300.509 93.648,300.338 93.705 C 299.903 93.850,299.904 99.146,300.339 99.291 C 300.510 99.348,300.722 99.852,300.812 100.411 C 300.901 100.970,301.062 101.427,301.169 101.427 C 301.276 101.427,301.517 101.806,301.704 102.270 C 301.892 102.733,302.198 103.206,302.384 103.320 C 302.571 103.434,302.724 103.647,302.724 103.793 C 302.724 104.877,303.960 105.007,304.787 104.010 C 305.137 103.588,305.520 103.243,305.639 103.243 C 305.757 103.243,306.183 102.906,306.586 102.494 C 306.989 102.082,307.570 101.665,307.878 101.567 C 308.186 101.469,308.377 101.291,308.302 101.170 C 308.228 101.049,308.518 100.873,308.947 100.779 C 309.376 100.684,309.728 100.515,309.728 100.402 C 309.728 100.289,310.282 100.045,310.960 99.858 C 311.637 99.672,312.276 99.394,312.378 99.241 C 312.648 98.836,335.322 98.957,335.815 99.366 C 336.043 99.555,336.627 99.604,337.413 99.500 C 338.094 99.409,340.857 99.230,343.553 99.102 C 346.250 98.973,348.526 98.759,348.612 98.624 C 348.698 98.490,349.906 98.296,351.297 98.193 C 352.688 98.090,353.826 97.917,353.826 97.808 C 353.826 97.699,354.906 97.462,356.226 97.283 C 357.545 97.103,358.684 96.868,358.755 96.759 C 358.826 96.650,359.410 96.495,360.052 96.414 C 360.694 96.332,361.015 96.327,360.765 96.401 C 360.516 96.475,360.311 96.626,360.311 96.735 C 360.311 96.844,359.465 97.083,358.431 97.265 C 357.396 97.447,356.433 97.688,356.291 97.800 C 356.148 97.913,355.331 98.088,354.475 98.191 C 353.619 98.294,352.802 98.469,352.659 98.579 C 352.516 98.690,351.466 98.865,350.324 98.968 C 349.183 99.070,348.085 99.286,347.884 99.447 C 347.620 99.660,342.888 99.722,330.634 99.673 C 314.419 99.609,311.025 99.731,311.025 100.379 C 311.025 100.495,310.616 100.667,310.117 100.761 C 309.617 100.855,309.209 101.035,309.209 101.162 C 309.209 101.288,308.964 101.470,308.664 101.565 C 308.043 101.762,307.754 101.994,305.738 103.916 C 304.136 105.444,304.117 105.482,304.651 106.074 C 304.855 106.300,305.409 106.915,305.883 107.440 C 306.357 107.964,306.931 108.606,307.160 108.866 C 307.388 109.126,308.264 109.958,309.105 110.716 C 309.947 111.474,311.056 112.495,311.570 112.986 C 312.084 113.477,312.586 113.878,312.686 113.878 C 312.785 113.878,313.287 114.287,313.801 114.786 C 314.315 115.285,314.864 115.699,315.020 115.705 C 315.177 115.711,315.591 116.061,315.941 116.483 C 316.291 116.905,316.687 117.250,316.820 117.250 C 316.954 117.250,317.205 117.444,317.379 117.682 C 317.837 118.308,318.503 117.940,318.976 116.800 C 319.199 116.263,319.544 115.730,319.743 115.616 C 319.941 115.502,320.109 115.269,320.115 115.097 C 320.126 114.779,321.760 113.619,322.197 113.619 C 322.330 113.619,322.438 113.496,322.438 113.346 C 322.438 113.075,323.946 112.416,324.319 112.525 C 324.426 112.556,324.514 112.478,324.514 112.351 C 324.514 112.225,325.068 112.038,325.746 111.937 C 326.423 111.835,327.043 111.647,327.123 111.519 C 327.202 111.390,328.691 111.209,330.430 111.115 C 332.170 111.021,333.593 110.846,333.593 110.725 C 333.593 110.605,334.789 110.506,336.252 110.507 C 339.515 110.508,346.822 109.957,346.822 109.709 C 346.822 109.610,347.581 109.447,348.508 109.348 C 349.436 109.249,350.195 109.070,350.195 108.952 C 350.195 108.833,350.661 108.657,351.232 108.560 C 351.803 108.464,352.270 108.294,352.270 108.182 C 352.270 108.071,352.795 107.832,353.437 107.652 C 354.079 107.473,354.604 107.233,354.604 107.120 C 354.604 107.008,354.955 106.838,355.383 106.744 C 355.811 106.650,356.161 106.466,356.161 106.335 C 356.161 106.203,356.340 106.096,356.558 106.096 C 356.777 106.096,357.018 105.931,357.096 105.730 C 357.173 105.529,357.517 105.294,357.860 105.208 C 358.204 105.122,358.849 104.695,359.295 104.260 C 359.740 103.824,360.164 103.528,360.237 103.600 C 360.382 103.746,359.049 105.058,358.757 105.058 C 358.598 105.058,358.294 105.282,357.049 106.319 C 356.895 106.447,356.516 106.632,356.206 106.730 C 355.896 106.829,355.642 107.005,355.642 107.122 C 355.642 107.239,355.245 107.410,354.760 107.501 C 354.275 107.592,353.742 107.831,353.575 108.032 C 353.408 108.233,352.929 108.472,352.511 108.564 C 352.093 108.656,351.751 108.828,351.751 108.946 C 351.751 109.064,351.167 109.240,350.454 109.339 C 349.741 109.437,349.157 109.607,349.157 109.718 C 349.157 109.947,345.139 110.506,343.497 110.506 C 342.901 110.506,342.412 110.607,342.412 110.730 C 342.412 110.853,339.815 111.039,336.641 111.143 C 333.466 111.248,330.752 111.424,330.610 111.536 C 330.467 111.648,329.562 111.822,328.599 111.922 C 327.636 112.022,326.848 112.211,326.848 112.342 C 326.848 112.474,326.562 112.581,326.212 112.581 C 325.621 112.581,324.292 113.044,323.995 113.354 C 323.923 113.428,323.419 113.716,322.874 113.993 C 322.330 114.271,321.771 114.709,321.633 114.966 C 321.495 115.224,321.212 115.435,321.003 115.435 C 320.794 115.435,320.623 115.597,320.623 115.796 C 320.623 115.995,320.447 116.224,320.233 116.307 C 320.019 116.389,319.844 116.635,319.844 116.853 C 319.844 117.072,319.733 117.250,319.597 117.250 C 318.816 117.250,319.016 119.104,319.878 119.859 C 320.359 120.280,321.002 120.857,321.308 121.142 C 321.613 121.427,321.931 121.660,322.015 121.660 C 322.098 121.660,324.261 123.761,326.820 126.329 C 332.104 131.632,331.924 131.527,332.166 129.442 C 332.265 128.586,332.437 127.886,332.548 127.886 C 332.659 127.886,332.819 127.539,332.904 127.116 C 333.139 125.942,335.696 123.536,337.112 123.157 C 337.744 122.988,338.262 122.766,338.262 122.665 C 338.262 122.563,338.612 122.403,339.040 122.309 C 339.468 122.215,339.818 122.043,339.818 121.928 C 339.818 121.812,340.227 121.641,340.726 121.548 C 341.226 121.454,341.634 121.280,341.634 121.162 C 341.634 121.044,341.984 120.877,342.412 120.791 C 342.840 120.706,343.710 120.399,344.344 120.110 C 344.978 119.821,345.620 119.585,345.770 119.585 C 345.921 119.585,346.044 119.477,346.044 119.346 C 346.044 119.215,346.394 119.030,346.822 118.936 C 347.250 118.842,347.601 118.677,347.601 118.568 C 347.601 118.459,348.067 118.230,348.638 118.059 C 349.209 117.888,349.676 117.636,349.676 117.499 C 349.676 117.362,349.843 117.250,350.046 117.250 C 350.250 117.250,350.571 117.103,350.760 116.923 C 350.948 116.743,351.394 116.447,351.751 116.264 C 353.416 115.413,353.653 115.229,356.142 112.840 C 357.108 111.913,357.971 110.950,358.059 110.700 C 358.148 110.451,358.340 110.246,358.487 110.246 C 358.634 110.246,358.755 110.077,358.755 109.870 C 358.755 109.663,358.906 109.401,359.090 109.287 C 359.482 109.044,360.830 106.095,360.830 105.480 C 360.830 105.248,360.947 105.058,361.089 105.058 C 361.526 105.058,361.393 103.549,360.949 103.456 C 360.672 103.398,361.093 102.802,362.311 101.528 C 364.633 99.096,365.240 98.345,365.240 97.903 C 365.240 97.701,365.349 97.536,365.482 97.536 C 365.615 97.536,365.806 97.273,365.906 96.952 C 366.006 96.631,366.198 96.298,366.332 96.211 C 366.815 95.900,366.910 93.904,366.441 93.904 C 366.209 93.904,366.018 94.016,366.018 94.153 C 366.018 94.290,365.551 94.542,364.981 94.713 C 364.410 94.884,363.943 95.122,363.943 95.242 C 363.943 95.362,363.768 95.460,363.554 95.460 C 362.868 95.460,363.138 94.989,363.922 94.817 C 364.338 94.725,364.939 94.424,365.258 94.147 C 365.577 93.871,365.983 93.645,366.160 93.645 C 366.337 93.645,366.549 93.470,366.631 93.256 C 366.713 93.042,366.905 92.866,367.057 92.866 C 367.417 92.866,370.794 89.489,371.018 88.905 C 371.112 88.658,371.301 88.457,371.437 88.457 C 371.573 88.457,371.761 88.106,371.855 87.678 C 371.949 87.250,372.135 86.900,372.269 86.900 C 372.402 86.900,372.485 86.550,372.452 86.122 C 372.382 85.199,372.045 85.141,371.336 85.932 M362.581 95.639 C 362.331 95.705,362.127 95.866,362.127 95.998 C 362.127 96.130,361.952 96.239,361.738 96.239 C 361.524 96.239,361.349 96.130,361.349 95.998 C 361.349 95.749,361.969 95.521,362.646 95.521 C 362.897 95.521,362.874 95.563,362.581 95.639 M79.118 103.997 C 79.118 104.279,79.013 104.574,78.885 104.653 C 78.756 104.732,78.507 105.398,78.331 106.133 C 78.155 106.867,77.852 107.772,77.658 108.144 C 77.464 108.516,77.305 109.082,77.304 109.403 C 77.303 109.724,77.196 109.987,77.066 109.987 C 76.935 109.987,76.750 110.453,76.654 111.023 C 76.558 111.593,76.377 112.122,76.253 112.199 C 76.129 112.275,75.891 113.035,75.723 113.886 C 75.556 114.738,75.324 115.435,75.209 115.435 C 75.094 115.435,74.921 115.960,74.824 116.602 C 74.728 117.244,74.556 117.769,74.442 117.769 C 74.328 117.769,74.156 118.236,74.060 118.807 C 73.963 119.377,73.792 119.844,73.680 119.844 C 73.568 119.844,73.321 120.545,73.131 121.401 C 72.941 122.257,72.703 122.957,72.602 122.957 C 72.502 122.957,72.340 123.424,72.244 123.995 C 72.147 124.565,71.972 125.032,71.855 125.032 C 71.737 125.032,71.558 125.529,71.457 126.135 C 71.355 126.741,71.187 127.296,71.082 127.367 C 70.978 127.438,70.811 127.935,70.713 128.470 L 70.534 129.442 76.999 129.442 L 83.463 129.442 83.607 130.156 C 83.812 131.174,85.114 132.522,86.078 132.715 C 86.530 132.805,86.900 132.982,86.900 133.106 C 86.900 133.231,87.542 133.333,88.327 133.333 C 89.112 133.333,89.754 133.232,89.754 133.108 C 89.754 132.984,90.247 132.817,90.850 132.736 C 91.454 132.655,91.989 132.464,92.039 132.312 C 92.090 132.161,92.300 132.036,92.507 132.036 C 92.714 132.036,92.950 131.861,93.032 131.647 C 93.114 131.433,93.326 131.258,93.503 131.258 C 93.680 131.258,94.245 130.850,94.759 130.350 L 95.694 129.442 110.741 129.442 L 125.787 129.442 125.957 128.534 C 126.051 128.035,126.218 127.626,126.329 127.626 C 126.440 127.626,126.673 126.868,126.848 125.940 C 127.023 125.013,127.260 124.254,127.374 124.254 C 127.488 124.254,127.660 123.787,127.756 123.217 C 127.853 122.646,128.025 122.179,128.139 122.179 C 128.253 122.179,128.425 121.654,128.521 121.012 C 128.617 120.370,128.797 119.844,128.921 119.844 C 129.044 119.844,129.289 119.202,129.465 118.418 C 129.641 117.633,129.869 116.991,129.973 116.991 C 130.077 116.991,130.240 116.466,130.337 115.824 C 130.433 115.182,130.602 114.656,130.711 114.656 C 130.821 114.656,131.040 114.160,131.197 113.554 C 131.821 111.143,132.416 109.334,132.610 109.252 C 132.722 109.204,132.818 108.913,132.823 108.604 C 132.828 108.294,133.058 107.575,133.333 107.004 C 133.609 106.433,133.838 105.769,133.843 105.528 C 133.848 105.286,133.969 105.017,134.112 104.929 C 134.254 104.840,134.371 104.483,134.371 104.135 L 134.371 103.502 131.388 103.502 C 128.909 103.502,128.405 103.568,128.405 103.891 C 128.405 104.105,128.295 104.280,128.161 104.280 C 128.027 104.280,127.839 104.805,127.743 105.447 C 127.646 106.089,127.483 106.615,127.379 106.615 C 127.275 106.615,127.047 107.255,126.872 108.037 C 126.697 108.819,126.455 109.520,126.334 109.595 C 126.214 109.669,126.036 110.197,125.940 110.767 C 125.844 111.337,125.678 111.803,125.572 111.803 C 125.466 111.803,125.251 112.299,125.094 112.905 C 124.492 115.229,123.882 117.126,123.695 117.258 C 123.588 117.334,123.422 117.888,123.325 118.490 C 123.229 119.092,123.061 119.585,122.953 119.585 C 122.844 119.585,122.676 120.008,122.579 120.525 C 122.482 121.042,122.303 121.655,122.180 121.887 C 122.058 122.119,121.894 122.513,121.817 122.763 C 121.690 123.173,110.246 123.531,110.246 123.125 C 110.246 122.021,111.702 121.529,115.216 121.446 L 118.794 121.362 119.112 119.825 C 119.287 118.980,119.517 118.288,119.625 118.288 C 119.733 118.288,119.897 117.879,119.991 117.380 C 120.085 116.881,120.265 116.472,120.392 116.472 C 120.519 116.472,120.623 116.167,120.623 115.794 C 120.623 115.162,120.566 115.129,119.780 115.313 C 119.316 115.422,116.398 115.556,113.294 115.612 C 109.921 115.672,107.652 115.814,107.652 115.963 C 107.652 116.100,107.506 116.217,107.328 116.221 C 106.895 116.233,105.837 117.131,105.837 117.486 C 105.837 117.642,105.730 117.769,105.600 117.769 C 105.470 117.769,105.284 118.236,105.188 118.807 C 105.092 119.377,104.917 119.844,104.799 119.844 C 104.681 119.844,104.505 120.340,104.408 120.947 C 104.063 123.089,103.858 123.217,100.772 123.217 C 98.227 123.217,98.054 123.184,98.054 122.698 C 98.054 122.412,97.938 122.179,97.795 122.179 C 97.652 122.179,97.536 121.883,97.536 121.522 C 97.536 121.161,97.361 120.798,97.147 120.716 C 96.933 120.634,96.757 120.401,96.757 120.198 C 96.757 119.994,96.553 119.753,96.304 119.661 C 96.054 119.568,95.766 119.368,95.664 119.215 C 95.121 118.401,89.259 119.103,88.457 120.079 C 88.385 120.165,87.864 120.582,87.298 121.004 C 86.076 121.916,85.267 122.696,85.538 122.702 C 85.645 122.704,85.558 122.819,85.344 122.957 C 84.654 123.403,78.599 123.286,78.599 122.827 C 78.599 122.613,78.706 122.438,78.836 122.438 C 78.966 122.438,79.151 121.972,79.248 121.402 C 79.344 120.832,79.516 120.308,79.630 120.238 C 79.744 120.167,79.913 119.705,80.006 119.210 C 80.099 118.715,80.345 117.984,80.553 117.586 C 80.761 117.187,80.932 116.628,80.934 116.342 C 80.936 116.057,81.111 115.489,81.325 115.081 C 81.538 114.672,81.716 114.205,81.721 114.043 C 81.726 113.881,81.955 113.281,82.231 112.711 C 82.507 112.140,82.736 111.417,82.741 111.105 C 82.746 110.792,82.874 110.459,83.027 110.365 C 83.179 110.271,83.241 110.031,83.165 109.831 C 83.088 109.632,83.138 109.468,83.277 109.468 C 83.415 109.468,83.529 109.206,83.529 108.885 C 83.530 108.564,83.701 107.975,83.909 107.577 C 84.117 107.178,84.362 106.449,84.455 105.955 C 84.548 105.462,84.735 105.058,84.871 105.058 C 85.007 105.058,85.082 104.737,85.037 104.345 L 84.955 103.632 82.036 103.558 C 79.279 103.489,79.118 103.513,79.118 103.997 M136.770 103.890 C 136.592 104.093,136.445 104.467,136.445 104.723 C 136.444 104.979,136.273 105.514,136.065 105.912 C 135.857 106.311,135.612 107.040,135.519 107.534 C 135.427 108.027,135.262 108.431,135.154 108.431 C 135.046 108.431,134.820 109.127,134.653 109.979 C 134.485 110.830,134.236 111.596,134.100 111.680 C 133.964 111.765,133.848 112.031,133.843 112.272 C 133.838 112.513,133.609 113.178,133.333 113.748 C 133.058 114.319,132.828 115.042,132.823 115.354 C 132.818 115.667,132.706 115.990,132.573 116.072 C 132.440 116.154,132.188 116.862,132.013 117.644 C 131.838 118.426,131.609 119.066,131.506 119.066 C 131.402 119.066,131.238 119.591,131.142 120.233 C 131.046 120.875,130.857 121.401,130.723 121.401 C 130.589 121.401,130.479 121.663,130.478 121.984 C 130.477 122.305,130.313 122.881,130.114 123.264 C 129.914 123.647,129.668 124.347,129.567 124.820 C 129.466 125.294,129.163 126.171,128.894 126.769 C 128.625 127.368,128.405 128.214,128.405 128.650 L 128.405 129.442 131.352 129.442 L 134.300 129.442 134.632 127.878 C 134.815 127.018,135.064 126.252,135.186 126.177 C 135.309 126.101,135.409 125.860,135.409 125.640 C 135.409 125.420,135.581 124.873,135.792 124.423 C 136.297 123.345,137.484 119.673,137.484 119.188 C 137.484 118.978,137.593 118.807,137.727 118.807 C 137.861 118.807,138.050 118.281,138.146 117.639 C 138.242 116.997,138.411 116.472,138.522 116.472 C 138.633 116.472,138.805 116.034,138.905 115.499 C 139.005 114.964,139.176 114.410,139.285 114.267 C 139.395 114.125,139.626 113.426,139.800 112.714 C 139.974 112.003,140.213 111.361,140.331 111.287 C 140.449 111.214,140.606 110.769,140.680 110.298 C 140.754 109.827,140.936 109.295,141.084 109.118 C 141.231 108.940,141.430 108.304,141.526 107.704 C 141.622 107.105,141.789 106.615,141.896 106.615 C 142.099 106.615,142.672 104.614,142.672 103.906 C 142.672 103.340,137.268 103.325,136.770 103.890 M174.462 104.669 C 174.366 105.311,174.197 105.837,174.087 105.837 C 173.978 105.837,173.759 106.333,173.602 106.939 C 173.009 109.229,172.392 111.159,172.212 111.287 C 172.109 111.359,171.947 111.768,171.851 112.195 C 171.755 112.621,171.522 113.320,171.333 113.748 C 171.144 114.176,170.909 114.964,170.810 115.499 C 170.711 116.034,170.539 116.472,170.429 116.472 C 170.318 116.472,170.149 116.997,170.052 117.639 C 169.956 118.281,169.768 118.807,169.634 118.807 C 169.500 118.807,169.390 119.069,169.389 119.390 C 169.388 119.711,169.222 120.290,169.021 120.677 C 168.819 121.063,168.510 122.026,168.333 122.817 C 168.156 123.607,167.923 124.254,167.816 124.254 C 167.708 124.254,167.541 124.721,167.445 125.292 C 167.348 125.863,167.173 126.329,167.056 126.329 C 166.938 126.329,166.763 126.796,166.667 127.366 C 166.571 127.936,166.385 128.468,166.255 128.548 C 165.268 129.158,166.123 129.442,168.949 129.442 C 172.338 129.442,172.380 129.419,172.793 127.319 C 172.956 126.489,173.178 125.811,173.286 125.811 C 173.395 125.811,173.559 125.407,173.651 124.914 C 173.744 124.420,173.990 123.691,174.197 123.292 C 174.405 122.894,174.576 122.436,174.577 122.273 C 174.578 122.111,174.750 121.648,174.960 121.243 C 175.170 120.838,175.417 120.007,175.509 119.397 C 175.600 118.787,175.768 118.288,175.882 118.288 C 175.996 118.288,176.168 117.821,176.265 117.250 C 176.361 116.680,176.539 116.213,176.661 116.213 C 176.782 116.213,176.960 115.687,177.056 115.045 C 177.153 114.403,177.319 113.878,177.426 113.878 C 177.533 113.878,177.770 113.174,177.952 112.314 C 178.135 111.454,178.384 110.688,178.507 110.613 C 178.629 110.537,178.733 110.278,178.738 110.037 C 178.743 109.795,178.972 109.131,179.248 108.560 C 179.523 107.990,179.753 107.260,179.758 106.939 C 179.763 106.618,179.869 106.355,179.994 106.355 C 180.118 106.355,180.288 106.019,180.370 105.607 C 180.452 105.196,180.596 104.554,180.690 104.181 L 180.860 103.502 177.749 103.502 L 174.637 103.502 174.462 104.669 M213.320 104.280 C 213.235 104.708,213.076 105.058,212.967 105.058 C 212.858 105.058,212.687 105.496,212.587 106.031 C 212.487 106.566,212.317 107.121,212.209 107.263 C 212.101 107.406,211.860 108.106,211.673 108.820 C 211.486 109.533,211.245 110.233,211.137 110.376 C 211.030 110.519,210.860 111.073,210.760 111.608 C 210.660 112.143,210.487 112.581,210.376 112.581 C 210.265 112.581,210.093 113.019,209.993 113.554 C 209.893 114.089,209.718 114.643,209.604 114.786 C 209.490 114.929,209.248 115.717,209.067 116.537 C 208.885 117.357,208.646 118.029,208.535 118.029 C 208.424 118.029,208.254 118.554,208.158 119.196 C 208.061 119.838,207.889 120.363,207.775 120.363 C 207.662 120.363,207.489 120.830,207.393 121.401 C 207.297 121.971,207.111 122.438,206.981 122.438 C 206.851 122.438,206.744 122.613,206.744 122.827 C 206.744 123.121,206.427 123.217,205.447 123.217 C 204.468 123.217,204.150 123.121,204.150 122.827 C 204.150 122.613,204.257 122.438,204.387 122.438 C 204.517 122.438,204.703 121.971,204.799 121.401 C 204.895 120.830,205.075 120.363,205.199 120.363 C 205.323 120.363,205.504 119.936,205.602 119.415 C 205.700 118.893,205.938 118.163,206.131 117.793 C 206.799 116.513,206.714 116.472,203.372 116.472 L 200.259 116.472 200.259 117.121 C 200.259 117.477,200.161 117.769,200.041 117.769 C 199.921 117.769,199.680 118.409,199.505 119.191 C 199.330 119.974,199.091 120.673,198.975 120.745 C 198.858 120.817,198.684 121.402,198.587 122.046 L 198.412 123.217 192.170 123.217 C 187.211 123.217,185.982 123.150,186.190 122.892 C 186.334 122.714,186.538 122.160,186.643 121.660 C 186.749 121.161,186.932 120.690,187.050 120.615 C 187.168 120.539,187.344 119.985,187.440 119.383 L 187.615 118.288 184.371 118.288 C 180.796 118.288,180.705 118.325,180.409 119.912 C 180.309 120.449,180.133 120.945,180.019 121.016 C 179.905 121.086,179.733 121.610,179.637 122.180 C 179.540 122.750,179.365 123.217,179.248 123.217 C 179.130 123.217,178.952 123.713,178.852 124.319 C 178.752 124.925,178.573 125.543,178.453 125.692 C 178.334 125.840,178.108 126.536,177.951 127.237 C 177.530 129.114,177.421 129.183,174.858 129.183 C 173.453 129.183,172.490 129.300,172.296 129.494 C 171.938 129.852,171.867 132.815,172.216 132.815 C 172.343 132.815,172.521 133.109,172.611 133.470 C 173.057 135.245,178.692 136.261,180.128 134.825 C 180.378 134.575,180.684 134.371,180.809 134.371 C 181.153 134.371,182.361 133.186,182.361 132.850 C 182.361 132.688,182.449 132.555,182.557 132.555 C 182.775 132.555,183.917 130.182,183.917 129.730 C 183.917 129.521,191.779 129.442,212.581 129.442 C 240.782 129.442,241.245 129.434,241.245 128.939 C 241.245 128.662,241.357 128.366,241.493 128.282 C 241.629 128.198,241.878 127.432,242.046 126.581 C 242.213 125.729,242.442 125.032,242.553 125.032 C 242.665 125.032,242.835 124.566,242.931 123.996 C 243.027 123.426,243.203 122.900,243.320 122.827 C 243.438 122.755,243.613 122.229,243.710 121.659 C 243.806 121.089,243.978 120.623,244.092 120.623 C 244.206 120.623,244.442 119.864,244.617 118.936 C 244.792 118.009,245.029 117.250,245.143 117.250 C 245.257 117.250,245.429 116.783,245.525 116.213 C 245.622 115.642,245.807 115.175,245.937 115.175 C 246.067 115.175,246.175 114.912,246.175 114.591 C 246.176 114.270,246.346 113.684,246.553 113.287 C 246.760 112.891,247.077 111.928,247.259 111.147 C 247.440 110.366,247.669 109.728,247.766 109.728 C 247.864 109.728,248.023 109.261,248.119 108.690 C 248.216 108.119,248.391 107.652,248.508 107.652 C 248.626 107.652,248.805 107.156,248.907 106.550 C 249.008 105.944,249.179 105.389,249.286 105.318 C 249.393 105.246,249.563 104.809,249.664 104.345 L 249.847 103.502 246.713 103.502 L 243.580 103.502 243.580 104.150 C 243.580 104.507,243.483 104.799,243.364 104.799 C 243.245 104.799,243.020 105.295,242.863 105.901 C 242.261 108.225,241.651 110.122,241.464 110.254 C 241.357 110.330,241.191 110.884,241.094 111.486 C 240.998 112.088,240.831 112.581,240.722 112.581 C 240.613 112.581,240.443 113.015,240.344 113.545 C 240.244 114.075,240.014 114.805,239.831 115.166 C 239.648 115.528,239.419 116.261,239.323 116.796 C 239.226 117.331,239.048 117.769,238.928 117.769 C 238.807 117.769,238.627 118.206,238.527 118.740 C 238.427 119.274,238.268 119.828,238.174 119.972 C 238.080 120.116,237.827 120.875,237.613 121.660 L 237.224 123.087 235.569 123.165 C 233.950 123.241,233.918 123.230,234.087 122.646 C 234.849 120.019,234.426 117.389,233.199 117.120 C 232.773 117.026,232.425 116.842,232.425 116.711 C 232.425 116.571,229.059 116.472,224.254 116.472 C 218.980 116.472,216.083 116.564,216.083 116.732 C 216.083 116.874,215.847 116.991,215.559 116.991 C 215.036 116.991,215.052 115.786,215.580 115.434 C 215.688 115.362,215.860 114.837,215.963 114.267 C 216.066 113.696,216.244 113.111,216.357 112.967 C 216.471 112.822,216.706 112.122,216.879 111.410 C 217.053 110.699,217.285 110.000,217.394 109.857 C 217.504 109.715,217.675 109.160,217.775 108.625 C 217.875 108.090,218.047 107.652,218.158 107.652 C 218.269 107.652,218.436 107.249,218.528 106.755 C 218.621 106.262,218.866 105.533,219.074 105.134 C 219.886 103.578,219.764 103.502,216.466 103.502 L 213.476 103.502 213.320 104.280 M252.140 104.150 C 252.140 104.507,252.034 104.799,251.903 104.799 C 251.773 104.799,251.588 105.266,251.492 105.837 C 251.395 106.407,251.217 106.874,251.096 106.874 C 250.974 106.874,250.796 107.401,250.699 108.045 C 250.603 108.688,250.432 109.272,250.320 109.341 C 250.209 109.410,249.973 110.068,249.797 110.802 C 249.620 111.537,249.318 112.442,249.124 112.813 C 248.930 113.185,248.770 113.670,248.769 113.891 C 248.769 114.112,248.667 114.404,248.543 114.540 C 248.276 114.833,246.952 118.936,246.952 119.471 C 246.952 119.676,246.842 119.844,246.709 119.844 C 246.575 119.844,246.386 120.370,246.290 121.012 C 246.194 121.654,246.024 122.179,245.914 122.179 C 245.803 122.179,245.631 122.617,245.531 123.152 C 245.431 123.687,245.261 124.241,245.153 124.384 C 245.045 124.527,244.802 125.227,244.612 125.940 C 244.422 126.654,244.181 127.296,244.077 127.368 C 243.972 127.439,243.804 127.939,243.703 128.479 L 243.519 129.459 246.597 129.386 L 249.676 129.313 249.914 128.080 C 250.045 127.403,250.239 126.848,250.345 126.848 C 250.451 126.848,250.617 126.381,250.713 125.811 C 250.810 125.240,250.986 124.773,251.105 124.773 C 251.223 124.773,251.397 124.394,251.490 123.930 C 251.584 123.466,251.817 122.737,252.008 122.309 C 252.200 121.881,252.438 121.093,252.537 120.558 C 252.636 120.023,252.807 119.585,252.918 119.585 C 253.028 119.585,253.198 119.060,253.294 118.418 C 253.390 117.776,253.565 117.250,253.684 117.250 C 253.802 117.250,253.980 116.813,254.080 116.278 C 254.180 115.743,254.355 115.188,254.469 115.045 C 254.583 114.903,254.825 114.115,255.006 113.294 C 255.187 112.474,255.432 111.803,255.551 111.803 C 255.669 111.803,255.840 111.336,255.932 110.765 C 256.023 110.195,256.189 109.728,256.301 109.728 C 256.413 109.728,256.583 109.261,256.679 108.691 C 256.776 108.121,256.956 107.592,257.080 107.516 C 257.204 107.439,257.442 106.680,257.610 105.828 C 257.777 104.977,258.016 104.280,258.140 104.280 C 258.264 104.280,258.366 104.105,258.366 103.891 C 258.366 103.567,257.847 103.502,255.253 103.502 L 252.140 103.502 252.140 104.150 M106.986 109.340 C 106.458 109.899,106.097 110.572,106.047 111.091 C 105.970 111.897,105.911 111.938,104.672 112.062 C 103.638 112.166,103.357 112.297,103.280 112.711 C 103.226 112.996,103.088 113.289,102.973 113.363 C 102.857 113.436,102.725 113.844,102.678 114.270 L 102.594 115.045 104.150 115.000 C 106.490 114.933,109.501 114.502,109.690 114.208 C 109.782 114.065,110.102 113.872,110.402 113.778 C 111.601 113.404,112.027 110.085,111.015 108.998 C 110.102 108.018,108.070 108.191,106.986 109.340 M68.411 111.830 C 68.022 112.272,67.704 112.856,67.704 113.127 C 67.704 113.397,67.588 113.619,67.445 113.619 C 67.302 113.619,67.185 113.904,67.185 114.252 C 67.185 114.600,67.302 114.957,67.445 115.045 C 67.588 115.134,67.704 115.406,67.704 115.652 C 67.704 117.257,70.627 117.510,71.990 116.022 C 73.154 114.753,73.576 112.062,72.612 112.062 C 72.481 112.062,72.374 111.900,72.374 111.701 C 72.374 110.648,69.361 110.746,68.411 111.830 M109.209 111.269 C 109.209 111.575,108.703 111.902,108.517 111.716 C 108.331 111.531,108.659 111.025,108.965 111.025 C 109.099 111.025,109.209 111.134,109.209 111.269 M58.607 114.127 C 58.260 114.413,57.858 114.745,57.713 114.864 C 56.922 115.518,55.404 115.694,50.557 115.694 C 43.489 115.694,43.048 115.937,41.928 120.442 C 41.757 121.127,41.546 121.615,41.457 121.527 C 41.369 121.438,41.217 121.840,41.119 122.420 C 41.021 122.999,40.847 123.531,40.733 123.601 C 40.619 123.672,40.447 124.151,40.350 124.667 C 40.253 125.182,40.014 125.971,39.818 126.420 C 39.621 126.870,39.393 127.558,39.311 127.951 L 39.160 128.664 35.922 128.664 C 32.600 128.664,32.041 128.445,32.907 127.484 C 33.147 127.217,33.982 124.721,33.982 124.270 C 33.982 123.777,32.514 123.980,31.750 124.578 C 30.409 125.628,29.108 127.044,28.914 127.666 C 28.809 128.001,28.594 128.358,28.435 128.460 C 28.256 128.575,28.145 129.569,28.145 131.065 L 28.145 133.485 29.079 134.447 C 29.593 134.976,30.196 135.409,30.420 135.409 C 30.643 135.409,30.874 135.554,30.934 135.733 C 31.079 136.168,38.321 136.198,38.596 135.765 C 38.698 135.605,39.160 135.391,39.624 135.291 C 40.088 135.190,40.467 135.013,40.467 134.897 C 40.467 134.781,40.769 134.611,41.138 134.518 C 41.507 134.426,41.944 134.242,42.110 134.110 C 43.691 132.855,44.342 132.181,44.617 131.519 C 44.794 131.090,45.041 130.739,45.165 130.739 C 45.288 130.739,45.464 130.272,45.555 129.702 C 45.647 129.131,45.813 128.664,45.925 128.664 C 46.037 128.664,46.207 128.197,46.304 127.626 C 46.400 127.056,46.572 126.589,46.686 126.589 C 46.800 126.589,47.036 125.830,47.211 124.903 C 47.386 123.975,47.633 123.217,47.760 123.217 C 47.886 123.217,47.990 122.983,47.990 122.698 C 47.990 122.241,48.163 122.179,49.437 122.179 L 50.884 122.179 50.710 122.975 C 50.613 123.412,50.378 124.073,50.186 124.443 C 49.994 124.813,49.757 125.593,49.660 126.176 C 49.562 126.760,49.391 127.296,49.279 127.368 C 49.167 127.439,48.991 127.947,48.888 128.495 L 48.701 129.492 58.138 129.402 C 68.687 129.302,68.517 129.334,68.912 127.359 C 68.997 126.935,69.158 126.589,69.270 126.589 C 69.383 126.589,69.553 126.123,69.650 125.553 C 69.746 124.983,69.919 124.458,70.035 124.386 C 70.151 124.314,70.390 123.643,70.566 122.893 C 70.741 122.144,70.991 121.397,71.119 121.234 C 71.248 121.070,71.424 120.341,71.511 119.612 L 71.668 118.288 69.086 118.288 L 66.504 118.288 65.957 119.542 C 65.656 120.232,65.325 121.253,65.222 121.812 C 65.120 122.370,64.906 122.913,64.749 123.018 C 64.337 123.292,56.809 123.262,56.809 122.987 C 56.809 122.860,56.981 122.426,57.191 122.021 C 57.401 121.616,57.648 120.786,57.740 120.176 C 57.831 119.565,57.999 119.066,58.113 119.066 C 58.227 119.066,58.399 118.599,58.495 118.029 C 58.592 117.458,58.764 116.991,58.878 116.991 C 58.992 116.991,59.164 116.466,59.260 115.824 C 59.356 115.182,59.534 114.656,59.656 114.656 C 59.956 114.656,59.811 113.798,59.492 113.692 C 59.352 113.645,58.954 113.841,58.607 114.127 M155.383 114.883 C 155.383 115.008,155.050 115.177,154.644 115.258 C 152.882 115.610,152.242 118.907,153.676 120.237 C 155.069 121.528,157.723 120.812,158.112 119.039 C 158.203 118.626,158.385 118.288,158.516 118.288 C 158.647 118.288,158.755 117.996,158.755 117.639 C 158.755 117.283,158.646 116.991,158.513 116.991 C 158.379 116.991,158.234 116.679,158.188 116.297 C 158.071 115.305,155.383 113.950,155.383 114.883 M160.402 119.066 C 160.316 119.494,160.151 119.844,160.035 119.844 C 159.919 119.844,159.745 120.370,159.649 121.012 C 159.553 121.654,159.381 122.179,159.267 122.179 C 159.153 122.179,158.981 122.646,158.885 123.217 C 158.788 123.787,158.624 124.254,158.520 124.254 C 158.416 124.254,158.180 125.013,157.996 125.940 C 157.812 126.868,157.557 127.626,157.430 127.626 C 157.303 127.626,157.198 127.860,157.198 128.145 C 157.198 128.637,157.026 128.664,153.826 128.664 C 151.626 128.664,150.454 128.569,150.454 128.389 C 150.454 128.238,150.560 128.180,150.690 128.261 C 150.820 128.341,151.010 127.910,151.111 127.303 C 151.213 126.696,151.387 126.141,151.500 126.069 C 151.612 125.998,151.785 125.502,151.886 124.967 C 152.089 123.882,150.969 123.516,150.102 124.384 C 149.888 124.598,149.609 124.773,149.482 124.773 C 149.134 124.773,147.601 126.204,147.601 126.529 C 147.601 126.684,147.455 126.967,147.276 127.158 C 146.060 128.458,145.295 133.213,146.250 133.532 C 146.422 133.589,146.563 133.775,146.563 133.946 C 146.563 135.551,155.089 137.067,156.718 135.752 C 156.911 135.596,157.448 135.387,157.912 135.288 C 158.375 135.189,158.755 135.000,158.755 134.869 C 158.755 134.738,158.912 134.630,159.104 134.630 C 159.433 134.630,159.757 134.395,161.356 132.999 C 162.278 132.194,163.097 130.972,163.317 130.075 C 163.420 129.656,163.577 129.254,163.666 129.183 C 163.755 129.112,164.166 128.003,164.579 126.719 C 164.992 125.435,165.413 124.267,165.515 124.125 C 165.617 123.982,165.782 123.369,165.882 122.763 C 165.982 122.156,166.157 121.660,166.271 121.660 C 166.386 121.660,166.561 121.222,166.661 120.687 C 166.761 120.152,166.962 119.570,167.108 119.394 C 167.836 118.513,167.167 118.288,163.815 118.288 L 160.558 118.288 160.402 119.066 M227.086 122.336 C 227.312 122.423,227.497 122.715,227.497 122.985 C 227.497 123.455,227.185 123.476,220.104 123.476 C 212.493 123.476,211.632 123.318,214.040 122.362 C 214.534 122.165,226.580 122.142,227.086 122.336 M91.678 124.412 C 92.543 124.744,91.855 126.848,90.881 126.848 C 90.689 126.848,90.532 126.965,90.532 127.108 C 90.532 127.493,89.771 127.422,89.346 126.996 C 88.921 126.571,88.849 125.811,89.235 125.811 C 89.377 125.811,89.494 125.625,89.494 125.397 C 89.494 125.170,89.728 124.923,90.013 124.848 C 90.298 124.774,90.532 124.609,90.532 124.483 C 90.532 124.218,91.084 124.184,91.678 124.412 M191.135 131.563 C 190.086 132.172,189.892 132.614,189.887 134.417 C 189.882 136.032,190.325 136.446,192.058 136.446 C 193.550 136.446,194.553 135.817,194.553 134.880 C 194.553 134.600,194.676 134.371,194.826 134.371 C 194.977 134.371,195.054 134.050,194.998 133.658 C 194.645 131.199,193.156 130.391,191.135 131.563 M197.536 131.181 C 196.892 131.355,195.850 132.453,195.850 132.958 C 195.850 133.164,195.733 133.333,195.590 133.333 C 195.447 133.333,195.331 133.742,195.331 134.241 C 195.331 134.741,195.420 135.149,195.529 135.149 C 195.637 135.149,195.842 135.412,195.983 135.733 C 196.349 136.569,199.741 136.717,199.741 135.897 C 199.741 135.751,199.916 135.456,200.130 135.242 C 201.742 133.630,199.789 130.572,197.536 131.181 M30.350 136.691 C 30.350 136.811,30.060 136.982,29.706 137.071 C 29.308 137.170,28.999 137.479,28.899 137.877 C 28.810 138.231,28.633 138.521,28.506 138.521 C 27.930 138.521,28.289 140.519,29.011 141.328 C 29.743 142.148,31.647 142.556,31.647 141.894 C 31.647 141.751,31.814 141.634,32.017 141.634 C 33.519 141.634,34.008 137.851,32.619 136.984 C 31.976 136.582,30.350 136.372,30.350 136.691 M35.141 137.379 C 34.021 138.435,33.767 141.189,34.760 141.505 C 35.045 141.595,35.279 141.778,35.279 141.911 C 35.279 142.611,37.416 142.134,38.284 141.240 C 39.172 140.326,39.635 137.743,38.911 137.743 C 38.768 137.743,38.651 137.568,38.651 137.354 C 38.651 137.140,38.476 136.965,38.262 136.965 C 38.048 136.965,37.873 136.852,37.873 136.713 C 37.873 136.098,36.021 136.549,35.141 137.379 " stroke="none" fill="#b4945c" fill-rule="evenodd"></path><path id="path2" d="M67.395 148.573 C 69.151 148.618,71.952 148.617,73.621 148.572 C 75.289 148.527,73.852 148.490,70.428 148.491 C 67.004 148.491,65.639 148.528,67.395 148.573 M91.245 148.573 C 92.993 148.617,95.853 148.617,97.601 148.573 C 99.348 148.528,97.918 148.491,94.423 148.491 C 90.927 148.491,89.497 148.528,91.245 148.573 M115.485 148.572 C 117.011 148.618,119.579 148.618,121.192 148.573 C 122.805 148.527,121.556 148.489,118.418 148.489 C 115.279 148.489,113.959 148.526,115.485 148.572 M138.846 148.573 C 140.665 148.617,143.641 148.617,145.460 148.573 C 147.280 148.528,145.791 148.491,142.153 148.491 C 138.515 148.491,137.027 148.528,138.846 148.573 M157.367 148.573 C 157.301 148.680,158.432 148.737,159.881 148.699 C 164.650 148.575,165.169 148.475,161.299 148.427 C 159.203 148.400,157.434 148.466,157.367 148.573 M192.672 148.572 C 194.277 148.618,196.903 148.618,198.508 148.572 C 200.113 148.527,198.800 148.490,195.590 148.490 C 192.380 148.490,191.067 148.527,192.672 148.572 M214.603 148.572 C 215.716 148.621,217.466 148.620,218.494 148.571 C 219.522 148.522,218.612 148.482,216.472 148.482 C 214.332 148.483,213.491 148.523,214.603 148.572 M229.637 148.573 C 231.884 148.616,235.561 148.616,237.808 148.573 C 240.055 148.530,238.217 148.494,233.722 148.494 C 229.228 148.494,227.390 148.530,229.637 148.573 M98.391 172.177 C 99.503 172.226,101.254 172.226,102.282 172.177 C 103.309 172.128,102.399 172.088,100.259 172.088 C 98.119 172.089,97.278 172.129,98.391 172.177 M120.180 172.177 C 121.293 172.226,123.044 172.226,124.072 172.177 C 125.099 172.128,124.189 172.088,122.049 172.088 C 119.909 172.089,119.068 172.129,120.180 172.177 M175.693 172.177 C 176.805 172.226,178.556 172.226,179.584 172.177 C 180.612 172.128,179.702 172.088,177.562 172.088 C 175.422 172.089,174.581 172.129,175.693 172.177 M197.483 172.177 C 198.595 172.226,200.346 172.226,201.374 172.177 C 202.402 172.128,201.492 172.088,199.351 172.088 C 197.211 172.089,196.370 172.129,197.483 172.177 " stroke="none" fill="#aca0b0" fill-rule="evenodd"></path><path id="path3" d="M67.395 148.573 C 69.151 148.618,71.952 148.617,73.621 148.572 C 75.289 148.527,73.852 148.490,70.428 148.491 C 67.004 148.491,65.639 148.528,67.395 148.573 M91.245 148.573 C 92.993 148.617,95.853 148.617,97.601 148.573 C 99.348 148.528,97.918 148.491,94.423 148.491 C 90.927 148.491,89.497 148.528,91.245 148.573 M115.485 148.572 C 117.011 148.618,119.579 148.618,121.192 148.573 C 122.805 148.527,121.556 148.489,118.418 148.489 C 115.279 148.489,113.959 148.526,115.485 148.572 M138.846 148.573 C 140.665 148.617,143.641 148.617,145.460 148.573 C 147.280 148.528,145.791 148.491,142.153 148.491 C 138.515 148.491,137.027 148.528,138.846 148.573 M157.367 148.573 C 157.301 148.680,158.432 148.737,159.881 148.699 C 164.650 148.575,165.169 148.475,161.299 148.427 C 159.203 148.400,157.434 148.466,157.367 148.573 M192.672 148.572 C 194.277 148.618,196.903 148.618,198.508 148.572 C 200.113 148.527,198.800 148.490,195.590 148.490 C 192.380 148.490,191.067 148.527,192.672 148.572 M214.603 148.572 C 215.716 148.621,217.466 148.620,218.494 148.571 C 219.522 148.522,218.612 148.482,216.472 148.482 C 214.332 148.483,213.491 148.523,214.603 148.572 M229.637 148.573 C 231.884 148.616,235.561 148.616,237.808 148.573 C 240.055 148.530,238.217 148.494,233.722 148.494 C 229.228 148.494,227.390 148.530,229.637 148.573 M98.391 172.177 C 99.503 172.226,101.254 172.226,102.282 172.177 C 103.309 172.128,102.399 172.088,100.259 172.088 C 98.119 172.089,97.278 172.129,98.391 172.177 M120.180 172.177 C 121.293 172.226,123.044 172.226,124.072 172.177 C 125.099 172.128,124.189 172.088,122.049 172.088 C 119.909 172.089,119.068 172.129,120.180 172.177 M175.693 172.177 C 176.805 172.226,178.556 172.226,179.584 172.177 C 180.612 172.128,179.702 172.088,177.562 172.088 C 175.422 172.089,174.581 172.129,175.693 172.177 M197.483 172.177 C 198.595 172.226,200.346 172.226,201.374 172.177 C 202.402 172.128,201.492 172.088,199.351 172.088 C 197.211 172.089,196.370 172.129,197.483 172.177 " stroke="none" fill="#aca0b0" fill-rule="evenodd"></path><path id="path4" d="M67.395 148.573 C 69.151 148.618,71.952 148.617,73.621 148.572 C 75.289 148.527,73.852 148.490,70.428 148.491 C 67.004 148.491,65.639 148.528,67.395 148.573 M91.245 148.573 C 92.993 148.617,95.853 148.617,97.601 148.573 C 99.348 148.528,97.918 148.491,94.423 148.491 C 90.927 148.491,89.497 148.528,91.245 148.573 M115.485 148.572 C 117.011 148.618,119.579 148.618,121.192 148.573 C 122.805 148.527,121.556 148.489,118.418 148.489 C 115.279 148.489,113.959 148.526,115.485 148.572 M138.846 148.573 C 140.665 148.617,143.641 148.617,145.460 148.573 C 147.280 148.528,145.791 148.491,142.153 148.491 C 138.515 148.491,137.027 148.528,138.846 148.573 M157.367 148.573 C 157.301 148.680,158.432 148.737,159.881 148.699 C 164.650 148.575,165.169 148.475,161.299 148.427 C 159.203 148.400,157.434 148.466,157.367 148.573 M192.672 148.572 C 194.277 148.618,196.903 148.618,198.508 148.572 C 200.113 148.527,198.800 148.490,195.590 148.490 C 192.380 148.490,191.067 148.527,192.672 148.572 M214.603 148.572 C 215.716 148.621,217.466 148.620,218.494 148.571 C 219.522 148.522,218.612 148.482,216.472 148.482 C 214.332 148.483,213.491 148.523,214.603 148.572 M229.637 148.573 C 231.884 148.616,235.561 148.616,237.808 148.573 C 240.055 148.530,238.217 148.494,233.722 148.494 C 229.228 148.494,227.390 148.530,229.637 148.573 M98.391 172.177 C 99.503 172.226,101.254 172.226,102.282 172.177 C 103.309 172.128,102.399 172.088,100.259 172.088 C 98.119 172.089,97.278 172.129,98.391 172.177 M120.180 172.177 C 121.293 172.226,123.044 172.226,124.072 172.177 C 125.099 172.128,124.189 172.088,122.049 172.088 C 119.909 172.089,119.068 172.129,120.180 172.177 M175.693 172.177 C 176.805 172.226,178.556 172.226,179.584 172.177 C 180.612 172.128,179.702 172.088,177.562 172.088 C 175.422 172.089,174.581 172.129,175.693 172.177 M197.483 172.177 C 198.595 172.226,200.346 172.226,201.374 172.177 C 202.402 172.128,201.492 172.088,199.351 172.088 C 197.211 172.089,196.370 172.129,197.483 172.177 " stroke="none" fill="#aca0b0" fill-rule="evenodd"></path></g></svg>