<svg id="svg" version="1.1" xmlns="http://www.w3.org/2000/svg" xmlns:xlink="http://www.w3.org/1999/xlink" width="400" height="259.25925925925924" viewBox="0, 0, 400,259.25925925925924"><g id="svgg"><path id="path0" d="M297.536 89.979 C 297.322 90.103,295.987 90.281,294.569 90.376 C 293.151 90.471,291.867 90.648,291.715 90.768 C 291.564 90.888,290.768 91.068,289.948 91.167 C 289.128 91.266,288.457 91.440,288.457 91.553 C 288.457 91.666,287.929 91.831,287.285 91.919 C 286.149 92.075,281.714 93.765,281.453 94.142 C 281.381 94.245,280.782 94.587,280.120 94.904 C 279.459 95.220,278.682 95.678,278.393 95.923 C 278.105 96.168,277.609 96.543,277.290 96.757 C 275.757 97.788,272.114 101.270,272.114 101.706 C 272.114 101.820,271.760 102.300,271.326 102.773 C 270.893 103.245,270.472 103.894,270.390 104.215 C 270.309 104.536,270.149 104.799,270.036 104.799 C 269.753 104.799,268.062 108.171,267.842 109.174 C 267.743 109.621,267.556 109.987,267.424 109.987 C 267.293 109.987,267.185 110.191,267.184 110.441 C 267.183 110.691,267.012 111.221,266.804 111.619 C 266.597 112.018,266.349 112.776,266.253 113.305 C 266.158 113.834,265.987 114.386,265.873 114.531 C 265.759 114.677,265.530 115.844,265.365 117.125 C 265.200 118.407,264.929 119.736,264.763 120.078 C 264.359 120.914,264.335 137.936,264.737 138.207 C 264.889 138.308,265.153 139.607,265.323 141.091 C 265.494 142.576,265.734 143.919,265.858 144.074 C 265.981 144.230,266.163 144.912,266.261 145.590 C 266.359 146.268,266.549 146.822,266.683 146.822 C 266.816 146.822,266.926 147.067,266.926 147.367 C 266.926 147.974,267.260 148.794,268.820 152.010 C 269.408 153.223,270.039 154.309,270.223 154.423 C 270.407 154.537,270.558 154.746,270.558 154.887 C 270.558 155.219,271.628 156.747,272.049 157.017 C 272.228 157.131,272.374 157.358,272.374 157.522 C 272.374 157.686,273.220 158.620,274.254 159.597 C 276.825 162.027,276.840 162.039,277.473 162.234 C 277.781 162.329,278.098 162.577,278.178 162.785 C 278.258 162.994,278.502 163.165,278.721 163.165 C 278.939 163.165,279.118 163.281,279.118 163.424 C 279.118 163.567,279.246 163.684,279.402 163.684 C 279.559 163.684,280.003 163.909,280.391 164.185 C 280.778 164.461,281.409 164.765,281.793 164.862 C 282.176 164.958,282.490 165.141,282.490 165.268 C 282.490 165.395,282.695 165.503,282.944 165.508 C 283.194 165.513,283.865 165.742,284.436 166.018 C 285.006 166.294,285.785 166.523,286.165 166.528 C 286.546 166.533,286.896 166.648,286.943 166.784 C 286.991 166.921,287.905 167.174,288.975 167.347 C 290.045 167.520,290.986 167.758,291.066 167.877 C 291.145 167.995,292.488 168.160,294.049 168.243 C 295.610 168.326,297.124 168.507,297.414 168.646 C 298.350 169.094,312.751 168.373,313.093 167.861 C 313.168 167.749,314.339 167.509,315.694 167.328 C 317.049 167.148,318.275 166.909,318.418 166.798 C 318.560 166.687,319.173 166.514,319.780 166.414 C 320.386 166.314,320.882 166.141,320.882 166.029 C 320.882 165.917,321.466 165.748,322.179 165.654 C 322.892 165.559,323.476 165.391,323.476 165.280 C 323.476 165.169,324.060 164.929,324.773 164.746 C 325.486 164.563,326.070 164.308,326.070 164.178 C 326.070 164.049,326.242 163.943,326.451 163.943 C 326.906 163.943,328.911 162.934,329.396 162.462 C 329.584 162.278,329.887 162.127,330.069 162.127 C 331.275 162.127,331.258 162.406,331.258 142.587 L 331.258 123.995 315.953 123.995 L 300.649 123.995 300.649 131.388 L 300.649 138.781 307.652 138.781 L 314.656 138.781 314.656 145.104 L 314.656 151.428 313.035 151.877 C 312.143 152.124,310.460 152.460,309.294 152.622 C 308.129 152.785,307.088 153.006,306.981 153.113 C 306.710 153.386,298.573 153.357,298.573 153.084 C 298.573 152.960,297.844 152.799,296.952 152.725 C 293.365 152.426,288.972 150.329,287.030 147.988 C 286.602 147.472,286.050 146.827,285.804 146.554 C 285.558 146.281,285.283 145.762,285.192 145.402 C 285.102 145.042,284.933 144.747,284.817 144.747 C 284.702 144.747,284.530 144.397,284.436 143.969 C 284.342 143.541,284.173 143.191,284.062 143.191 C 283.950 143.191,283.709 142.487,283.526 141.627 C 283.344 140.766,283.102 140.006,282.989 139.936 C 282.877 139.866,282.703 138.875,282.603 137.733 C 282.504 136.591,282.321 135.594,282.197 135.517 C 281.902 135.335,281.902 123.290,282.197 123.108 C 282.321 123.031,282.504 122.034,282.603 120.892 C 282.703 119.750,282.877 118.759,282.989 118.689 C 283.102 118.620,283.344 117.859,283.526 116.999 C 283.709 116.138,283.959 115.435,284.082 115.435 C 284.205 115.435,284.306 115.251,284.306 115.027 C 284.306 114.577,285.594 112.243,285.918 112.105 C 286.030 112.058,286.124 111.883,286.127 111.716 C 286.134 111.324,289.066 108.431,289.456 108.431 C 289.620 108.431,289.754 108.343,289.754 108.236 C 289.754 107.778,294.133 105.837,295.165 105.837 C 295.589 105.837,295.985 105.691,296.044 105.512 C 296.189 105.078,308.094 105.040,308.375 105.473 C 308.477 105.630,309.041 105.833,309.628 105.924 C 310.216 106.016,311.033 106.267,311.444 106.481 C 311.856 106.696,312.338 106.872,312.516 106.873 C 312.695 106.873,312.840 106.982,312.840 107.113 C 312.840 107.244,313.199 107.430,313.636 107.527 C 314.074 107.623,314.495 107.865,314.572 108.066 C 314.649 108.267,314.829 108.431,314.972 108.431 C 315.275 108.431,315.906 108.996,318.086 111.219 C 320.213 113.388,319.905 113.470,323.759 109.714 C 324.718 108.779,326.009 107.597,326.629 107.088 C 328.687 105.396,330.999 102.977,330.992 102.523 C 330.983 101.872,326.962 97.276,326.401 97.276 C 326.283 97.276,325.985 97.043,325.741 96.757 C 325.497 96.472,325.133 96.239,324.933 96.239 C 324.733 96.239,324.502 96.064,324.420 95.850 C 324.338 95.636,324.104 95.460,323.901 95.460 C 323.698 95.460,323.469 95.296,323.392 95.096 C 323.315 94.895,322.894 94.653,322.456 94.556 C 322.018 94.460,321.660 94.283,321.660 94.163 C 321.660 94.043,321.310 93.868,320.882 93.774 C 320.454 93.680,320.104 93.505,320.104 93.385 C 320.104 93.265,319.724 93.085,319.261 92.984 C 318.797 92.884,318.351 92.697,318.270 92.571 C 318.189 92.444,317.430 92.199,316.584 92.027 C 315.738 91.854,314.981 91.624,314.902 91.514 C 314.823 91.404,314.181 91.237,313.475 91.142 C 312.769 91.048,312.131 90.879,312.056 90.767 C 311.716 90.254,298.320 89.528,297.536 89.979 M208.820 129.313 L 208.820 167.575 235.798 167.575 L 262.776 167.575 262.776 159.792 L 262.776 152.010 244.747 152.010 L 226.719 152.010 226.719 121.530 L 226.719 91.051 217.769 91.051 L 208.820 91.051 208.820 129.313 " stroke="none" fill="#747374" fill-rule="evenodd"></path><path id="path1" d="M118.936 81.972 C 113.867 82.486,106.496 84.807,102.464 87.159 C 101.822 87.533,101.103 87.912,100.865 88.002 C 100.186 88.257,96.367 90.942,94.330 92.597 C 76.269 107.272,71.637 133.745,83.581 154.028 C 97.548 177.746,128.091 184.824,151.302 169.722 C 161.797 162.894,169.390 151.652,171.937 139.170 C 172.552 136.158,173.125 129.346,172.875 128.016 L 172.704 127.104 155.937 127.171 L 139.170 127.237 139.170 129.183 L 139.170 131.128 153.826 131.258 L 168.482 131.388 168.559 132.995 C 168.660 135.097,167.565 140.816,166.484 143.839 C 155.951 173.281,120.277 183.118,96.580 163.114 C 89.249 156.926,84.654 149.320,82.113 139.170 C 80.846 134.106,80.774 124.743,81.968 120.363 C 83.134 116.089,83.620 114.491,83.817 114.280 C 83.943 114.145,84.047 113.880,84.047 113.692 C 84.047 113.503,84.624 112.155,85.331 110.695 C 92.473 95.931,106.758 86.498,123.152 85.720 L 126.848 85.545 126.848 83.628 L 126.848 81.712 123.800 81.750 C 122.124 81.771,119.935 81.871,118.936 81.972 M226.844 121.790 C 226.844 138.482,226.875 145.273,226.913 136.880 C 226.951 128.487,226.951 114.830,226.913 106.530 C 226.875 98.230,226.844 105.097,226.844 121.790 M104.095 105.472 C 101.031 106.955,99.639 110.475,100.853 113.671 C 103.473 120.570,113.555 118.663,113.470 111.284 C 113.414 106.446,108.447 103.367,104.095 105.472 M122.698 129.572 L 122.698 154.086 130.739 154.086 L 138.781 154.086 138.781 152.140 L 138.781 150.195 132.972 150.195 C 127.914 150.195,127.143 150.141,127.006 149.784 C 126.919 149.559,126.848 139.403,126.848 127.216 L 126.848 105.058 124.773 105.058 L 122.698 105.058 122.698 129.572 " stroke="none" fill="#faf8f9" fill-rule="evenodd"></path><path id="path2" d="M119.066 70.762 C 119.066 70.874,117.523 71.113,115.637 71.292 C 113.751 71.472,112.146 71.713,112.070 71.827 C 111.994 71.941,111.361 72.111,110.662 72.204 C 109.963 72.298,109.262 72.478,109.105 72.604 C 108.948 72.730,108.324 72.916,107.717 73.016 C 107.111 73.116,106.615 73.289,106.615 73.401 C 106.615 73.513,106.133 73.681,105.545 73.775 C 104.956 73.869,103.971 74.176,103.354 74.457 C 102.738 74.738,102.110 74.968,101.960 74.968 C 101.809 74.968,101.686 75.071,101.686 75.198 C 101.686 75.325,101.278 75.505,100.778 75.599 C 100.279 75.693,99.870 75.881,99.870 76.017 C 99.870 76.153,99.736 76.265,99.571 76.265 C 99.131 76.265,96.457 77.565,96.041 77.982 C 95.844 78.179,95.516 78.340,95.312 78.340 C 95.108 78.340,94.942 78.435,94.942 78.551 C 94.942 78.667,94.533 78.922,94.034 79.118 C 93.534 79.314,93.126 79.569,93.126 79.685 C 93.126 79.801,92.947 79.896,92.729 79.896 C 92.510 79.896,92.264 80.071,92.182 80.285 C 92.100 80.499,91.866 80.674,91.663 80.674 C 91.460 80.674,91.228 80.845,91.148 81.054 C 91.068 81.262,90.751 81.511,90.443 81.605 C 90.135 81.700,89.708 81.937,89.494 82.132 C 87.569 83.882,87.059 84.306,86.878 84.306 C 86.596 84.306,80.674 90.262,80.674 90.545 C 80.674 90.667,80.178 91.283,79.572 91.915 C 78.966 92.546,78.236 93.374,77.951 93.756 C 77.665 94.137,77.228 94.694,76.978 94.994 C 76.728 95.294,76.524 95.685,76.524 95.861 C 76.524 96.038,76.349 96.250,76.135 96.332 C 75.921 96.415,75.746 96.607,75.746 96.760 C 75.746 96.997,74.846 98.436,74.449 98.833 C 74.377 98.904,73.969 99.663,73.541 100.519 C 73.113 101.375,72.704 102.134,72.633 102.205 C 72.562 102.276,72.223 102.918,71.880 103.632 C 71.537 104.345,71.099 105.239,70.907 105.617 C 70.715 105.996,70.558 106.524,70.558 106.792 C 70.558 107.059,70.398 107.508,70.202 107.789 C 70.006 108.071,69.763 108.680,69.662 109.144 C 69.561 109.608,69.382 109.987,69.264 109.987 C 69.146 109.987,68.970 110.571,68.872 111.284 C 68.773 111.997,68.596 112.581,68.477 112.581 C 68.358 112.581,68.120 113.457,67.947 114.527 C 67.774 115.597,67.542 116.472,67.431 116.472 C 67.320 116.472,67.146 117.377,67.044 118.482 C 66.942 119.588,66.727 120.576,66.568 120.678 C 66.155 120.941,66.160 137.778,66.573 138.287 C 66.736 138.487,66.952 139.497,67.053 140.532 C 67.155 141.566,67.317 142.412,67.414 142.412 C 67.511 142.412,67.741 143.374,67.926 144.549 C 68.111 145.725,68.356 146.746,68.470 146.819 C 68.585 146.892,68.761 147.448,68.863 148.054 C 68.964 148.661,69.140 149.157,69.255 149.157 C 69.369 149.157,69.543 149.589,69.642 150.116 C 69.741 150.644,69.988 151.312,70.190 151.601 C 70.392 151.890,70.558 152.291,70.558 152.494 C 70.558 152.892,71.614 155.169,71.899 155.385 C 71.995 155.458,72.153 155.837,72.251 156.228 C 72.350 156.619,72.534 156.939,72.661 156.939 C 72.788 156.939,72.892 157.083,72.892 157.260 C 72.892 157.738,74.240 160.311,74.491 160.311 C 74.611 160.311,74.708 160.490,74.708 160.709 C 74.708 160.927,74.876 161.170,75.081 161.249 C 75.287 161.328,75.529 161.732,75.621 162.147 C 75.712 162.562,75.923 162.990,76.090 163.098 C 76.423 163.313,77.562 164.869,77.562 165.108 C 77.562 165.190,77.912 165.600,78.340 166.018 C 78.768 166.437,79.118 166.859,79.118 166.956 C 79.118 167.053,79.527 167.530,80.026 168.015 C 80.525 168.500,80.935 168.978,80.937 169.079 C 80.942 169.377,82.802 171.285,83.900 172.118 C 84.461 172.544,85.577 173.564,86.381 174.384 C 87.185 175.204,87.955 175.875,88.092 175.875 C 88.229 175.875,88.529 176.080,88.759 176.329 C 89.408 177.036,90.345 177.691,90.705 177.691 C 90.885 177.691,91.157 177.925,91.310 178.210 C 91.463 178.495,91.759 178.729,91.968 178.729 C 92.177 178.729,92.348 178.843,92.348 178.983 C 92.348 179.123,92.639 179.311,92.996 179.401 C 93.353 179.490,93.645 179.653,93.645 179.763 C 93.645 179.873,94.024 180.116,94.488 180.304 C 94.951 180.492,95.389 180.710,95.460 180.789 C 95.692 181.047,96.611 181.594,97.341 181.908 C 97.733 182.077,98.054 182.293,98.054 182.389 C 98.054 182.484,98.572 182.716,99.205 182.902 C 99.838 183.089,100.298 183.336,100.227 183.450 C 100.157 183.564,100.372 183.658,100.705 183.658 C 101.039 183.658,101.542 183.818,101.823 184.014 C 102.104 184.209,102.714 184.452,103.178 184.553 C 103.641 184.654,104.021 184.828,104.021 184.940 C 104.021 185.052,104.721 185.292,105.577 185.473 C 106.433 185.655,107.134 185.891,107.134 185.998 C 107.134 186.105,107.659 186.271,108.301 186.368 C 108.943 186.464,109.468 186.641,109.468 186.761 C 109.468 186.881,110.198 187.062,111.089 187.163 C 111.981 187.264,112.827 187.436,112.970 187.546 C 113.793 188.176,124.309 188.834,128.016 188.487 C 129.014 188.394,131.232 188.189,132.944 188.033 C 134.656 187.876,136.174 187.658,136.316 187.548 C 136.459 187.437,137.305 187.264,138.197 187.163 C 139.089 187.062,139.818 186.878,139.818 186.754 C 139.818 186.630,140.402 186.451,141.115 186.357 C 141.829 186.262,142.412 186.102,142.412 186.000 C 142.412 185.899,143.054 185.662,143.839 185.473 C 144.624 185.285,145.266 185.033,145.266 184.913 C 145.266 184.793,145.529 184.694,145.850 184.693 C 146.171 184.693,146.783 184.460,147.211 184.176 C 147.639 183.893,148.252 183.660,148.573 183.659 C 148.894 183.658,149.157 183.560,149.157 183.440 C 149.157 183.320,149.624 183.068,150.195 182.879 C 150.765 182.691,151.232 182.448,151.232 182.340 C 151.232 182.231,151.582 182.065,152.010 181.971 C 152.438 181.877,152.789 181.693,152.789 181.562 C 152.789 181.430,152.967 181.323,153.186 181.323 C 153.404 181.323,153.648 181.155,153.726 180.950 C 153.805 180.744,154.218 180.500,154.644 180.406 C 155.069 180.313,155.481 180.072,155.558 179.872 C 155.635 179.671,155.842 179.507,156.019 179.507 C 156.302 179.507,156.659 179.263,157.901 178.215 C 158.073 178.070,158.307 177.951,158.420 177.950 C 158.622 177.950,159.791 177.048,160.592 176.273 C 160.818 176.054,161.110 175.874,161.241 175.871 C 161.372 175.869,161.984 175.344,162.602 174.704 C 163.220 174.064,163.813 173.541,163.920 173.541 C 164.186 173.541,168.353 169.374,168.353 169.108 C 168.353 168.992,168.761 168.500,169.261 168.015 C 169.760 167.530,170.169 167.023,170.169 166.888 C 170.169 166.753,170.514 166.356,170.936 166.006 C 171.358 165.656,171.708 165.242,171.714 165.086 C 171.720 164.929,171.958 164.590,172.244 164.332 C 172.529 164.074,172.763 163.702,172.763 163.505 C 172.763 163.309,172.938 163.081,173.152 162.999 C 173.366 162.917,173.541 162.705,173.541 162.528 C 173.541 162.351,173.774 161.937,174.060 161.608 C 174.345 161.279,174.578 160.853,174.578 160.661 C 174.578 160.469,174.688 160.311,174.821 160.311 C 174.955 160.311,175.211 159.903,175.392 159.403 C 175.573 158.904,175.804 158.495,175.907 158.495 C 176.010 158.495,176.171 158.145,176.265 157.717 C 176.359 157.289,176.534 156.939,176.654 156.939 C 176.774 156.939,176.949 156.589,177.043 156.161 C 177.137 155.733,177.302 155.383,177.411 155.383 C 177.519 155.383,177.762 154.916,177.951 154.345 C 178.139 153.774,178.382 153.307,178.490 153.307 C 178.599 153.307,178.769 152.928,178.868 152.464 C 178.967 152.001,179.138 151.505,179.248 151.362 C 179.357 151.219,179.528 150.723,179.627 150.259 C 179.727 149.796,179.905 149.416,180.023 149.416 C 180.142 149.416,180.376 148.599,180.545 147.601 C 180.713 146.602,180.942 145.785,181.054 145.785 C 181.165 145.785,181.337 145.175,181.436 144.429 C 181.535 143.684,181.719 142.949,181.846 142.797 C 181.972 142.644,182.157 141.708,182.257 140.715 C 182.356 139.723,182.566 138.827,182.723 138.725 C 183.129 138.462,183.125 120.937,182.719 120.678 C 182.559 120.576,182.345 119.588,182.243 118.482 C 182.141 117.377,181.959 116.472,181.838 116.472 C 181.718 116.472,181.539 115.830,181.441 115.045 C 181.343 114.261,181.187 113.619,181.093 113.619 C 180.999 113.619,180.774 112.831,180.592 111.868 C 180.410 110.905,180.150 110.078,180.014 110.030 C 179.878 109.983,179.767 109.688,179.767 109.375 C 179.767 109.062,179.606 108.575,179.411 108.294 C 179.215 108.012,178.972 107.403,178.871 106.939 C 178.770 106.475,178.580 106.096,178.449 106.096 C 178.318 106.096,178.210 105.909,178.210 105.681 C 178.210 105.148,176.864 102.205,176.620 102.205 C 176.519 102.205,176.359 101.855,176.265 101.427 C 176.171 100.999,176.000 100.649,175.886 100.649 C 175.772 100.649,175.526 100.269,175.338 99.805 C 175.150 99.342,174.926 98.904,174.839 98.833 C 174.752 98.761,174.401 98.236,174.060 97.665 C 173.718 97.095,173.374 96.569,173.295 96.498 C 173.216 96.427,172.985 96.047,172.783 95.654 C 172.580 95.261,172.087 94.619,171.688 94.227 C 171.288 93.835,170.958 93.411,170.954 93.284 C 170.950 93.156,170.597 92.718,170.169 92.309 C 169.741 91.900,169.390 91.461,169.390 91.333 C 169.390 91.041,162.675 84.306,162.383 84.306 C 162.264 84.306,161.817 83.956,161.389 83.528 C 160.961 83.100,160.489 82.750,160.340 82.750 C 160.192 82.750,159.945 82.516,159.792 82.231 C 159.640 81.946,159.343 81.712,159.132 81.712 C 158.922 81.712,158.550 81.479,158.306 81.193 C 158.061 80.908,157.725 80.674,157.558 80.674 C 157.391 80.674,157.187 80.499,157.105 80.285 C 157.023 80.071,156.777 79.896,156.558 79.896 C 156.340 79.896,156.161 79.789,156.161 79.657 C 156.161 79.525,155.752 79.283,155.253 79.118 C 154.754 78.953,154.345 78.711,154.345 78.579 C 154.345 78.447,154.178 78.340,153.974 78.340 C 153.771 78.340,153.450 78.194,153.261 78.015 C 152.810 77.587,150.147 76.265,149.737 76.265 C 149.561 76.265,149.416 76.157,149.416 76.026 C 149.416 75.894,149.066 75.710,148.638 75.616 C 148.210 75.522,147.860 75.338,147.860 75.206 C 147.860 75.075,147.678 74.968,147.457 74.968 C 147.235 74.968,146.549 74.738,145.932 74.457 C 145.316 74.176,144.330 73.869,143.742 73.775 C 143.153 73.681,142.672 73.513,142.672 73.401 C 142.672 73.289,142.206 73.119,141.636 73.022 C 141.066 72.926,140.539 72.749,140.464 72.629 C 140.390 72.508,139.660 72.328,138.842 72.227 C 138.023 72.126,137.292 71.948,137.216 71.832 C 137.141 71.715,135.536 71.472,133.650 71.292 C 131.764 71.113,130.220 70.874,130.220 70.762 C 130.220 70.649,127.711 70.558,124.643 70.558 C 121.576 70.558,119.066 70.649,119.066 70.762 M127.108 83.658 L 127.108 86.122 123.800 86.141 C 121.981 86.151,119.909 86.265,119.196 86.393 C 115.139 87.121,114.242 87.306,114.006 87.460 C 113.862 87.554,113.278 87.715,112.709 87.818 C 112.139 87.921,111.556 88.092,111.414 88.197 C 111.271 88.303,110.687 88.531,110.117 88.705 C 108.275 89.265,104.754 90.926,102.724 92.193 C 101.145 93.178,99.549 94.237,99.168 94.553 C 98.995 94.695,98.313 95.220,97.651 95.720 C 92.920 99.290,84.565 110.499,84.565 113.277 C 84.565 113.388,84.316 114.123,84.012 114.911 C 83.708 115.698,83.370 116.576,83.261 116.861 C 80.993 122.814,81.018 134.027,83.318 142.283 C 83.842 144.163,83.912 144.357,84.779 146.304 C 85.065 146.946,85.536 148.005,85.826 148.657 C 86.630 150.469,89.209 154.734,90.212 155.910 C 90.390 156.119,90.963 156.816,91.485 157.458 C 94.296 160.916,100.192 165.831,103.761 167.692 C 108.420 170.120,110.863 171.110,113.359 171.583 C 113.859 171.678,114.501 171.860,114.786 171.988 C 118.114 173.482,132.542 173.475,135.210 171.978 C 135.458 171.839,135.823 171.725,136.020 171.725 C 136.394 171.725,140.076 170.587,140.986 170.190 C 142.867 169.371,147.138 167.223,147.407 166.962 C 147.585 166.789,148.197 166.369,148.768 166.029 C 151.644 164.317,156.648 159.702,159.188 156.420 C 160.838 154.287,163.163 150.685,163.164 150.259 C 163.164 150.081,163.281 149.935,163.424 149.935 C 163.567 149.935,163.684 149.822,163.684 149.683 C 163.684 149.461,164.113 148.437,165.389 145.616 C 165.592 145.166,165.759 144.619,165.759 144.399 C 165.759 144.179,165.868 143.932,166.001 143.850 C 166.134 143.768,166.386 143.031,166.562 142.213 C 166.738 141.396,166.968 140.610,167.074 140.467 C 167.179 140.324,167.349 139.507,167.452 138.651 C 167.555 137.795,167.726 136.978,167.834 136.835 C 167.941 136.693,168.110 135.496,168.210 134.176 L 168.392 131.777 153.577 131.777 L 138.761 131.777 138.836 129.377 L 138.911 126.978 155.961 126.911 L 173.011 126.845 173.191 127.560 C 173.459 128.625,172.859 137.062,172.356 139.300 C 171.758 141.961,170.970 144.784,170.674 145.327 C 170.539 145.575,170.428 145.895,170.428 146.039 C 170.428 147.935,165.124 157.048,161.608 161.194 C 158.851 164.445,151.214 170.947,150.153 170.947 C 150.046 170.947,149.529 171.238,149.004 171.594 C 147.991 172.281,143.336 174.578,142.956 174.578 C 142.833 174.578,142.397 174.753,141.988 174.966 C 141.579 175.179,141.064 175.354,140.843 175.355 C 140.622 175.356,140.330 175.461,140.195 175.589 C 139.932 175.836,138.559 176.194,135.409 176.837 C 134.339 177.055,133.230 177.356,132.944 177.506 C 132.227 177.882,121.214 178.053,118.807 177.726 C 115.330 177.253,110.768 176.205,109.719 175.638 C 109.500 175.519,108.947 175.340,108.490 175.240 C 108.033 175.140,107.592 174.950,107.510 174.818 C 107.429 174.686,107.149 174.578,106.888 174.578 C 106.142 174.578,98.838 170.756,98.834 170.363 C 98.833 170.256,98.681 170.169,98.496 170.169 C 98.127 170.169,98.026 170.098,95.201 167.878 C 92.923 166.088,89.334 162.600,87.681 160.571 C 87.041 159.786,86.454 159.086,86.375 159.014 C 85.996 158.670,83.268 154.403,83.268 154.154 C 83.268 153.998,83.166 153.831,83.040 153.783 C 82.772 153.681,79.896 147.824,79.896 147.379 C 79.896 147.212,79.780 146.872,79.637 146.624 C 79.231 145.916,78.080 142.148,78.080 141.523 C 78.080 141.213,77.976 140.849,77.848 140.713 C 77.720 140.578,77.473 139.475,77.298 138.262 C 77.124 137.049,76.888 135.415,76.774 134.630 C 76.501 132.740,76.504 125.504,76.780 123.865 C 76.900 123.152,77.128 121.751,77.287 120.752 C 77.446 119.754,77.686 118.586,77.820 118.158 C 77.955 117.730,78.377 116.329,78.759 115.045 C 79.140 113.761,79.552 112.600,79.674 112.464 C 79.796 112.329,79.896 112.055,79.896 111.856 C 79.896 110.291,85.401 101.119,88.113 98.164 C 88.516 97.725,89.371 96.778,90.013 96.060 C 90.655 95.342,91.764 94.259,92.477 93.652 C 93.191 93.046,94.104 92.262,94.506 91.911 C 97.187 89.574,103.742 85.771,107.134 84.585 C 108.061 84.261,109.053 83.891,109.339 83.763 C 110.536 83.225,113.124 82.525,114.551 82.352 C 115.394 82.250,116.210 82.066,116.366 81.942 C 116.655 81.713,121.819 81.298,125.227 81.231 L 127.108 81.193 127.108 83.658 M108.301 104.540 C 108.389 104.682,108.696 104.799,108.983 104.799 C 110.356 104.799,112.858 106.989,113.244 108.527 C 113.339 108.905,113.521 109.278,113.647 109.356 C 114.702 110.008,113.465 114.768,111.825 116.371 C 110.027 118.129,104.525 119.153,104.079 117.813 C 104.023 117.646,103.821 117.510,103.631 117.510 C 103.040 117.510,101.148 115.430,100.591 114.169 C 99.071 110.725,101.097 105.737,104.349 104.921 C 104.742 104.822,105.127 104.638,105.206 104.511 C 105.402 104.193,108.103 104.219,108.301 104.540 M127.108 127.108 L 127.108 149.676 133.046 149.676 C 139.813 149.676,139.300 149.474,139.300 152.140 C 139.300 154.840,140.120 154.604,130.712 154.604 L 122.438 154.604 122.438 129.572 L 122.438 104.540 124.773 104.540 L 127.108 104.540 127.108 127.108 " stroke="none" fill="#a40434" fill-rule="evenodd"></path><path id="path3" d="M119.066 81.707 C 118.424 81.805,119.912 81.827,122.374 81.758 L 126.848 81.631 126.848 83.606 L 126.848 85.580 124.968 85.670 L 123.087 85.759 125.097 85.811 L 127.108 85.863 127.108 83.658 L 127.108 81.453 123.671 81.492 C 121.780 81.513,119.708 81.610,119.066 81.707 M114.527 82.490 C 113.828 82.668,113.814 82.689,114.397 82.693 C 114.754 82.696,115.337 82.605,115.694 82.490 C 116.566 82.211,115.624 82.211,114.527 82.490 M111.061 83.307 C 110.582 83.445,110.238 83.606,110.297 83.665 C 110.428 83.796,112.322 83.292,112.322 83.127 C 112.322 82.974,112.116 83.003,111.061 83.307 M108.479 84.224 C 107.864 84.442,107.406 84.665,107.462 84.721 C 107.581 84.840,109.987 84.050,109.987 83.893 C 109.987 83.730,109.692 83.795,108.479 84.224 M106.161 85.092 C 105.292 85.442,105.455 85.619,106.355 85.305 C 106.783 85.156,107.134 84.987,107.134 84.929 C 107.134 84.775,106.818 84.828,106.161 85.092 M104.307 85.885 C 103.966 86.021,103.751 86.198,103.830 86.277 C 103.910 86.357,104.306 86.242,104.711 86.023 C 105.526 85.581,105.278 85.496,104.307 85.885 M118.288 86.120 C 117.930 86.234,118.803 86.265,120.233 86.188 C 121.660 86.112,122.876 86.008,122.936 85.956 C 123.151 85.770,118.920 85.919,118.288 86.120 M101.881 87.176 C 100.487 87.895,99.825 88.415,100.843 87.991 C 101.713 87.629,103.502 86.629,103.502 86.506 C 103.502 86.335,103.548 86.315,101.881 87.176 M114.449 86.897 C 113.978 87.008,113.519 87.173,113.430 87.262 C 113.258 87.434,114.604 87.207,115.694 86.880 C 116.594 86.610,115.603 86.623,114.449 86.897 M111.414 87.799 C 110.412 88.257,110.878 88.264,112.062 87.808 C 112.562 87.616,112.795 87.455,112.581 87.450 C 112.367 87.446,111.842 87.603,111.414 87.799 M99.315 88.731 C 98.735 89.236,98.733 89.250,99.272 88.989 C 99.585 88.837,99.913 88.597,100.001 88.455 C 100.256 88.043,99.976 88.155,99.315 88.731 M108.431 88.871 C 107.504 89.227,106.629 89.641,106.486 89.790 C 106.343 89.939,106.693 89.863,107.263 89.622 C 107.834 89.380,108.797 89.008,109.403 88.795 C 110.010 88.582,110.506 88.360,110.506 88.302 C 110.506 88.113,110.141 88.213,108.431 88.871 M95.299 91.548 C 93.220 93.169,87.849 98.314,88.236 98.314 C 88.323 98.314,89.372 97.311,90.566 96.086 C 91.760 94.860,93.655 93.138,94.778 92.259 C 97.731 89.948,97.942 89.772,97.763 89.762 C 97.674 89.757,96.565 90.561,95.299 91.548 M102.918 91.575 C 101.468 92.486,101.237 92.920,102.659 92.063 C 104.208 91.129,104.673 90.791,104.403 90.796 C 104.264 90.799,103.596 91.149,102.918 91.575 M98.463 94.559 C 97.618 95.198,97.010 95.720,97.112 95.720 C 97.321 95.720,100.130 93.638,100.130 93.484 C 100.130 93.312,100.032 93.375,98.463 94.559 M94.906 97.611 C 93.959 98.497,92.681 99.805,92.067 100.519 C 91.452 101.232,92.256 100.534,93.854 98.967 C 95.451 97.400,96.757 96.087,96.757 96.049 C 96.757 95.896,96.563 96.061,94.906 97.611 M86.994 99.805 C 85.679 101.460,85.519 101.686,85.659 101.686 C 85.725 101.686,86.323 100.986,86.988 100.130 C 87.653 99.274,88.146 98.573,88.085 98.573 C 88.023 98.573,87.532 99.128,86.994 99.805 M83.520 104.864 C 82.118 107.250,82.180 107.134,82.316 107.134 C 82.379 107.134,82.928 106.287,83.536 105.253 C 84.937 102.867,84.876 102.983,84.740 102.983 C 84.677 102.983,84.127 103.829,83.520 104.864 M89.295 103.956 C 88.623 104.926,88.405 105.318,88.536 105.318 C 88.597 105.318,88.956 104.851,89.334 104.280 C 90.101 103.120,90.068 102.840,89.295 103.956 M106.874 104.772 C 107.659 104.880,108.651 105.055,109.079 105.160 C 109.744 105.323,109.786 105.306,109.368 105.042 C 109.099 104.872,108.107 104.698,107.163 104.654 L 105.447 104.575 106.874 104.772 M104.135 105.185 C 103.675 105.537,103.703 105.546,104.475 105.289 C 105.355 104.995,105.557 104.799,104.978 104.799 C 104.792 104.799,104.412 104.972,104.135 105.185 M122.611 104.972 C 122.101 105.482,122.432 154.064,122.947 154.340 C 123.279 154.517,126.151 154.588,131.183 154.543 L 138.911 154.475 138.911 152.140 L 138.911 149.805 133.009 149.736 L 127.108 149.666 127.108 127.232 L 127.108 104.799 124.946 104.799 C 123.757 104.799,122.706 104.877,122.611 104.972 M126.848 127.216 C 126.848 139.403,126.919 149.559,127.006 149.784 C 127.143 150.141,127.914 150.195,132.972 150.195 L 138.781 150.195 138.781 152.140 L 138.781 154.086 130.739 154.086 L 122.698 154.086 122.698 129.572 L 122.698 105.058 124.773 105.058 L 126.848 105.058 126.848 127.216 M102.478 106.254 C 102.036 106.626,101.554 107.180,101.406 107.486 C 101.181 107.951,101.226 107.936,101.684 107.393 C 101.984 107.036,102.545 106.482,102.930 106.162 C 103.316 105.842,103.553 105.579,103.457 105.578 C 103.361 105.578,102.921 105.882,102.478 106.254 M111.809 106.809 C 111.965 107.059,112.376 107.730,112.722 108.301 C 113.068 108.872,113.353 109.215,113.355 109.065 C 113.360 108.739,111.878 106.355,111.670 106.355 C 111.590 106.355,111.653 106.560,111.809 106.809 M100.635 108.856 C 100.492 109.232,100.423 109.588,100.482 109.647 C 100.540 109.706,100.713 109.398,100.864 108.963 C 101.202 107.995,100.998 107.900,100.635 108.856 M80.976 109.609 C 80.541 110.563,80.624 110.766,81.094 109.899 C 81.314 109.494,81.445 109.114,81.385 109.055 C 81.326 108.996,81.142 109.245,80.976 109.609 M100.190 111.284 C 100.190 111.783,100.243 111.988,100.309 111.738 C 100.374 111.488,100.374 111.080,100.309 110.830 C 100.243 110.580,100.190 110.785,100.190 111.284 M79.925 112.091 C 79.765 112.550,79.680 112.970,79.735 113.025 C 79.791 113.081,79.967 112.751,80.127 112.293 C 80.287 111.834,80.372 111.414,80.317 111.358 C 80.261 111.303,80.085 111.633,79.925 112.091 M84.306 112.840 C 84.125 113.278,84.037 113.696,84.111 113.770 C 84.186 113.844,84.377 113.529,84.537 113.071 C 84.696 112.613,84.784 112.194,84.731 112.142 C 84.679 112.089,84.487 112.403,84.306 112.840 M100.549 113.489 C 100.640 113.917,100.830 114.384,100.971 114.527 C 101.138 114.697,101.160 114.564,101.035 114.137 C 100.728 113.090,100.357 112.596,100.549 113.489 M79.118 114.267 C 78.947 114.786,78.868 115.271,78.944 115.347 C 79.019 115.422,79.202 115.041,79.351 114.501 C 79.704 113.225,79.522 113.043,79.118 114.267 M112.922 114.073 C 112.833 114.322,112.711 114.643,112.652 114.786 C 112.592 114.929,112.726 114.819,112.951 114.542 C 113.359 114.039,113.482 113.619,113.221 113.619 C 113.146 113.619,113.011 113.823,112.922 114.073 M83.521 114.803 C 83.248 115.523,83.185 116.124,83.406 115.902 C 83.602 115.706,84.034 114.137,83.892 114.137 C 83.828 114.137,83.661 114.437,83.521 114.803 M111.560 116.066 C 111.086 116.555,110.359 117.096,109.945 117.268 C 109.531 117.439,109.243 117.631,109.306 117.693 C 109.523 117.911,110.900 117.030,111.789 116.105 C 112.281 115.594,112.624 115.175,112.553 115.175 C 112.482 115.175,112.035 115.576,111.560 116.066 M78.210 117.250 C 78.112 117.699,78.089 118.124,78.161 118.195 C 78.232 118.267,78.371 117.958,78.470 117.510 C 78.568 117.061,78.590 116.636,78.519 116.565 C 78.448 116.493,78.309 116.802,78.210 117.250 M82.512 118.180 C 82.344 118.845,82.256 119.437,82.316 119.497 C 82.375 119.556,82.561 119.061,82.728 118.396 C 82.895 117.731,82.984 117.139,82.924 117.079 C 82.865 117.020,82.679 117.515,82.512 118.180 M105.522 118.075 C 105.766 118.172,106.433 118.251,107.004 118.251 C 107.575 118.251,108.241 118.172,108.486 118.075 C 108.730 117.978,108.063 117.899,107.004 117.899 C 105.944 117.899,105.278 117.978,105.522 118.075 M77.302 121.660 C 77.131 122.678,77.043 123.563,77.107 123.627 C 77.172 123.692,77.363 122.909,77.531 121.889 C 77.700 120.869,77.787 119.984,77.726 119.922 C 77.664 119.861,77.474 120.643,77.302 121.660 M81.892 120.675 C 81.813 121.003,81.687 121.855,81.612 122.568 C 81.501 123.611,81.548 123.513,81.851 122.069 C 82.193 120.434,82.227 119.269,81.892 120.675 M81.259 125.422 C 81.262 125.992,81.315 126.195,81.377 125.872 C 81.439 125.550,81.436 125.083,81.371 124.835 C 81.307 124.587,81.256 124.851,81.259 125.422 M76.890 129.053 C 76.889 131.479,76.928 132.506,76.976 131.336 C 77.024 130.166,77.024 128.181,76.977 126.926 C 76.929 125.670,76.890 126.628,76.890 129.053 M81.024 128.664 C 81.024 129.877,81.069 130.373,81.124 129.767 C 81.178 129.160,81.178 128.168,81.124 127.562 C 81.069 126.955,81.024 127.451,81.024 128.664 M138.835 129.248 L 138.911 131.388 153.749 131.518 C 161.909 131.589,168.500 131.561,168.394 131.455 C 168.288 131.349,161.669 131.232,153.686 131.195 L 139.170 131.128 139.170 129.118 C 139.170 128.012,139.078 127.107,138.965 127.107 C 138.852 127.107,138.794 128.071,138.835 129.248 M172.689 133.564 C 172.579 135.189,172.540 136.569,172.601 136.631 C 172.769 136.799,173.082 132.561,172.979 131.518 C 172.929 131.018,172.799 131.939,172.689 133.564 M81.267 132.685 C 81.269 133.398,81.320 133.659,81.379 133.265 C 81.439 132.871,81.437 132.287,81.376 131.968 C 81.314 131.649,81.266 131.971,81.267 132.685 M168.277 134.340 C 168.166 135.536,168.128 136.568,168.193 136.632 C 168.377 136.816,168.665 134.081,168.567 133.074 C 168.513 132.515,168.401 133.002,168.277 134.340 M77.222 136.304 C 77.306 137.153,77.471 138.145,77.589 138.509 C 77.853 139.328,77.605 136.992,77.286 135.668 C 77.129 135.014,77.111 135.192,77.222 136.304 M81.616 136.294 C 81.695 137.137,81.864 138.071,81.991 138.369 C 82.250 138.974,82.138 137.995,81.712 135.927 C 81.488 134.837,81.481 134.861,81.616 136.294 M167.335 139.838 C 166.957 141.599,167.161 141.803,167.575 140.078 C 167.749 139.349,167.832 138.693,167.759 138.619 C 167.685 138.546,167.495 139.094,167.335 139.838 M171.762 139.985 C 171.599 140.797,171.514 141.509,171.573 141.568 C 171.632 141.627,171.817 141.015,171.984 140.208 C 172.152 139.400,172.237 138.688,172.174 138.624 C 172.110 138.561,171.925 139.173,171.762 139.985 M82.534 140.726 C 82.530 141.012,82.627 141.479,82.750 141.764 C 83.034 142.425,83.034 141.743,82.750 140.856 C 82.583 140.335,82.540 140.309,82.534 140.726 M78.125 140.986 C 78.120 141.271,78.217 141.738,78.340 142.023 C 78.624 142.684,78.624 142.002,78.340 141.115 C 78.173 140.594,78.131 140.569,78.125 140.986 M166.537 142.802 C 166.366 143.320,166.287 143.806,166.363 143.881 C 166.438 143.956,166.621 143.575,166.770 143.035 C 166.920 142.495,166.998 142.009,166.945 141.956 C 166.892 141.902,166.708 142.283,166.537 142.802 M170.994 142.978 C 170.840 143.585,170.759 144.127,170.813 144.181 C 170.868 144.236,171.045 143.790,171.206 143.191 C 171.368 142.591,171.449 142.050,171.387 141.988 C 171.325 141.926,171.148 142.372,170.994 142.978 M83.288 143.450 C 83.290 143.664,83.457 144.189,83.659 144.617 L 84.025 145.396 83.871 144.617 C 83.678 143.643,83.282 142.850,83.288 143.450 M78.878 143.969 C 78.880 144.183,79.047 144.708,79.249 145.136 L 79.616 145.914 79.461 145.136 C 79.269 144.162,78.872 143.369,78.878 143.969 M165.759 145.006 C 165.578 145.444,165.490 145.862,165.564 145.936 C 165.638 146.010,165.830 145.695,165.989 145.237 C 166.367 144.154,166.186 143.974,165.759 145.006 M170.039 145.785 C 169.942 146.092,169.920 146.401,169.992 146.472 C 170.063 146.544,170.201 146.351,170.298 146.044 C 170.396 145.737,170.417 145.428,170.346 145.356 C 170.274 145.285,170.136 145.478,170.039 145.785 M84.056 145.668 C 84.061 145.804,84.241 146.206,84.456 146.563 L 84.847 147.211 84.677 146.563 C 84.500 145.886,84.039 145.223,84.056 145.668 M79.786 146.563 C 79.881 146.920,80.067 147.387,80.199 147.601 C 80.366 147.871,80.387 147.792,80.266 147.341 C 80.171 146.984,79.985 146.518,79.852 146.304 C 79.685 146.033,79.665 146.112,79.786 146.563 M164.763 147.482 C 164.329 148.436,164.412 148.639,164.882 147.772 C 165.101 147.367,165.232 146.987,165.173 146.928 C 165.113 146.869,164.929 147.118,164.763 147.482 M169.160 148.148 C 168.782 149.231,168.963 149.411,169.390 148.379 C 169.571 147.942,169.659 147.523,169.585 147.449 C 169.511 147.375,169.320 147.690,169.160 148.148 M85.084 147.955 C 85.084 148.236,86.374 150.713,86.520 150.713 C 86.591 150.713,86.342 150.101,85.965 149.351 C 85.242 147.911,85.084 147.661,85.084 147.955 M80.433 148.249 C 80.433 148.392,80.600 148.800,80.804 149.157 C 81.008 149.514,81.175 149.689,81.175 149.546 C 81.175 149.403,81.008 148.995,80.804 148.638 C 80.600 148.281,80.433 148.106,80.433 148.249 M163.952 149.140 C 163.623 149.754,163.608 150.012,163.912 149.825 C 164.141 149.683,164.497 148.638,164.317 148.638 C 164.264 148.638,164.100 148.864,163.952 149.140 M168.362 149.918 C 168.033 150.532,168.018 150.791,168.321 150.603 C 168.550 150.462,168.907 149.416,168.727 149.416 C 168.674 149.416,168.510 149.642,168.362 149.918 M163.347 150.389 C 163.287 150.496,162.911 151.167,162.511 151.881 C 162.110 152.594,161.903 153.061,162.050 152.918 C 162.425 152.554,163.763 150.195,163.594 150.195 C 163.517 150.195,163.406 150.282,163.347 150.389 M81.453 150.648 C 81.453 150.772,81.622 151.100,81.829 151.377 C 82.192 151.863,82.200 151.860,82.057 151.293 C 81.909 150.707,81.453 150.220,81.453 150.648 M166.939 152.763 C 166.570 153.490,166.319 154.086,166.381 154.086 C 166.570 154.086,167.849 151.680,167.726 151.556 C 167.662 151.492,167.308 152.035,166.939 152.763 M82.620 152.789 C 82.841 153.217,83.081 153.567,83.152 153.567 C 83.223 153.567,83.101 153.217,82.879 152.789 C 82.658 152.361,82.419 152.010,82.347 152.010 C 82.276 152.010,82.399 152.361,82.620 152.789 M87.977 153.322 C 88.303 153.901,88.727 154.506,88.920 154.666 C 89.114 154.827,88.896 154.353,88.436 153.614 C 87.445 152.020,87.134 151.822,87.977 153.322 M161.150 154.021 C 160.389 155.119,160.204 155.586,160.815 154.864 C 161.448 154.115,161.941 153.307,161.765 153.307 C 161.698 153.307,161.421 153.628,161.150 154.021 M90.056 156.261 C 91.017 157.668,95.387 162.387,95.730 162.387 C 95.850 162.387,95.318 161.791,94.548 161.063 C 93.779 160.335,92.509 158.963,91.726 158.015 C 89.399 155.193,89.148 154.930,90.056 156.261 M164.456 156.874 C 163.770 157.919,163.750 157.988,164.326 157.328 C 165.061 156.487,165.595 155.642,165.391 155.642 C 165.322 155.642,164.901 156.196,164.456 156.874 M158.859 157.134 C 156.084 160.567,151.675 164.493,148.149 166.670 C 146.436 167.727,145.937 168.252,147.536 167.315 C 151.502 164.992,161.405 155.901,159.971 155.901 C 159.907 155.901,159.407 156.456,158.859 157.134 M84.986 156.680 C 85.672 158.120,89.975 163.086,92.398 165.234 C 94.447 167.050,94.420 167.011,91.827 164.440 C 90.327 162.954,88.401 160.853,87.547 159.771 C 86.692 158.689,85.724 157.463,85.397 157.047 C 85.069 156.631,84.884 156.466,84.986 156.680 M162.633 159.339 C 162.150 159.945,161.180 161.054,160.477 161.803 C 159.774 162.552,159.303 163.157,159.431 163.147 C 159.664 163.129,163.113 159.274,163.502 158.597 C 163.898 157.908,163.506 158.242,162.633 159.339 M96.239 162.768 C 96.239 162.941,100.114 166.018,100.332 166.018 C 100.565 166.018,100.027 165.551,97.990 163.984 C 97.027 163.243,96.239 162.696,96.239 162.768 M156.161 166.069 C 155.091 167.082,154.682 167.553,155.253 167.116 C 156.251 166.352,158.466 164.189,158.224 164.215 C 158.159 164.222,157.231 165.056,156.161 166.069 M100.828 166.305 C 101.156 166.706,103.243 167.952,103.243 167.747 C 103.243 167.680,102.805 167.354,102.270 167.021 C 101.735 166.688,101.122 166.306,100.908 166.171 C 100.590 165.971,100.575 165.995,100.828 166.305 M94.775 167.256 C 94.981 167.588,96.498 168.711,96.498 168.531 C 96.498 168.467,96.070 168.088,95.546 167.688 C 95.022 167.289,94.675 167.094,94.775 167.256 M103.502 167.959 C 103.502 168.112,105.997 169.392,106.282 169.386 C 106.470 169.381,103.786 167.834,103.590 167.834 C 103.542 167.834,103.502 167.890,103.502 167.959 M152.110 169.175 C 150.922 170.069,150.773 170.282,151.706 169.752 C 152.508 169.296,153.275 168.612,152.985 168.612 C 152.915 168.612,152.522 168.866,152.110 169.175 M98.054 169.704 C 98.268 169.916,98.911 170.352,99.481 170.673 C 100.356 171.166,100.420 171.176,99.887 170.741 C 99.022 170.032,97.537 169.192,98.054 169.704 M106.615 169.513 C 106.615 169.719,108.495 170.450,108.643 170.302 C 108.717 170.229,108.713 170.169,108.635 170.169 C 108.558 170.169,108.071 169.992,107.554 169.776 C 107.038 169.560,106.615 169.442,106.615 169.513 M142.412 169.780 C 142.056 169.983,141.881 170.150,142.023 170.150 C 142.166 170.150,142.575 169.983,142.931 169.780 C 143.288 169.576,143.463 169.409,143.320 169.409 C 143.178 169.409,142.769 169.576,142.412 169.780 M140.208 170.692 C 139.629 170.976,139.457 171.131,139.818 171.042 C 140.576 170.855,141.884 170.191,141.505 170.186 C 141.362 170.184,140.778 170.412,140.208 170.692 M149.741 170.717 C 149.277 171.014,148.898 171.307,148.898 171.368 C 148.898 171.552,150.409 170.711,150.583 170.430 C 150.808 170.065,150.702 170.102,149.741 170.717 M109.209 170.644 C 109.423 170.776,109.890 170.962,110.246 171.058 C 110.697 171.178,110.776 171.158,110.506 170.991 C 110.292 170.858,109.825 170.672,109.468 170.577 C 109.018 170.456,108.938 170.477,109.209 170.644 M100.649 171.323 C 100.649 171.394,100.999 171.633,101.427 171.855 C 101.855 172.076,102.205 172.199,102.205 172.127 C 102.205 172.056,101.855 171.817,101.427 171.595 C 100.999 171.374,100.649 171.251,100.649 171.323 M111.284 171.425 C 111.498 171.557,112.082 171.742,112.581 171.836 C 113.184 171.950,113.358 171.926,113.100 171.766 C 112.886 171.634,112.302 171.448,111.803 171.354 C 111.200 171.241,111.025 171.264,111.284 171.425 M137.484 171.523 C 136.984 171.671,136.709 171.841,136.872 171.901 C 137.035 171.960,137.560 171.838,138.039 171.629 C 139.053 171.187,138.787 171.136,137.484 171.523 M146.174 172.657 C 145.032 173.276,144.189 173.786,144.299 173.791 C 144.580 173.804,148.638 171.747,148.638 171.592 C 148.638 171.362,148.269 171.521,146.174 172.657 M115.045 172.503 C 115.331 172.626,115.856 172.723,116.213 172.719 L 116.861 172.711 116.213 172.503 C 115.856 172.389,115.331 172.292,115.045 172.288 L 114.527 172.280 115.045 172.503 M133.852 172.503 C 133.339 172.668,133.312 172.711,133.722 172.711 C 134.008 172.711,134.533 172.617,134.890 172.503 C 135.403 172.339,135.430 172.296,135.019 172.296 C 134.734 172.296,134.209 172.389,133.852 172.503 M105.058 173.649 C 105.700 173.981,106.518 174.329,106.874 174.423 C 107.231 174.517,106.777 174.240,105.866 173.808 C 103.922 172.886,103.371 172.778,105.058 173.649 M119.740 173.331 C 120.989 173.553,129.548 173.541,130.593 173.316 C 131.012 173.225,128.514 173.152,125.042 173.152 C 121.569 173.152,119.184 173.233,119.740 173.331 M143.061 174.198 C 142.409 174.512,142.388 174.548,142.931 174.417 C 143.288 174.331,143.691 174.157,143.826 174.031 C 144.162 173.716,143.978 173.757,143.061 174.198 M108.301 174.938 C 108.729 175.133,109.371 175.364,109.728 175.452 C 110.248 175.579,110.223 175.541,109.598 175.256 C 109.170 175.061,108.528 174.830,108.171 174.743 C 107.650 174.615,107.676 174.654,108.301 174.938 M140.856 174.968 C 140.357 175.160,140.123 175.321,140.337 175.325 C 140.551 175.330,141.077 175.173,141.505 174.977 C 142.506 174.518,142.040 174.511,140.856 174.968 M111.025 175.842 C 111.239 175.970,111.822 176.148,112.322 176.236 C 112.934 176.345,113.061 176.325,112.711 176.175 C 111.909 175.831,110.564 175.566,111.025 175.842 M137.520 175.914 C 137.041 176.052,136.708 176.224,136.781 176.296 C 136.929 176.445,139.040 175.921,139.040 175.736 C 139.040 175.565,138.523 175.625,137.520 175.914 M114.527 176.779 C 115.097 176.973,115.856 177.132,116.213 177.130 L 116.861 177.128 116.213 176.931 C 115.856 176.823,115.097 176.665,114.527 176.580 L 113.489 176.425 114.527 176.779 M134.241 176.794 L 132.944 177.144 134.112 176.995 C 134.754 176.914,135.512 176.752,135.798 176.637 C 136.606 176.310,135.695 176.402,134.241 176.794 M120.104 177.731 C 121.966 177.951,127.916 177.953,129.572 177.733 C 130.285 177.639,128.126 177.562,124.773 177.562 C 121.420 177.562,119.319 177.638,120.104 177.731 " stroke="none" fill="#d4849c" fill-rule="evenodd"></path><path id="path4" d="M124.196 81.384 C 124.806 81.438,125.740 81.438,126.271 81.382 C 126.803 81.326,126.304 81.281,125.162 81.282 C 124.021 81.283,123.586 81.329,124.196 81.384 M116.345 81.968 C 116.246 82.127,116.508 82.162,117.043 82.060 C 118.190 81.842,118.289 81.712,117.309 81.712 C 116.865 81.712,116.432 81.827,116.345 81.968 M112.099 82.788 C 111.619 82.926,111.273 83.085,111.329 83.141 C 111.386 83.197,112.011 83.084,112.720 82.890 C 113.428 82.696,113.774 82.537,113.489 82.537 C 113.204 82.537,112.578 82.650,112.099 82.788 M109.792 83.536 C 108.924 83.885,109.086 84.062,109.987 83.748 C 110.415 83.599,110.765 83.430,110.765 83.373 C 110.765 83.219,110.450 83.272,109.792 83.536 M104.913 85.461 C 104.428 85.823,104.431 85.831,104.998 85.689 C 105.321 85.607,105.649 85.438,105.726 85.312 C 105.946 84.957,105.471 85.044,104.913 85.461 M123.930 86.052 C 124.536 86.107,125.529 86.107,126.135 86.052 C 126.741 85.998,126.245 85.953,125.032 85.953 C 123.820 85.953,123.324 85.998,123.930 86.052 M116.732 86.641 L 116.083 86.848 116.732 86.870 C 117.088 86.882,117.555 86.779,117.769 86.641 C 118.265 86.321,117.731 86.321,116.732 86.641 M112.970 87.558 C 111.940 87.915,111.939 87.916,112.840 87.771 C 113.340 87.690,113.859 87.519,113.995 87.392 C 114.298 87.106,114.258 87.113,112.970 87.558 M110.636 88.336 C 109.984 88.650,109.963 88.685,110.506 88.555 C 110.863 88.469,111.265 88.295,111.401 88.168 C 111.737 87.854,111.552 87.894,110.636 88.336 M98.367 89.087 C 97.162 89.939,96.992 90.182,98.010 89.599 C 98.484 89.327,98.995 88.959,99.144 88.781 C 99.527 88.322,99.347 88.393,98.367 89.087 M95.786 90.856 C 95.326 91.177,94.949 91.548,94.946 91.679 C 94.944 91.811,95.263 91.638,95.655 91.294 C 96.047 90.950,96.479 90.580,96.615 90.471 C 97.155 90.036,96.570 90.308,95.786 90.856 M91.942 94.106 C 91.219 94.779,90.176 95.856,89.623 96.498 C 89.070 97.140,89.690 96.617,91.001 95.336 C 92.312 94.055,93.385 92.975,93.385 92.937 C 93.385 92.782,93.204 92.929,91.942 94.106 M100.094 93.659 C 99.513 94.165,99.511 94.178,100.050 93.917 C 100.363 93.766,100.691 93.526,100.779 93.384 C 101.034 92.971,100.754 93.084,100.094 93.659 M97.147 95.875 C 96.351 96.585,96.296 96.677,96.910 96.272 C 97.634 95.795,98.522 94.936,98.281 94.945 C 98.228 94.948,97.717 95.366,97.147 95.875 M87.441 98.932 L 86.815 99.741 87.557 99.035 C 87.965 98.647,88.247 98.283,88.183 98.226 C 88.120 98.169,87.786 98.487,87.441 98.932 M85.659 101.232 C 84.575 102.713,84.058 103.544,84.490 103.113 C 84.948 102.656,86.921 99.870,86.787 99.870 C 86.715 99.870,86.208 100.483,85.659 101.232 M91.520 101.372 C 91.032 101.913,90.253 102.934,89.789 103.642 C 88.883 105.025,88.813 105.102,91.508 101.760 C 92.794 100.164,92.801 99.954,91.520 101.372 M105.228 104.475 C 105.162 104.582,105.844 104.669,106.743 104.669 C 107.643 104.669,108.326 104.582,108.260 104.475 C 108.194 104.368,107.512 104.280,106.744 104.280 C 105.977 104.280,105.294 104.368,105.228 104.475 M122.438 104.734 C 122.438 104.841,123.167 104.896,124.059 104.856 C 126.987 104.726,127.277 104.623,124.838 104.581 C 123.518 104.558,122.438 104.627,122.438 104.734 M88.529 105.383 C 88.022 106.038,87.849 106.441,88.156 106.251 C 88.463 106.061,89.077 105.058,88.887 105.058 C 88.828 105.058,88.667 105.204,88.529 105.383 M110.765 105.680 C 110.765 105.747,111.145 106.067,111.608 106.392 C 112.206 106.812,112.345 106.851,112.084 106.526 C 111.712 106.063,110.765 105.456,110.765 105.680 M100.221 109.270 C 99.902 109.788,99.997 112.923,100.350 113.489 L 100.673 114.008 100.545 113.489 C 100.176 111.998,100.121 111.048,100.345 110.052 C 100.600 108.918,100.567 108.710,100.221 109.270 M113.530 110.039 C 113.749 111.186,113.878 111.285,113.878 110.305 C 113.878 109.862,113.763 109.428,113.623 109.341 C 113.463 109.242,113.428 109.504,113.530 110.039 M80.163 110.876 C 79.777 111.890,79.854 112.049,80.316 111.196 C 80.535 110.791,80.651 110.396,80.572 110.317 C 80.494 110.239,80.310 110.490,80.163 110.876 M85.126 111.425 C 84.692 112.379,84.775 112.582,85.245 111.715 C 85.464 111.310,85.595 110.930,85.536 110.871 C 85.477 110.812,85.292 111.061,85.126 111.425 M113.658 112.236 C 113.636 112.545,113.543 113.012,113.451 113.273 C 113.322 113.639,113.356 113.681,113.601 113.456 C 113.776 113.295,113.869 112.828,113.808 112.418 C 113.729 111.893,113.685 111.839,113.658 112.236 M79.364 113.006 C 79.221 113.383,79.152 113.739,79.210 113.798 C 79.269 113.856,79.442 113.548,79.593 113.113 C 79.931 112.145,79.727 112.051,79.364 113.006 M84.089 114.019 C 83.654 114.973,83.737 115.176,84.207 114.309 C 84.427 113.904,84.558 113.524,84.498 113.465 C 84.439 113.406,84.255 113.655,84.089 114.019 M100.883 114.786 C 101.031 115.071,101.397 115.597,101.696 115.953 C 102.067 116.396,102.154 116.437,101.970 116.083 C 101.822 115.798,101.456 115.272,101.157 114.916 C 100.786 114.473,100.699 114.432,100.883 114.786 M111.812 116.030 C 111.175 116.772,110.939 117.147,111.289 116.861 C 112.026 116.259,112.483 115.748,112.854 115.110 C 113.274 114.389,113.051 114.586,111.812 116.030 M104.021 117.761 C 104.021 117.966,105.585 118.367,105.748 118.203 C 105.797 118.155,105.428 117.990,104.928 117.837 C 104.429 117.684,104.021 117.650,104.021 117.761 M108.949 117.921 C 108.100 118.269,108.091 118.283,108.820 118.142 C 109.248 118.060,109.709 117.883,109.844 117.751 C 110.155 117.447,110.066 117.464,108.949 117.921 M77.729 118.463 C 77.652 118.723,77.529 119.403,77.454 119.974 C 77.351 120.771,77.404 120.683,77.685 119.592 C 78.019 118.295,78.055 117.355,77.729 118.463 M82.361 119.585 C 82.262 120.033,82.236 120.454,82.302 120.520 C 82.368 120.587,82.496 120.268,82.588 119.812 C 82.804 118.731,82.594 118.521,82.361 119.585 M81.539 123.908 C 81.250 125.932,81.353 133.944,81.687 135.409 L 81.952 136.576 81.840 135.149 C 81.483 130.615,81.439 127.712,81.691 125.315 C 81.997 122.402,81.892 121.433,81.539 123.908 M76.691 124.292 C 76.484 126.272,76.517 132.712,76.744 134.630 C 76.837 135.415,76.913 133.051,76.913 129.378 C 76.913 125.704,76.901 122.698,76.885 122.698 C 76.870 122.698,76.782 123.415,76.691 124.292 M147.555 127.043 C 152.309 127.082,160.013 127.082,164.675 127.043 C 169.337 127.003,165.447 126.971,156.031 126.971 C 146.615 126.971,142.800 127.003,147.555 127.043 M173.116 129.702 C 173.116 131.057,173.159 131.612,173.213 130.934 C 173.266 130.256,173.266 129.147,173.213 128.470 C 173.159 127.792,173.116 128.346,173.116 129.702 M138.781 131.582 C 138.781 131.689,145.425 131.777,153.545 131.777 C 163.369 131.777,168.354 131.866,168.441 132.043 C 168.514 132.189,168.543 132.160,168.506 131.978 C 168.431 131.608,138.781 131.213,138.781 131.582 M167.748 136.879 C 167.652 136.974,167.587 137.411,167.601 137.851 L 167.628 138.651 167.841 137.745 C 168.063 136.801,168.040 136.586,167.748 136.879 M172.399 137.769 C 172.304 138.364,172.277 138.901,172.339 138.963 C 172.401 139.025,172.533 138.593,172.633 138.003 C 172.733 137.413,172.760 136.876,172.693 136.809 C 172.627 136.743,172.495 137.175,172.399 137.769 M77.472 139.170 C 77.554 139.883,77.728 140.580,77.856 140.718 C 78.098 140.978,77.910 139.715,77.528 138.521 C 77.400 138.119,77.378 138.364,77.472 139.170 M82.283 138.651 C 82.283 138.936,82.376 139.462,82.490 139.818 C 82.655 140.332,82.698 140.359,82.698 139.948 C 82.698 139.663,82.605 139.137,82.490 138.781 C 82.326 138.267,82.283 138.240,82.283 138.651 M166.940 140.661 C 166.671 141.532,166.514 142.522,166.668 142.368 C 166.876 142.160,167.308 140.337,167.150 140.337 C 167.089 140.337,166.995 140.483,166.940 140.661 M171.513 141.941 C 171.359 142.548,171.277 143.089,171.332 143.144 C 171.387 143.198,171.564 142.753,171.725 142.153 C 171.886 141.554,171.968 141.012,171.906 140.950 C 171.844 140.888,171.667 141.334,171.513 141.941 M78.239 142.412 C 78.327 142.912,78.504 143.495,78.633 143.709 C 78.909 144.170,78.643 142.826,78.300 142.023 C 78.150 141.673,78.130 141.800,78.239 142.412 M170.713 144.526 C 170.369 145.513,170.356 145.708,170.654 145.383 C 170.902 145.112,171.282 143.709,171.107 143.709 C 171.047 143.709,170.869 144.077,170.713 144.526 M79.259 145.850 C 79.356 146.171,79.543 146.547,79.673 146.687 C 79.804 146.826,79.779 146.563,79.619 146.103 C 79.290 145.161,78.987 144.947,79.259 145.850 M164.988 146.414 C 164.602 147.428,164.679 147.588,165.141 146.735 C 165.360 146.330,165.476 145.934,165.397 145.855 C 165.319 145.777,165.134 146.028,164.988 146.414 M169.942 146.725 C 169.770 147.101,169.690 147.468,169.763 147.540 C 169.835 147.613,170.018 147.348,170.169 146.952 C 170.319 146.556,170.400 146.189,170.348 146.137 C 170.296 146.085,170.113 146.349,169.942 146.725 M84.834 146.965 C 84.839 147.101,85.019 147.503,85.234 147.860 L 85.625 148.508 85.455 147.860 C 85.278 147.183,84.817 146.520,84.834 146.965 M80.038 147.925 C 80.135 148.246,80.321 148.622,80.451 148.762 C 80.582 148.901,80.557 148.639,80.397 148.178 C 80.068 147.236,79.765 147.022,80.038 147.925 M168.914 149.298 C 168.479 150.252,168.562 150.455,169.032 149.588 C 169.251 149.183,169.382 148.803,169.323 148.744 C 169.264 148.684,169.080 148.934,168.914 149.298 M139.129 152.140 C 139.130 153.281,139.176 153.716,139.230 153.106 C 139.285 152.496,139.285 151.562,139.229 151.031 C 139.173 150.500,139.128 150.999,139.129 152.140 M161.680 152.853 C 161.173 153.509,161.000 153.912,161.307 153.722 C 161.615 153.532,162.229 152.529,162.038 152.529 C 161.979 152.529,161.818 152.675,161.680 152.853 M83.503 154.818 C 83.661 155.113,83.918 155.433,84.074 155.529 C 84.277 155.655,84.277 155.553,84.071 155.169 C 83.914 154.874,83.657 154.554,83.501 154.458 C 83.297 154.332,83.298 154.434,83.503 154.818 M159.157 156.485 C 157.960 158.062,157.956 158.074,158.995 156.939 C 159.582 156.297,160.181 155.567,160.326 155.318 C 160.853 154.409,160.360 154.901,159.157 156.485 M92.293 158.690 C 93.706 160.281,95.297 161.829,97.004 163.275 C 97.353 163.571,96.215 162.390,94.475 160.651 C 92.734 158.911,91.310 157.365,91.310 157.214 C 91.310 157.063,91.181 156.939,91.024 156.939 C 90.867 156.939,91.438 157.727,92.293 158.690 M164.015 157.782 C 163.508 158.438,163.335 158.841,163.642 158.651 C 163.949 158.461,164.564 157.458,164.373 157.458 C 164.314 157.458,164.153 157.604,164.015 157.782 M155.447 160.523 C 154.413 161.595,153.602 162.508,153.645 162.551 C 153.689 162.595,154.649 161.700,155.779 160.563 C 156.910 159.426,157.721 158.513,157.581 158.535 C 157.442 158.556,156.482 159.451,155.447 160.523 M162.387 159.922 C 162.051 160.279,161.885 160.567,162.017 160.563 C 162.239 160.555,163.308 159.274,163.092 159.274 C 163.039 159.274,162.722 159.565,162.387 159.922 M88.198 161.219 C 88.554 161.647,88.875 162.046,88.911 162.105 C 88.946 162.165,89.033 162.156,89.102 162.087 C 89.172 162.017,88.852 161.618,88.390 161.200 L 87.551 160.441 88.198 161.219 M160.549 162.062 C 159.919 162.740,159.239 163.528,159.039 163.813 C 158.838 164.099,159.174 163.807,159.785 163.165 C 161.533 161.327,161.968 160.830,161.826 160.830 C 161.754 160.830,161.179 161.385,160.549 162.062 M157.059 165.553 L 155.772 166.903 157.069 165.757 C 158.248 164.716,158.701 164.202,158.442 164.202 C 158.390 164.202,157.767 164.810,157.059 165.553 M92.088 165.075 C 92.088 165.379,96.820 169.390,97.178 169.390 C 97.468 169.390,97.144 169.085,95.933 168.215 C 95.195 167.684,94.027 166.723,93.339 166.080 C 92.651 165.436,92.088 164.984,92.088 165.075 M148.576 166.094 C 148.042 166.409,147.604 166.756,147.603 166.865 C 147.602 166.974,148.067 166.754,148.638 166.376 C 149.209 165.999,149.676 165.647,149.676 165.595 C 149.676 165.452,149.627 165.474,148.576 166.094 M154.086 167.995 C 152.548 169.198,152.120 169.693,153.437 168.745 C 155.240 167.447,155.719 167.055,155.482 167.069 C 155.356 167.076,154.728 167.493,154.086 167.995 M104.021 167.950 C 104.021 168.022,104.371 168.261,104.799 168.482 C 105.227 168.704,105.577 168.827,105.577 168.755 C 105.577 168.684,105.227 168.444,104.799 168.223 C 104.371 168.002,104.021 167.879,104.021 167.950 M141.440 169.917 C 140.571 170.266,140.733 170.444,141.634 170.130 C 142.062 169.981,142.412 169.812,142.412 169.754 C 142.412 169.600,142.097 169.653,141.440 169.917 M150.677 170.443 C 150.097 170.948,150.095 170.962,150.634 170.701 C 150.947 170.549,151.275 170.309,151.363 170.167 C 151.618 169.755,151.338 169.867,150.677 170.443 M138.392 171.078 L 137.613 171.444 138.392 171.290 C 138.820 171.206,139.345 171.039,139.559 170.920 C 140.258 170.531,139.267 170.665,138.392 171.078 M113.100 171.694 C 113.710 172.040,115.087 172.319,114.786 172.037 C 114.643 171.903,114.118 171.722,113.619 171.634 C 113.069 171.537,112.864 171.561,113.100 171.694 M136.187 171.653 C 135.830 171.717,135.422 171.884,135.279 172.025 C 134.984 172.315,136.322 172.056,136.965 171.698 C 137.374 171.470,137.246 171.463,136.187 171.653 M117.380 172.763 C 117.808 172.872,118.392 172.966,118.677 172.973 L 119.196 172.986 118.677 172.763 C 118.392 172.640,117.808 172.545,117.380 172.552 L 116.602 172.565 117.380 172.763 M131.518 172.776 C 131.239 172.966,131.423 172.992,132.166 172.868 C 133.453 172.652,133.660 172.502,132.663 172.507 C 132.247 172.509,131.732 172.630,131.518 172.776 M120.947 173.201 C 121.196 173.266,121.605 173.266,121.855 173.201 C 122.104 173.136,121.900 173.082,121.401 173.082 C 120.901 173.082,120.697 173.136,120.947 173.201 M128.343 173.206 C 128.666 173.268,129.132 173.265,129.380 173.200 C 129.628 173.135,129.364 173.085,128.794 173.087 C 128.223 173.090,128.020 173.143,128.343 173.206 M109.615 175.587 C 109.891 175.839,111.498 176.262,111.254 176.018 C 111.167 175.931,110.708 175.748,110.234 175.613 C 109.761 175.477,109.482 175.465,109.615 175.587 M139.170 175.747 L 138.392 176.114 139.170 175.961 C 139.598 175.877,140.059 175.707,140.195 175.583 C 140.564 175.244,140.069 175.323,139.170 175.747 M112.970 176.654 C 113.256 176.776,113.722 176.877,114.008 176.877 L 114.527 176.877 114.008 176.654 C 113.722 176.531,113.256 176.431,112.970 176.431 L 112.451 176.431 112.970 176.654 M135.798 176.654 C 135.137 176.938,135.819 176.938,136.706 176.654 C 137.227 176.487,137.252 176.445,136.835 176.438 C 136.550 176.434,136.083 176.531,135.798 176.654 M116.732 177.424 C 116.946 177.567,117.519 177.685,118.007 177.687 C 119.170 177.693,118.963 177.546,117.510 177.335 C 116.694 177.216,116.460 177.243,116.732 177.424 M131.647 177.432 L 130.610 177.618 131.697 177.654 C 132.295 177.675,132.856 177.575,132.944 177.432 C 133.032 177.289,133.010 177.189,132.895 177.209 C 132.779 177.230,132.218 177.330,131.647 177.432 M119.909 177.870 C 120.159 177.935,120.567 177.935,120.817 177.870 C 121.067 177.805,120.863 177.751,120.363 177.751 C 119.864 177.751,119.660 177.805,119.909 177.870 M128.988 177.870 C 129.238 177.935,129.647 177.935,129.896 177.870 C 130.146 177.805,129.942 177.751,129.442 177.751 C 128.943 177.751,128.739 177.805,128.988 177.870 " stroke="none" fill="#b2224e" fill-rule="evenodd"></path></g></svg>