<?xml version="1.0" encoding="UTF-8"?>
<svg version="1.1" xmlns="http://www.w3.org/2000/svg" width="1080" height="700">
<path d="M0 0 C39.33254717 0 39.33254717 0 49.875 0.3125 C51.73125 0.34633789 51.73125 0.34633789 53.625 0.38085938 C65.89557432 0.73907678 75.81382622 2.58085799 84.56640625 11.6171875 C90.53997735 18.45871337 89.85715308 27.03016813 89.32568359 35.68457031 C88.24841696 43.3433385 82.40020272 48.92708229 77 54 C77 54.66 77 55.32 77 56 C79.14428179 57.749958 79.14428179 57.749958 81.8125 59.5 C82.70582031 60.1084375 83.59914063 60.716875 84.51953125 61.34375 C86.34586946 62.56322622 88.17277634 63.7818509 90 65 C90.04125 64.05125 90.0825 63.1025 90.125 62.125 C91.50303124 52.67017458 98.84999907 44.85795122 106.2109375 39.34375 C118.55812786 31.19220685 132.96475549 30.58429452 147.1875 33.0625 C158.66678116 35.80172913 166.77644554 43.32013124 173.3125 52.9296875 C178.35405722 61.86362346 178 72.0371689 178 82 C157.87 82 137.74 82 117 82 C119.03167804 91.5430793 119.03167804 91.5430793 125 98 C128.94452618 100.32625903 132.47623663 100.3899796 137 100 C141.56172439 98.50707202 144.25066238 96.80061426 147.8125 93.625 C150.17161906 91.80472004 151.3036143 90.97879028 154.30859375 91.0703125 C161.23155275 92.99766429 167.67924747 96.64413655 174 100 C172.02775909 106.49195967 169.46813731 110.79616693 163.6640625 114.484375 C149.62875303 121.82592149 134.28853091 122.07063517 119 119 C115.81791143 117.92804974 112.92163373 116.6460912 110 115 C109.34 114.67 108.68 114.34 108 114 C108 100.8 108 87.6 108 74 C104.04 76.31 100.08 78.62 96 81 C93.4450731 82.32768013 90.90244924 83.62448653 88.3125 84.875 C82.45863602 87.75676992 76.64814709 90.70951363 70.875 93.75 C70.17673096 94.11464355 69.47846191 94.47928711 68.7590332 94.85498047 C64.66554463 97.02040173 60.7671916 99.30076614 57 102 C57 102.33 57 102.66 57 103 C57.94875 102.505 58.8975 102.01 59.875 101.5 C63 100 63 100 65 100 C65.33 99.34 65.66 98.68 66 98 C68.52499369 96.72250913 71.04516972 95.5315913 73.625 94.375 C80.20350547 91.36804168 86.614619 88.17402439 92.91259766 84.61474609 C97.02875985 82.33993264 100.28588192 81.34689088 105 80 C105 90.23 105 100.46 105 111 C101.87776243 109.43888122 98.89969488 107.93312992 96 106 C96 105.34 96 104.68 96 104 C88.74489748 101.97532023 82.93231963 104.68434143 76 107 C73.34049047 107.81643281 70.67106637 108.59732006 68 109.375 C67.3002002 109.57988037 66.60040039 109.78476074 65.87939453 109.99584961 C63.58690711 110.66613024 61.29355075 111.33336723 59 112 C57.68128906 112.38406006 57.68128906 112.38406006 56.3359375 112.77587891 C53.55829199 113.58325439 50.77935411 114.38602784 48 115.1875 C47.14019531 115.43741699 46.28039062 115.68733398 45.39453125 115.94482422 C39.96379736 117.50352904 34.52668108 118.82446602 29 120 C29.33 118.68 29.66 117.36 30 116 C26.94570476 115.83462035 26.94570476 115.83462035 21 120 C14.07 120 7.14 120 0 120 C0 80.4 0 40.8 0 0 Z M32 26 C32 32.93 32 39.86 32 47 C36.269375 47.1546875 36.269375 47.1546875 40.625 47.3125 C41.51010254 47.35802002 42.39520508 47.40354004 43.30712891 47.45043945 C47.421548 47.52220796 50.21211213 47.31441093 53.5234375 44.73046875 C57.07736889 40.8121753 57 39.20541016 57 34 C56.21044943 30.44702241 55.52803985 29.37910553 52.5625 27.25 C48.50294085 25.26972724 45.47680367 24.86402744 41 24.875 C39.948125 24.87242187 38.89625 24.86984375 37.8125 24.8671875 C34.91873122 24.87646365 34.91873122 24.87646365 32 26 Z M120 57.4375 C118.69704793 60.31786299 118.69704793 60.31786299 119 65 C128.57 65 138.14 65 148 65 C145.67269863 57.09283277 145.67269863 57.09283277 139.6875 52.1875 C132.0448517 49.72630817 125.21880343 51.07708331 120 57.4375 Z M32 70 C32 77.92 32 85.84 32 94 C36.7334375 94.0928125 36.7334375 94.0928125 41.5625 94.1875 C42.5429126 94.21481201 43.5233252 94.24212402 44.53344727 94.27026367 C51.33360542 94.33438359 56.27034045 93.51968574 61.4375 88.75 C63.4578042 85.19426461 63.50461117 83.03688938 63 79 C61.63017998 75.65155106 60.42492046 74.29018959 57.4375 72.25 C49.22347917 69.26308333 40.68057681 70 32 70 Z M51 103 C48.32323453 104.37249963 48.32323453 104.37249963 46 106 C46.33 106.66 46.66 107.32 47 108 C50.26954202 107.43628586 51.82575883 106.50037734 54 104 C53.01 103.67 52.02 103.34 51 103 Z M43 107 C43 107.99 43 108.98 43 110 C43.66 109.34 44.32 108.68 45 108 C44.34 107.67 43.68 107.34 43 107 Z M40 109 C40 109.99 40 110.98 40 112 C40.66 112 41.32 112 42 112 C41.67 111.01 41.34 110.02 41 109 C40.67 109 40.34 109 40 109 Z " fill="#1596D8" transform="translate(106,298)"/>
<path d="M0 0 C1.12019531 -0.00128906 2.24039063 -0.00257813 3.39453125 -0.00390625 C4.57402344 -0.00003906 5.75351562 0.00382812 6.96875 0.0078125 C8.73798828 0.00201172 8.73798828 0.00201172 10.54296875 -0.00390625 C12.22326172 -0.00197266 12.22326172 -0.00197266 13.9375 0 C14.97326172 0.00112793 16.00902344 0.00225586 17.07617188 0.00341797 C19.46875 0.1328125 19.46875 0.1328125 20.46875 1.1328125 C20.86818176 3.65477217 21.21954848 6.16244906 21.53125 8.6953125 C21.62212891 9.40623047 21.71300781 10.11714844 21.80664062 10.84960938 C22.03114503 12.61019653 22.25043397 14.37144728 22.46875 16.1328125 C25.37677461 13.91353056 27.42187762 12.20312107 29.46875 9.1328125 C38.71073679 3.43893764 48.23047668 0.62920127 59.015625 2.59765625 C68.51750137 5.09116107 75.30339675 9.80159758 80.46875 18.1328125 C80.87867188 17.6275 81.28859375 17.1221875 81.7109375 16.6015625 C82.24976563 15.951875 82.78859375 15.3021875 83.34375 14.6328125 C83.87742187 13.983125 84.41109375 13.3334375 84.9609375 12.6640625 C85.45851563 12.15875 85.95609375 11.6534375 86.46875 11.1328125 C87.12875 11.1328125 87.78875 11.1328125 88.46875 11.1328125 C88.46875 10.4728125 88.46875 9.8128125 88.46875 9.1328125 C99.16088212 3.49631629 108.47266706 0.0933707 120.53125 3.2578125 C128.46967448 5.94139939 134.36835488 9.8967126 138.59375 17.203125 C140.46376293 21.32717138 140.59101135 25.04595485 140.58227539 29.55371094 C140.58219986 30.85475769 140.58212433 32.15580444 140.58204651 33.49627686 C140.57694024 34.91158079 140.57172425 36.32688434 140.56640625 37.7421875 C140.56454035 39.19378613 140.56311726 40.64538538 140.56211853 42.09698486 C140.55830688 45.91100819 140.54848815 49.72499323 140.53741455 53.53900146 C140.52536928 58.11871042 140.52079175 62.6984322 140.51496124 67.27815247 C140.50527566 74.22973241 140.48610967 81.1812284 140.46875 88.1328125 C130.56875 88.1328125 120.66875 88.1328125 110.46875 88.1328125 C110.41976562 84.44867188 110.37078125 80.76453125 110.3203125 76.96875 C110.2662781 73.39432774 110.20898017 69.81997163 110.15136719 66.24560547 C110.11312209 63.76453596 110.07826147 61.28341185 110.046875 58.80224609 C110.00112798 55.23254911 109.94314831 51.66322656 109.8828125 48.09375 C109.87126129 46.98728119 109.85971008 45.88081238 109.84780884 44.74081421 C109.72427328 37.23928731 109.72427328 37.23928731 107.46875 30.1328125 C103.90028903 26.88875708 100.32692784 26.6112777 95.68359375 26.78125 C91.17495096 27.49690759 88.4480013 29.87377512 85.71875 33.3828125 C82.56723068 40.31615501 82.14869804 47.04215212 82.0546875 54.5390625 C82.03532135 55.5043689 82.0159552 56.46967529 81.9960022 57.4642334 C81.93664982 60.52033907 81.88999962 63.57648332 81.84375 66.6328125 C81.80552936 68.71616145 81.7664753 70.79949528 81.7265625 72.8828125 C81.62943032 77.9660632 81.5495102 83.04917038 81.46875 88.1328125 C71.89875 88.1328125 62.32875 88.1328125 52.46875 88.1328125 C51.78769674 81.32227989 51.31494113 74.7692513 51.2578125 67.9609375 C51.22977719 66.06118881 51.20111303 64.16144931 51.171875 62.26171875 C51.13049424 59.31038351 51.09354097 56.35922675 51.06738281 53.40771484 C51.03975592 50.52927825 50.99393433 47.65158587 50.9453125 44.7734375 C50.94205963 43.89520325 50.93880676 43.01696899 50.93545532 42.11212158 C50.83436227 37.05845228 50.27279647 33.51112093 47.46875 29.1328125 C43.48638762 26.30452248 39.15433856 26.75926471 34.46875 27.1328125 C31.06749294 27.56918904 31.06749294 27.56918904 28.46875 29.1328125 C27.11501192 31.67721152 27.11501192 31.67721152 26.46875 35.1328125 C26.23397949 35.79007324 25.99920898 36.44733398 25.75732422 37.12451172 C22.42521283 47.06364225 22.90194519 57.45876034 22.78125 67.8203125 C22.74802351 69.79364174 22.71352906 71.76695005 22.67773438 73.74023438 C22.59109251 78.53777568 22.53051088 83.33463089 22.46875 88.1328125 C12.89875 88.1328125 3.32875 88.1328125 -6.53125 88.1328125 C-6.55380024 76.80669265 -6.57216463 65.48058759 -6.58306217 54.15445042 C-6.58829119 48.89584586 -6.59538918 43.6372574 -6.60668945 38.37866211 C-6.61751766 33.30828123 -6.62352669 28.23791588 -6.62612724 23.16752434 C-6.62798161 21.22854302 -6.63160245 19.28956259 -6.63698006 17.35058784 C-6.6441896 14.6445949 -6.64524098 11.93866694 -6.64477539 9.23266602 C-6.64837067 8.42274704 -6.65196594 7.61282806 -6.65567017 6.77836609 C-6.64347355 0.271268 -6.41915048 0.00699036 0 0 Z " fill="#1596D8" transform="translate(568.53125,329.8671875)"/>
<path d="M0 0 C10.23 0 20.46 0 31 0 C31.33 21.78 31.66 43.56 32 66 C37.94 60.06 43.88 54.12 50 48 C50.66 48 51.32 48 52 48 C52.25136719 47.41089844 52.50273438 46.82179688 52.76171875 46.21484375 C54.15455401 43.72355798 55.6208572 42.37699586 57.8125 40.5625 C60.17238967 38.59516451 62.172901 36.79100399 64.14013672 34.41308594 C67.74536109 31.37108169 70.42549807 31.34994706 74.92578125 31.51171875 C75.67337204 31.51879349 76.42096283 31.52586823 77.19120789 31.53315735 C79.56601402 31.56102355 81.93841351 31.62373868 84.3125 31.6875 C85.92770018 31.71259332 87.54293754 31.73540469 89.15820312 31.75585938 C93.10638819 31.81082353 97.05278689 31.89703473 101 32 C99.29548675 35.57391808 97.21406104 38.3759025 94.6875 41.4375 C93.92824219 42.36433594 93.16898438 43.29117188 92.38671875 44.24609375 C88.27624406 48.98894916 83.81279533 52.98933722 79 57 C76.47906917 59.40088651 74.17466419 61.78166976 72 64.5 C66.57657658 71.27927928 66.57657658 71.27927928 62.8125 73 C60.22068954 74.42996439 59.86490367 76.26113837 59 79 C59.886875 79.721875 60.77375 80.44375 61.6875 81.1875 C64.62918752 83.63890627 67.32541339 86.25683424 70 89 C70.825 89.804375 71.65 90.60875 72.5 91.4375 C75 94 75 94 77.5 97.0625 C79.84038392 99.81245111 82.15908348 101.7982897 85 104 C86.68762851 105.6454378 88.3540349 107.31288577 90 109 C90.86625 109.86625 91.7325 110.7325 92.625 111.625 C93.40875 112.40875 94.1925 113.1925 95 114 C95.598125 114.53625 96.19625 115.0725 96.8125 115.625 C98 117 98 117 98 120 C92.66154426 120.12368107 87.32392376 120.21437609 81.984375 120.2746582 C80.16847201 120.299789 78.35267004 120.33389961 76.53710938 120.37719727 C73.92552777 120.43791511 71.31528406 120.46622281 68.703125 120.48828125 C67.89256653 120.51408768 67.08200806 120.5398941 66.24688721 120.56648254 C62.28643419 120.56844929 60.47422817 120.47002333 57.60449219 117.62573242 C57.07500977 116.75924072 56.54552734 115.89274902 56 115 C53.44606511 112.31164749 50.84986492 109.87488743 48 107.5 C44.26755913 104.38963261 40.94139436 101.19813827 37.9375 97.375 C35.88190105 94.66078415 35.88190105 94.66078415 32 92 C31.67 101.24 31.34 110.48 31 120 C20.77 120 10.54 120 0 120 C0 80.4 0 40.8 0 0 Z " fill="#1596D8" transform="translate(893,298)"/>
<path d="M0 0 C9.9 0 19.8 0 30 0 C30 15.51 30 31.02 30 47 C30.66 47 31.32 47 32 47 C32.21398437 46.41476562 32.42796875 45.82953125 32.6484375 45.2265625 C35.97004533 39.7545496 44.20081691 36.23747301 50.25 34.5625 C61.62198024 32.85670296 71.50229684 35.43512543 81 42 C85.97342726 47.10095104 87.2531126 51.78615416 87.22705078 58.80981445 C87.22734283 59.47378738 87.22763489 60.13776031 87.22793579 60.82185364 C87.2265496 63.00246543 87.21102239 65.18272962 87.1953125 67.36328125 C87.19157983 68.88070997 87.18873406 70.39814112 87.18673706 71.91557312 C87.17912055 75.89896359 87.15948923 79.88220698 87.1373291 83.86553955 C87.11682786 87.934428 87.10772621 92.00334035 87.09765625 96.07226562 C87.07624132 104.04825193 87.04107547 112.02409069 87 120 C77.76 120 68.52 120 59 120 C58.87882813 116.14828125 58.75765625 112.2965625 58.6328125 108.328125 C58.50922725 104.60148283 58.38245464 100.87496182 58.25537109 97.1484375 C58.16870018 94.55675009 58.08534794 91.96494949 58.00537109 89.37304688 C57.88989789 85.64939245 57.76253013 81.92630702 57.6328125 78.203125 C57.59938751 77.04258606 57.56596252 75.88204712 57.53152466 74.68634033 C57.49163422 73.60552185 57.45174377 72.52470337 57.41064453 71.41113281 C57.36401169 69.98550018 57.36401169 69.98550018 57.31643677 68.53106689 C56.98545723 65.88367746 56.43380793 64.23847599 55 62 C50.17288289 58.70343221 45.66304504 58.25679076 40 59 C36.15871286 60.41960612 35.26047296 61.47319344 33.4375 65.16015625 C26.9503011 81.11587887 29.38384475 102.96941435 29 120 C19.43 120 9.86 120 0 120 C0 80.4 0 40.8 0 0 Z " fill="#1595D7" transform="translate(465,298)"/>
<path d="M0 0 C3.18074618 2.49022522 6.14468966 5.14468966 9 8 C9.06058594 7.28972656 9.12117187 6.57945312 9.18359375 5.84765625 C9.30927734 4.46900391 9.30927734 4.46900391 9.4375 3.0625 C9.55931641 1.68771484 9.55931641 1.68771484 9.68359375 0.28515625 C10 -2 10 -2 11 -3 C12.91458282 -3.09971786 14.83282317 -3.13080589 16.75 -3.1328125 C17.9153125 -3.13410156 19.080625 -3.13539063 20.28125 -3.13671875 C21.5084375 -3.13285156 22.735625 -3.12898438 24 -3.125 C25.84078125 -3.13080078 25.84078125 -3.13080078 27.71875 -3.13671875 C29.46671875 -3.13478516 29.46671875 -3.13478516 31.25 -3.1328125 C32.32765625 -3.13168457 33.4053125 -3.13055664 34.515625 -3.12939453 C37 -3 37 -3 38 -2 C38.10045053 0.67250067 38.13616649 3.31918581 38.12939453 5.9921875 C38.13202301 7.2482077 38.13202301 7.2482077 38.13470459 8.52960205 C38.13912401 11.31142214 38.1361848 14.09317921 38.1328125 16.875 C38.13348551 18.79931653 38.13445552 20.72363298 38.13571167 22.64794922 C38.13718877 26.68653165 38.13503371 30.725092 38.13037109 34.76367188 C38.1246738 39.95268511 38.12795274 45.14164663 38.13394356 50.33065796 C38.13754886 54.3059122 38.13641073 58.28115409 38.13381577 62.25640869 C38.13314641 64.1702678 38.13397522 66.08412802 38.13629532 67.99798584 C38.13882133 70.6679585 38.13498198 73.3378462 38.12939453 76.0078125 C38.13141876 76.80680969 38.13344299 77.60580688 38.13552856 78.42901611 C38.1142625 83.8857375 38.1142625 83.8857375 37 85 C35.07332493 85.08748207 33.14348139 85.10697334 31.21484375 85.09765625 C29.46010742 85.09282227 29.46010742 85.09282227 27.66992188 85.08789062 C26.43822266 85.07951172 25.20652344 85.07113281 23.9375 85.0625 C22.08415039 85.05573242 22.08415039 85.05573242 20.19335938 85.04882812 C17.12888587 85.03699618 14.06443707 85.01906008 11 85 C10.67 80.71 10.34 76.42 10 72 C8.68 72.99 7.36 73.98 6 75 C5.34 75 4.68 75 4 75 C3.67128906 75.90685547 3.67128906 75.90685547 3.3359375 76.83203125 C1.54716385 79.73486568 -0.26232202 80.36482049 -3.375 81.6875 C-4.33148437 82.10386719 -5.28796875 82.52023437 -6.2734375 82.94921875 C-14.30920851 86.04609898 -23.34629514 86.38089111 -31.4375 83.25 C-40.61301949 78.9878232 -47.61690488 73.30429029 -51.3125 63.6875 C-56.28998778 48.05007057 -57.73966428 29.91880619 -50.6875 14.75 C-48.58846868 10.79601078 -46.46603449 7.90179632 -43 5 C-42.43667969 4.49726563 -41.87335937 3.99453125 -41.29296875 3.4765625 C-30.52960378 -5.51117607 -11.95675313 -8.0643988 0 0 Z M-22 26 C-26.18919612 32.28379418 -25.76087895 39.67019945 -25 47 C-23.77736258 51.27923098 -21.77442413 54.11168997 -18.875 57.4375 C-12.5324066 60.88456163 -5.76587694 60.30847321 1.08984375 58.765625 C3.32418172 57.87006213 4.49557496 56.86756211 6 55 C6 54.34 6 53.68 6 53 C6.66 53 7.32 53 8 53 C10.70933576 48.34310458 11.43204135 44.87130739 11.4375 39.5 C11.45683594 38.2315625 11.47617187 36.963125 11.49609375 35.65625 C10.76390066 30.25992926 8.13043994 26.51832864 3.875 23.1875 C-4.24379805 17.01015365 -15.34089904 18.36764582 -22 26 Z " fill="#1596D8" transform="translate(773,333)"/>
<path d="M0 0 C8.58 0 17.16 0 26 0 C27.585869 3.171738 27.37866445 6.63513822 27.5625 10.125 C27.60568359 10.87910156 27.64886719 11.63320313 27.69335938 12.41015625 C27.7994832 14.27321888 27.90025001 16.13658524 28 18 C28.38929688 17.49210937 28.77859375 16.98421875 29.1796875 16.4609375 C36.12457246 7.91584863 44.35406889 2.94105373 55.296875 1.75 C64.10276745 1.3012921 73.54370565 3.94104087 80.53515625 9.4453125 C86.2215082 15.48042737 88.12941527 22.25704404 88.11352539 30.32910156 C88.11341209 32.25064056 88.11341209 32.25064056 88.11329651 34.21099854 C88.10819026 35.60420775 88.10297427 36.99741657 88.09765625 38.390625 C88.09579032 39.81980337 88.09436724 41.24898238 88.09336853 42.67816162 C88.08955715 46.43300148 88.07973867 50.18780243 88.06866455 53.94262695 C88.05661853 58.45141801 88.05204162 62.9602221 88.04621124 67.46902466 C88.03652615 74.31271013 88.01735998 81.1563103 88 88 C78.1 88 68.2 88 58 88 C57.95101562 84.41125 57.90203125 80.8225 57.8515625 77.125 C57.79748843 73.63325989 57.74020613 70.14158604 57.68261719 66.64990234 C57.64443263 64.23100765 57.60956174 61.81205821 57.578125 59.39306641 C57.53224578 55.90767914 57.47428871 52.42266534 57.4140625 48.9375 C57.40251129 47.86322754 57.39096008 46.78895508 57.37905884 45.68212891 C57.264914 39.81995563 56.89520467 34.57422703 55 29 C50.74684554 26.56962602 45.81118223 26.38539788 41 27 C37.48747775 28.25920609 35.57994944 29.2750632 33.25 32.1875 C30.14420192 39.17554567 29.69014547 45.83726627 29.62109375 53.37109375 C29.60409927 54.33402847 29.5871048 55.2969632 29.56959534 56.28907776 C29.51682422 59.33848678 29.47629183 62.38788367 29.4375 65.4375 C29.39358134 68.51204649 29.34698946 71.58648823 29.29469299 74.66090393 C29.26270227 76.56832437 29.2358227 78.4758385 29.21446228 80.38340759 C29.20097244 81.23842361 29.1874826 82.09343964 29.17358398 82.97436523 C29.16407211 83.72967026 29.15456024 84.48497528 29.14476013 85.26316833 C29 87 29 87 28 88 C18.76 88 9.52 88 0 88 C0 58.96 0 29.92 0 0 Z " fill="#1596D8" transform="translate(294,330)"/>
<path d="M0 0 C10.33131616 8.07134075 16.21857006 16.56328596 18.328125 29.45703125 C18.74408193 34.24600906 18.625 39.06799172 18.625 43.875 C-1.505 43.875 -21.635 43.875 -42.375 43.875 C-40.34332196 53.4180793 -40.34332196 53.4180793 -34.375 59.875 C-30.43047382 62.20125903 -26.89876337 62.2649796 -22.375 61.875 C-17.81327561 60.38207202 -15.12433762 58.67561426 -11.5625 55.5 C-9.20338094 53.67972004 -8.0713857 52.85379028 -5.06640625 52.9453125 C1.85655275 54.87266429 8.30424747 58.51913655 14.625 61.875 C12.65275909 68.36695967 10.09313731 72.67116693 4.2890625 76.359375 C-9.74624697 83.70092149 -25.08646909 83.94563517 -40.375 80.875 C-43.55708857 79.80304974 -46.45336627 78.5210912 -49.375 76.875 C-50.035 76.545 -50.695 76.215 -51.375 75.875 C-51.375 62.675 -51.375 49.475 -51.375 35.875 C-55.335 38.185 -59.295 40.495 -63.375 42.875 C-67.625 44.3125 -67.625 44.3125 -70.375 44.875 C-70.78511379 30.79442664 -70.61598943 20.26457163 -61.375 8.875 C-58.87313934 6.2954418 -56.2315593 4.05142613 -53.375 1.875 C-52.77042969 1.400625 -52.16585937 0.92625 -51.54296875 0.4375 C-37.8022215 -9.28227069 -13.91085554 -9.18159072 0 0 Z M-39.375 19.3125 C-40.67795207 22.19286299 -40.67795207 22.19286299 -40.375 26.875 C-30.805 26.875 -21.235 26.875 -11.375 26.875 C-13.70230137 18.96783277 -13.70230137 18.96783277 -19.6875 14.0625 C-27.3301483 11.60130817 -34.15619657 12.95208331 -39.375 19.3125 Z " fill="#182258" transform="translate(265.375,336.125)"/>
<path d="M0 0 C1.03318359 -0.020625 2.06636719 -0.04125 3.13085938 -0.0625 C13.38534349 -0.11512083 13.38534349 -0.11512083 17.6875 3.25 C20.95784761 8.6868672 21.07075001 13.45863425 20.875 19.6875 C20.85469727 20.92790039 20.85469727 20.92790039 20.83398438 22.19335938 C20.79896992 24.2125264 20.74517562 26.23135318 20.6875 28.25 C17.20470488 27.74898338 14.63712219 27.2257799 11.4375 25.6875 C6.88393611 23.6915546 2.56509136 23.21962736 -2.3125 24.25 C-7.14780582 26.7411378 -10.50822243 29.57710265 -12.875 34.5 C-13.78477733 42.29809136 -14.02330005 49.79529985 -11.3125 57.25 C-9.49548142 58.65854666 -9.49548142 58.65854666 -7.3125 59.25 C-6.73757813 59.75015625 -6.16265625 60.2503125 -5.5703125 60.765625 C-1.10234345 63.7030441 4.55437747 62.83191723 9.6875 62.25 C12.64476255 61.19252686 14.96567008 59.86293625 17.6875 58.25 C18.6775 58.25 19.6675 58.25 20.6875 58.25 C20.77495946 61.6456697 20.82804444 65.04104773 20.875 68.4375 C20.90013672 69.39720703 20.92527344 70.35691406 20.95117188 71.34570312 C21.01599606 77.59043291 20.52832695 81.29991047 16.0625 85.9375 C7.86529764 90.46753288 -3.55905087 90.70629697 -12.4453125 88.45703125 C-15.1354265 87.50046483 -17.71761349 86.43859734 -20.3125 85.25 C-21.385 84.79625 -22.4575 84.3425 -23.5625 83.875 C-34.1776996 77.60238205 -40.7880495 68.21653624 -43.90087891 56.29052734 C-46.44098887 43.69845196 -44.39588895 30.6170262 -38.375 19.3125 C-35.26755384 14.69841328 -32.12029023 10.23414566 -27.3125 7.25 C-26.6525 7.25 -25.9925 7.25 -25.3125 7.25 C-25.3125 6.59 -25.3125 5.93 -25.3125 5.25 C-23.54184889 4.60366725 -21.77097247 3.9579517 -20 3.3125 C-19.01386719 2.95285156 -18.02773438 2.59320313 -17.01171875 2.22265625 C-11.14878987 0.10996552 -6.19712798 0.03058422 0 0 Z " fill="#1596D8" transform="translate(435.3125,328.75)"/>
<path d="M0 0 C8.91 0 17.82 0 27 0 C28 1 28 1 28.11352539 2.76586914 C28.10828857 3.51473389 28.10305176 4.26359863 28.09765625 5.03515625 C28.09443359 5.84404297 28.09121094 6.65292969 28.08789062 7.48632812 C28.07951172 8.33646484 28.07113281 9.18660156 28.0625 10.0625 C28.05798828 10.91650391 28.05347656 11.77050781 28.04882812 12.65039062 C28.03700373 14.76695663 28.01906769 16.88348685 28 19 C28.75667969 18.23816406 29.51335938 17.47632813 30.29296875 16.69140625 C38.67094802 8.36178472 45.21338217 3.80788957 57.265625 2.98046875 C59.74950881 2.99821078 61.6272463 3.35297173 64 4 C63.85771699 6.83355099 63.71126584 9.66678787 63.5625 12.5 C63.52318359 13.29148437 63.48386719 14.08296875 63.44335938 14.8984375 C63.17294782 19.97385441 62.6872858 24.96375445 62 30 C58.51741714 31.16086095 55.97463983 30.95898559 52.3125 30.8125 C45.92436956 30.73983254 42.38588381 31.68560996 37 35 C36.34 35 35.68 35 35 35 C31.06528749 41.74522145 30.68852022 49.15226048 30.5859375 56.75 C30.56657135 57.64871826 30.5472052 58.54743652 30.5272522 59.47338867 C30.46795392 62.31549896 30.42127192 65.15765085 30.375 68 C30.33677433 69.93881876 30.29772 71.87762138 30.2578125 73.81640625 C30.16074953 78.54418197 30.08078748 83.27180673 30 88 C20.1 88 10.2 88 0 88 C0 58.96 0 29.92 0 0 Z " fill="#1596D8" transform="translate(820,330)"/>
<path d="M0 0 C0 10.23 0 20.46 0 31 C-3.12223757 29.43888122 -6.10030512 27.93312992 -9 26 C-9 25.34 -9 24.68 -9 24 C-16.25510252 21.97532023 -22.06768037 24.68434143 -29 27 C-31.65951108 27.81643328 -34.32899565 28.5971044 -37 29.375 C-37.69544922 29.57915527 -38.39089844 29.78331055 -39.10742188 29.99365234 C-46.10520734 32.04380928 -53.11797906 34.04178389 -60.1328125 36.03271484 C-60.98359375 36.2745752 -61.834375 36.51643555 -62.7109375 36.765625 C-63.46681152 36.97993164 -64.22268555 37.19423828 -65.00146484 37.41503906 C-66.67901696 37.90604992 -68.34176434 38.44725478 -70 39 C-70.66 38.67 -71.32 38.34 -72 38 C-72 37.34 -72 36.68 -72 36 C-69.953125 34.52734375 -69.953125 34.52734375 -67.25 32.9375 C-66.36828125 32.41027344 -65.4865625 31.88304687 -64.578125 31.33984375 C-62 30 -62 30 -59.734375 29.44140625 C-59.16203125 29.29574219 -58.5896875 29.15007812 -58 29 C-57.67 28.34 -57.34 27.68 -57 27 C-56.34 27 -55.68 27 -55 27 C-54.34 26.34 -53.68 25.68 -53 25 C-51.18978154 24.07812949 -49.35251105 23.20862997 -47.5 22.375 C-46.5203125 21.92898438 -45.540625 21.48296875 -44.53125 21.0234375 C-42 20 -42 20 -40 20 C-39.67 19.34 -39.34 18.68 -39 18 C-36.47502341 16.72251778 -33.95471839 15.5317918 -31.375 14.375 C-24.75479758 11.34320029 -18.2928458 8.12145364 -11.91162109 4.61474609 C-3.46665944 0 -3.46665944 0 0 0 Z " fill="#D81A1A" transform="translate(211,378)"/>
<path d="M0 0 C1.12019531 -0.00128906 2.24039063 -0.00257813 3.39453125 -0.00390625 C4.57402344 -0.00003906 5.75351562 0.00382812 6.96875 0.0078125 C8.73798828 0.00201172 8.73798828 0.00201172 10.54296875 -0.00390625 C12.22326172 -0.00197266 12.22326172 -0.00197266 13.9375 0 C14.97326172 0.00112793 16.00902344 0.00225586 17.07617188 0.00341797 C19.46875 0.1328125 19.46875 0.1328125 20.46875 1.1328125 C20.86818176 3.65477217 21.21954848 6.16244906 21.53125 8.6953125 C21.62212891 9.40623047 21.71300781 10.11714844 21.80664062 10.84960938 C22.03114503 12.61019653 22.25043397 14.37144728 22.46875 16.1328125 C25.37677461 13.91353056 27.42187762 12.20312107 29.46875 9.1328125 C32.09375 8.4453125 32.09375 8.4453125 34.46875 8.1328125 C33.80875 8.7721875 33.14875 9.4115625 32.46875 10.0703125 C28.61221256 13.915736 25.06041578 18.04205669 21.46875 22.1328125 C21.13875 21.4728125 20.80875 20.8128125 20.46875 20.1328125 C19.80875 20.1328125 19.14875 20.1328125 18.46875 20.1328125 C17.25159364 14.19917527 16.53171939 7.94390432 18.46875 2.1328125 C10.54875 2.1328125 2.62875 2.1328125 -5.53125 2.1328125 C-5.53125 29.8528125 -5.53125 57.5728125 -5.53125 86.1328125 C3.04875 86.1328125 11.62875 86.1328125 20.46875 86.1328125 C20.46875 81.1828125 20.46875 76.2328125 20.46875 71.1328125 C21.45875 70.6378125 21.45875 70.6378125 22.46875 70.1328125 C22.46875 76.0728125 22.46875 82.0128125 22.46875 88.1328125 C12.89875 88.1328125 3.32875 88.1328125 -6.53125 88.1328125 C-6.55380024 76.80669265 -6.57216463 65.48058759 -6.58306217 54.15445042 C-6.58829119 48.89584586 -6.59538918 43.6372574 -6.60668945 38.37866211 C-6.61751766 33.30828123 -6.62352669 28.23791588 -6.62612724 23.16752434 C-6.62798161 21.22854302 -6.63160245 19.28956259 -6.63698006 17.35058784 C-6.6441896 14.6445949 -6.64524098 11.93866694 -6.64477539 9.23266602 C-6.64837067 8.42274704 -6.65196594 7.61282806 -6.65567017 6.77836609 C-6.64347355 0.271268 -6.41915048 0.00699036 0 0 Z " fill="#1E92CF" transform="translate(568.53125,329.8671875)"/>
<path d="M0 0 C0.33 0 0.66 0 1 0 C1.33 17.82 1.66 35.64 2 54 C10.91 45.09 10.91 45.09 20 36 C20.66 36 21.32 36 22 36 C22.24492188 35.41734375 22.48984375 34.8346875 22.7421875 34.234375 C24.20435874 31.63697764 25.84740414 30.16024169 28.125 28.25 C28.84945312 27.63640625 29.57390625 27.0228125 30.3203125 26.390625 C30.87460937 25.93171875 31.42890625 25.4728125 32 25 C32 28 32 28 30.71484375 29.32421875 C30.12832031 29.77410156 29.54179688 30.22398437 28.9375 30.6875 C26.15571741 32.94315067 23.80884426 35.26184683 21.5 38 C18.7624256 41.22248107 15.88040319 43.94419826 12.625 46.6328125 C10.27003337 48.61415462 8.14648923 50.79702422 6 53 C4.33333333 54.66666667 2.66666667 56.33333333 1 58 C-1.22539093 54.6619136 -1.24875966 53.60983705 -1.24291992 49.71826172 C-1.24599655 48.6405954 -1.24907318 47.56292908 -1.25224304 46.4526062 C-1.24505753 45.29004303 -1.23787201 44.12747986 -1.23046875 42.9296875 C-1.23001053 41.73771759 -1.22955231 40.54574768 -1.2290802 39.31765747 C-1.22605778 36.79753626 -1.21817181 34.27741692 -1.20581055 31.75732422 C-1.18754114 27.88372236 -1.18530093 24.01035921 -1.18554688 20.13671875 C-1.18063231 17.69270625 -1.17480425 15.24869538 -1.16796875 12.8046875 C-1.16685593 11.63807587 -1.1657431 10.47146423 -1.16459656 9.26950073 C-1.15821671 8.19813873 -1.15183685 7.12677673 -1.14526367 6.02294922 C-1.13954597 4.60089676 -1.13954597 4.60089676 -1.13371277 3.15011597 C-1 1 -1 1 0 0 Z M40.57519531 19.43237305 C41.99308502 19.43316004 43.41113727 19.46114588 44.828125 19.51171875 C45.95163361 19.52233086 45.95163361 19.52233086 47.09783936 19.53315735 C49.48292237 19.56107862 51.86563056 19.62380465 54.25 19.6875 C55.86975768 19.71258618 57.48955228 19.7353988 59.109375 19.75585938 C63.07382739 19.81089675 67.03651153 19.89714678 71 20 C69.08739303 23.92023775 66.9399346 26.76607194 64 30 C63.34 30 62.68 30 62 30 C62 28 62 28 64.5 25.375 C65.325 24.59125 66.15 23.8075 67 23 C62.80079763 22.95046313 58.60175131 22.91421589 54.40234375 22.89013672 C52.97457922 22.88009573 51.54683517 22.86646019 50.11914062 22.84912109 C48.06375059 22.82478848 46.00863308 22.81349798 43.953125 22.8046875 C42.71723633 22.79421387 41.48134766 22.78374023 40.20800781 22.77294922 C37.18340629 22.98701919 35.53014349 23.40346841 33 25 C35.24957317 21.32281308 36.2269214 20.12274022 40.57519531 19.43237305 Z " fill="#1B90CF" transform="translate(923,310)"/>
<path d="M0 0 C0.99 0.33 1.98 0.66 3 1 C2.67 39.61 2.34 78.22 2 118 C4.31 118 6.62 118 9 118 C9 118.66 9 119.32 9 120 C6.03 120 3.06 120 0 120 C0 80.4 0 40.8 0 0 Z " fill="#1C92CB" transform="translate(465,298)"/>
<path d="M0 0 C0.99 0.33 1.98 0.66 3 1 C3 39.61 3 78.22 3 118 C4.32 118.33 5.64 118.66 7 119 C7 119.33 7 119.66 7 120 C4.69 120 2.38 120 0 120 C0 80.4 0 40.8 0 0 Z " fill="#1D8EC4" transform="translate(893,298)"/>
<path d="M0 0 C1.05832031 -0.020625 2.11664063 -0.04125 3.20703125 -0.0625 C4.22152344 -0.06765625 5.23601562 -0.0728125 6.28125 -0.078125 C7.21001953 -0.0874707 8.13878906 -0.09681641 9.09570312 -0.10644531 C11.90369507 0.30984919 12.76485474 1.06302407 14.5 3.25 C12.52 3.25 10.54 3.25 8.5 3.25 C8.5 2.59 8.5 1.93 8.5 1.25 C2.89 1.25 -2.72 1.25 -8.5 1.25 C-8.5 1.91 -8.5 2.57 -8.5 3.25 C-9.40878906 3.36214844 -9.40878906 3.36214844 -10.3359375 3.4765625 C-19.70272338 4.94642736 -27.37262509 8.91685046 -33.26171875 16.46484375 C-41.07805677 27.73319225 -42.71594621 37.86133472 -42.5 51.25 C-43.49 51.745 -43.49 51.745 -44.5 52.25 C-45.24521896 36.12428964 -42.67258854 22.53984739 -31.5 10.25 C-28 7.25 -28 7.25 -25.5 7.25 C-25.5 6.59 -25.5 5.93 -25.5 5.25 C-23.72934889 4.60366725 -21.95847247 3.9579517 -20.1875 3.3125 C-19.20136719 2.95285156 -18.21523438 2.59320313 -17.19921875 2.22265625 C-11.28286251 0.09071312 -6.25414415 0.03047086 0 0 Z " fill="#1D8FCD" transform="translate(435.5,328.75)"/>
<path d="M0 0 C0 10.23 0 20.46 0 31 C-3.12223757 29.43888122 -6.10030512 27.93312992 -9 26 C-9 25.34 -9 24.68 -9 24 C-15.26165116 22.25256247 -19.76313398 23.97942708 -25.8203125 26.0078125 C-29.59633995 27.18608151 -33.06905337 27.69169046 -37 28 C-36 26 -36 26 -32.75 24.875 C-29.62299365 24.14536518 -27.17377095 23.80765025 -24 24 C-24 23.34 -24 22.68 -24 22 C-14.58997722 19.51936219 -14.58997722 19.51936219 -10 21 C-10 21.66 -10 22.32 -10 23 C-9.360625 23.103125 -8.72125 23.20625 -8.0625 23.3125 C-7.381875 23.539375 -6.70125 23.76625 -6 24 C-5.67 24.99 -5.34 25.98 -5 27 C-4.01 27.33 -3.02 27.66 -2 28 C-1.67 19.42 -1.34 10.84 -1 2 C-3.97 2.99 -6.94 3.98 -10 5 C-6.82795656 1.48809477 -4.74687042 0 0 0 Z " fill="#CD2019" transform="translate(211,378)"/>
<path d="M0 0 C0.33 0 0.66 0 1 0 C1.33 15.51 1.66 31.02 2 47 C11.24 47 20.48 47 30 47 C30 47.99 30 48.98 30 50 C20.1 50 10.2 50 0 50 C0 33.5 0 17 0 0 Z " fill="#1D97D0" transform="translate(352,368)"/>
<path d="M0 0 C0.66 0 1.32 0 2 0 C2.78052377 6.18207232 3.13749927 12.18333292 3.09765625 18.41015625 C3.0962413 19.26306747 3.09482635 20.1159787 3.09336853 20.99473572 C3.08782939 23.68402816 3.0752888 26.37323328 3.0625 29.0625 C3.05747712 30.90038941 3.0529156 32.73828015 3.04882812 34.57617188 C3.03788 39.05081422 3.02065839 43.52539238 3 48 C2.34 48 1.68 48 1 48 C0.37762667 31.99540492 -0.17952909 16.01798393 0 0 Z " fill="#1A91CB" transform="translate(523,370)"/>
<path d="M0 0 C0.495 0.99 0.495 0.99 1 2 C-5.93 1.505 -5.93 1.505 -13 1 C-13 1.66 -13 2.32 -13 3 C-13.9075 3.04125 -14.815 3.0825 -15.75 3.125 C-23.52075981 4.29377282 -31.00737034 8.18137257 -36 14.25 C-38.75063354 18.19859803 -40.58645257 22.30527204 -42.17578125 26.8359375 C-43 29 -43 29 -45 32 C-44.55370063 23.96661129 -41.89021129 17.43700802 -36.6875 11.25 C-35.3571875 10.13625 -35.3571875 10.13625 -34 9 C-33.43667969 8.49726563 -32.87335937 7.99453125 -32.29296875 7.4765625 C-22.6968659 -0.53647654 -11.89481796 -0.43341442 0 0 Z " fill="#1A8ECC" transform="translate(764,329)"/>
<path d="M0 0 C0.33 0.99 0.66 1.98 1 3 C0.39671875 3.13277344 -0.2065625 3.26554687 -0.828125 3.40234375 C-2.02695312 3.66724609 -2.02695312 3.66724609 -3.25 3.9375 C-4.43335938 4.19853516 -4.43335938 4.19853516 -5.640625 4.46484375 C-6.80851563 4.72974609 -6.80851563 4.72974609 -8 5 C-9.10408203 5.20689453 -9.10408203 5.20689453 -10.23046875 5.41796875 C-10.81441406 5.61003906 -11.39835938 5.80210937 -12 6 C-13.20876287 8.52481314 -13.20876287 8.52481314 -14 12 C-14.2475 12.78761719 -14.495 13.57523437 -14.75 14.38671875 C-16.66794871 20.70304023 -17.42993154 26.65766792 -17.69140625 33.25 C-18 36 -18 36 -20 39 C-20.38956892 13.80787653 -20.38956892 13.80787653 -12.625 4 C-8.46854264 0.83317534 -5.19033095 0 0 0 Z " fill="#198DCC" transform="translate(609,353)"/>
<path d="M0 0 C0.33 0 0.66 0 1 0 C1 7.59 1 15.18 1 23 C-8.9 23 -18.8 23 -29 23 C-29 21.35 -29 19.7 -29 18 C-28.34 18.66 -27.68 19.32 -27 20 C-24.18597317 20.37239227 -24.18597317 20.37239227 -20.8984375 20.4140625 C-19.68671875 20.45273437 -18.475 20.49140625 -17.2265625 20.53125 C-15.95554687 20.5621875 -14.68453125 20.593125 -13.375 20.625 C-12.09625 20.66367187 -10.8175 20.70234375 -9.5 20.7421875 C-6.33347983 20.83671049 -3.1669696 20.92226357 0 21 C-0.08378906 19.81921875 -0.16757812 18.6384375 -0.25390625 17.421875 C-0.35709884 15.86460503 -0.4599453 14.3073121 -0.5625 12.75 C-0.61857422 11.97269531 -0.67464844 11.19539063 -0.73242188 10.39453125 C-0.80493164 9.26337891 -0.80493164 9.26337891 -0.87890625 8.109375 C-0.9260376 7.41811523 -0.97316895 6.72685547 -1.02172852 6.01464844 C-0.99853136 3.86382928 -0.5995764 2.05915129 0 0 Z " fill="#1E94CF" transform="translate(708,395)"/>
<path d="M0 0 C0.83660156 -0.01417969 1.67320312 -0.02835937 2.53515625 -0.04296875 C5.10661077 0.20372363 6.72303225 0.89359621 8.9375 2.1875 C5.36091611 3.26755751 1.90795727 3.39191135 -1.8125 3.5625 C-14.07910646 4.41328947 -21.72096192 9.32461579 -30.0625 18.1875 C-28.69291683 12.53796942 -24.57508518 9.46529819 -20.0625 6.1875 C-13.48001681 2.29194849 -7.69928421 0.05949988 0 0 Z " fill="#1C92CE" transform="translate(352.0625,331.8125)"/>
<path d="M0 0 C1.084021 0.00523682 2.16804199 0.01047363 3.28491211 0.01586914 C5.03964844 0.02070313 5.03964844 0.02070313 6.82983398 0.02563477 C8.67738281 0.03820312 8.67738281 0.03820312 10.56225586 0.05102539 C12.41560547 0.05779297 12.41560547 0.05779297 14.30639648 0.06469727 C17.37089703 0.07652931 20.43530307 0.09301366 23.49975586 0.11352539 C23.82975586 1.43352539 24.15975586 2.75352539 24.49975586 4.11352539 C24.16975586 3.45352539 23.83975586 2.79352539 23.49975586 2.11352539 C15.24975586 2.11352539 6.99975586 2.11352539 -1.50024414 2.11352539 C-1.50024414 5.74352539 -1.50024414 9.37352539 -1.50024414 13.11352539 C-2.16024414 13.77352539 -2.82024414 14.43352539 -3.50024414 15.11352539 C-4.59342825 11.83397307 -4.4581767 9.89883453 -4.12524414 6.48852539 C-4.03500977 5.50625977 -3.94477539 4.52399414 -3.85180664 3.51196289 C-3.37394214 0.25186506 -3.31478884 0.15051038 0 0 Z " fill="#1F94CF" transform="translate(786.500244140625,329.886474609375)"/>
<path d="M0 0 C0.66 0 1.32 0 2 0 C3.73243627 3.46487255 3.47274974 7.21143615 3 11 C0.69425529 14.92830581 -1.90406665 17.07730788 -6 19 C-9.11482669 19.35639581 -12.18270248 19.28383947 -15.3125 19.1875 C-16.56643555 19.16719727 -16.56643555 19.16719727 -17.84570312 19.14648438 C-19.89741498 19.11131217 -21.94879275 19.05751048 -24 19 C-24 18.34 -24 17.68 -24 17 C-22.13794922 16.96132813 -22.13794922 16.96132813 -20.23828125 16.921875 C-18.59631972 16.86557918 -16.954394 16.80823217 -15.3125 16.75 C-14.08756836 16.72873047 -14.08756836 16.72873047 -12.83789062 16.70703125 C-8.83248743 16.54486918 -6.47737355 16.28297917 -2.96875 14.203125 C-0.92600828 11.91719975 -0.34569024 10.99975574 -0.1875 8 C-0.13980469 7.34 -0.09210938 6.68 -0.04296875 6 C-0.00000881 4.00041014 0 2.00005129 0 0 Z " fill="#1D91CC" transform="translate(162,328)"/>
<path d="M0 0 C2.40369727 1.20184863 4.71612732 2.46021162 7 3.875 C6.67 5.195 6.34 6.515 6 7.875 C3.75390625 5.97070312 3.75390625 5.97070312 1.5078125 4.06640625 C-3.11325291 0.41504628 -9.42739042 1.29050698 -15 1.875 C-19.47046709 3.62990417 -21.53896018 6.08677062 -23.9375 10.1875 C-24.288125 11.074375 -24.63875 11.96125 -25 12.875 C-25.33 12.875 -25.66 12.875 -26 12.875 C-25.67 10.565 -25.34 8.255 -25 5.875 C-24.01 5.545 -23.02 5.215 -22 4.875 C-21.67 3.885 -21.34 2.895 -21 1.875 C-14.96091506 -2.53189982 -6.83113764 -2.56167662 0 0 Z " fill="#198FCC" transform="translate(774,352.125)"/>
<path d="M0 0 C3.98532136 5.97798204 3.01290544 15.0621108 2 22 C-0.67826261 28.8924741 -5.57107365 34.100725 -11 39 C-11.66 38.67 -12.32 38.34 -13 38 C-12.21654285 36.82780457 -11.42297164 35.66236332 -10.625 34.5 C-9.96371094 33.52546875 -9.96371094 33.52546875 -9.2890625 32.53125 C-8.86367187 32.0259375 -8.43828125 31.520625 -8 31 C-7.34 31 -6.68 31 -6 31 C-5.71125 30.38125 -5.4225 29.7625 -5.125 29.125 C-4 27 -4 27 -2 25 C0.69104268 18.12289093 0.90335354 10.41229826 -0.57421875 3.1953125 C-0.71472656 2.47085937 -0.85523438 1.74640625 -1 1 C-0.67 0.67 -0.34 0.34 0 0 Z " fill="#198CCE" transform="translate(193,314)"/>
<path d="M0 0 C0.66 0 1.32 0 2 0 C1.85771699 2.83355099 1.71126584 5.66678787 1.5625 8.5 C1.52318359 9.29148437 1.48386719 10.08296875 1.44335938 10.8984375 C1.17294782 15.97385441 0.6872858 20.96375445 0 26 C-3.67807537 27.22602512 -5.88243927 26.70295577 -9.6875 26.0625 C-10.86699219 25.86785156 -12.04648437 25.67320312 -13.26171875 25.47265625 C-14.16535156 25.31667969 -15.06898438 25.16070312 -16 25 C-16 24.67 -16 24.34 -16 24 C-14.60427948 23.97263293 -13.20839779 23.95344011 -11.8125 23.9375 C-11.03519531 23.92589844 -10.25789062 23.91429687 -9.45703125 23.90234375 C-7 24 -7 24 -2 25 C-2 20.71 -2 16.42 -2 12 C-1.34 12 -0.68 12 0 12 C-0.185625 10.7625 -0.37125 9.525 -0.5625 8.25 C-0.94711223 5.23720423 -1.0874594 2.89989173 0 0 Z " fill="#1B8FCA" transform="translate(882,334)"/>
<path d="M0 0 C0 0.66 0 1.32 0 2 C1.65 2 3.3 2 5 2 C5 2.66 5 3.32 5 4 C3.91332031 3.93039062 3.91332031 3.93039062 2.8046875 3.859375 C-3.32855863 3.63040048 -7.27231273 3.62688928 -12 8 C-15.43907439 12.33068626 -16.56152559 17.74599773 -18 23 C-18.33 23 -18.66 23 -19 23 C-18.49976374 15.39295899 -17.4998958 9.00180681 -11.625 3.625 C-7.77838751 0.5736787 -4.8614744 0 0 0 Z " fill="#198DCC" transform="translate(668,353)"/>
<path d="M0 0 C1.66869141 -0.02126953 1.66869141 -0.02126953 3.37109375 -0.04296875 C6.56856539 0.18793801 8.71867475 0.74037616 11.5625 2.1875 C13.375 4.3125 13.375 4.3125 14.5625 6.1875 C13.386875 5.6925 12.21125 5.1975 11 4.6875 C4.2903932 2.39720152 -2.44234171 2.99844167 -9.4375 3.1875 C-9.4375 10.1175 -9.4375 17.0475 -9.4375 24.1875 C-9.7675 24.1875 -10.0975 24.1875 -10.4375 24.1875 C-10.4375 16.5975 -10.4375 9.0075 -10.4375 1.1875 C-6.72663753 0.25978438 -3.79791226 0.02195325 0 0 Z " fill="#1B90CE" transform="translate(147.4375,320.8125)"/>
<path d="M0 0 C0.33 0.99 0.66 1.98 1 3 C-0.32 2.67 -1.64 2.34 -3 2 C-3.33 2.99 -3.66 3.98 -4 5 C-4.66 5 -5.32 5 -6 5 C-8.0998823 5.75825204 -8.0998823 5.75825204 -10 7 C-10.33 7.99 -10.66 8.98 -11 10 C-11.66 10 -12.32 10 -13 10 C-13 10.66 -13 11.32 -13 12 C-12.34 12.33 -11.68 12.66 -11 13 C-12.98 13.33 -14.96 13.66 -17 14 C-16.6875 12.0625 -16.6875 12.0625 -16 10 C-15.01 9.67 -14.02 9.34 -13 9 C-13 8.34 -13 7.68 -13 7 C-13.66 6.67 -14.32 6.34 -15 6 C-13.35 5.67 -11.7 5.34 -10 5 C-10 4.34 -10 3.68 -10 3 C-6.27034861 0.96564469 -4.33094958 0 0 0 Z " fill="#617DA8" transform="translate(152,404)"/>
<path d="M0 0 C0.66 0 1.32 0 2 0 C5.61186229 5.41779344 5.66260879 11.64079623 5 18 C3.41021975 24.03943694 1.51273588 28.63110585 -4 32 C-4.66 31.67 -5.32 31.34 -6 31 C-4.71937515 29.2925002 -3.38232443 27.62626404 -2 26 C-1.34 26 -0.68 26 0 26 C1.81407833 21.34242588 2.27013034 17.42479225 2.25 12.4375 C2.25773438 10.51744141 2.25773438 10.51744141 2.265625 8.55859375 C2.01723151 5.23085152 1.44081142 2.97882043 0 0 Z " fill="#1892CE" transform="translate(781,360)"/>
<path d="M0 0 C-2.37078839 2.37078839 -3.02120701 2.25629223 -6.25 2.4375 C-14.38072738 3.1920315 -21.64769487 7.90944589 -27 14 C-28.04349839 15.63978318 -29.05607981 17.30094366 -30 19 C-30.33 18.34 -30.66 17.68 -31 17 C-26.45177019 9.35897392 -20.30939895 4.24559345 -12 1 C-7.95322147 0.02877315 -4.15317112 -0.09888503 0 0 Z " fill="#1A8ECB" transform="translate(880,333)"/>
<path d="M0 0 C0.33 0 0.66 0 1 0 C1 3.96 1 7.92 1 12 C-1.89127836 13.65430361 -4.78752125 15.298576 -7.6875 16.9375 C-8.50412109 17.40607422 -9.32074219 17.87464844 -10.16210938 18.35742188 C-10.95810547 18.80537109 -11.75410156 19.25332031 -12.57421875 19.71484375 C-13.66609497 20.33540649 -13.66609497 20.33540649 -14.7800293 20.96850586 C-17.17866884 22.08301725 -19.39633628 22.58173273 -22 23 C-16.70787783 17.44327172 -10.66782929 14.16179232 -3 13 C-3 12.34 -3 11.68 -3 11 C-2.01 11 -1.02 11 0 11 C0 7.37 0 3.74 0 0 Z " fill="#2F88BD" transform="translate(194,370)"/>
<path d="M0 0 C-4.3149962 1.24241508 -8.18633296 0.95933112 -12.625 0.6875 C-13.40101563 0.65205078 -14.17703125 0.61660156 -14.9765625 0.58007812 C-20.75605559 0.24394441 -20.75605559 0.24394441 -23 -2 C-14.94239384 -4.2863688 -7.64330204 -3.10162981 0 0 Z " fill="#2091CC" transform="translate(634,335)"/>
<path d="M0 0 C0 0.66 0 1.32 0 2 C-0.72445313 1.96519531 -1.44890625 1.93039062 -2.1953125 1.89453125 C-7.87719737 1.73543847 -12.17034931 1.61924452 -17 5 C-18.85315257 7.04946399 -18.85315257 7.04946399 -20 9 C-19.875 6.25 -19.875 6.25 -19 3 C-12.33911886 -2.35766527 -7.9086451 -2.1292506 0 0 Z " fill="#178DCC" transform="translate(346,355)"/>
<path d="M0 0 C0.66 0.33 1.32 0.66 2 1 C0.2335343 2.0076952 -1.53833823 3.00591714 -3.3125 4 C-4.79169922 4.8353125 -4.79169922 4.8353125 -6.30078125 5.6875 C-9 7 -9 7 -12 7 C-12.26554688 7.58265625 -12.53109375 8.1653125 -12.8046875 8.765625 C-14.03302996 11.06174228 -15.40314939 12.80356018 -17.125 14.75 C-17.93324219 15.67039062 -17.93324219 15.67039062 -18.7578125 16.609375 C-19.16773438 17.06828125 -19.57765625 17.5271875 -20 18 C-20.33 17.34 -20.66 16.68 -21 16 C-19.40974009 12.89899317 -17.7003056 10.23068723 -15 8 C-14.34 8 -13.68 8 -13 8 C-13 7.34 -13 6.68 -13 6 C-11.3970947 5.18501438 -9.79262722 4.37310073 -8.1875 3.5625 C-7.29417969 3.11003906 -6.40085937 2.65757812 -5.48046875 2.19140625 C-3 1 -3 1 0 0 Z " fill="#1B8ECC" transform="translate(670,333)"/>
<path d="M0 0 C-1.6396875 1.0209375 -1.6396875 1.0209375 -3.3125 2.0625 C-7.18052568 4.852167 -8.60972774 7.36575914 -10 12 C-10.482435 14.9949183 -10.80098708 17.97363104 -11 21 C-13.42540943 17.36188586 -13.5483974 16.30883674 -13 12 C-11.19616542 7.21462066 -9.3412969 3.11774742 -5.375 -0.1875 C-3 -1 -3 -1 0 0 Z " fill="#178DCC" transform="translate(507,355)"/>
<path d="M0 0 C0.556875 0.226875 1.11375 0.45375 1.6875 0.6875 C-5.8125 5.6875 -5.8125 5.6875 -8.3125 5.6875 C-9.81810497 8.54160334 -10.94466796 11.36874642 -11.9375 14.4375 C-12.19789063 15.23671875 -12.45828125 16.0359375 -12.7265625 16.859375 C-12.91992188 17.46265625 -13.11328125 18.0659375 -13.3125 18.6875 C-13.9725 18.3575 -14.6325 18.0275 -15.3125 17.6875 C-13.09942754 9.86797729 -11.47124211 5.73048203 -4.75 0.8125 C-2.3125 -0.3125 -2.3125 -0.3125 0 0 Z " fill="#198ECD" transform="translate(863.3125,359.3125)"/>
<path d="M0 0 C0 10.23 0 20.46 0 31 C-0.66 30.67 -1.32 30.34 -2 30 C-1.67 20.76 -1.34 11.52 -1 2 C-5.455 3.485 -5.455 3.485 -10 5 C-6.82795656 1.48809477 -4.74687042 0 0 0 Z " fill="#C42D29" transform="translate(211,378)"/>
<path d="M0 0 C0.66 0 1.32 0 2 0 C2.35773958 3.75626559 2.13556761 5.73929307 0.375 9.125 C-2.22685291 12.27461142 -4.34241617 14.17120809 -8 16 C-11.375 15.75 -11.375 15.75 -14 15 C-11 13 -11 13 -7.5 11.625 C-4.02608995 10.01211319 -2.71534616 9.33539531 -1 6 C-0.27954633 2.84881675 -0.27954633 2.84881675 0 0 Z " fill="#1F91C8" transform="translate(169,378)"/>
<path d="M0 0 C0.66 0.33 1.32 0.66 2 1 C-0.68841859 3.25245881 -2.64641875 4.88213958 -6 6 C-6.99 7.485 -6.99 7.485 -8 9 C-8.99 8.67 -9.98 8.34 -11 8 C-11.99 8.66 -12.98 9.32 -14 10 C-16.1875 9.625 -16.1875 9.625 -18 9 C-16.68 8.67 -15.36 8.34 -14 8 C-14 7.34 -14 6.68 -14 6 C-13.175 5.7525 -12.35 5.505 -11.5 5.25 C-8.02812562 4.01004486 -4.95762516 2.47482155 -1.734375 0.70703125 C-1.16203125 0.47371094 -0.5896875 0.24039062 0 0 Z " fill="#377EBF" transform="translate(168,394)"/>
<path d="M0 0 C1.32 0.33 2.64 0.66 4 1 C4 7.6 4 14.2 4 21 C3.34 21 2.68 21 2 21 C1.97494385 20.43490723 1.9498877 19.86981445 1.92407227 19.28759766 C1.80820044 16.73316258 1.68543463 14.1791045 1.5625 11.625 C1.52318359 10.73554688 1.48386719 9.84609375 1.44335938 8.9296875 C1.38051758 7.65351563 1.38051758 7.65351563 1.31640625 6.3515625 C1.27974854 5.56604004 1.24309082 4.78051758 1.20532227 3.97119141 C1.109109 1.92476504 1.109109 1.92476504 0 0 Z " fill="#1E8DCA" transform="translate(844,330)"/>
<path d="M0 0 C-0.556875 0.27972656 -1.11375 0.55945313 -1.6875 0.84765625 C-6.88477051 3.5779791 -11.10832353 6.60566412 -15.37109375 10.64453125 C-17 12 -17 12 -19 12 C-19 11.34 -19 10.68 -19 10 C-18.34 10 -17.68 10 -17 10 C-16.79246094 9.41863281 -16.58492188 8.83726562 -16.37109375 8.23828125 C-14.47782537 5.14756107 -12.18600514 3.98588175 -9.0625 2.1875 C-7.47115234 1.24970703 -7.47115234 1.24970703 -5.84765625 0.29296875 C-3 -1 -3 -1 0 0 Z " fill="#1A8FCD" transform="translate(514,335)"/>
<path d="M0 0 C0.33 0.66 0.66 1.32 1 2 C3.02463255 2.65213292 3.02463255 2.65213292 5 3 C3.04486839 3.696553 1.08577524 4.38199565 -0.875 5.0625 C-1.96554688 5.44535156 -3.05609375 5.82820313 -4.1796875 6.22265625 C-7 7 -7 7 -9 6 C-9 5.34 -9 4.68 -9 4 C-2.25 0 -2.25 0 0 0 Z " fill="#C12929" transform="translate(148,410)"/>
<path d="M0 0 C0 3 0 3 -0.9375 6.0625 C-2.31794363 10.62481725 -2.63800873 15.26553529 -3 20 C-5 18 -5 18 -5.1171875 15.13671875 C-5.03726562 13.99847656 -4.95734375 12.86023438 -4.875 11.6875 C-4.81054688 10.55699219 -4.74609375 9.42648437 -4.6796875 8.26171875 C-3.90353664 4.53708676 -2.57009563 2.75072484 0 0 Z " fill="#178CCB" transform="translate(424,357)"/>
<path d="M0 0 C0.55171875 0.14308594 1.1034375 0.28617187 1.671875 0.43359375 C4.18714769 1.0455309 6.71042508 1.56126811 9.25 2.0625 C10.14203125 2.23910156 11.0340625 2.41570312 11.953125 2.59765625 C12.62859375 2.73042969 13.3040625 2.86320312 14 3 C14 3.99 14 4.98 14 6 C8.58609132 5.53328373 4.79482068 4.75702189 0 2 C0 1.34 0 0.68 0 0 Z " fill="#1690CC" transform="translate(413,411)"/>
<path d="M0 0 C0.99 0.33 1.98 0.66 3 1 C2.2575 1.721875 1.515 2.44375 0.75 3.1875 C-1.9872109 5.87178923 -1.9872109 5.87178923 -4 8.625 C-6.11695777 11.13888735 -8.11141217 12.47546753 -11 14 C-9.44111903 10.1736558 -6.92872044 7.85362504 -4 5 C-3.67 4.34 -3.34 3.68 -3 3 C-2.34 3 -1.68 3 -1 3 C-0.67 2.01 -0.34 1.02 0 0 Z " fill="#1B8CCB" transform="translate(982,341)"/>
<path d="M0 0 C0 0.66 0 1.32 0 2 C-1.55851755 2.82011312 -3.12201716 3.63076213 -4.6875 4.4375 C-5.99267578 5.11619141 -5.99267578 5.11619141 -7.32421875 5.80859375 C-9.90998264 6.95991928 -12.21356528 7.56320753 -15 8 C-14.34 7.01 -13.68 6.02 -13 5 C-12.01 5 -11.02 5 -10 5 C-9.67 4.34 -9.34 3.68 -9 3 C-8.34 3 -7.68 3 -7 3 C-6.34 2.34 -5.68 1.68 -5 1 C-2 0 -2 0 0 0 Z " fill="#C42F34" transform="translate(163,402)"/>
<path d="M0 0 C3.7634889 1.2544963 5.39056445 3.04721767 8 6 C8.8125 8.3125 8.8125 8.3125 9 10 C8.01 10 7.02 10 6 10 C3.62837691 6.83783588 1.65593745 3.58786447 0 0 Z " fill="#1B8ECC" transform="translate(982,408)"/>
<path d="M0 0 C0.66 0.33 1.32 0.66 2 1 C0.01118929 3.98321607 -1.54764954 5.84921651 -5 7 C-7.25 6.625 -7.25 6.625 -9 6 C-4.25 3 -4.25 3 -2 3 C-2 2.34 -2 1.68 -2 1 C-1.34 0.67 -0.68 0.34 0 0 Z " fill="#178DCE" transform="translate(776,407)"/>
<path d="M0 0 C3.63 0 7.26 0 11 0 C11.33 0.99 11.66 1.98 12 3 C7.71 2.67 3.42 2.34 -1 2 C-0.67 1.34 -0.34 0.68 0 0 Z " fill="#222C57" transform="translate(231,416)"/>
<path d="M0 0 C0 0.99 0 1.98 0 3 C-0.66 3 -1.32 3 -2 3 C-2 3.66 -2 4.32 -2 5 C-1.34 5.33 -0.68 5.66 0 6 C-1.98 6.33 -3.96 6.66 -6 7 C-5.8125 5.1875 -5.8125 5.1875 -5 3 C-2.4375 1.25 -2.4375 1.25 0 0 Z " fill="#956072" transform="translate(141,411)"/>
<path d="M0 0 C2.97 0.33 5.94 0.66 9 1 C7 3 7 3 5.0546875 3.1953125 C3.03645833 3.13020833 1.01822917 3.06510417 -1 3 C-0.67 2.01 -0.34 1.02 0 0 Z " fill="#2093CE" transform="translate(522,332)"/>
<path d="M0 0 C0.515625 0.309375 1.03125 0.61875 1.5625 0.9375 C4.66665423 2.29059287 7.65115007 2.61359424 11 3 C10.67 3.66 10.34 4.32 10 5 C6.63295715 5.2295711 4.58629732 5.33943529 1.625 3.625 C1.08875 3.08875 0.5525 2.5525 0 2 C0 1.34 0 0.68 0 0 Z " fill="#1E91D0" transform="translate(753,389)"/>
<path d="M0 0 C1.9955516 3.99110319 2.19546065 5.69986566 2 10 C1.01 10 0.02 10 -1 10 C-0.67 6.7 -0.34 3.4 0 0 Z " fill="#158CCA" transform="translate(380,350)"/>
<path d="M0 0 C-0.33 0.99 -0.66 1.98 -1 3 C-3.06640625 3.73046875 -3.06640625 3.73046875 -5.5625 4.1875 C-6.38878906 4.34605469 -7.21507812 4.50460937 -8.06640625 4.66796875 C-9.02353516 4.83232422 -9.02353516 4.83232422 -10 5 C-6.82795656 1.48809477 -4.74687042 0 0 0 Z " fill="#B4282E" transform="translate(211,378)"/>
<path d="M0 0 C0.99 0.33 1.98 0.66 3 1 C3.125 4.375 3.125 4.375 3 8 C2.34 8.66 1.68 9.32 1 10 C0.67 6.7 0.34 3.4 0 0 Z " fill="#1C93CD" transform="translate(619,363)"/>
<path d="M0 0 C0.66 0.33 1.32 0.66 2 1 C-0.75 3.0625 -0.75 3.0625 -4 5 C-6.203125 4.62109375 -6.203125 4.62109375 -8 4 C-6.71349294 3.30289269 -5.42059335 2.61757124 -4.125 1.9375 C-3.40570313 1.55464844 -2.68640625 1.17179687 -1.9453125 0.77734375 C-1.30335938 0.52082031 -0.66140625 0.26429688 0 0 Z " fill="#C0292E" transform="translate(183,391)"/>
<path d="M0 0 C-5.625 4 -5.625 4 -9 4 C-9 3.34 -9 2.68 -9 2 C-3.375 -1.125 -3.375 -1.125 0 0 Z " fill="#218ECA" transform="translate(135,413)"/>
<path d="M0 0 C0.66 0.33 1.32 0.66 2 1 C1 4 1 4 -1.0625 5.1875 C-1.701875 5.455625 -2.34125 5.72375 -3 6 C-3 5.34 -3 4.68 -3 4 C-3.66 3.67 -4.32 3.34 -5 3 C-3.35 2.67 -1.7 2.34 0 2 C0 1.34 0 0.68 0 0 Z " fill="#3F86BA" transform="translate(142,407)"/>
<path d="" fill="#808080" transform="translate(0,0)"/>
<path d="" fill="#F906F4" transform="translate(0,0)"/>
</svg>
