<?xml version="1.0" encoding="UTF-8"?>
<svg version="1.1" xmlns="http://www.w3.org/2000/svg" width="1080" height="700">
<path d="M0 0 C1.5778125 -0.00193359 1.5778125 -0.00193359 3.1875 -0.00390625 C4.280625 -0.00003906 5.37375 0.00382812 6.5 0.0078125 C7.593125 0.00394531 8.68625 0.00007813 9.8125 -0.00390625 C10.864375 -0.00261719 11.91625 -0.00132812 13 0 C14.43859375 0.00169189 14.43859375 0.00169189 15.90625 0.00341797 C18.25803316 0.12074149 20.25052606 0.46499992 22.5 1.1328125 C22.5 1.7928125 22.5 2.4528125 22.5 3.1328125 C24.48 3.6278125 24.48 3.6278125 26.5 4.1328125 C26.5 4.7928125 26.5 5.4528125 26.5 6.1328125 C27.16 6.1328125 27.82 6.1328125 28.5 6.1328125 C28.5 6.7928125 28.5 7.4528125 28.5 8.1328125 C29.16 8.1328125 29.82 8.1328125 30.5 8.1328125 C30.83 9.4528125 31.16 10.7728125 31.5 12.1328125 C32.16 12.1328125 32.82 12.1328125 33.5 12.1328125 C33.5 13.4528125 33.5 14.7728125 33.5 16.1328125 C34.16 16.1328125 34.82 16.1328125 35.5 16.1328125 C35.5 17.7828125 35.5 19.4328125 35.5 21.1328125 C36.16 21.1328125 36.82 21.1328125 37.5 21.1328125 C37.5 31.6928125 37.5 42.2528125 37.5 53.1328125 C36.84 53.1328125 36.18 53.1328125 35.5 53.1328125 C35.5 55.1128125 35.5 57.0928125 35.5 59.1328125 C34.84 59.1328125 34.18 59.1328125 33.5 59.1328125 C33.561875 60.0196875 33.62375 60.9065625 33.6875 61.8203125 C33.47935526 65.49753619 32.71793417 67.23243705 30.5 70.1328125 C29.84 70.1328125 29.18 70.1328125 28.5 70.1328125 C28.5 71.4528125 28.5 72.7728125 28.5 74.1328125 C27.84 74.1328125 27.18 74.1328125 26.5 74.1328125 C26.5 75.7828125 26.5 77.4328125 26.5 79.1328125 C25.84 79.1328125 25.18 79.1328125 24.5 79.1328125 C24.5 80.4528125 24.5 81.7728125 24.5 83.1328125 C25.16 83.1328125 25.82 83.1328125 26.5 83.1328125 C26.5 82.4728125 26.5 81.8128125 26.5 81.1328125 C27.16 81.1328125 27.82 81.1328125 28.5 81.1328125 C28.5 79.8128125 28.5 78.4928125 28.5 77.1328125 C29.49 77.1328125 30.48 77.1328125 31.5 77.1328125 C31.5 76.1428125 31.5 75.1528125 31.5 74.1328125 C32.16 74.1328125 32.82 74.1328125 33.5 74.1328125 C33.5 72.8128125 33.5 71.4928125 33.5 70.1328125 C34.16 70.1328125 34.82 70.1328125 35.5 70.1328125 C35.5 69.4728125 35.5 68.8128125 35.5 68.1328125 C36.16 68.1328125 36.82 68.1328125 37.5 68.1328125 C37.5 67.4728125 37.5 66.8128125 37.5 66.1328125 C38.16 66.1328125 38.82 66.1328125 39.5 66.1328125 C39.5 65.4728125 39.5 64.8128125 39.5 64.1328125 C40.16 64.1328125 40.82 64.1328125 41.5 64.1328125 C41.5 63.4728125 41.5 62.8128125 41.5 62.1328125 C42.16 62.1328125 42.82 62.1328125 43.5 62.1328125 C43.83 61.1428125 44.16 60.1528125 44.5 59.1328125 C45.16 59.1328125 45.82 59.1328125 46.5 59.1328125 C46.5 58.4728125 46.5 57.8128125 46.5 57.1328125 C47.16 57.1328125 47.82 57.1328125 48.5 57.1328125 C48.5 56.4728125 48.5 55.8128125 48.5 55.1328125 C49.16 55.1328125 49.82 55.1328125 50.5 55.1328125 C50.5 54.4728125 50.5 53.8128125 50.5 53.1328125 C51.16 53.1328125 51.82 53.1328125 52.5 53.1328125 C52.5 52.4728125 52.5 51.8128125 52.5 51.1328125 C53.16 51.1328125 53.82 51.1328125 54.5 51.1328125 C54.5 50.4728125 54.5 49.8128125 54.5 49.1328125 C56.15 49.1328125 57.8 49.1328125 59.5 49.1328125 C59.83 48.1428125 60.16 47.1528125 60.5 46.1328125 C61.49 46.1328125 62.48 46.1328125 63.5 46.1328125 C63.5 45.4728125 63.5 44.8128125 63.5 44.1328125 C65.48 44.1328125 67.46 44.1328125 69.5 44.1328125 C69.5 43.4728125 69.5 42.8128125 69.5 42.1328125 C72.47 42.1328125 75.44 42.1328125 78.5 42.1328125 C78.5 41.4728125 78.5 40.8128125 78.5 40.1328125 C83.45 40.1328125 88.4 40.1328125 93.5 40.1328125 C93.5 40.7928125 93.5 41.4528125 93.5 42.1328125 C96.14 42.1328125 98.78 42.1328125 101.5 42.1328125 C101.5 42.7928125 101.5 43.4528125 101.5 44.1328125 C102.49 44.1328125 103.48 44.1328125 104.5 44.1328125 C104.5 44.7928125 104.5 45.4528125 104.5 46.1328125 C105.82 46.4628125 107.14 46.7928125 108.5 47.1328125 C108.5 47.7928125 108.5 48.4528125 108.5 49.1328125 C109.16 49.1328125 109.82 49.1328125 110.5 49.1328125 C110.5 49.7928125 110.5 50.4528125 110.5 51.1328125 C111.16 51.1328125 111.82 51.1328125 112.5 51.1328125 C112.5 52.4528125 112.5 53.7728125 112.5 55.1328125 C113.16 55.1328125 113.82 55.1328125 114.5 55.1328125 C114.5 57.4428125 114.5 59.7528125 114.5 62.1328125 C115.49 62.4628125 116.48 62.7928125 117.5 63.1328125 C117.625 69.8828125 117.625 69.8828125 116.5 72.1328125 C115.84 72.1328125 115.18 72.1328125 114.5 72.1328125 C114.5 74.4428125 114.5 76.7528125 114.5 79.1328125 C113.84 79.1328125 113.18 79.1328125 112.5 79.1328125 C112.5 80.4528125 112.5 81.7728125 112.5 83.1328125 C111.84 83.1328125 111.18 83.1328125 110.5 83.1328125 C110.5 83.7928125 110.5 84.4528125 110.5 85.1328125 C109.84 85.1328125 109.18 85.1328125 108.5 85.1328125 C108.5 85.7928125 108.5 86.4528125 108.5 87.1328125 C107.84 87.1328125 107.18 87.1328125 106.5 87.1328125 C106.5 88.1228125 106.5 89.1128125 106.5 90.1328125 C105.84 90.1328125 105.18 90.1328125 104.5 90.1328125 C104.5 90.7928125 104.5 91.4528125 104.5 92.1328125 C102.025 93.1228125 102.025 93.1228125 99.5 94.1328125 C99.5 94.7928125 99.5 95.4528125 99.5 96.1328125 C98.18 96.1328125 96.86 96.1328125 95.5 96.1328125 C95.5 96.7928125 95.5 97.4528125 95.5 98.1328125 C94.84 98.1328125 94.18 98.1328125 93.5 98.1328125 C93.5 98.7928125 93.5 99.4528125 93.5 100.1328125 C91.19 100.1328125 88.88 100.1328125 86.5 100.1328125 C86.5 100.7928125 86.5 101.4528125 86.5 102.1328125 C85.18 102.1328125 83.86 102.1328125 82.5 102.1328125 C82.17 103.1228125 81.84 104.1128125 81.5 105.1328125 C79.7984375 105.349375 79.7984375 105.349375 78.0625 105.5703125 C74.69222799 105.74452728 74.69222799 105.74452728 73.5 107.1328125 C71.81391034 107.20486761 70.12499341 107.21667318 68.4375 107.1953125 C67.05884766 107.18177734 67.05884766 107.18177734 65.65234375 107.16796875 C64.58693359 107.15056641 64.58693359 107.15056641 63.5 107.1328125 C63.5 107.7928125 63.5 108.4528125 63.5 109.1328125 C54.92 109.1328125 46.34 109.1328125 37.5 109.1328125 C37.5 109.7928125 37.5 110.4528125 37.5 111.1328125 C47.4 111.1328125 57.3 111.1328125 67.5 111.1328125 C67.5 111.7928125 67.5 112.4528125 67.5 113.1328125 C72.45 113.1328125 77.4 113.1328125 82.5 113.1328125 C82.5 113.7928125 82.5 114.4528125 82.5 115.1328125 C85.14 115.1328125 87.78 115.1328125 90.5 115.1328125 C90.83 116.1228125 91.16 117.1128125 91.5 118.1328125 C93.48 118.1328125 95.46 118.1328125 97.5 118.1328125 C97.5 118.7928125 97.5 119.4528125 97.5 120.1328125 C98.82 120.1328125 100.14 120.1328125 101.5 120.1328125 C101.5 120.7928125 101.5 121.4528125 101.5 122.1328125 C103.15 122.1328125 104.8 122.1328125 106.5 122.1328125 C106.5 122.7928125 106.5 123.4528125 106.5 124.1328125 C107.16 124.1328125 107.82 124.1328125 108.5 124.1328125 C108.5 124.7928125 108.5 125.4528125 108.5 126.1328125 C109.82 126.1328125 111.14 126.1328125 112.5 126.1328125 C112.5 126.7928125 112.5 127.4528125 112.5 128.1328125 C113.16 128.1328125 113.82 128.1328125 114.5 128.1328125 C114.5 129.1228125 114.5 130.1128125 114.5 131.1328125 C115.49 131.1328125 116.48 131.1328125 117.5 131.1328125 C117.5 131.7928125 117.5 132.4528125 117.5 133.1328125 C118.16 133.1328125 118.82 133.1328125 119.5 133.1328125 C119.5 134.4528125 119.5 135.7728125 119.5 137.1328125 C120.16 137.1328125 120.82 137.1328125 121.5 137.1328125 C121.5 138.4528125 121.5 139.7728125 121.5 141.1328125 C122.16 141.1328125 122.82 141.1328125 123.5 141.1328125 C123.5 148.3928125 123.5 155.6528125 123.5 163.1328125 C122.84 163.1328125 122.18 163.1328125 121.5 163.1328125 C121.5 164.4528125 121.5 165.7728125 121.5 167.1328125 C120.84 167.1328125 120.18 167.1328125 119.5 167.1328125 C119.5 167.7928125 119.5 168.4528125 119.5 169.1328125 C118.84 169.1328125 118.18 169.1328125 117.5 169.1328125 C117.5 169.7928125 117.5 170.4528125 117.5 171.1328125 C115.85 171.1328125 114.2 171.1328125 112.5 171.1328125 C112.5 172.1228125 112.5 173.1128125 112.5 174.1328125 C111.84 174.1328125 111.18 174.1328125 110.5 174.1328125 C110.5 174.7928125 110.5 175.4528125 110.5 176.1328125 C102.91 176.1328125 95.32 176.1328125 87.5 176.1328125 C87.5 175.4728125 87.5 174.8128125 87.5 174.1328125 C85.85 173.8028125 84.2 173.4728125 82.5 173.1328125 C82.5 172.4728125 82.5 171.8128125 82.5 171.1328125 C81.84 171.1328125 81.18 171.1328125 80.5 171.1328125 C80.5 170.4728125 80.5 169.8128125 80.5 169.1328125 C79.18 169.1328125 77.86 169.1328125 76.5 169.1328125 C76.5 168.4728125 76.5 167.8128125 76.5 167.1328125 C75.84 167.1328125 75.18 167.1328125 74.5 167.1328125 C74.5 166.4728125 74.5 165.8128125 74.5 165.1328125 C72.85 164.4728125 71.2 163.8128125 69.5 163.1328125 C69.5 162.4728125 69.5 161.8128125 69.5 161.1328125 C68.84 161.1328125 68.18 161.1328125 67.5 161.1328125 C67.5 160.1428125 67.5 159.1528125 67.5 158.1328125 C66.84 158.1328125 66.18 158.1328125 65.5 158.1328125 C65.5 156.8128125 65.5 155.4928125 65.5 154.1328125 C64.84 154.1328125 64.18 154.1328125 63.5 154.1328125 C63.5 153.4728125 63.5 152.8128125 63.5 152.1328125 C62.84 152.1328125 62.18 152.1328125 61.5 152.1328125 C61.5 151.4728125 61.5 150.8128125 61.5 150.1328125 C60.84 150.1328125 60.18 150.1328125 59.5 150.1328125 C59.5 149.4728125 59.5 148.8128125 59.5 148.1328125 C58.51 148.1328125 57.52 148.1328125 56.5 148.1328125 C56.5 147.4728125 56.5 146.8128125 56.5 146.1328125 C55.84 146.1328125 55.18 146.1328125 54.5 146.1328125 C54.5 145.1428125 54.5 144.1528125 54.5 143.1328125 C53.18 143.1328125 51.86 143.1328125 50.5 143.1328125 C50.5 142.4728125 50.5 141.8128125 50.5 141.1328125 C49.84 141.1328125 49.18 141.1328125 48.5 141.1328125 C48.5 140.4728125 48.5 139.8128125 48.5 139.1328125 C47.84 139.1328125 47.18 139.1328125 46.5 139.1328125 C46.5 138.4728125 46.5 137.8128125 46.5 137.1328125 C45.51 137.1328125 44.52 137.1328125 43.5 137.1328125 C43.5 136.4728125 43.5 135.8128125 43.5 135.1328125 C42.18 135.1328125 40.86 135.1328125 39.5 135.1328125 C39.5 134.4728125 39.5 133.8128125 39.5 133.1328125 C38.84 133.1328125 38.18 133.1328125 37.5 133.1328125 C37.5 132.4728125 37.5 131.8128125 37.5 131.1328125 C36.18 130.8028125 34.86 130.4728125 33.5 130.1328125 C33.5 129.4728125 33.5 128.8128125 33.5 128.1328125 C32.84 128.1328125 32.18 128.1328125 31.5 128.1328125 C31.5 127.4728125 31.5 126.8128125 31.5 126.1328125 C29.85 126.1328125 28.2 126.1328125 26.5 126.1328125 C26.5 125.4728125 26.5 124.8128125 26.5 124.1328125 C25.18 124.1328125 23.86 124.1328125 22.5 124.1328125 C22.5 123.4728125 22.5 122.8128125 22.5 122.1328125 C21.18 122.1328125 19.86 122.1328125 18.5 122.1328125 C18.5 121.4728125 18.5 120.8128125 18.5 120.1328125 C17.324375 120.225625 17.324375 120.225625 16.125 120.3203125 C15.25875 120.2584375 14.3925 120.1965625 13.5 120.1328125 C11.5 117.1328125 11.5 117.1328125 11.5 113.1328125 C18.76 113.1328125 26.02 113.1328125 33.5 113.1328125 C33.5 112.4728125 33.5 111.8128125 33.5 111.1328125 C26.24 111.1328125 18.98 111.1328125 11.5 111.1328125 C11.5 109.8128125 11.5 108.4928125 11.5 107.1328125 C10.84 107.1328125 10.18 107.1328125 9.5 107.1328125 C9.5 108.4528125 9.5 109.7728125 9.5 111.1328125 C7.52 111.1328125 5.54 111.1328125 3.5 111.1328125 C3.5 109.8128125 3.5 108.4928125 3.5 107.1328125 C2.84 107.1328125 2.18 107.1328125 1.5 107.1328125 C1.005 109.1128125 1.005 109.1128125 0.5 111.1328125 C-10.885 111.6278125 -10.885 111.6278125 -22.5 112.1328125 C-14.91 112.4628125 -7.32 112.7928125 0.5 113.1328125 C0.5 114.7828125 0.5 116.4328125 0.5 118.1328125 C-0.16 118.1328125 -0.82 118.1328125 -1.5 118.1328125 C-1.5 118.7928125 -1.5 119.4528125 -1.5 120.1328125 C-2.82 120.1328125 -4.14 120.1328125 -5.5 120.1328125 C-5.5 120.7928125 -5.5 121.4528125 -5.5 122.1328125 C-6.82 122.1328125 -8.14 122.1328125 -9.5 122.1328125 C-9.5 122.7928125 -9.5 123.4528125 -9.5 124.1328125 C-11.15 124.1328125 -12.8 124.1328125 -14.5 124.1328125 C-14.5 124.7928125 -14.5 125.4528125 -14.5 126.1328125 C-15.82 126.1328125 -17.14 126.1328125 -18.5 126.1328125 C-18.5 126.7928125 -18.5 127.4528125 -18.5 128.1328125 C-19.16 128.1328125 -19.82 128.1328125 -20.5 128.1328125 C-20.5 128.7928125 -20.5 129.4528125 -20.5 130.1328125 C-24.88461538 133.1328125 -24.88461538 133.1328125 -27.5 133.1328125 C-27.5 133.7928125 -27.5 134.4528125 -27.5 135.1328125 C-28.82 135.1328125 -30.14 135.1328125 -31.5 135.1328125 C-31.5 135.7928125 -31.5 136.4528125 -31.5 137.1328125 C-32.16 137.1328125 -32.82 137.1328125 -33.5 137.1328125 C-33.5 137.7928125 -33.5 138.4528125 -33.5 139.1328125 C-34.16 139.1328125 -34.82 139.1328125 -35.5 139.1328125 C-35.5 139.7928125 -35.5 140.4528125 -35.5 141.1328125 C-36.16 141.1328125 -36.82 141.1328125 -37.5 141.1328125 C-37.5 141.7928125 -37.5 142.4528125 -37.5 143.1328125 C-39.15 143.1328125 -40.8 143.1328125 -42.5 143.1328125 C-42.5 144.1228125 -42.5 145.1128125 -42.5 146.1328125 C-43.16 146.1328125 -43.82 146.1328125 -44.5 146.1328125 C-44.5 146.7928125 -44.5 147.4528125 -44.5 148.1328125 C-45.16 148.1328125 -45.82 148.1328125 -46.5 148.1328125 C-46.5 148.7928125 -46.5 149.4528125 -46.5 150.1328125 C-47.16 150.1328125 -47.82 150.1328125 -48.5 150.1328125 C-48.5 150.7928125 -48.5 151.4528125 -48.5 152.1328125 C-49.16 152.1328125 -49.82 152.1328125 -50.5 152.1328125 C-50.5 152.7928125 -50.5 153.4528125 -50.5 154.1328125 C-51.16 154.1328125 -51.82 154.1328125 -52.5 154.1328125 C-52.5 154.7928125 -52.5 155.4528125 -52.5 156.1328125 C-53.49 156.1328125 -54.48 156.1328125 -55.5 156.1328125 C-55.5 157.7828125 -55.5 159.4328125 -55.5 161.1328125 C-56.16 161.1328125 -56.82 161.1328125 -57.5 161.1328125 C-57.5 161.7928125 -57.5 162.4528125 -57.5 163.1328125 C-58.16 163.1328125 -58.82 163.1328125 -59.5 163.1328125 C-59.5 163.7928125 -59.5 164.4528125 -59.5 165.1328125 C-60.16 165.1328125 -60.82 165.1328125 -61.5 165.1328125 C-61.5 165.7928125 -61.5 166.4528125 -61.5 167.1328125 C-62.16 167.1328125 -62.82 167.1328125 -63.5 167.1328125 C-63.5 167.7928125 -63.5 168.4528125 -63.5 169.1328125 C-64.82 169.1328125 -66.14 169.1328125 -67.5 169.1328125 C-67.5 169.7928125 -67.5 170.4528125 -67.5 171.1328125 C-68.49 171.1328125 -69.48 171.1328125 -70.5 171.1328125 C-70.83 172.1228125 -71.16 173.1128125 -71.5 174.1328125 C-72.49 174.1328125 -73.48 174.1328125 -74.5 174.1328125 C-74.5 174.7928125 -74.5 175.4528125 -74.5 176.1328125 C-82.09 176.1328125 -89.68 176.1328125 -97.5 176.1328125 C-97.5 175.4728125 -97.5 174.8128125 -97.5 174.1328125 C-99.15 173.8028125 -100.8 173.4728125 -102.5 173.1328125 C-102.5 172.4728125 -102.5 171.8128125 -102.5 171.1328125 C-103.16 171.1328125 -103.82 171.1328125 -104.5 171.1328125 C-104.5 170.4728125 -104.5 169.8128125 -104.5 169.1328125 C-105.16 169.1328125 -105.82 169.1328125 -106.5 169.1328125 C-106.5 168.4728125 -106.5 167.8128125 -106.5 167.1328125 C-107.16 167.1328125 -107.82 167.1328125 -108.5 167.1328125 C-108.5 165.8128125 -108.5 164.4928125 -108.5 163.1328125 C-109.16 163.1328125 -109.82 163.1328125 -110.5 163.1328125 C-110.55799124 159.36204361 -110.59359306 155.59138916 -110.625 151.8203125 C-110.64175781 150.74845703 -110.65851563 149.67660156 -110.67578125 148.57226562 C-110.68222656 147.54423828 -110.68867188 146.51621094 -110.6953125 145.45703125 C-110.70578613 144.50916748 -110.71625977 143.56130371 -110.72705078 142.5847168 C-110.5 140.1328125 -110.5 140.1328125 -108.5 137.1328125 C-107.84 137.1328125 -107.18 137.1328125 -106.5 137.1328125 C-106.5 135.8128125 -106.5 134.4928125 -106.5 133.1328125 C-105.84 133.1328125 -105.18 133.1328125 -104.5 133.1328125 C-104.5 132.4728125 -104.5 131.8128125 -104.5 131.1328125 C-103.84 131.1328125 -103.18 131.1328125 -102.5 131.1328125 C-102.5 130.1428125 -102.5 129.1528125 -102.5 128.1328125 C-101.84 128.1328125 -101.18 128.1328125 -100.5 128.1328125 C-100.5 127.4728125 -100.5 126.8128125 -100.5 126.1328125 C-99.51 126.1328125 -98.52 126.1328125 -97.5 126.1328125 C-97.5 125.4728125 -97.5 124.8128125 -97.5 124.1328125 C-96.18 124.1328125 -94.86 124.1328125 -93.5 124.1328125 C-93.5 123.4728125 -93.5 122.8128125 -93.5 122.1328125 C-92.18 122.1328125 -90.86 122.1328125 -89.5 122.1328125 C-89.5 121.4728125 -89.5 120.8128125 -89.5 120.1328125 C-88.18 120.1328125 -86.86 120.1328125 -85.5 120.1328125 C-85.5 119.4728125 -85.5 118.8128125 -85.5 118.1328125 C-83.19 118.1328125 -80.88 118.1328125 -78.5 118.1328125 C-78.005 116.6478125 -78.005 116.6478125 -77.5 115.1328125 C-75.7984375 114.91625 -75.7984375 114.91625 -74.0625 114.6953125 C-70.69222799 114.52109772 -70.69222799 114.52109772 -69.5 113.1328125 C-66.96950598 113.05967683 -64.46695163 113.04033723 -61.9375 113.0703125 C-60.87112305 113.07708008 -60.87112305 113.07708008 -59.78320312 113.08398438 C-58.02209987 113.09580386 -56.26103964 113.11373987 -54.5 113.1328125 C-54.5 112.4728125 -54.5 111.8128125 -54.5 111.1328125 C-44.6 111.1328125 -34.7 111.1328125 -24.5 111.1328125 C-24.5 110.4728125 -24.5 109.8128125 -24.5 109.1328125 C-33.08 109.1328125 -41.66 109.1328125 -50.5 109.1328125 C-50.5 108.4728125 -50.5 107.8128125 -50.5 107.1328125 C-54.13 107.1328125 -57.76 107.1328125 -61.5 107.1328125 C-61.5 106.4728125 -61.5 105.8128125 -61.5 105.1328125 C-64.14 105.1328125 -66.78 105.1328125 -69.5 105.1328125 C-69.83 104.1428125 -70.16 103.1528125 -70.5 102.1328125 C-71.82 102.1328125 -73.14 102.1328125 -74.5 102.1328125 C-74.5 101.4728125 -74.5 100.8128125 -74.5 100.1328125 C-76.48 100.1328125 -78.46 100.1328125 -80.5 100.1328125 C-80.5 99.4728125 -80.5 98.8128125 -80.5 98.1328125 C-81.16 98.1328125 -81.82 98.1328125 -82.5 98.1328125 C-82.5 97.4728125 -82.5 96.8128125 -82.5 96.1328125 C-84.15 96.1328125 -85.8 96.1328125 -87.5 96.1328125 C-87.5 95.4728125 -87.5 94.8128125 -87.5 94.1328125 C-88.16 94.1328125 -88.82 94.1328125 -89.5 94.1328125 C-89.5 93.4728125 -89.5 92.8128125 -89.5 92.1328125 C-90.16 92.1328125 -90.82 92.1328125 -91.5 92.1328125 C-91.5 91.4728125 -91.5 90.8128125 -91.5 90.1328125 C-92.16 90.1328125 -92.82 90.1328125 -93.5 90.1328125 C-93.5 89.1428125 -93.5 88.1528125 -93.5 87.1328125 C-94.16 87.1328125 -94.82 87.1328125 -95.5 87.1328125 C-95.5 86.4728125 -95.5 85.8128125 -95.5 85.1328125 C-96.49 85.1328125 -97.48 85.1328125 -98.5 85.1328125 C-98.5 84.4728125 -98.5 83.8128125 -98.5 83.1328125 C-99.16 83.1328125 -99.82 83.1328125 -100.5 83.1328125 C-100.5 81.8128125 -100.5 80.4928125 -100.5 79.1328125 C-101.16 79.1328125 -101.82 79.1328125 -102.5 79.1328125 C-102.5 76.8228125 -102.5 74.5128125 -102.5 72.1328125 C-103.16 72.1328125 -103.82 72.1328125 -104.5 72.1328125 C-104.5 68.8328125 -104.5 65.5328125 -104.5 62.1328125 C-103.84 62.1328125 -103.18 62.1328125 -102.5 62.1328125 C-102.5 59.8228125 -102.5 57.5128125 -102.5 55.1328125 C-101.84 55.1328125 -101.18 55.1328125 -100.5 55.1328125 C-100.5 53.8128125 -100.5 52.4928125 -100.5 51.1328125 C-99.71625 50.9059375 -98.9325 50.6790625 -98.125 50.4453125 C-95.28125 49.3515625 -95.28125 49.3515625 -94.1875 46.5078125 C-93.960625 45.7240625 -93.73375 44.9403125 -93.5 44.1328125 C-92.18 44.1328125 -90.86 44.1328125 -89.5 44.1328125 C-89.5 43.4728125 -89.5 42.8128125 -89.5 42.1328125 C-86.53 42.1328125 -83.56 42.1328125 -80.5 42.1328125 C-80.5 41.4728125 -80.5 40.8128125 -80.5 40.1328125 C-75.55 40.1328125 -70.6 40.1328125 -65.5 40.1328125 C-65.5 40.7928125 -65.5 41.4528125 -65.5 42.1328125 C-62.86 42.1328125 -60.22 42.1328125 -57.5 42.1328125 C-57.5 42.7928125 -57.5 43.4528125 -57.5 44.1328125 C-56.613125 44.0709375 -55.72625 44.0090625 -54.8125 43.9453125 C-51.13527631 44.15345724 -49.40037545 44.91487833 -46.5 47.1328125 C-46.5 47.7928125 -46.5 48.4528125 -46.5 49.1328125 C-45.84 49.1328125 -45.18 49.1328125 -44.5 49.1328125 C-44.5 49.7928125 -44.5 50.4528125 -44.5 51.1328125 C-43.71625 51.2771875 -42.9325 51.4215625 -42.125 51.5703125 C-39.5 52.1328125 -39.5 52.1328125 -37.5 53.1328125 C-37.5 53.7928125 -37.5 54.4528125 -37.5 55.1328125 C-36.84 55.1328125 -36.18 55.1328125 -35.5 55.1328125 C-35.5 55.7928125 -35.5 56.4528125 -35.5 57.1328125 C-34.84 57.1328125 -34.18 57.1328125 -33.5 57.1328125 C-33.5 57.7928125 -33.5 58.4528125 -33.5 59.1328125 C-32.84 59.1328125 -32.18 59.1328125 -31.5 59.1328125 C-31.5 60.1228125 -31.5 61.1128125 -31.5 62.1328125 C-30.84 62.1328125 -30.18 62.1328125 -29.5 62.1328125 C-29.5 62.7928125 -29.5 63.4528125 -29.5 64.1328125 C-28.84 64.1328125 -28.18 64.1328125 -27.5 64.1328125 C-27.5 64.7928125 -27.5 65.4528125 -27.5 66.1328125 C-26.51 66.1328125 -25.52 66.1328125 -24.5 66.1328125 C-24.5 66.7928125 -24.5 67.4528125 -24.5 68.1328125 C-23.84 68.1328125 -23.18 68.1328125 -22.5 68.1328125 C-18.5 74.8828125 -18.5 74.8828125 -18.5 77.1328125 C-17.84 77.1328125 -17.18 77.1328125 -16.5 77.1328125 C-16.5 78.4528125 -16.5 79.7728125 -16.5 81.1328125 C-15.84 81.1328125 -15.18 81.1328125 -14.5 81.1328125 C-14.5 81.7928125 -14.5 82.4528125 -14.5 83.1328125 C-13.84 83.1328125 -13.18 83.1328125 -12.5 83.1328125 C-12.5 84.4528125 -12.5 85.7728125 -12.5 87.1328125 C-11.015 87.6278125 -11.015 87.6278125 -9.5 88.1328125 C-9.5 89.4528125 -9.5 90.7728125 -9.5 92.1328125 C-8.84 92.1328125 -8.18 92.1328125 -7.5 92.1328125 C-7.5 90.4828125 -7.5 88.8328125 -7.5 87.1328125 C-8.16 87.1328125 -8.82 87.1328125 -9.5 87.1328125 C-9.5 85.8128125 -9.5 84.4928125 -9.5 83.1328125 C-10.16 83.1328125 -10.82 83.1328125 -11.5 83.1328125 C-11.5 81.8128125 -11.5 80.4928125 -11.5 79.1328125 C-12.49 79.1328125 -13.48 79.1328125 -14.5 79.1328125 C-14.5 77.4828125 -14.5 75.8328125 -14.5 74.1328125 C-15.16 74.1328125 -15.82 74.1328125 -16.5 74.1328125 C-16.5 72.8128125 -16.5 71.4928125 -16.5 70.1328125 C-17.16 70.1328125 -17.82 70.1328125 -18.5 70.1328125 C-18.5 68.8128125 -18.5 67.4928125 -18.5 66.1328125 C-19.16 66.1328125 -19.82 66.1328125 -20.5 66.1328125 C-20.5 63.8228125 -20.5 61.5128125 -20.5 59.1328125 C-21.16 59.1328125 -21.82 59.1328125 -22.5 59.1328125 C-22.5 57.1528125 -22.5 55.1728125 -22.5 53.1328125 C-23.16 53.1328125 -23.82 53.1328125 -24.5 53.1328125 C-24.5 42.5728125 -24.5 32.0128125 -24.5 21.1328125 C-23.84 21.1328125 -23.18 21.1328125 -22.5 21.1328125 C-22.5 19.4828125 -22.5 17.8328125 -22.5 16.1328125 C-21.84 16.1328125 -21.18 16.1328125 -20.5 16.1328125 C-20.5 14.8128125 -20.5 13.4928125 -20.5 12.1328125 C-19.84 12.1328125 -19.18 12.1328125 -18.5 12.1328125 C-18.5 11.4728125 -18.5 10.8128125 -18.5 10.1328125 C-17.84 10.1328125 -17.18 10.1328125 -16.5 10.1328125 C-16.5 8.8128125 -16.5 7.4928125 -16.5 6.1328125 C-14.85 6.1328125 -13.2 6.1328125 -11.5 6.1328125 C-11.5 5.1428125 -11.5 4.1528125 -11.5 3.1328125 C-10.84 3.1328125 -10.18 3.1328125 -9.5 3.1328125 C-9.5 2.4728125 -9.5 1.8128125 -9.5 1.1328125 C-6.27376992 0.17502545 -3.35907209 0.00395052 0 0 Z M22.5 83.1328125 C22.5 84.4528125 22.5 85.7728125 22.5 87.1328125 C23.16 87.1328125 23.82 87.1328125 24.5 87.1328125 C24.5 85.8128125 24.5 84.4928125 24.5 83.1328125 C23.84 83.1328125 23.18 83.1328125 22.5 83.1328125 Z M20.5 87.1328125 C20.5 88.1228125 20.5 89.1128125 20.5 90.1328125 C21.16 90.1328125 21.82 90.1328125 22.5 90.1328125 C22.5 89.1428125 22.5 88.1528125 22.5 87.1328125 C21.84 87.1328125 21.18 87.1328125 20.5 87.1328125 Z M19.5 91.1328125 C19.17 92.1228125 18.84 93.1128125 18.5 94.1328125 C19.16 94.1328125 19.82 94.1328125 20.5 94.1328125 C20.17 93.1428125 19.84 92.1528125 19.5 91.1328125 Z M-7.5 92.1328125 C-7.5 92.7928125 -7.5 93.4528125 -7.5 94.1328125 C-6.84 94.1328125 -6.18 94.1328125 -5.5 94.1328125 C-5.5 93.4728125 -5.5 92.8128125 -5.5 92.1328125 C-6.16 92.1328125 -6.82 92.1328125 -7.5 92.1328125 Z M-5.5 96.1328125 C-5.5 96.7928125 -5.5 97.4528125 -5.5 98.1328125 C-4.84 98.1328125 -4.18 98.1328125 -3.5 98.1328125 C-3.5 97.4728125 -3.5 96.8128125 -3.5 96.1328125 C-4.16 96.1328125 -4.82 96.1328125 -5.5 96.1328125 Z M17.5 95.1328125 C16.51 95.6278125 16.51 95.6278125 15.5 96.1328125 C15.5 96.7928125 15.5 97.4528125 15.5 98.1328125 C14.84 98.1328125 14.18 98.1328125 13.5 98.1328125 C13.83 99.1228125 14.16 100.1128125 14.5 101.1328125 C15.82 100.1428125 17.14 99.1528125 18.5 98.1328125 C18.17 97.1428125 17.84 96.1528125 17.5 95.1328125 Z M-3.5 98.1328125 C-3.17 99.1228125 -2.84 100.1128125 -2.5 101.1328125 C-2.17 100.1428125 -1.84 99.1528125 -1.5 98.1328125 C-2.16 98.1328125 -2.82 98.1328125 -3.5 98.1328125 Z M-1.5 102.1328125 C-1.5 103.1228125 -1.5 104.1128125 -1.5 105.1328125 C-0.84 105.1328125 -0.18 105.1328125 0.5 105.1328125 C0.5 104.1428125 0.5 103.1528125 0.5 102.1328125 C-0.16 102.1328125 -0.82 102.1328125 -1.5 102.1328125 Z M11.5 102.1328125 C11.5 103.1228125 11.5 104.1128125 11.5 105.1328125 C12.16 105.1328125 12.82 105.1328125 13.5 105.1328125 C13.5 104.1428125 13.5 103.1528125 13.5 102.1328125 C12.84 102.1328125 12.18 102.1328125 11.5 102.1328125 Z " fill="#05A2DF" transform="translate(258.5,267.8671875)"/>
<path d="M0 0 C4.95 0 9.9 0 15 0 C15 0.66 15 1.32 15 2 C17.64 2 20.28 2 23 2 C23 2.66 23 3.32 23 4 C23.99 4 24.98 4 26 4 C26 4.66 26 5.32 26 6 C27.32 6.33 28.64 6.66 30 7 C30 7.66 30 8.32 30 9 C30.66 9 31.32 9 32 9 C32 9.66 32 10.32 32 11 C32.66 11 33.32 11 34 11 C34 12.32 34 13.64 34 15 C34.66 15 35.32 15 36 15 C36 17.31 36 19.62 36 22 C37.485 22.495 37.485 22.495 39 23 C39.125 29.75 39.125 29.75 38 32 C37.34 32 36.68 32 36 32 C36 34.31 36 36.62 36 39 C35.34 39 34.68 39 34 39 C34 40.32 34 41.64 34 43 C33.34 43 32.68 43 32 43 C32 43.66 32 44.32 32 45 C31.34 45 30.68 45 30 45 C30 45.66 30 46.32 30 47 C29.34 47 28.68 47 28 47 C28 47.99 28 48.98 28 50 C27.34 50 26.68 50 26 50 C26 50.66 26 51.32 26 52 C24.35 52.66 22.7 53.32 21 54 C21 54.66 21 55.32 21 56 C19.68 56 18.36 56 17 56 C17 56.66 17 57.32 17 58 C16.34 58 15.68 58 15 58 C15 58.66 15 59.32 15 60 C12.69 60 10.38 60 8 60 C8 60.66 8 61.32 8 62 C6.68 62 5.36 62 4 62 C3.67 62.99 3.34 63.98 3 65 C1.865625 65.144375 0.73125 65.28875 -0.4375 65.4375 C-3.80777201 65.61171478 -3.80777201 65.61171478 -5 67 C-6.68608966 67.07205511 -8.37500659 67.08386068 -10.0625 67.0625 C-11.44115234 67.04896484 -11.44115234 67.04896484 -12.84765625 67.03515625 C-13.91306641 67.01775391 -13.91306641 67.01775391 -15 67 C-15 67.66 -15 68.32 -15 69 C-23.58 69 -32.16 69 -41 69 C-41 69.66 -41 70.32 -41 71 C-31.1 71 -21.2 71 -11 71 C-11 71.66 -11 72.32 -11 73 C-6.05 73 -1.1 73 4 73 C4 73.66 4 74.32 4 75 C6.64 75 9.28 75 12 75 C12.33 75.99 12.66 76.98 13 78 C14.98 78 16.96 78 19 78 C19 78.66 19 79.32 19 80 C20.32 80 21.64 80 23 80 C23 80.66 23 81.32 23 82 C24.65 82 26.3 82 28 82 C28 82.66 28 83.32 28 84 C28.66 84 29.32 84 30 84 C30 84.66 30 85.32 30 86 C31.32 86 32.64 86 34 86 C34 86.66 34 87.32 34 88 C34.66 88 35.32 88 36 88 C36 88.99 36 89.98 36 91 C36.99 91 37.98 91 39 91 C39 91.66 39 92.32 39 93 C39.66 93 40.32 93 41 93 C41 94.32 41 95.64 41 97 C41.66 97 42.32 97 43 97 C43 98.32 43 99.64 43 101 C43.66 101 44.32 101 45 101 C45 108.26 45 115.52 45 123 C44.34 123 43.68 123 43 123 C43 124.32 43 125.64 43 127 C42.34 127 41.68 127 41 127 C41 127.66 41 128.32 41 129 C40.34 129 39.68 129 39 129 C39 129.66 39 130.32 39 131 C37.35 131 35.7 131 34 131 C34 131.99 34 132.98 34 134 C33.34 134 32.68 134 32 134 C32 134.66 32 135.32 32 136 C24.41 136 16.82 136 9 136 C9 135.34 9 134.68 9 134 C7.35 133.67 5.7 133.34 4 133 C4 132.34 4 131.68 4 131 C3.34 131 2.68 131 2 131 C2 130.34 2 129.68 2 129 C0.68 129 -0.64 129 -2 129 C-2 128.34 -2 127.68 -2 127 C-2.66 127 -3.32 127 -4 127 C-4 126.34 -4 125.68 -4 125 C-5.65 124.34 -7.3 123.68 -9 123 C-9 122.34 -9 121.68 -9 121 C-9.66 121 -10.32 121 -11 121 C-11 120.01 -11 119.02 -11 118 C-11.66 118 -12.32 118 -13 118 C-13 116.68 -13 115.36 -13 114 C-13.66 114 -14.32 114 -15 114 C-15 113.34 -15 112.68 -15 112 C-15.66 112 -16.32 112 -17 112 C-17 111.34 -17 110.68 -17 110 C-17.66 110 -18.32 110 -19 110 C-19 109.34 -19 108.68 -19 108 C-19.99 108 -20.98 108 -22 108 C-22 107.34 -22 106.68 -22 106 C-22.66 106 -23.32 106 -24 106 C-24 105.01 -24 104.02 -24 103 C-25.32 103 -26.64 103 -28 103 C-28 102.34 -28 101.68 -28 101 C-28.66 101 -29.32 101 -30 101 C-30 100.34 -30 99.68 -30 99 C-30.66 99 -31.32 99 -32 99 C-32 98.34 -32 97.68 -32 97 C-32.99 97 -33.98 97 -35 97 C-35 96.34 -35 95.68 -35 95 C-36.32 95 -37.64 95 -39 95 C-39 94.34 -39 93.68 -39 93 C-39.66 93 -40.32 93 -41 93 C-41 92.34 -41 91.68 -41 91 C-42.32 90.67 -43.64 90.34 -45 90 C-45 89.34 -45 88.68 -45 88 C-45.66 88 -46.32 88 -47 88 C-47 87.34 -47 86.68 -47 86 C-48.65 86 -50.3 86 -52 86 C-52 85.34 -52 84.68 -52 84 C-53.32 84 -54.64 84 -56 84 C-56 83.34 -56 82.68 -56 82 C-57.32 82 -58.64 82 -60 82 C-60 81.34 -60 80.68 -60 80 C-61.175625 80.0928125 -61.175625 80.0928125 -62.375 80.1875 C-63.24125 80.125625 -64.1075 80.06375 -65 80 C-67 77 -67 77 -67 73 C-59.74 73 -52.48 73 -45 73 C-45 72.34 -45 71.68 -45 71 C-52.26 71 -59.52 71 -67 71 C-67 69.02 -67 67.04 -67 65 C-66.34 65 -65.68 65 -65 65 C-64.87625 63.824375 -64.87625 63.824375 -64.75 62.625 C-64 60 -64 60 -61.9375 58.6875 C-61.298125 58.460625 -60.65875 58.23375 -60 58 C-60 56.68 -60 55.36 -60 54 C-59.34 54 -58.68 54 -58 54 C-58 52.68 -58 51.36 -58 50 C-57.34 50 -56.68 50 -56 50 C-56 49.01 -56 48.02 -56 47 C-55.34 47 -54.68 47 -54 47 C-54 45.68 -54 44.36 -54 43 C-53.34 43 -52.68 43 -52 43 C-52 42.34 -52 41.68 -52 41 C-51.34 41 -50.68 41 -50 41 C-50 39.68 -50 38.36 -50 37 C-49.01 37 -48.02 37 -47 37 C-47 36.01 -47 35.02 -47 34 C-46.34 34 -45.68 34 -45 34 C-45 32.68 -45 31.36 -45 30 C-44.34 30 -43.68 30 -43 30 C-43 29.34 -43 28.68 -43 28 C-42.34 28 -41.68 28 -41 28 C-41 27.34 -41 26.68 -41 26 C-40.34 26 -39.68 26 -39 26 C-39 25.34 -39 24.68 -39 24 C-38.34 24 -37.68 24 -37 24 C-37 23.34 -37 22.68 -37 22 C-36.34 22 -35.68 22 -35 22 C-34.505 20.515 -34.505 20.515 -34 19 C-33.34 19 -32.68 19 -32 19 C-32 18.34 -32 17.68 -32 17 C-31.34 17 -30.68 17 -30 17 C-30 16.34 -30 15.68 -30 15 C-29.34 15 -28.68 15 -28 15 C-28 14.34 -28 13.68 -28 13 C-27.34 13 -26.68 13 -26 13 C-26 12.34 -26 11.68 -26 11 C-25.34 11 -24.68 11 -24 11 C-24 10.34 -24 9.68 -24 9 C-22.35 9 -20.7 9 -19 9 C-18.67 8.01 -18.34 7.02 -18 6 C-17.01 6 -16.02 6 -15 6 C-15 5.34 -15 4.68 -15 4 C-13.02 4 -11.04 4 -9 4 C-9 3.34 -9 2.68 -9 2 C-6.03 2 -3.06 2 0 2 C0 1.34 0 0.68 0 0 Z " fill="#0176C0" transform="translate(337,308)"/>
<path d="M0 0 C5.61 0 11.22 0 17 0 C17 2.64 17 5.28 17 8 C16.34 8 15.68 8 15 8 C15 9.98 15 11.96 15 14 C14.01 14.33 13.02 14.66 12 15 C12 16.98 12 18.96 12 21 C11.34 21 10.68 21 10 21 C10 22.65 10 24.3 10 26 C9.34 26 8.68 26 8 26 C8 27.98 8 29.96 8 32 C7.34 32 6.68 32 6 32 C6 34.31 6 36.62 6 39 C5.34 39 4.68 39 4 39 C4 40.98 4 42.96 4 45 C3.34 45 2.68 45 2 45 C2.061875 45.845625 2.12375 46.69125 2.1875 47.5625 C1.95984372 51.73619843 0.79792186 54.25432947 -1 58 C-1.66 58 -2.32 58 -3 58 C-2.95875 58.845625 -2.9175 59.69125 -2.875 60.5625 C-3.01535028 64.42213269 -3.82780164 67.33688013 -5 71 C-5.66 71 -6.32 71 -7 71 C-7 72.98 -7 74.96 -7 77 C-7.66 77 -8.32 77 -9 77 C-9 79.31 -9 81.62 -9 84 C-9.66 84 -10.32 84 -11 84 C-11 85.32 -11 86.64 -11 88 C-11.66 88 -12.32 88 -13 88 C-13 89.98 -13 91.96 -13 94 C-14.485 94.495 -14.485 94.495 -16 95 C-16 96.98 -16 98.96 -16 101 C-16.66 101 -17.32 101 -18 101 C-18 103.31 -18 105.62 -18 108 C-18.66 108 -19.32 108 -20 108 C-20 109.98 -20 111.96 -20 114 C-20.66 114 -21.32 114 -22 114 C-21.95875 114.886875 -21.9175 115.77375 -21.875 116.6875 C-21.99897246 119.97277013 -22.61387904 122.05449295 -24 125 C-24.66 125 -25.32 125 -26 125 C-26 126.32 -26 127.64 -26 129 C-26.66 129 -27.32 129 -28 129 C-28.33 130.65 -28.66 132.3 -29 134 C-29.66 134 -30.32 134 -31 134 C-31 135.32 -31 136.64 -31 138 C-31.66 138 -32.32 138 -33 138 C-33 138.66 -33 139.32 -33 140 C-33.66 140 -34.32 140 -35 140 C-35 140.66 -35 141.32 -35 142 C-35.66 142 -36.32 142 -37 142 C-37 142.66 -37 143.32 -37 144 C-37.66 144 -38.32 144 -39 144 C-39 144.66 -39 145.32 -39 146 C-40.65 146 -42.3 146 -44 146 C-44 146.99 -44 147.98 -44 149 C-45.98 149 -47.96 149 -50 149 C-50 149.66 -50 150.32 -50 151 C-56.93 151 -63.86 151 -71 151 C-71 150.34 -71 149.68 -71 149 C-72.98 149 -74.96 149 -77 149 C-77.33 148.01 -77.66 147.02 -78 146 C-78.66 146 -79.32 146 -80 146 C-80 145.34 -80 144.68 -80 144 C-80.66 144 -81.32 144 -82 144 C-82 142.68 -82 141.36 -82 140 C-82.66 140 -83.32 140 -84 140 C-84 138.02 -84 136.04 -84 134 C-82.02 134 -80.04 134 -78 134 C-78 134.66 -78 135.32 -78 136 C-72.39 136 -66.78 136 -61 136 C-61 135.34 -61 134.68 -61 134 C-60.34 134 -59.68 134 -59 134 C-58.67 133.01 -58.34 132.02 -58 131 C-57.34 131 -56.68 131 -56 131 C-56 130.34 -56 129.68 -56 129 C-55.34 129 -54.68 129 -54 129 C-54 127.02 -54 125.04 -54 123 C-53.34 123 -52.68 123 -52 123 C-52.04125 122.071875 -52.0825 121.14375 -52.125 120.1875 C-52 117 -52 117 -50 114 C-50.66 114 -51.32 114 -52 114 C-52 113.34 -52 112.68 -52 112 C-52.66 112 -53.32 112 -54 112 C-54 111.34 -54 110.68 -54 110 C-54.66 110 -55.32 110 -56 110 C-56 109.34 -56 108.68 -56 108 C-56.639375 107.731875 -57.27875 107.46375 -57.9375 107.1875 C-60 106 -60 106 -61 103 C-61.66 103 -62.32 103 -63 103 C-63 101.02 -63 99.04 -63 97 C-63.66 97 -64.32 97 -65 97 C-65 94.03 -65 91.06 -65 88 C-65.66 88 -66.32 88 -67 88 C-67 84.37 -67 80.74 -67 77 C-67.66 77 -68.32 77 -69 77 C-69 74.36 -69 71.72 -69 69 C-69.66 69 -70.32 69 -71 69 C-71 65.37 -71 61.74 -71 58 C-71.99 57.67 -72.98 57.34 -74 57 C-74 54.36 -74 51.72 -74 49 C-74.66 49 -75.32 49 -76 49 C-76 45.7 -76 42.4 -76 39 C-76.66 39 -77.32 39 -78 39 C-78 34.71 -78 30.42 -78 26 C-71.73 26 -65.46 26 -59 26 C-59 26.66 -59 27.32 -59 28 C-57.35 28 -55.7 28 -54 28 C-54 28.66 -54 29.32 -54 30 C-53.34 30 -52.68 30 -52 30 C-52 30.66 -52 31.32 -52 32 C-51.34 32 -50.68 32 -50 32 C-50 34.97 -50 37.94 -50 41 C-49.34 41 -48.68 41 -48 41 C-48 44.63 -48 48.26 -48 52 C-47.34 52 -46.68 52 -46 52 C-46 54.64 -46 57.28 -46 60 C-45.34 60 -44.68 60 -44 60 C-43.80083984 61.17369141 -43.80083984 61.17369141 -43.59765625 62.37109375 C-43.42105469 63.38300781 -43.24445312 64.39492188 -43.0625 65.4375 C-42.88847656 66.44683594 -42.71445312 67.45617187 -42.53515625 68.49609375 C-42.25248903 70.9287438 -42.25248903 70.9287438 -41 72 C-40.85884839 74.67058851 -40.95752893 77.32432238 -41 80 C-40.34 80 -39.68 80 -39 80 C-39 81.32 -39 82.64 -39 84 C-38.34 84 -37.68 84 -37 84 C-37 82.02 -37 80.04 -37 78 C-36.34 78 -35.68 78 -35 78 C-35 75.69 -35 73.38 -35 71 C-34.34 71 -33.68 71 -33 71 C-33 69.02 -33 67.04 -33 65 C-32.34 65 -31.68 65 -31 65 C-31 63.02 -31 61.04 -31 59 C-30.01 58.67 -29.02 58.34 -28 58 C-28 56.02 -28 54.04 -28 52 C-27.34 52 -26.68 52 -26 52 C-26 49.69 -26 47.38 -26 45 C-25.34 45 -24.68 45 -24 45 C-24 43.02 -24 41.04 -24 39 C-23.34 39 -22.68 39 -22 39 C-22 36.69 -22 34.38 -22 32 C-21.34 32 -20.68 32 -20 32 C-20 30.02 -20 28.04 -20 26 C-19.34 26 -18.68 26 -18 26 C-18.061875 25.113125 -18.12375 24.22625 -18.1875 23.3125 C-17.97935526 19.63527631 -17.21793417 17.90037545 -15 15 C-14.34 15 -13.68 15 -13 15 C-13 13.68 -13 12.36 -13 11 C-12.34 11 -11.68 11 -11 11 C-11 9.35 -11 7.7 -11 6 C-10.34 6 -9.68 6 -9 6 C-9 5.34 -9 4.68 -9 4 C-8.34 4 -7.68 4 -7 4 C-7 3.34 -7 2.68 -7 2 C-4.69 2 -2.38 2 0 2 C0 1.34 0 0.68 0 0 Z " fill="#16469D" transform="translate(774,293)"/>
<path d="M0 0 C2.97 0 5.94 0 9 0 C9 0.66 9 1.32 9 2 C10.32 2 11.64 2 13 2 C13 2.66 13 3.32 13 4 C14.32 4 15.64 4 17 4 C17 4.66 17 5.32 17 6 C17.66 6 18.32 6 19 6 C19 6.66 19 7.32 19 8 C19.99 8 20.98 8 22 8 C22 8.66 22 9.32 22 10 C22.66 10 23.32 10 24 10 C24 10.99 24 11.98 24 13 C24.66 13 25.32 13 26 13 C26 20.59 26 28.18 26 36 C26.66 36 27.32 36 28 36 C28 35.34 28 34.68 28 34 C28.66 34 29.32 34 30 34 C30 33.34 30 32.68 30 32 C32.31 32 34.62 32 37 32 C37 31.34 37 30.68 37 30 C43.27 30 49.54 30 56 30 C56 30.66 56 31.32 56 32 C57.98 32 59.96 32 62 32 C62 32.66 62 33.32 62 34 C62.99 34 63.98 34 65 34 C65 34.66 65 35.32 65 36 C66.32 36 67.64 36 69 36 C71 39 71 39 71 43 C71.66 43 72.32 43 73 43 C73 44.32 73 45.64 73 47 C73.66 47 74.32 47 75 47 C75 66.14 75 85.28 75 105 C75.66 105 76.32 105 77 105 C77 110.61 77 116.22 77 122 C72.05 122 67.1 122 62 122 C62 121.34 62 120.68 62 120 C60.68 120 59.36 120 58 120 C58 119.34 58 118.68 58 118 C57.34 118 56.68 118 56 118 C56 117.34 56 116.68 56 116 C55.34 116 54.68 116 54 116 C54 115.34 54 114.68 54 114 C53.34 114 52.68 114 52 114 C52 111.69 52 109.38 52 107 C51.34 107 50.68 107 50 107 C50 90.83 50 74.66 50 58 C49.01 57.67 48.02 57.34 47 57 C47 55.68 47 54.36 47 53 C46.34 53 45.68 53 45 53 C45 52.34 45 51.68 45 51 C40.71 51 36.42 51 32 51 C32 51.66 32 52.32 32 53 C31.34 53 30.68 53 30 53 C30 54.65 30 56.3 30 58 C29.34 58 28.68 58 28 58 C28 60.64 28 63.28 28 66 C27.34 66 26.68 66 26 66 C26 84.48 26 102.96 26 122 C17.42 122 8.84 122 0 122 C0 81.74 0 41.48 0 0 Z " fill="#16469D" transform="translate(539,289)"/>
<path d="M0 0 C6.93 0 13.86 0 21 0 C21 0.66 21 1.32 21 2 C22.82337891 1.98259766 22.82337891 1.98259766 24.68359375 1.96484375 C26.26822764 1.95546722 27.85286318 1.94636687 29.4375 1.9375 C30.23994141 1.92912109 31.04238281 1.92074219 31.86914062 1.91210938 C33.91295221 1.9034857 35.95683902 1.9477185 38 2 C40.06031908 4.06031908 39.18561293 8.44587165 39.20532227 11.28344727 C39.21522186 12.15166107 39.22512146 13.01987488 39.23532104 13.91439819 C39.26703368 16.79837267 39.29173188 19.68236365 39.31640625 22.56640625 C39.33696736 24.56038351 39.3579636 26.55435632 39.37937927 28.54832458 C39.43468707 33.80740776 39.4840578 39.06653083 39.53222656 44.32568359 C39.58237818 49.68786182 39.63809726 55.04998181 39.69335938 60.41210938 C39.80104738 70.94135655 39.90246856 81.4706542 40 92 C35.38 92 30.76 92 26 92 C26 91.34 26 90.68 26 90 C24.35 90 22.7 90 21 90 C21 89.34 21 88.68 21 88 C20.34 88 19.68 88 19 88 C19 87.34 19 86.68 19 86 C18.34 86 17.68 86 17 86 C17 84.68 17 83.36 17 82 C16.34 82 15.68 82 15 82 C15 82.66 15 83.32 15 84 C14.34 84 13.68 84 13 84 C13 85.32 13 86.64 13 88 C12.34 88 11.68 88 11 88 C11 88.66 11 89.32 11 90 C10.01 90 9.02 90 8 90 C8 90.66 8 91.32 8 92 C6.68 92 5.36 92 4 92 C3.505 93.485 3.505 93.485 3 95 C-3.27 95 -9.54 95 -16 95 C-16.33 94.01 -16.66 93.02 -17 92 C-18.65 92 -20.3 92 -22 92 C-22 91.34 -22 90.68 -22 90 C-22.66 90 -23.32 90 -24 90 C-24 89.34 -24 88.68 -24 88 C-24.66 88 -25.32 88 -26 88 C-26 87.34 -26 86.68 -26 86 C-26.66 86 -27.32 86 -28 86 C-28 85.34 -28 84.68 -28 84 C-28.66 84 -29.32 84 -30 84 C-31.49821059 80.62902617 -32 78.79557881 -32 75 C-32.99 75 -33.98 75 -35 75 C-37.18412519 68.20361541 -37.33812442 61.81606667 -37.31567383 54.72167969 C-37.31251792 52.6368354 -37.33600726 50.55341914 -37.36132812 48.46875 C-37.39482765 41.06104322 -36.88871209 34.87498232 -34 28 C-33.34 28 -32.68 28 -32 28 C-32 26.68 -32 25.36 -32 24 C-31.34 24 -30.68 24 -30 24 C-30 22.35 -30 20.7 -30 19 C-29.34 19 -28.68 19 -28 19 C-28 18.34 -28 17.68 -28 17 C-27.34 17 -26.68 17 -26 17 C-26 15.68 -26 14.36 -26 13 C-25.34 13 -24.68 13 -24 13 C-24 12.34 -24 11.68 -24 11 C-22.68 11 -21.36 11 -20 11 C-19.67 10.01 -19.34 9.02 -19 8 C-18.34 8 -17.68 8 -17 8 C-17 7.34 -17 6.68 -17 6 C-15.68 6 -14.36 6 -13 6 C-13 5.34 -13 4.68 -13 4 C-11.68 4 -10.36 4 -9 4 C-9 3.34 -9 2.68 -9 2 C-6.03 2 -3.06 2 0 2 C0 1.34 0 0.68 0 0 Z M6 19 C6 19.66 6 20.32 6 21 C4.02 21 2.04 21 0 21 C0 21.66 0 22.32 0 23 C-0.66 23 -1.32 23 -2 23 C-4.70817728 25.20802268 -4.70817728 25.20802268 -7 28 C-7 29.32 -7 30.64 -7 32 C-7.66 32 -8.32 32 -9 32 C-9 34.97 -9 37.94 -9 41 C-9.66 41 -10.32 41 -11 41 C-11 47.27 -11 53.54 -11 60 C-10.34 60 -9.68 60 -9 60 C-9 62.31 -9 64.62 -9 67 C-8.34 67 -7.68 67 -7 67 C-7 68.32 -7 69.64 -7 71 C-6.01 71 -5.02 71 -4 71 C-4 71.66 -4 72.32 -4 73 C-2.02 73 -0.04 73 2 73 C2 72.34 2 71.68 2 71 C3.32 71 4.64 71 6 71 C6 69.68 6 68.36 6 67 C6.66 67 7.32 67 8 67 C10.07251729 65.42267357 10.90847519 64.52493505 11.36076355 61.93086243 C11.35410172 61.1381041 11.34743988 60.34534576 11.34057617 59.52856445 C11.34034958 58.62785721 11.34012299 57.72714996 11.33988953 56.79914856 C11.32440567 55.83031235 11.30892181 54.86147614 11.29296875 53.86328125 C11.28660149 52.37141548 11.28660149 52.37141548 11.28010559 50.84941101 C11.26330153 47.67016625 11.22564576 44.49155344 11.1875 41.3125 C11.17245541 39.15821227 11.15876662 37.00391462 11.14648438 34.84960938 C11.11339244 29.56619033 11.06317592 24.28314031 11 19 C9.35 19 7.7 19 6 19 Z " fill="#16469D" transform="translate(892,319)"/>
<path d="M0 0 C6.6 0 13.2 0 20 0 C20 0.66 20 1.32 20 2 C25.61 2 31.22 2 37 2 C37 26.09 37 50.18 37 75 C37.66 75 38.32 75 39 75 C39 79.29 39 83.58 39 88 C39.66 88 40.32 88 41 88 C41 89.32 41 90.64 41 92 C35.39 92 29.78 92 24 92 C24 91.34 24 90.68 24 90 C22.68 90 21.36 90 20 90 C20 89.34 20 88.68 20 88 C19.34 88 18.68 88 18 88 C18 87.34 18 86.68 18 86 C17.01 85.67 16.02 85.34 15 85 C15 84.01 15 83.02 15 82 C14.34 82 13.68 82 13 82 C13 83.32 13 84.64 13 86 C12.34 86 11.68 86 11 86 C11 86.66 11 87.32 11 88 C10.34 88 9.68 88 9 88 C9 88.66 9 89.32 9 90 C8.34 90 7.68 90 7 90 C7 90.66 7 91.32 7 92 C5.35 92 3.7 92 2 92 C1.505 93.485 1.505 93.485 1 95 C-4.94 95 -10.88 95 -17 95 C-17 94.01 -17 93.02 -17 92 C-18.32 92 -19.64 92 -21 92 C-21 91.34 -21 90.68 -21 90 C-22.32 90 -23.64 90 -25 90 C-25 89.34 -25 88.68 -25 88 C-25.99 88 -26.98 88 -28 88 C-28 87.34 -28 86.68 -28 86 C-28.66 86 -29.32 86 -30 86 C-32 83 -32 83 -32 79 C-32.66 79 -33.32 79 -34 79 C-34 77.68 -34 76.36 -34 75 C-34.66 75 -35.32 75 -36 75 C-36.22786458 72.94921875 -36.45572917 70.8984375 -36.68359375 68.84765625 C-36.81886614 66.98859771 -36.81886614 66.98859771 -38 66 C-38.08758003 64.00035018 -38.10696576 61.9976389 -38.09765625 59.99609375 C-38.09443359 58.78115234 -38.09121094 57.56621094 -38.08789062 56.31445312 C-38.07951172 55.03505859 -38.07113281 53.75566406 -38.0625 52.4375 C-38.05798828 51.15423828 -38.05347656 49.87097656 -38.04882812 48.54882812 C-38.03699545 45.36583978 -38.02051068 42.18294238 -38 39 C-37.34 39 -36.68 39 -36 39 C-36 36.03 -36 33.06 -36 30 C-35.34 30 -34.68 30 -34 30 C-34 28.68 -34 27.36 -34 26 C-33.34 26 -32.68 26 -32 26 C-32 24.35 -32 22.7 -32 21 C-31.34 21 -30.68 21 -30 21 C-30 19.68 -30 18.36 -30 17 C-29.34 17 -28.68 17 -28 17 C-28 16.34 -28 15.68 -28 15 C-27.01 15 -26.02 15 -25 15 C-25 14.34 -25 13.68 -25 13 C-24.34 13 -23.68 13 -23 13 C-23 12.34 -23 11.68 -23 11 C-22.34 11 -21.68 11 -21 11 C-21 10.01 -21 9.02 -21 8 C-20.34 8 -19.68 8 -19 8 C-19 7.34 -19 6.68 -19 6 C-17.68 6 -16.36 6 -15 6 C-15 5.34 -15 4.68 -15 4 C-13.35 4 -11.7 4 -10 4 C-10 3.34 -10 2.68 -10 2 C-6.7 2 -3.4 2 0 2 C0 1.34 0 0.68 0 0 Z M0 21 C0 21.66 0 22.32 0 23 C-1.32 23 -2.64 23 -4 23 C-4 23.99 -4 24.98 -4 26 C-4.66 26 -5.32 26 -6 26 C-6 27.32 -6 28.64 -6 30 C-6.66 30 -7.32 30 -8 30 C-8 31.32 -8 32.64 -8 34 C-8.66 34 -9.32 34 -10 34 C-10.04898438 34.71027344 -10.09796875 35.42054688 -10.1484375 36.15234375 C-10.22320313 37.07144531 -10.29796875 37.99054688 -10.375 38.9375 C-10.47941406 40.31228516 -10.47941406 40.31228516 -10.5859375 41.71484375 C-10.72257813 42.46894531 -10.85921875 43.22304688 -11 44 C-11.66 44.33 -12.32 44.66 -13 45 C-13 49.29 -13 53.58 -13 58 C-12.34 58.33 -11.68 58.66 -11 59 C-10.40644386 61.64860427 -10.25790731 64.29197322 -10 67 C-9.34 67 -8.68 67 -8 67 C-8 68.32 -8 69.64 -8 71 C-7.34 71 -6.68 71 -6 71 C-6 71.66 -6 72.32 -6 73 C-3.03 73 -0.06 73 3 73 C3 72.34 3 71.68 3 71 C3.66 71 4.32 71 5 71 C5 70.34 5 69.68 5 69 C5.66 69 6.32 69 7 69 C8.80230168 65.17010894 9.19622241 62.21878192 9 58 C9.66 58 10.32 58 11 58 C11 45.79 11 33.58 11 21 C10.34 21 9.68 21 9 21 C9 20.34 9 19.68 9 19 C5.20442119 19 3.37097383 19.50178941 0 21 Z " fill="#16469D" transform="translate(657,319)"/>
<path d="M0 0 C6.27 0 12.54 0 19 0 C19 20.46 19 40.92 19 62 C19.66 62 20.32 62 21 62 C21 63.65 21 65.3 21 67 C21.66 67 22.32 67 23 67 C23 68.32 23 69.64 23 71 C23.66 71 24.32 71 25 71 C25 71.66 25 72.32 25 73 C27.97 73 30.94 73 34 73 C34 72.34 34 71.68 34 71 C34.66 71 35.32 71 36 71 C36 70.34 36 69.68 36 69 C36.66 69 37.32 69 38 69 C38.185625 68.01 38.185625 68.01 38.375 67 C39.14520538 63.30301417 40.06950663 59.65994058 41 56 C41.66 56 42.32 56 43 56 C43 38.84 43 21.68 43 4 C43.66 4 44.32 4 45 4 C45 3.34 45 2.68 45 2 C46.32 2 47.64 2 49 2 C49 1.34 49 0.68 49 0 C55.27 0 61.54 0 68 0 C68 27.06 68 54.12 68 82 C68.99 82 69.98 82 71 82 C71 85.3 71 88.6 71 92 C66.05 92 61.1 92 56 92 C56 91.34 56 90.68 56 90 C54.35 90 52.7 90 51 90 C51 89.34 51 88.68 51 88 C50.34 88 49.68 88 49 88 C49 87.34 49 86.68 49 86 C48.34 86 47.68 86 47 86 C47 84.68 47 83.36 47 82 C46.34 82 45.68 82 45 82 C45 82.66 45 83.32 45 84 C44.34 84 43.68 84 43 84 C43 84.66 43 85.32 43 86 C42.01 86 41.02 86 40 86 C40 86.66 40 87.32 40 88 C39.34 88 38.68 88 38 88 C38 88.66 38 89.32 38 90 C36.68 90 35.36 90 34 90 C34 90.66 34 91.32 34 92 C32.68 92 31.36 92 30 92 C30 92.66 30 93.32 30 94 C26.93466836 95.53266582 23.73245728 95.10276471 20.375 95.0625 C19.66859375 95.05798828 18.9621875 95.05347656 18.234375 95.04882812 C16.48954725 95.03703875 14.744763 95.01910324 13 95 C13 94.01 13 93.02 13 92 C11.35 92 9.7 92 8 92 C8 91.34 8 90.68 8 90 C6.68 90 5.36 90 4 90 C4 89.34 4 88.68 4 88 C3.34 88 2.68 88 2 88 C2 87.34 2 86.68 2 86 C1.34 86 0.68 86 0 86 C0 84.68 0 83.36 0 82 C-0.99 81.67 -1.98 81.34 -3 81 C-3 79.68 -3 78.36 -3 77 C-3.66 77 -4.32 77 -5 77 C-6.53617035 72.21346668 -7.24653166 68.22149862 -7.22705078 63.14672852 C-7.22734283 62.50197067 -7.22763489 61.85721283 -7.22793579 61.19291687 C-7.22655626 59.08810374 -7.21106128 56.98365658 -7.1953125 54.87890625 C-7.19157745 53.40917657 -7.1887328 51.93944438 -7.18673706 50.4697113 C-7.1791393 46.62115477 -7.15952447 42.77275171 -7.1373291 38.92425537 C-7.11678708 34.98923823 -7.10771755 31.05419605 -7.09765625 27.11914062 C-7.0762745 19.41269082 -7.04218578 11.706367 -7 4 C-6.34 4 -5.68 4 -5 4 C-5 3.34 -5 2.68 -5 2 C-3.35 2 -1.7 2 0 2 C0 1.34 0 0.68 0 0 Z " fill="#16469D" transform="translate(462,319)"/>
<path d="M0 0 C2.64 0 5.28 0 8 0 C8 0.66 8 1.32 8 2 C8.66 2 9.32 2 10 2 C10 2.66 10 3.32 10 4 C10.66 4 11.32 4 12 4 C12.33 4.66 12.66 5.32 13 6 C13.66 6 14.32 6 15 6 C15 5.34 15 4.68 15 4 C16.32 4 17.64 4 19 4 C19 3.34 19 2.68 19 2 C20.32 2 21.64 2 23 2 C23 1.34 23 0.68 23 0 C29.6 0 36.2 0 43 0 C43 0.66 43 1.32 43 2 C44.98 2 46.96 2 49 2 C49 2.66 49 3.32 49 4 C49.66 4 50.32 4 51 4 C51 4.66 51 5.32 51 6 C52.32 6 53.64 6 55 6 C55.495 8.475 55.495 8.475 56 11 C56.66 11 57.32 11 58 11 C58 11.66 58 12.32 58 13 C58.66 13 59.32 13 60 13 C60 14.98 60 16.96 60 19 C60.66 19 61.32 19 62 19 C62 39.13 62 59.26 62 80 C62.66 80 63.32 80 64 80 C64 83.96 64 87.92 64 92 C59.71 92 55.42 92 51 92 C51 91.34 51 90.68 51 90 C49.68 90 48.36 90 47 90 C47 89.34 47 88.68 47 88 C45.68 88 44.36 88 43 88 C43 87.34 43 86.68 43 86 C42.34 86 41.68 86 41 86 C40.67 84.68 40.34 83.36 40 82 C39.34 82 38.68 82 38 82 C38 80.35 38 78.7 38 77 C37.34 77 36.68 77 36 77 C36 67.76 36 58.52 36 49 C35.34 49 34.68 49 34 49 C34 41.41 34 33.82 34 26 C33.34 26 32.68 26 32 26 C32 25.01 32 24.02 32 23 C31.34 23 30.68 23 30 23 C30 22.34 30 21.68 30 21 C26.37 21 22.74 21 19 21 C19 21.66 19 22.32 19 23 C18.34 23 17.68 23 17 23 C17 23.99 17 24.98 17 26 C16.34 26 15.68 26 15 26 C15 27.98 15 29.96 15 32 C14.01 32 13.02 32 12 32 C12 51.8 12 71.6 12 92 C3.75 92 -4.5 92 -13 92 C-13 72.2 -13 52.4 -13 32 C-12.34 32 -11.68 32 -11 32 C-11 30.68 -11 29.36 -11 28 C-10.34 28 -9.68 28 -9 28 C-9 25.69 -9 23.38 -9 21 C-8.34 21 -7.68 21 -7 21 C-7 19.02 -7 17.04 -7 15 C-6.34 15 -5.68 15 -5 15 C-5.061875 14.154375 -5.12375 13.30875 -5.1875 12.4375 C-4.95984372 8.26380157 -3.79792186 5.74567053 -2 2 C-1.34 2 -0.68 2 0 2 C0 1.34 0 0.68 0 0 Z " fill="#16469D" transform="translate(789,319)"/>
<path d="M0 0 C2.31 0 4.62 0 7 0 C7.02333692 17.04573514 7.04098308 34.09146531 7.05181217 51.13721275 C7.05697344 59.05144153 7.06401293 66.9656604 7.07543945 74.87988281 C7.08539145 81.77609057 7.09185466 88.67229115 7.09408849 95.56850588 C7.09539472 99.22163762 7.09847505 102.87474882 7.10573006 106.52787399 C7.11375414 110.60111155 7.1139908 114.67431316 7.11352539 118.74755859 C7.11712067 119.96531479 7.12071594 121.18307098 7.12442017 122.43772888 C7.1230455 123.54273239 7.12167084 124.6477359 7.12025452 125.78622437 C7.12117631 126.75041983 7.1220981 127.71461529 7.12304783 128.70802879 C7 131 7 131 6 133 C5.34 133 4.68 133 4 133 C4 135.31 4 137.62 4 140 C3.34 140 2.68 140 2 140 C2 141.32 2 142.64 2 144 C1.34 144 0.68 144 0 144 C0 144.66 0 145.32 0 146 C-0.66 146 -1.32 146 -2 146 C-2 146.66 -2 147.32 -2 148 C-2.66 148 -3.32 148 -4 148 C-4 148.66 -4 149.32 -4 150 C-5.65 150 -7.3 150 -9 150 C-9 150.99 -9 151.98 -9 153 C-10.98 153 -12.96 153 -15 153 C-15 153.66 -15 154.32 -15 155 C-21.93 155 -28.86 155 -36 155 C-36 154.34 -36 153.68 -36 153 C-38.97 153 -41.94 153 -45 153 C-45 152.01 -45 151.02 -45 150 C-46.32 150 -47.64 150 -49 150 C-49 148.68 -49 147.36 -49 146 C-49.66 146 -50.32 146 -51 146 C-52.125 140.25 -52.125 140.25 -51 138 C-47.7 138 -44.4 138 -41 138 C-41 138.66 -41 139.32 -41 140 C-37.37 140 -33.74 140 -30 140 C-30 139.34 -30 138.68 -30 138 C-28.68 138 -27.36 138 -26 138 C-25.731875 137.360625 -25.46375 136.72125 -25.1875 136.0625 C-24 134 -24 134 -21 133 C-21 130.36 -21 127.72 -21 125 C-20.34 125 -19.68 125 -19 125 C-19 90.02 -19 55.04 -19 19 C-18.34 19 -17.68 19 -17 19 C-17 17.68 -17 16.36 -17 15 C-16.34 15 -15.68 15 -15 15 C-14.855625 14.21625 -14.71125 13.4325 -14.5625 12.625 C-14 10 -14 10 -13 8 C-12.34 8 -11.68 8 -11 8 C-11 7.34 -11 6.68 -11 6 C-10.01 6 -9.02 6 -8 6 C-8 5.34 -8 4.68 -8 4 C-6.68 4 -5.36 4 -4 4 C-4 3.34 -4 2.68 -4 2 C-2.68 2 -1.36 2 0 2 C0 1.34 0 0.68 0 0 Z " fill="#16469D" transform="translate(440,289)"/>
<path d="M0 0 C1.39120471 0.00015906 2.78241534 0.00585033 4.17358398 0.01586914 C4.90463852 0.01728409 5.63569305 0.01869904 6.38890076 0.02015686 C8.73253406 0.02577131 11.07607313 0.03832617 13.41967773 0.05102539 C15.00496282 0.05603853 16.59024939 0.06060176 18.17553711 0.06469727 C22.06945383 0.07574542 25.96329979 0.09301967 29.85717773 0.11352539 C29.85717773 0.77352539 29.85717773 1.43352539 29.85717773 2.11352539 C34.80717773 2.11352539 39.75717773 2.11352539 44.85717773 2.11352539 C44.85717773 2.77352539 44.85717773 3.43352539 44.85717773 4.11352539 C47.49717773 4.11352539 50.13717773 4.11352539 52.85717773 4.11352539 C53.35217773 5.59852539 53.35217773 5.59852539 53.85717773 7.11352539 C55.83717773 7.11352539 57.81717773 7.11352539 59.85717773 7.11352539 C59.85717773 7.77352539 59.85717773 8.43352539 59.85717773 9.11352539 C61.17717773 9.11352539 62.49717773 9.11352539 63.85717773 9.11352539 C63.85717773 9.77352539 63.85717773 10.43352539 63.85717773 11.11352539 C65.50717773 11.11352539 67.15717773 11.11352539 68.85717773 11.11352539 C68.85717773 11.77352539 68.85717773 12.43352539 68.85717773 13.11352539 C69.51717773 13.11352539 70.17717773 13.11352539 70.85717773 13.11352539 C70.85717773 13.77352539 70.85717773 14.43352539 70.85717773 15.11352539 C72.17717773 15.11352539 73.49717773 15.11352539 74.85717773 15.11352539 C74.85717773 15.77352539 74.85717773 16.43352539 74.85717773 17.11352539 C75.51717773 17.11352539 76.17717773 17.11352539 76.85717773 17.11352539 C76.85717773 18.10352539 76.85717773 19.09352539 76.85717773 20.11352539 C77.84717773 20.11352539 78.83717773 20.11352539 79.85717773 20.11352539 C79.85717773 20.77352539 79.85717773 21.43352539 79.85717773 22.11352539 C80.51717773 22.11352539 81.17717773 22.11352539 81.85717773 22.11352539 C81.85717773 23.43352539 81.85717773 24.75352539 81.85717773 26.11352539 C82.51717773 26.11352539 83.17717773 26.11352539 83.85717773 26.11352539 C83.85717773 27.43352539 83.85717773 28.75352539 83.85717773 30.11352539 C84.51717773 30.11352539 85.17717773 30.11352539 85.85717773 30.11352539 C85.85717773 37.37352539 85.85717773 44.63352539 85.85717773 52.11352539 C85.19717773 52.11352539 84.53717773 52.11352539 83.85717773 52.11352539 C83.85717773 53.43352539 83.85717773 54.75352539 83.85717773 56.11352539 C83.19717773 56.11352539 82.53717773 56.11352539 81.85717773 56.11352539 C81.85717773 56.77352539 81.85717773 57.43352539 81.85717773 58.11352539 C81.19717773 58.11352539 80.53717773 58.11352539 79.85717773 58.11352539 C79.85717773 58.77352539 79.85717773 59.43352539 79.85717773 60.11352539 C78.20717773 60.11352539 76.55717773 60.11352539 74.85717773 60.11352539 C74.85717773 61.10352539 74.85717773 62.09352539 74.85717773 63.11352539 C74.19717773 63.11352539 73.53717773 63.11352539 72.85717773 63.11352539 C72.85717773 63.77352539 72.85717773 64.43352539 72.85717773 65.11352539 C65.26717773 65.11352539 57.67717773 65.11352539 49.85717773 65.11352539 C49.85717773 64.45352539 49.85717773 63.79352539 49.85717773 63.11352539 C48.20717773 62.78352539 46.55717773 62.45352539 44.85717773 62.11352539 C44.85717773 61.45352539 44.85717773 60.79352539 44.85717773 60.11352539 C44.19717773 60.11352539 43.53717773 60.11352539 42.85717773 60.11352539 C42.85717773 59.45352539 42.85717773 58.79352539 42.85717773 58.11352539 C41.53717773 58.11352539 40.21717773 58.11352539 38.85717773 58.11352539 C38.85717773 57.45352539 38.85717773 56.79352539 38.85717773 56.11352539 C38.19717773 56.11352539 37.53717773 56.11352539 36.85717773 56.11352539 C36.85717773 55.45352539 36.85717773 54.79352539 36.85717773 54.11352539 C35.20717773 53.45352539 33.55717773 52.79352539 31.85717773 52.11352539 C31.85717773 51.45352539 31.85717773 50.79352539 31.85717773 50.11352539 C31.19717773 50.11352539 30.53717773 50.11352539 29.85717773 50.11352539 C29.85717773 49.12352539 29.85717773 48.13352539 29.85717773 47.11352539 C29.19717773 47.11352539 28.53717773 47.11352539 27.85717773 47.11352539 C27.85717773 45.79352539 27.85717773 44.47352539 27.85717773 43.11352539 C27.19717773 43.11352539 26.53717773 43.11352539 25.85717773 43.11352539 C25.85717773 42.45352539 25.85717773 41.79352539 25.85717773 41.11352539 C25.19717773 41.11352539 24.53717773 41.11352539 23.85717773 41.11352539 C23.85717773 40.45352539 23.85717773 39.79352539 23.85717773 39.11352539 C23.19717773 39.11352539 22.53717773 39.11352539 21.85717773 39.11352539 C21.85717773 38.45352539 21.85717773 37.79352539 21.85717773 37.11352539 C20.86717773 37.11352539 19.87717773 37.11352539 18.85717773 37.11352539 C18.85717773 36.45352539 18.85717773 35.79352539 18.85717773 35.11352539 C18.19717773 35.11352539 17.53717773 35.11352539 16.85717773 35.11352539 C16.85717773 34.12352539 16.85717773 33.13352539 16.85717773 32.11352539 C15.53717773 32.11352539 14.21717773 32.11352539 12.85717773 32.11352539 C12.85717773 31.45352539 12.85717773 30.79352539 12.85717773 30.11352539 C12.19717773 30.11352539 11.53717773 30.11352539 10.85717773 30.11352539 C10.85717773 29.45352539 10.85717773 28.79352539 10.85717773 28.11352539 C10.19717773 28.11352539 9.53717773 28.11352539 8.85717773 28.11352539 C8.85717773 27.45352539 8.85717773 26.79352539 8.85717773 26.11352539 C7.86717773 26.11352539 6.87717773 26.11352539 5.85717773 26.11352539 C5.85717773 25.45352539 5.85717773 24.79352539 5.85717773 24.11352539 C4.53717773 24.11352539 3.21717773 24.11352539 1.85717773 24.11352539 C1.85717773 23.45352539 1.85717773 22.79352539 1.85717773 22.11352539 C1.19717773 22.11352539 0.53717773 22.11352539 -0.14282227 22.11352539 C-0.14282227 21.45352539 -0.14282227 20.79352539 -0.14282227 20.11352539 C-1.46282227 19.78352539 -2.78282227 19.45352539 -4.14282227 19.11352539 C-4.14282227 18.45352539 -4.14282227 17.79352539 -4.14282227 17.11352539 C-4.80282227 17.11352539 -5.46282227 17.11352539 -6.14282227 17.11352539 C-6.14282227 16.45352539 -6.14282227 15.79352539 -6.14282227 15.11352539 C-7.79282227 15.11352539 -9.44282227 15.11352539 -11.14282227 15.11352539 C-11.14282227 14.45352539 -11.14282227 13.79352539 -11.14282227 13.11352539 C-12.46282227 13.11352539 -13.78282227 13.11352539 -15.14282227 13.11352539 C-15.14282227 12.45352539 -15.14282227 11.79352539 -15.14282227 11.11352539 C-16.46282227 11.11352539 -17.78282227 11.11352539 -19.14282227 11.11352539 C-19.14282227 10.45352539 -19.14282227 9.79352539 -19.14282227 9.11352539 C-20.31844727 9.20633789 -20.31844727 9.20633789 -21.51782227 9.30102539 C-22.81719727 9.20821289 -22.81719727 9.20821289 -24.14282227 9.11352539 C-26.14282227 6.11352539 -26.14282227 6.11352539 -26.14282227 2.11352539 C-25.15100952 2.07594116 -25.15100952 2.07594116 -24.13916016 2.03759766 C-21.16099922 1.92199437 -18.18318307 1.79910785 -15.20532227 1.67602539 C-13.64394531 1.61705078 -13.64394531 1.61705078 -12.05102539 1.55688477 C-10.56699219 1.49404297 -10.56699219 1.49404297 -9.05297852 1.42993164 C-7.67831421 1.37494507 -7.67831421 1.37494507 -6.27587891 1.31884766 C-3.29292308 1.03171639 -3.35662103 0.12124825 0 0 Z " fill="#018AD0" transform="translate(296.142822265625,378.886474609375)"/>
<path d="M0 0 C4.39656173 -0.02465504 8.7930872 -0.04283842 13.18969727 -0.05493164 C14.68644918 -0.05997121 16.18319616 -0.06680287 17.67993164 -0.07543945 C19.82699807 -0.08752159 21.97399962 -0.09323191 24.12109375 -0.09765625 C26.06133423 -0.10551147 26.06133423 -0.10551147 28.04077148 -0.11352539 C31 0 31 0 32 1 C33.70563778 1.15740605 35.41727244 1.25093392 37.12890625 1.31640625 C38.68061523 1.37924805 38.68061523 1.37924805 40.26367188 1.44335938 C41.35228516 1.48267578 42.44089844 1.52199219 43.5625 1.5625 C44.65498047 1.60568359 45.74746094 1.64886719 46.87304688 1.69335938 C49.58189564 1.79982068 52.29083992 1.90183516 55 2 C55 3.65 55 5.3 55 7 C54.34 7 53.68 7 53 7 C53 7.66 53 8.32 53 9 C51.68 9 50.36 9 49 9 C49 9.66 49 10.32 49 11 C47.68 11 46.36 11 45 11 C45 11.66 45 12.32 45 13 C43.35 13 41.7 13 40 13 C40 13.66 40 14.32 40 15 C38.68 15 37.36 15 36 15 C36 15.66 36 16.32 36 17 C35.34 17 34.68 17 34 17 C34 17.66 34 18.32 34 19 C29.61538462 22 29.61538462 22 27 22 C27 22.66 27 23.32 27 24 C25.68 24 24.36 24 23 24 C23 24.66 23 25.32 23 26 C22.34 26 21.68 26 21 26 C21 26.66 21 27.32 21 28 C20.34 28 19.68 28 19 28 C19 28.66 19 29.32 19 30 C18.34 30 17.68 30 17 30 C17 30.66 17 31.32 17 32 C15.35 32 13.7 32 12 32 C12 32.99 12 33.98 12 35 C11.34 35 10.68 35 10 35 C10 35.66 10 36.32 10 37 C9.34 37 8.68 37 8 37 C8 37.66 8 38.32 8 39 C7.34 39 6.68 39 6 39 C6 39.66 6 40.32 6 41 C5.34 41 4.68 41 4 41 C4 41.66 4 42.32 4 43 C3.34 43 2.68 43 2 43 C2 43.66 2 44.32 2 45 C1.01 45 0.02 45 -1 45 C-1 46.65 -1 48.3 -1 50 C-1.66 50 -2.32 50 -3 50 C-3 50.66 -3 51.32 -3 52 C-3.66 52 -4.32 52 -5 52 C-5 52.66 -5 53.32 -5 54 C-5.66 54 -6.32 54 -7 54 C-7 54.66 -7 55.32 -7 56 C-7.66 56 -8.32 56 -9 56 C-9 56.66 -9 57.32 -9 58 C-10.32 58 -11.64 58 -13 58 C-13 58.66 -13 59.32 -13 60 C-13.99 60 -14.98 60 -16 60 C-16.33 60.99 -16.66 61.98 -17 63 C-17.99 63 -18.98 63 -20 63 C-20 63.66 -20 64.32 -20 65 C-27.59 65 -35.18 65 -43 65 C-43 64.34 -43 63.68 -43 63 C-44.65 62.67 -46.3 62.34 -48 62 C-48 61.34 -48 60.68 -48 60 C-48.66 60 -49.32 60 -50 60 C-50 59.34 -50 58.68 -50 58 C-50.66 58 -51.32 58 -52 58 C-52 57.34 -52 56.68 -52 56 C-52.66 56 -53.32 56 -54 56 C-54 54.68 -54 53.36 -54 52 C-54.66 52 -55.32 52 -56 52 C-56.05799124 48.22923111 -56.09359306 44.45857666 -56.125 40.6875 C-56.14175781 39.61564453 -56.15851563 38.54378906 -56.17578125 37.43945312 C-56.18222656 36.41142578 -56.18867188 35.38339844 -56.1953125 34.32421875 C-56.20578613 33.37635498 -56.21625977 32.42849121 -56.22705078 31.4519043 C-56 29 -56 29 -54 26 C-53.34 26 -52.68 26 -52 26 C-52 24.68 -52 23.36 -52 22 C-51.34 22 -50.68 22 -50 22 C-50 21.34 -50 20.68 -50 20 C-49.34 20 -48.68 20 -48 20 C-48 19.01 -48 18.02 -48 17 C-47.34 17 -46.68 17 -46 17 C-46 16.34 -46 15.68 -46 15 C-45.01 15 -44.02 15 -43 15 C-43 14.34 -43 13.68 -43 13 C-41.68 13 -40.36 13 -39 13 C-39 12.34 -39 11.68 -39 11 C-37.68 11 -36.36 11 -35 11 C-35 10.34 -35 9.68 -35 9 C-33.68 9 -32.36 9 -31 9 C-31 8.34 -31 7.68 -31 7 C-28.69 7 -26.38 7 -24 7 C-23.67 6.01 -23.34 5.02 -23 4 C-21.865625 3.855625 -20.73125 3.71125 -19.5625 3.5625 C-16.19222799 3.38828522 -16.19222799 3.38828522 -15 2 C-12.46950598 1.92686433 -9.96695163 1.90752473 -7.4375 1.9375 C-6.37112305 1.94426758 -6.37112305 1.94426758 -5.28320312 1.95117188 C-3.52209987 1.96299136 -1.76103964 1.98092737 0 2 C0 1.34 0 0.68 0 0 Z " fill="#0297DA" transform="translate(204,379)"/>
<path d="M0 0 C1.5778125 -0.00193359 1.5778125 -0.00193359 3.1875 -0.00390625 C4.280625 -0.00003906 5.37375 0.00382812 6.5 0.0078125 C7.593125 0.00394531 8.68625 0.00007813 9.8125 -0.00390625 C10.864375 -0.00261719 11.91625 -0.00132812 13 0 C14.43859375 0.00169189 14.43859375 0.00169189 15.90625 0.00341797 C18.25803316 0.12074149 20.25052606 0.46499992 22.5 1.1328125 C22.5 1.7928125 22.5 2.4528125 22.5 3.1328125 C23.82 3.4628125 25.14 3.7928125 26.5 4.1328125 C26.5 4.7928125 26.5 5.4528125 26.5 6.1328125 C27.16 6.1328125 27.82 6.1328125 28.5 6.1328125 C28.5 6.7928125 28.5 7.4528125 28.5 8.1328125 C29.16 8.1328125 29.82 8.1328125 30.5 8.1328125 C30.995 10.1128125 30.995 10.1128125 31.5 12.1328125 C32.16 12.1328125 32.82 12.1328125 33.5 12.1328125 C33.5 13.4528125 33.5 14.7728125 33.5 16.1328125 C34.16 16.1328125 34.82 16.1328125 35.5 16.1328125 C35.5 17.7828125 35.5 19.4328125 35.5 21.1328125 C36.16 21.1328125 36.82 21.1328125 37.5 21.1328125 C37.5 31.6928125 37.5 42.2528125 37.5 53.1328125 C36.84 53.1328125 36.18 53.1328125 35.5 53.1328125 C35.5 55.1128125 35.5 57.0928125 35.5 59.1328125 C34.84 59.1328125 34.18 59.1328125 33.5 59.1328125 C33.561875 60.0196875 33.62375 60.9065625 33.6875 61.8203125 C33.47935526 65.49753619 32.71793417 67.23243705 30.5 70.1328125 C29.84 70.1328125 29.18 70.1328125 28.5 70.1328125 C28.5 71.4528125 28.5 72.7728125 28.5 74.1328125 C25.53 73.6378125 25.53 73.6378125 22.5 73.1328125 C22.644375 72.5965625 22.78875 72.0603125 22.9375 71.5078125 C23.59453748 68.73365423 24.05219948 65.94755862 24.5 63.1328125 C23.18 62.8028125 21.86 62.4728125 20.5 62.1328125 C19.84 63.1228125 19.18 64.1128125 18.5 65.1328125 C17.84 65.1328125 17.18 65.1328125 16.5 65.1328125 C16.17 64.4728125 15.84 63.8128125 15.5 63.1328125 C14.51 62.8028125 13.52 62.4728125 12.5 62.1328125 C12.17 61.1428125 11.84 60.1528125 11.5 59.1328125 C-0.41016114 59.83135665 -0.41016114 59.83135665 -10.5 65.1328125 C-12.8828125 65.546875 -12.8828125 65.546875 -15.625 65.7578125 C-16.99011719 65.86996094 -16.99011719 65.86996094 -18.3828125 65.984375 C-19.08148438 66.03335938 -19.78015625 66.08234375 -20.5 66.1328125 C-20.5 63.8228125 -20.5 61.5128125 -20.5 59.1328125 C-21.16 59.1328125 -21.82 59.1328125 -22.5 59.1328125 C-22.5 57.1528125 -22.5 55.1728125 -22.5 53.1328125 C-23.16 53.1328125 -23.82 53.1328125 -24.5 53.1328125 C-24.5 42.5728125 -24.5 32.0128125 -24.5 21.1328125 C-23.84 21.1328125 -23.18 21.1328125 -22.5 21.1328125 C-22.5 19.4828125 -22.5 17.8328125 -22.5 16.1328125 C-21.84 16.1328125 -21.18 16.1328125 -20.5 16.1328125 C-20.5 14.8128125 -20.5 13.4928125 -20.5 12.1328125 C-19.84 12.1328125 -19.18 12.1328125 -18.5 12.1328125 C-18.5 11.4728125 -18.5 10.8128125 -18.5 10.1328125 C-17.84 10.1328125 -17.18 10.1328125 -16.5 10.1328125 C-16.5 8.8128125 -16.5 7.4928125 -16.5 6.1328125 C-14.85 6.1328125 -13.2 6.1328125 -11.5 6.1328125 C-11.5 5.1428125 -11.5 4.1528125 -11.5 3.1328125 C-10.84 3.1328125 -10.18 3.1328125 -9.5 3.1328125 C-9.5 2.4728125 -9.5 1.8128125 -9.5 1.1328125 C-6.27376992 0.17502545 -3.35907209 0.00395052 0 0 Z " fill="#56C4F1" transform="translate(258.5,267.8671875)"/>
<path d="M0 0 C1.98 0 3.96 0 6 0 C6 0.66 6 1.32 6 2 C6.66 2 7.32 2 8 2 C8 3.32 8 4.64 8 6 C8.66 6 9.32 6 10 6 C10 6.66 10 7.32 10 8 C10.66 8 11.32 8 12 8 C12 8.66 12 9.32 12 10 C12.99 10.33 13.98 10.66 15 11 C15 11.66 15 12.32 15 13 C15.66 13 16.32 13 17 13 C17 13.66 17 14.32 17 15 C17.66 15 18.32 15 19 15 C19 16.32 19 17.64 19 19 C19.66 19 20.32 19 21 19 C21 19.66 21 20.32 21 21 C21.66 21 22.32 21 23 21 C23 22.32 23 23.64 23 25 C23.66 25 24.32 25 25 25 C25 26.65 25 28.3 25 30 C25.99 30.33 26.98 30.66 28 31 C30.22601244 34.2127824 30.23442231 37.02661369 30.1953125 40.859375 C30.18886719 41.97441406 30.18242187 43.08945312 30.17578125 44.23828125 C30.15902344 45.39714844 30.14226562 46.55601562 30.125 47.75 C30.11597656 48.92433594 30.10695313 50.09867187 30.09765625 51.30859375 C30.07410063 54.20593536 30.04120652 57.10286441 30 60 C29.34 60 28.68 60 28 60 C27.67 61.98 27.34 63.96 27 66 C26.34 66 25.68 66 25 66 C25 66.99 25 67.98 25 69 C24.34 69 23.68 69 23 69 C23 69.66 23 70.32 23 71 C22.34 71 21.68 71 21 71 C21 71.66 21 72.32 21 73 C20.34 73 19.68 73 19 73 C19 73.66 19 74.32 19 75 C15.77376992 75.95778705 12.85907209 76.12886198 9.5 76.1328125 C7.9221875 76.13474609 7.9221875 76.13474609 6.3125 76.13671875 C5.219375 76.13285156 4.12625 76.12898438 3 76.125 C1.906875 76.12886719 0.81375 76.13273437 -0.3125 76.13671875 C-1.364375 76.13542969 -2.41625 76.13414062 -3.5 76.1328125 C-4.93859375 76.13112061 -4.93859375 76.13112061 -6.40625 76.12939453 C-8.75803316 76.01207101 -10.75052606 75.66781258 -13 75 C-13 74.34 -13 73.68 -13 73 C-14.175625 72.814375 -14.175625 72.814375 -15.375 72.625 C-18 72 -18 72 -20 70 C-20 68.68 -20 67.36 -20 66 C-20.66 66 -21.32 66 -22 66 C-22 65.34 -22 64.68 -22 64 C-22.66 64 -23.32 64 -24 64 C-24 62.02 -24 60.04 -24 58 C-24.66 58 -25.32 58 -26 58 C-26 51.4 -26 44.8 -26 38 C-25.34 38 -24.68 38 -24 38 C-24 36.02 -24 34.04 -24 32 C-23.34 32 -22.68 32 -22 32 C-22 30.68 -22 29.36 -22 28 C-21.34 28 -20.68 28 -20 28 C-19.855625 27.21625 -19.71125 26.4325 -19.5625 25.625 C-19 23 -19 23 -18 21 C-17.01 21 -16.02 21 -15 21 C-15 19.68 -15 18.36 -15 17 C-14.34 17 -13.68 17 -13 17 C-13 16.34 -13 15.68 -13 15 C-12.34 15 -11.68 15 -11 15 C-11 14.34 -11 13.68 -11 13 C-10.34 13 -9.68 13 -9 13 C-9 12.01 -9 11.02 -9 10 C-8.34 10 -7.68 10 -7 10 C-7 9.34 -7 8.68 -7 8 C-6.34 8 -5.68 8 -5 8 C-4.9175 7.38125 -4.835 6.7625 -4.75 6.125 C-4 4 -4 4 -1.9375 2.75 C-1.298125 2.5025 -0.65875 2.255 0 2 C0 1.34 0 0.68 0 0 Z " fill="#04489A" transform="translate(262,386)"/>
<path d="M0 0 C4.95 0 9.9 0 15 0 C15 0.66 15 1.32 15 2 C17.64 2 20.28 2 23 2 C23 2.66 23 3.32 23 4 C24.3303125 3.9071875 24.3303125 3.9071875 25.6875 3.8125 C29.36472369 4.02064474 31.09962455 4.78206583 34 7 C34 7.66 34 8.32 34 9 C34.66 9 35.32 9 36 9 C36 9.66 36 10.32 36 11 C36.78375 11.144375 37.5675 11.28875 38.375 11.4375 C41 12 41 12 43 13 C43 13.66 43 14.32 43 15 C43.66 15 44.32 15 45 15 C45 15.66 45 16.32 45 17 C45.66 17 46.32 17 47 17 C47 17.66 47 18.32 47 19 C47.66 19 48.32 19 49 19 C49 19.99 49 20.98 49 22 C49.66 22 50.32 22 51 22 C51 22.66 51 23.32 51 24 C50.39671875 24.03738281 49.7934375 24.07476562 49.171875 24.11328125 C44.34346758 24.5104567 41.86832735 25.03428237 38 28 C34.25 28.1875 34.25 28.1875 31 28 C31 28.66 31 29.32 31 30 C26.73042663 32.06404327 22.72425818 32.35283215 18.0625 32.5 C13.03713575 32.65953537 8.75252597 33.27476797 4 35 C-2.84598511 36.44873544 -9.74857649 37.25210022 -16.72265625 37.75390625 C-19.16181977 37.93589858 -19.16181977 37.93589858 -22 39 C-22 36.69 -22 34.38 -22 32 C-22.66 32 -23.32 32 -24 32 C-24 28.7 -24 25.4 -24 22 C-23.34 22 -22.68 22 -22 22 C-22 19.69 -22 17.38 -22 15 C-21.34 15 -20.68 15 -20 15 C-20 13.68 -20 12.36 -20 11 C-18.824375 10.6596875 -18.824375 10.6596875 -17.625 10.3125 C-14.78125 9.21875 -14.78125 9.21875 -13.6875 6.375 C-13.460625 5.59125 -13.23375 4.8075 -13 4 C-11.68 4 -10.36 4 -9 4 C-9 3.34 -9 2.68 -9 2 C-6.03 2 -3.06 2 0 2 C0 1.34 0 0.68 0 0 Z " fill="#59C4F0" transform="translate(178,308)"/>
<path d="M0 0 C0.99 0 1.98 0 3 0 C3 5.94 3 11.88 3 18 C2.34 18 1.68 18 1 18 C1 19.98 1 21.96 1 24 C0.34 24 -0.32 24 -1 24 C-0.938125 24.886875 -0.87625 25.77375 -0.8125 26.6875 C-1.02064474 30.36472369 -1.78206583 32.09962455 -4 35 C-4.66 35 -5.32 35 -6 35 C-6 36.32 -6 37.64 -6 39 C-8.97 38.505 -8.97 38.505 -12 38 C-11.855625 37.46375 -11.71125 36.9275 -11.5625 36.375 C-10.90546252 33.60084173 -10.44780052 30.81474612 -10 28 C-11.32 27.67 -12.64 27.34 -14 27 C-14.66 27.99 -15.32 28.98 -16 30 C-16.66 30 -17.32 30 -18 30 C-18.495 29.01 -18.495 29.01 -19 28 C-19.99 27.67 -20.98 27.34 -22 27 C-22.495 25.515 -22.495 25.515 -23 24 C-34.91016114 24.69854415 -34.91016114 24.69854415 -45 30 C-47.3828125 30.4140625 -47.3828125 30.4140625 -50.125 30.625 C-51.03507813 30.69976562 -51.94515625 30.77453125 -52.8828125 30.8515625 C-53.93082031 30.92503906 -53.93082031 30.92503906 -55 31 C-55 28.69 -55 26.38 -55 24 C-55.66 24 -56.32 24 -57 24 C-57 20.7 -57 17.4 -57 14 C-55.68 14 -54.36 14 -53 14 C-53 13.34 -53 12.68 -53 12 C-51.68 12 -50.36 12 -49 12 C-48.87625 11.360625 -48.7525 10.72125 -48.625 10.0625 C-48.41875 9.381875 -48.2125 8.70125 -48 8 C-47.34 7.67 -46.68 7.34 -46 7 C-45.34 7.33 -44.68 7.66 -44 8 C-44 8.66 -44 9.32 -44 10 C-40.37 10 -36.74 10 -33 10 C-32.67 9.01 -32.34 8.02 -32 7 C-30.35 7.66 -28.7 8.32 -27 9 C-26.67 8.67 -26.34 8.34 -26 8 C-23.56161194 7.62350582 -21.13604907 7.29318455 -18.6875 7 C-14.72897872 6.51789655 -10.87052922 5.97409756 -7 5 C-4.66699067 4.96111651 -2.33290199 4.9551365 0 5 C0 3.35 0 1.7 0 0 Z " fill="#1EB5E9" transform="translate(293,303)"/>
<path d="M0 0 C1.5778125 -0.00193359 1.5778125 -0.00193359 3.1875 -0.00390625 C4.280625 -0.00003906 5.37375 0.00382812 6.5 0.0078125 C7.593125 0.00394531 8.68625 0.00007813 9.8125 -0.00390625 C10.864375 -0.00261719 11.91625 -0.00132812 13 0 C14.43859375 0.00169189 14.43859375 0.00169189 15.90625 0.00341797 C18.25803316 0.12074149 20.25052606 0.46499992 22.5 1.1328125 C22.5 1.7928125 22.5 2.4528125 22.5 3.1328125 C23.82 3.4628125 25.14 3.7928125 26.5 4.1328125 C26.5 4.7928125 26.5 5.4528125 26.5 6.1328125 C27.16 6.1328125 27.82 6.1328125 28.5 6.1328125 C28.5 6.7928125 28.5 7.4528125 28.5 8.1328125 C29.16 8.1328125 29.82 8.1328125 30.5 8.1328125 C30.995 10.1128125 30.995 10.1128125 31.5 12.1328125 C32.16 12.1328125 32.82 12.1328125 33.5 12.1328125 C33.54254356 14.13235996 33.54080783 16.13322886 33.5 18.1328125 C29.50354066 22.12927184 16.28424271 21.24740118 10.72485352 21.27124023 C7.64879316 21.25213858 4.57528912 21.20555258 1.5 21.1328125 C1.5 21.7928125 1.5 22.4528125 1.5 23.1328125 C-1.89499304 23.63863104 -5.29111482 24.13643494 -8.6875 24.6328125 C-10.12706055 24.84744141 -10.12706055 24.84744141 -11.59570312 25.06640625 C-12.52705078 25.20175781 -13.45839844 25.33710938 -14.41796875 25.4765625 C-15.27156982 25.60224609 -16.1251709 25.72792969 -17.00463867 25.85742188 C-19.52469675 26.13553806 -21.96685782 26.1804205 -24.5 26.1328125 C-24.5 24.4828125 -24.5 22.8328125 -24.5 21.1328125 C-23.84 21.1328125 -23.18 21.1328125 -22.5 21.1328125 C-22.5 19.4828125 -22.5 17.8328125 -22.5 16.1328125 C-21.84 16.1328125 -21.18 16.1328125 -20.5 16.1328125 C-20.5 14.8128125 -20.5 13.4928125 -20.5 12.1328125 C-19.84 12.1328125 -19.18 12.1328125 -18.5 12.1328125 C-18.5 11.4728125 -18.5 10.8128125 -18.5 10.1328125 C-17.84 10.1328125 -17.18 10.1328125 -16.5 10.1328125 C-16.5 8.8128125 -16.5 7.4928125 -16.5 6.1328125 C-14.85 6.1328125 -13.2 6.1328125 -11.5 6.1328125 C-11.5 5.1428125 -11.5 4.1528125 -11.5 3.1328125 C-10.84 3.1328125 -10.18 3.1328125 -9.5 3.1328125 C-9.5 2.4728125 -9.5 1.8128125 -9.5 1.1328125 C-6.27376992 0.17502545 -3.35907209 0.00395052 0 0 Z " fill="#16B2E9" transform="translate(258.5,267.8671875)"/>
<path d="M0 0 C1.98 0 3.96 0 6 0 C6 0.66 6 1.32 6 2 C6.66 2 7.32 2 8 2 C8 3.32 8 4.64 8 6 C8.66 6 9.32 6 10 6 C10 6.66 10 7.32 10 8 C10.66 8 11.32 8 12 8 C12 8.66 12 9.32 12 10 C12.99 10.33 13.98 10.66 15 11 C15 11.66 15 12.32 15 13 C15.66 13 16.32 13 17 13 C17 13.66 17 14.32 17 15 C17.66 15 18.32 15 19 15 C19 16.32 19 17.64 19 19 C19.66 19 20.32 19 21 19 C21 19.66 21 20.32 21 21 C21.66 21 22.32 21 23 21 C23 22.32 23 23.64 23 25 C23.66 25 24.32 25 25 25 C25 26.98 25 28.96 25 31 C17.63664956 32.24712602 10.26839171 33.44988387 2.8828125 34.55859375 C0.77087695 34.881966 -1.33541379 35.24280251 -3.4375 35.625 C-17.64 37.12 -17.64 37.12 -24 35 C-24 34.01 -24 33.02 -24 32 C-23.34 32 -22.68 32 -22 32 C-22 30.68 -22 29.36 -22 28 C-21.34 28 -20.68 28 -20 28 C-19.855625 27.21625 -19.71125 26.4325 -19.5625 25.625 C-19 23 -19 23 -18 21 C-17.01 21 -16.02 21 -15 21 C-15 19.68 -15 18.36 -15 17 C-14.34 17 -13.68 17 -13 17 C-13 16.34 -13 15.68 -13 15 C-12.34 15 -11.68 15 -11 15 C-11 14.34 -11 13.68 -11 13 C-10.34 13 -9.68 13 -9 13 C-9 12.01 -9 11.02 -9 10 C-8.34 10 -7.68 10 -7 10 C-7 9.34 -7 8.68 -7 8 C-6.34 8 -5.68 8 -5 8 C-4.9175 7.38125 -4.835 6.7625 -4.75 6.125 C-4 4 -4 4 -1.9375 2.75 C-1.298125 2.5025 -0.65875 2.255 0 2 C0 1.34 0 0.68 0 0 Z " fill="#016DB9" transform="translate(262,386)"/>
<path d="M0 0 C0.99 0 1.98 0 3 0 C3 1.98 3 3.96 3 6 C1.4840625 6.185625 1.4840625 6.185625 -0.0625 6.375 C-3.91589836 6.88838385 -3.91589836 6.88838385 -7.1875 8 C-12.41318743 9.37067211 -17.62136529 9.66438733 -23 10 C-23 10.99 -23 11.98 -23 13 C-24.66611905 13.042721 -26.33382885 13.04063832 -28 13 C-28.33 12.67 -28.66 12.34 -29 12 C-31.93208144 12.03858002 -34.82475284 12.14618922 -37.75 12.3125 C-38.96816406 12.36567383 -38.96816406 12.36567383 -40.2109375 12.41992188 C-44.52381689 12.6552337 -48.06531392 13.04065429 -52 15 C-52 16.65 -52 18.3 -52 20 C-51.27554688 19.69964844 -50.55109375 19.39929688 -49.8046875 19.08984375 C-40.74585635 15.5267035 -40.74585635 15.5267035 -35 17 C-34.34 16.34 -33.68 15.68 -33 15 C-30.70638277 14.86072912 -28.484909 15.00409046 -26.19140625 15.125 C-23.70443737 15.16870316 -23.70443737 15.16870316 -21 13 C-20.01 13 -19.02 13 -18 13 C-18 13.66 -18 14.32 -18 15 C-17.01 15 -16.02 15 -15 15 C-15 13.68 -15 12.36 -15 11 C-13.68 11 -12.36 11 -11 11 C-11 12.98 -11 14.96 -11 17 C-10.34 17 -9.68 17 -9 17 C-9 18.32 -9 19.64 -9 21 C-9.928125 20.67 -10.85625 20.34 -11.8125 20 C-14.92029291 18.85032996 -14.92029291 18.85032996 -18 19 C-18.99 19 -19.98 19 -21 19 C-21.33 19.66 -21.66 20.32 -22 21 C-22.66 21 -23.32 21 -24 21 C-24 21.66 -24 22.32 -24 23 C-25.53720703 23.07347656 -25.53720703 23.07347656 -27.10546875 23.1484375 C-28.4661706 23.22351071 -29.82684644 23.29905655 -31.1875 23.375 C-31.86103516 23.4059375 -32.53457031 23.436875 -33.22851562 23.46875 C-37.21947698 23.70236725 -40.37215922 24.3415585 -44 26 C-45.65919896 26.36871088 -47.3247643 26.71281674 -49 27 C-48.0022242 24.00667261 -47.2477975 23.05233685 -45 21 C-45.99 21 -46.98 21 -48 21 C-48.66 22.32 -49.32 23.64 -50 25 C-52.31 24.67 -54.62 24.34 -57 24 C-57 20.7 -57 17.4 -57 14 C-55.68 14 -54.36 14 -53 14 C-53 13.34 -53 12.68 -53 12 C-51.68 12 -50.36 12 -49 12 C-48.87625 11.360625 -48.7525 10.72125 -48.625 10.0625 C-48.41875 9.381875 -48.2125 8.70125 -48 8 C-47.34 7.67 -46.68 7.34 -46 7 C-45.34 7.33 -44.68 7.66 -44 8 C-44 8.66 -44 9.32 -44 10 C-40.37 10 -36.74 10 -33 10 C-32.67 9.01 -32.34 8.02 -32 7 C-30.35 7.66 -28.7 8.32 -27 9 C-26.67 8.67 -26.34 8.34 -26 8 C-23.56161194 7.62350582 -21.13604907 7.29318455 -18.6875 7 C-14.72897872 6.51789655 -10.87052922 5.97409756 -7 5 C-4.66699067 4.96111651 -2.33290199 4.9551365 0 5 C0 3.35 0 1.7 0 0 Z " fill="#36BBED" transform="translate(293,303)"/>
<path d="M0 0 C3.5625 0.125 3.5625 0.125 5.5625 1.125 C5.5625 1.785 5.5625 2.445 5.5625 3.125 C4.9025 3.125 4.2425 3.125 3.5625 3.125 C3.5625 3.785 3.5625 4.445 3.5625 5.125 C2.9025 5.125 2.2425 5.125 1.5625 5.125 C1.5625 5.785 1.5625 6.445 1.5625 7.125 C0.9025 7.125 0.2425 7.125 -0.4375 7.125 C-0.4375 7.785 -0.4375 8.445 -0.4375 9.125 C-1.7575 9.125 -3.0775 9.125 -4.4375 9.125 C-4.4375 9.785 -4.4375 10.445 -4.4375 11.125 C-5.4275 11.125 -6.4175 11.125 -7.4375 11.125 C-7.7675 12.115 -8.0975 13.105 -8.4375 14.125 C-9.4275 14.125 -10.4175 14.125 -11.4375 14.125 C-11.4375 14.785 -11.4375 15.445 -11.4375 16.125 C-19.0275 16.125 -26.6175 16.125 -34.4375 16.125 C-34.4375 15.465 -34.4375 14.805 -34.4375 14.125 C-36.0875 13.795 -37.7375 13.465 -39.4375 13.125 C-39.4375 12.465 -39.4375 11.805 -39.4375 11.125 C-40.0975 11.125 -40.7575 11.125 -41.4375 11.125 C-41.4375 10.465 -41.4375 9.805 -41.4375 9.125 C-36.904791 5.37180146 -31.50429139 5.17813503 -25.875 4.5 C-23.99847847 4.25951871 -22.12216674 4.01739328 -20.24609375 3.7734375 C-19.41907959 3.67208496 -18.59206543 3.57073242 -17.73999023 3.46630859 C-15.58492567 3.14685358 -13.54662655 2.66128645 -11.4375 2.125 C-10.220625 1.96 -9.00375 1.795 -7.75 1.625 C-3.99996603 1.05895714 -3.82800944 0.13920034 0 0 Z " fill="#0085CB" transform="translate(195.4375,427.875)"/>
<path d="M0 0 C1.65 0 3.3 0 5 0 C5 0.66 5 1.32 5 2 C5.66 2 6.32 2 7 2 C7 2.66 7 3.32 7 4 C7.66 4 8.32 4 9 4 C9 4.66 9 5.32 9 6 C9.66 6 10.32 6 11 6 C11 6.99 11 7.98 11 9 C11.66 9 12.32 9 13 9 C13 9.66 13 10.32 13 11 C12.39671875 11.03738281 11.7934375 11.07476562 11.171875 11.11328125 C6.34346758 11.5104567 3.86832735 12.03428237 0 15 C-3.75 15.1875 -3.75 15.1875 -7 15 C-7 15.66 -7 16.32 -7 17 C-11.26957337 19.06404327 -15.27574182 19.35283215 -19.9375 19.5 C-24.96010137 19.65944766 -29.2458113 20.28492471 -34 22 C-37.375 22.125 -37.375 22.125 -40 22 C-40 21.34 -40 20.68 -40 20 C-37.25420784 19.43468985 -34.52167731 18.92641189 -31.75 18.5 C-29.09750356 18.28724022 -29.09750356 18.28724022 -28 17 C-25.77854367 16.71612221 -23.55682352 16.55234827 -21.32421875 16.37890625 C-18.87945563 15.98034823 -17.14533408 15.21258013 -15 14 C-15.12568359 13.06027344 -15.12568359 13.06027344 -15.25390625 12.1015625 C-15.35574219 11.28429687 -15.45757812 10.46703125 -15.5625 9.625 C-15.66691406 8.81289063 -15.77132812 8.00078125 -15.87890625 7.1640625 C-16 5 -16 5 -15 3 C-11.9375 2.375 -11.9375 2.375 -9 2 C-8.896875 2.639375 -8.79375 3.27875 -8.6875 3.9375 C-8.3471875 4.9584375 -8.3471875 4.9584375 -8 6 C-7.01 6.33 -6.02 6.66 -5 7 C-5 5.68 -5 4.36 -5 3 C-3.68 3 -2.36 3 -1 3 C-0.67 2.01 -0.34 1.02 0 0 Z " fill="#4CC1EE" transform="translate(216,321)"/>
<path d="M0 0 C0.66 0 1.32 0 2 0 C2 1.65 2 3.3 2 5 C0.824375 4.95875 -0.35125 4.9175 -1.5625 4.875 C-5.65368495 4.85323838 -9.07640662 5.84600195 -13 7 C-13.99 6.67 -14.98 6.34 -16 6 C-15.34 7.32 -14.68 8.64 -14 10 C-14.99 10.99 -15.98 11.98 -17 13 C-16.01 13.33 -15.02 13.66 -14 14 C-14.33 14.99 -14.66 15.98 -15 17 C-19.95 17 -24.9 17 -30 17 C-31.06546953 13.8035914 -31.07427838 11.34252724 -31 8 C-31.99 8.66 -32.98 9.32 -34 10 C-36.54370117 10.41064453 -36.54370117 10.41064453 -39.54296875 10.6328125 C-40.61611328 10.71660156 -41.68925781 10.80039062 -42.79492188 10.88671875 C-43.91447266 10.96535156 -45.03402344 11.04398437 -46.1875 11.125 C-47.31865234 11.21136719 -48.44980469 11.29773438 -49.61523438 11.38671875 C-52.40966714 11.59895415 -55.20445481 11.80305481 -58 12 C-58 11.34 -58 10.68 -58 10 C-54.98017116 9.49317558 -51.95937183 8.99436665 -48.9375 8.5 C-48.08994141 8.35691406 -47.24238281 8.21382813 -46.36914062 8.06640625 C-41.50727611 7.27799579 -36.92471814 6.83962926 -32 7 C-32 6.34 -32 5.68 -32 5 C-30.9644397 4.91697632 -30.9644397 4.91697632 -29.90795898 4.83227539 C-26.75095586 4.57790464 -23.59423062 4.3202296 -20.4375 4.0625 C-19.35146484 3.97548828 -18.26542969 3.88847656 -17.14648438 3.79882812 C-9.03208406 3.21086448 -9.03208406 3.21086448 -1 2 C-0.67 1.34 -0.34 0.68 0 0 Z " fill="#54C3EF" transform="translate(292,284)"/>
<path d="M0 0 C0.98484375 0.02707031 1.9696875 0.05414063 2.984375 0.08203125 C3.73203125 0.11683594 4.4796875 0.15164063 5.25 0.1875 C3.88016497 3.34865776 3.2609362 4.1802092 0.25 6.1875 C0.58 4.8675 0.91 3.5475 1.25 2.1875 C0.30125 2.826875 -0.6475 3.46625 -1.625 4.125 C-6.1282442 6.74187496 -10.63076363 6.98149451 -15.75 7.1875 C-15.75 8.1775 -15.75 9.1675 -15.75 10.1875 C-16.41 10.1875 -17.07 10.1875 -17.75 10.1875 C-17.75 10.8475 -17.75 11.5075 -17.75 12.1875 C-18.46027344 12.02507812 -19.17054688 11.86265625 -19.90234375 11.6953125 C-22.77027009 11.18388531 -25.40241682 11.05440519 -28.3125 11.0625 C-29.24191406 11.05992187 -30.17132813 11.05734375 -31.12890625 11.0546875 C-33.51676298 11.17568173 -35.45015657 11.59341128 -37.75 12.1875 C-39.54007628 12.33351831 -41.33207742 12.45703397 -43.125 12.5625 C-47.69254048 12.92693142 -50.68012999 14.05566333 -54.75 16.1875 C-56.42542976 15.90145102 -58.09385343 15.56968767 -59.75 15.1875 C-62.37374655 16.00358777 -62.37374655 16.00358777 -64.75 17.1875 C-65.74 17.5175 -66.73 17.8475 -67.75 18.1875 C-67.42 16.5375 -67.09 14.8875 -66.75 13.1875 C-65.22632813 13.00574219 -65.22632813 13.00574219 -63.671875 12.8203125 C-49.70092665 12.38458998 -49.70092665 12.38458998 -37.75 8.1875 C-35.16242474 7.97482258 -32.59206806 7.8107145 -30 7.6875 C-25.51138639 7.46952776 -21.13978041 7.224456 -16.75 6.1875 C-16.75 5.5275 -16.75 4.8675 -16.75 4.1875 C-15.6775 4.084375 -14.605 3.98125 -13.5 3.875 C-9.84529549 3.51666623 -9.84529549 3.51666623 -7.875 1.65625 C-5.10156062 -0.26068604 -3.33321729 -0.11904347 0 0 Z " fill="#18B2E7" transform="translate(225.75,331.8125)"/>
<path d="M0 0 C0.88945312 0.00322266 1.77890625 0.00644531 2.6953125 0.00976562 C4.07589844 0.02233398 4.07589844 0.02233398 5.484375 0.03515625 C6.42023438 0.03966797 7.35609375 0.04417969 8.3203125 0.04882812 C10.62506541 0.06058707 12.92968727 0.07702199 15.234375 0.09765625 C14.904375 0.75765625 14.574375 1.41765625 14.234375 2.09765625 C11.924375 2.09765625 9.614375 2.09765625 7.234375 2.09765625 C7.234375 3.41765625 7.234375 4.73765625 7.234375 6.09765625 C6.574375 6.09765625 5.914375 6.09765625 5.234375 6.09765625 C4.904375 6.75765625 4.574375 7.41765625 4.234375 8.09765625 C3.574375 8.09765625 2.914375 8.09765625 2.234375 8.09765625 C0.27502323 8.18048599 -1.68332373 8.28812402 -3.640625 8.41015625 C-5.21457031 8.49716797 -5.21457031 8.49716797 -6.8203125 8.5859375 C-9.97033438 9.13322247 -11.41878527 9.98323302 -13.765625 12.09765625 C-14.425625 11.43765625 -15.085625 10.77765625 -15.765625 10.09765625 C-15.765625 8.77765625 -15.765625 7.45765625 -15.765625 6.09765625 C-14.115625 6.09765625 -12.465625 6.09765625 -10.765625 6.09765625 C-10.765625 5.10765625 -10.765625 4.11765625 -10.765625 3.09765625 C-10.105625 3.09765625 -9.445625 3.09765625 -8.765625 3.09765625 C-8.765625 2.43765625 -8.765625 1.77765625 -8.765625 1.09765625 C-5.76855805 0.22802538 -3.11605974 -0.01997474 0 0 Z " fill="#0BADE5" transform="translate(257.765625,267.90234375)"/>
<path d="M0 0 C0 3.3 0 6.6 0 10 C-0.66 10 -1.32 10 -2 10 C-2 11.98 -2 13.96 -2 16 C-2.66 16 -3.32 16 -4 16 C-3.938125 16.886875 -3.87625 17.77375 -3.8125 18.6875 C-4.01951982 22.34485017 -4.916074 24.04777151 -7 27 C-8.32 26.67 -9.64 26.34 -11 26 C-11.16682272 21.07872966 -11.24828052 17.49656104 -9 13 C-7.68 13 -6.36 13 -5 13 C-5.30464938 8.53853338 -5.30464938 8.53853338 -8.0625 5.25 C-8.701875 4.8375 -9.34125 4.425 -10 4 C-10 3.34 -10 2.68 -10 2 C-3.375 0 -3.375 0 0 0 Z " fill="#29B7EC" transform="translate(296,311)"/>
<path d="M0 0 C0.99 0 1.98 0 3 0 C2.95875 1.0725 2.9175 2.145 2.875 3.25 C3.02905207 7.87156223 3.78438347 9.78438347 7 13 C2.73042663 15.06404327 -1.27574182 15.35283215 -5.9375 15.5 C-10.96010137 15.65944766 -15.2458113 16.28492471 -20 18 C-23.375 18.125 -23.375 18.125 -26 18 C-26 17.34 -26 16.68 -26 16 C-23.25420784 15.43468985 -20.52167731 14.92641189 -17.75 14.5 C-15.09750356 14.28724022 -15.09750356 14.28724022 -14 13 C-11.77854367 12.71612221 -9.55682352 12.55234827 -7.32421875 12.37890625 C-4.87945563 11.98034823 -3.14533408 11.21258013 -1 10 C-1.020625 8.72125 -1.04125 7.4425 -1.0625 6.125 C-1.125 2.25 -1.125 2.25 0 0 Z " fill="#42BDEE" transform="translate(202,325)"/>
<path d="M0 0 C0.99 0 1.98 0 3 0 C3 1.65 3 3.3 3 5 C4.32 5 5.64 5 7 5 C6.67 6.98 6.34 8.96 6 11 C6.99 11.33 7.98 11.66 9 12 C8.01 14.31 7.02 16.62 6 19 C4.68 19 3.36 19 2 19 C2 17.68 2 16.36 2 15 C1.34 15 0.68 15 0 15 C0 10.05 0 5.1 0 0 Z " fill="#19B2E9" transform="translate(148,416)"/>
<path d="M0 0 C0.99 0 1.98 0 3 0 C3 1.98 3 3.96 3 6 C1.4840625 6.185625 1.4840625 6.185625 -0.0625 6.375 C-3.91589836 6.88838385 -3.91589836 6.88838385 -7.1875 8 C-12.41318743 9.37067211 -17.62136529 9.66438733 -23 10 C-23 10.99 -23 11.98 -23 13 C-26.85645121 13.22036864 -29.49223216 12.60355101 -33 11 C-32.67 9.68 -32.34 8.36 -32 7 C-29.525 7.99 -29.525 7.99 -27 9 C-26.67 8.67 -26.34 8.34 -26 8 C-23.56161194 7.62350582 -21.13604907 7.29318455 -18.6875 7 C-14.72897872 6.51789655 -10.87052922 5.97409756 -7 5 C-4.66699067 4.96111651 -2.33290199 4.9551365 0 5 C0 3.35 0 1.7 0 0 Z " fill="#30B9EA" transform="translate(293,303)"/>
<path d="M0 0 C0.66 0 1.32 0 2 0 C2 0.99 2 1.98 2 3 C-5.36335044 4.24712602 -12.73160829 5.44988387 -20.1171875 6.55859375 C-22.22912305 6.881966 -24.33541379 7.24280251 -26.4375 7.625 C-42.09090909 9.27272727 -42.09090909 9.27272727 -47 6 C-45.85660156 6.01160156 -44.71320313 6.02320313 -43.53515625 6.03515625 C-42.04427246 6.04453288 -40.55338691 6.05363321 -39.0625 6.0625 C-38.30775391 6.07087891 -37.55300781 6.07925781 -36.77539062 6.08789062 C-34.85005687 6.09652441 -32.92464419 6.05224333 -31 6 C-30.67 5.67 -30.34 5.34 -30 5 C-27.52010985 4.62523502 -25.05204807 4.29424021 -22.5625 4 C-17.63342275 3.55638533 -17.63342275 3.55638533 -13 2 C-9.88730709 1.68567477 -6.77382422 1.48910126 -3.65234375 1.28125 C-1.07994595 1.28948002 -1.07994595 1.28948002 0 0 Z " fill="#025EAC" transform="translate(285,414)"/>
<path d="M0 0 C2.97 0.33 5.94 0.66 9 1 C9 1.99 9 2.98 9 4 C2.14379955 8.18990027 -6.05701259 9.18946575 -14 9 C-10.71623499 7.22129395 -7.35619897 6.0889227 -3.8046875 4.9765625 C-1.4974106 3.95116307 -1.4974106 3.95116307 0 0 Z " fill="#0BA6E2" transform="translate(184,422)"/>
<path d="M0 0 C0 0.66 0 1.32 0 2 C-1.32 2 -2.64 2 -4 2 C-4.66 4.31 -5.32 6.62 -6 9 C-7.65 9.33 -9.3 9.66 -11 10 C-10.0022242 7.00667261 -9.2477975 6.05233685 -7 4 C-7.99 4 -8.98 4 -10 4 C-10.66 5.32 -11.32 6.64 -12 8 C-13.65 8 -15.3 8 -17 8 C-15.68 7.01 -14.36 6.02 -13 5 C-13.33 4.34 -13.66 3.68 -14 3 C-12.23358317 2.3012307 -10.46167336 1.61633417 -8.6875 0.9375 C-7.20830078 0.36322266 -7.20830078 0.36322266 -5.69921875 -0.22265625 C-3 -1 -3 -1 0 0 Z " fill="#37BCEF" transform="translate(255,320)"/>
<path d="M0 0 C0.98484375 0.02707031 1.9696875 0.05414063 2.984375 0.08203125 C3.73203125 0.11683594 4.4796875 0.15164063 5.25 0.1875 C3.88016497 3.34865776 3.2609362 4.1802092 0.25 6.1875 C0.58 4.8675 0.91 3.5475 1.25 2.1875 C0.321875 2.868125 -0.60625 3.54875 -1.5625 4.25 C-6.49600342 7.14310386 -11.32348416 6.09028383 -16.75 5.1875 C-16.75 4.8575 -16.75 4.5275 -16.75 4.1875 C-15.6775 4.084375 -14.605 3.98125 -13.5 3.875 C-9.84529549 3.51666623 -9.84529549 3.51666623 -7.875 1.65625 C-5.10156062 -0.26068604 -3.33321729 -0.11904347 0 0 Z " fill="#2DB8EC" transform="translate(225.75,331.8125)"/>
<path d="M0 0 C0.33 0.99 0.66 1.98 1 3 C2.65 3 4.3 3 6 3 C5.34 4.32 4.68 5.64 4 7 C2.68 7 1.36 7 0 7 C0 8.65 0 10.3 0 12 C-1.65 12 -3.3 12 -5 12 C-5 10.35 -5 8.7 -5 7 C-4.34 7 -3.68 7 -3 7 C-3.061875 6.21625 -3.12375 5.4325 -3.1875 4.625 C-3.125625 3.75875 -3.06375 2.8925 -3 2 C-2.01 1.34 -1.02 0.68 0 0 Z " fill="#0EB0E6" transform="translate(239,282)"/>
<path d="M0 0 C0.99 0 1.98 0 3 0 C3 1.98 3 3.96 3 6 C-2.28497409 7.67357513 -2.28497409 7.67357513 -5 8 C-7.5 6.625 -7.5 6.625 -9 5 C-8.67 4.01 -8.34 3.02 -8 2 C-6.865625 1.855625 -5.73125 1.71125 -4.5625 1.5625 C-1.19222799 1.38828522 -1.19222799 1.38828522 0 0 Z " fill="#3FBCEB" transform="translate(293,291)"/>
<path d="M0 0 C0.66 0 1.32 0 2 0 C2 1.65 2 3.3 2 5 C0.824375 4.95875 -0.35125 4.9175 -1.5625 4.875 C-4.43789357 4.774109 -6.37239552 5.1179867 -9.15625 6 C-13.85929525 7.22355649 -18.10786376 7.22049091 -22.9375 7.125 C-23.81212891 7.11597656 -24.68675781 7.10695313 -25.58789062 7.09765625 C-27.72538064 7.0742957 -29.86272786 7.03843247 -32 7 C-32 6.34 -32 5.68 -32 5 C-30.9644397 4.91697632 -30.9644397 4.91697632 -29.90795898 4.83227539 C-26.75095586 4.57790464 -23.59423062 4.3202296 -20.4375 4.0625 C-19.35146484 3.97548828 -18.26542969 3.88847656 -17.14648438 3.79882812 C-9.03208406 3.21086448 -9.03208406 3.21086448 -1 2 C-0.67 1.34 -0.34 0.68 0 0 Z " fill="#34BBED" transform="translate(292,284)"/>
<path d="M0 0 C-2 3 -2 3 -4.43017578 3.52416992 C-5.4251709 3.59224854 -6.42016602 3.66032715 -7.4453125 3.73046875 C-8.52167969 3.81103516 -9.59804687 3.89160156 -10.70703125 3.97460938 C-12.39892578 4.07999023 -12.39892578 4.07999023 -14.125 4.1875 C-15.82849609 4.3102832 -15.82849609 4.3102832 -17.56640625 4.43554688 C-20.37697146 4.63630153 -23.18780091 4.82388184 -26 5 C-26 4.34 -26 3.68 -26 3 C-22.98017116 2.49317558 -19.95937183 1.99436665 -16.9375 1.5 C-16.08994141 1.35691406 -15.24238281 1.21382813 -14.36914062 1.06640625 C-9.50727611 0.27799579 -4.92471814 -0.16037074 0 0 Z " fill="#39BBEE" transform="translate(260,291)"/>
<path d="M0 0 C-4.03304043 4.03304043 -9.5673236 3.31487121 -14.93164062 3.51757812 C-19.29989335 3.73415193 -22.90090841 4.52290332 -27 6 C-30.375 6.125 -30.375 6.125 -33 6 C-33 5.34 -33 4.68 -33 4 C-27.33454538 2.69438083 -21.54889495 2.30499891 -15.7734375 1.75 C-14.9484375 1.6675 -14.1234375 1.585 -13.2734375 1.5 C-12.52497559 1.4278125 -11.77651367 1.355625 -11.00537109 1.28125 C-1.61404736 -0.03586772 -1.61404736 -0.03586772 0 0 Z " fill="#36BAEC" transform="translate(209,337)"/>
<path d="M0 0 C1.32 0.33 2.64 0.66 4 1 C4 1.99 4 2.98 4 4 C7.96 4 11.92 4 16 4 C16 4.33 16 4.66 16 5 C14.87980469 5.13277344 13.75960937 5.26554687 12.60546875 5.40234375 C11.13279271 5.58056569 9.66013753 5.75896011 8.1875 5.9375 C7.44951172 6.02451172 6.71152344 6.11152344 5.95117188 6.20117188 C2.83266879 6.58216546 -0.01108122 7.00369374 -3 8 C-3 7.01 -3 6.02 -3 5 C-2.01 5 -1.02 5 0 5 C0 3.35 0 1.7 0 0 Z " fill="#40BCE9" transform="translate(159,339)"/>
<path d="M0 0 C-0.99 2.64 -1.98 5.28 -3 8 C-4.32 8 -5.64 8 -7 8 C-7 6.68 -7 5.36 -7 4 C-7.66 4 -8.32 4 -9 4 C-9 3.01 -9 2.02 -9 1 C-5.92677456 0.08941469 -3.19902639 -0.08886184 0 0 Z " fill="#15B2E5" transform="translate(157,427)"/>
<path d="M0 0 C1.66628955 0.03545297 3.33409803 0.05048188 5 0 C4.67 0.66 4.34 1.32 4 2 C2.35 2 0.7 2 -1 2 C-1 2.66 -1 3.32 -1 4 C-3.31 4 -5.62 4 -8 4 C-8.33 2.68 -8.66 1.36 -9 0 C-5.94077605 -1.52961198 -3.32521452 -0.50723611 0 0 Z " fill="#4AC4ED" transform="translate(177,339)"/>
<path d="M0 0 C2.97 0.33 5.94 0.66 9 1 C9 1.99 9 2.98 9 4 C5.7 4 2.4 4 -1 4 C-0.67 2.68 -0.34 1.36 0 0 Z " fill="#19B2EC" transform="translate(184,422)"/>
<path d="M0 0 C1.65 0 3.3 0 5 0 C5 0.66 5 1.32 5 2 C5.66 2 6.32 2 7 2 C7 2.99 7 3.98 7 5 C5.35 5 3.7 5 2 5 C2 4.34 2 3.68 2 3 C1.01 3 0.02 3 -1 3 C-0.67 2.01 -0.34 1.02 0 0 Z " fill="#3ABAE8" transform="translate(216,321)"/>
<path d="M0 0 C2.05078125 0.03255208 4.1015625 0.06510417 6.15234375 0.09765625 C6.15234375 1.41765625 6.15234375 2.73765625 6.15234375 4.09765625 C0.61388221 4.46688702 0.61388221 4.46688702 -1.72265625 2.59765625 C-2.09390625 2.10265625 -2.46515625 1.60765625 -2.84765625 1.09765625 C-1.84765625 0.09765625 -1.84765625 0.09765625 0 0 Z " fill="#49BFEB" transform="translate(262.84765625,289.90234375)"/>
<path d="M0 0 C0.99 0 1.98 0 3 0 C3 2.97 3 5.94 3 9 C2.01 9 1.02 9 0 9 C0 6.03 0 3.06 0 0 Z " fill="#3CAAE1" transform="translate(379,415)"/>
<path d="M0 0 C1.65 0 3.3 0 5 0 C5 0.66 5 1.32 5 2 C5.66 2 6.32 2 7 2 C7 2.99 7 3.98 7 5 C5.35 5 3.7 5 2 5 C2 4.34 2 3.68 2 3 C1.34 3 0.68 3 0 3 C0 2.01 0 1.02 0 0 Z " fill="#05ACE2" transform="translate(276,269)"/>
<path d="M0 0 C-1.36983503 3.16115776 -1.9890638 3.9927092 -5 6 C-4.67 4.68 -4.34 3.36 -4 2 C-4.99 2.33 -5.98 2.66 -7 3 C-7 2.34 -7 1.68 -7 1 C-2.25 0 -2.25 0 0 0 Z M-10 3 C-9.01 3.33 -8.02 3.66 -7 4 C-8.98 4.99 -8.98 4.99 -11 6 C-10.67 5.01 -10.34 4.02 -10 3 Z " fill="#17B3E7" transform="translate(231,332)"/>
<path d="M0 0 C1.32 0 2.64 0 4 0 C4 1.65 4 3.3 4 5 C1.69 5 -0.62 5 -3 5 C-2.34 4.67 -1.68 4.34 -1 4 C-0.34786708 1.97536745 -0.34786708 1.97536745 0 0 Z " fill="#42C0EE" transform="translate(289,303)"/>
<path d="M0 0 C1.65 0 3.3 0 5 0 C4.67 1.65 4.34 3.3 4 5 C2.68 5 1.36 5 0 5 C0 3.35 0 1.7 0 0 Z " fill="#31BCEB" transform="translate(148,423)"/>
<path d="M0 0 C0.90105469 0.02707031 1.80210937 0.05414063 2.73046875 0.08203125 C3.76107422 0.13423828 3.76107422 0.13423828 4.8125 0.1875 C0.05359471 2.56695265 -2.73588765 3.28845578 -8.1875 3.1875 C-5.67753317 0.01043235 -3.96125134 -0.15433447 0 0 Z " fill="#0261AF" transform="translate(361.1875,349.8125)"/>
<path d="M0 0 C0 1.32 0 2.64 0 4 C-2.97 3.505 -2.97 3.505 -6 3 C-6 2.01 -6 1.02 -6 0 C-3.50907189 -1.24546405 -2.58919267 -0.7767578 0 0 Z " fill="#3AB8EF" transform="translate(292,327)"/>
<path d="M0 0 C4.67692308 1.47692308 4.67692308 1.47692308 6.3125 4.125 C6.539375 4.74375 6.76625 5.3625 7 6 C4.03824877 5.38722388 2.61941217 4.74627478 0 3 C0 2.01 0 1.02 0 0 Z " fill="#25B6F0" transform="translate(271,271)"/>
<path d="M0 0 C1.21236328 0.04060547 1.21236328 0.04060547 2.44921875 0.08203125 C3.06410156 0.11683594 3.67898437 0.15164063 4.3125 0.1875 C4.3125 0.5175 4.3125 0.8475 4.3125 1.1875 C-0.1425 1.6825 -0.1425 1.6825 -4.6875 2.1875 C-4.6875 2.8475 -4.6875 3.5075 -4.6875 4.1875 C-5.6775 3.8575 -6.6675 3.5275 -7.6875 3.1875 C-5.26849268 0.20484049 -3.789448 -0.16475861 0 0 Z " fill="#37BCEF" transform="translate(224.6875,331.8125)"/>
<path d="M0 0 C0.99 0.33 1.98 0.66 3 1 C3 2.98 3 4.96 3 7 C2.01 7 1.02 7 0 7 C0 4.69 0 2.38 0 0 Z " fill="#0281CD" transform="translate(373,330)"/>
<path d="M0 0 C1.65 0 3.3 0 5 0 C5 1.32 5 2.64 5 4 C3.35 4 1.7 4 0 4 C0 2.68 0 1.36 0 0 Z " fill="#3ABDEE" transform="translate(236,318)"/>
<path d="M0 0 C2.31 0 4.62 0 7 0 C6.67 1.32 6.34 2.64 6 4 C4.35 3.67 2.7 3.34 1 3 C0.67 2.01 0.34 1.02 0 0 Z " fill="#2AB7EE" transform="translate(240,281)"/>
<path d="M0 0 C0.33 0.66 0.66 1.32 1 2 C-0.4375 4.625 -0.4375 4.625 -2 7 C-2.66 6.67 -3.32 6.34 -4 6 C-4 4.68 -4 3.36 -4 2 C-2.68 1.34 -1.36 0.68 0 0 Z " fill="#1BB2EA" transform="translate(178,419)"/>
<path d="M0 0 C0.66 0 1.32 0 2 0 C2.33 0.66 2.66 1.32 3 2 C3.99 2.66 4.98 3.32 6 4 C3.36 4.33 0.72 4.66 -2 5 C-1.34 3.35 -0.68 1.7 0 0 Z " fill="#47BDEC" transform="translate(280,305)"/>
<path d="M0 0 C-2.76223278 2.76223278 -5.20706617 2.57856291 -9 3 C-9 2.34 -9 1.68 -9 1 C-5.8035914 -0.06546953 -3.34252724 -0.07427838 0 0 Z " fill="#28B4EC" transform="translate(209,337)"/>
<path d="M0 0 C1.98 0 3.96 0 6 0 C5.34 1.32 4.68 2.64 4 4 C2.68 3.67 1.36 3.34 0 3 C0 2.01 0 1.02 0 0 Z " fill="#08ACE5" transform="translate(331,310)"/>
</svg>
