<?xml version="1.0" encoding="UTF-8"?>
<svg version="1.1" xmlns="http://www.w3.org/2000/svg" width="1080" height="700">
<path d="M0 0 C0.73837097 0.1684845 1.47674194 0.33696899 2.23748779 0.51055908 C13.92747231 3.18415744 13.92747231 3.18415744 17.5 4.375 C20.81693515 72.38981379 13.32558485 140.38658914 -3.5 206.375 C-3.79455078 207.53515625 -4.08910156 208.6953125 -4.39257812 209.890625 C-17.15753083 259.51679101 -35.42402829 309.11472801 -61.5 353.375 C-62.50313383 355.10646408 -63.5057062 356.83825353 -64.5078125 358.5703125 C-81.89572241 388.46224545 -101.22776653 416.88910074 -123.5 443.375 C-123.96792969 443.93316406 -124.43585938 444.49132812 -124.91796875 445.06640625 C-130.30036947 451.47270839 -135.69279976 457.75771317 -141.70703125 463.5859375 C-143.56932138 465.44417036 -145.28592379 467.37973825 -147 469.375 C-152.33596572 475.5579444 -158.13050051 481.16078879 -164.32421875 486.4765625 C-166.80652198 488.64245005 -169.21055145 490.88376957 -171.625 493.125 C-180.7646596 501.43606408 -190.58260036 508.81825393 -200.625 516 C-201.34768066 516.52126465 -202.07036133 517.0425293 -202.81494141 517.57958984 C-203.49733887 518.06121582 -204.17973633 518.5428418 -204.8828125 519.0390625 C-205.48496582 519.46654785 -206.08711914 519.8940332 -206.70751953 520.33447266 C-208.6699609 521.47366158 -210.25302644 522.05917522 -212.5 522.375 C-214.91015625 521.0390625 -214.91015625 521.0390625 -217.5625 519 C-218.53703125 518.25492188 -219.5115625 517.50984375 -220.515625 516.7421875 C-221.50046875 515.96101562 -222.4853125 515.17984375 -223.5 514.375 C-224.38171875 513.67632813 -225.2634375 512.97765625 -226.171875 512.2578125 C-228.97464625 509.99403572 -231.74095426 507.69186755 -234.5 505.375 C-235.05091309 504.91577148 -235.60182617 504.45654297 -236.16943359 503.98339844 C-243.59395918 497.78419947 -250.6647555 491.41173951 -257.390625 484.45703125 C-259.32341424 482.3341128 -259.32341424 482.3341128 -261.5 481.375 C-261.5 480.715 -261.5 480.055 -261.5 479.375 C-262.04011719 479.16101563 -262.58023438 478.94703125 -263.13671875 478.7265625 C-266.35048233 476.88860845 -268.74896958 474.37815385 -271.3125 471.75 C-272.11143677 470.94139526 -272.11143677 470.94139526 -272.92651367 470.11645508 C-276.39985749 466.57547274 -279.7198081 462.93535216 -282.93359375 459.15625 C-284.50773347 457.36620583 -286.1608315 455.71809782 -287.875 454.0625 C-291.56125836 450.43345629 -294.75398816 446.47385202 -297.9921875 442.4453125 C-300.21481841 439.72414756 -302.48949694 437.06849256 -304.80004883 434.42285156 C-311.80510708 426.38540943 -318.24180554 418.0032583 -324.5 409.375 C-325.23452393 408.36397217 -325.23452393 408.36397217 -325.98388672 407.33251953 C-377.29428076 336.39797215 -410.712597 255.88638494 -438.73828125 89.21875 C-438.80153595 88.54510406 -438.86479065 87.87145813 -438.92996216 87.17739868 C-440.03098436 74.96710436 -440.64800569 62.82755147 -440.59765625 50.56640625 C-440.59578352 49.2202103 -440.59436368 47.87401366 -440.59336853 46.52781677 C-440.58961048 43.04110725 -440.57984049 39.5544416 -440.56866455 36.06774902 C-440.55830318 32.48722934 -440.55383988 28.90670234 -440.54882812 25.32617188 C-440.53820976 18.34243027 -440.52121774 11.35871726 -440.5 4.375 C-414.13412201 -1.85447333 -387.73318411 -7.85222697 -361.21972656 -13.42138672 C-357.24656433 -14.25617668 -353.27473537 -15.09699408 -349.30371094 -15.94189453 C-235.86177792 -40.06774008 -148.22796283 -32.40245358 0 0 Z " fill="#24211F" transform="translate(751.5,107.625)"/>
<path d="M0 0 C53.46 0 106.92 0 162 0 C160.22428067 7.69478375 158.5118039 15.05463588 156.0625 22.5 C155.57359137 24.01021371 155.08532484 25.52063541 154.59765625 27.03125 C154.21613403 28.2066333 154.21613403 28.2066333 153.8269043 29.40576172 C152.88564081 32.3587779 151.98617403 35.32328945 151.0859375 38.2890625 C133.82274824 94.51002017 107.76491023 149.08119159 71.27685547 195.37158203 C69.94457665 197.07068331 68.62944903 198.782093 67.31640625 200.49609375 C62.0298635 207.36351793 56.52545351 213.90021911 50.59375 220.21875 C48.29425262 222.6844761 46.08270684 225.20264595 43.875 227.75 C31.16714108 241.89261719 16.38463614 254.83859731 1 266 C-1.75489655 264.70938389 -4.06900545 263.2931766 -6.43359375 261.3828125 C-7.39604004 260.60635376 -7.39604004 260.60635376 -8.37792969 259.81420898 C-9.39741699 258.97805054 -9.39741699 258.97805054 -10.4375 258.125 C-11.50919434 257.24726929 -11.50919434 257.24726929 -12.60253906 256.35180664 C-30.07979466 241.91924013 -47.11755769 225.93384894 -61 208 C-62.57965191 206.14269596 -64.16323257 204.28872867 -65.75 202.4375 C-120 137.4048913 -120 137.4048913 -120 114 C-80.4 114 -40.8 114 0 114 C0 76.38 0 38.76 0 0 Z " fill="#FDDB00" transform="translate(540,347)"/>
<path d="M0 0 C0.78218903 0.00215515 1.56437805 0.0043103 2.37026978 0.00653076 C15.92126274 0.06599283 29.06727529 1.0053589 42.4375 3.3125 C43.60055664 3.51117676 44.76361328 3.70985352 45.96191406 3.91455078 C53.4657085 5.21384593 60.95329583 6.58861358 68.43655396 8.00045776 C74.23434112 9.09277867 80.03802874 10.14997805 85.84375 11.19921875 C106.9511372 15.02907942 127.90583989 19.28461614 148.82081604 24.05093384 C154.01031855 25.22870175 159.21234291 26.30663014 164.4375 27.3125 C173.26974719 29.02170985 182.05301375 30.94803247 190.83642578 32.89013672 C192.47290515 33.25189838 194.10962044 33.61259466 195.74658203 33.97216797 C198.05839971 34.4805878 200.36917206 34.99351088 202.6796875 35.5078125 C203.71909988 35.73574997 203.71909988 35.73574997 204.7795105 35.96829224 C208.75825864 36.86073827 212.59238932 37.95614859 216.4375 39.3125 C216.91106735 72.84343114 216.6429145 105.83342122 212.69067383 139.17303467 C212.45534241 141.1617213 212.22830663 143.15138479 212.00195312 145.14111328 C210.80976305 155.54311993 209.27566886 165.81932056 207.23828125 176.08984375 C206.62692749 179.21897996 206.10025984 182.35424995 205.60546875 185.50390625 C200.9653828 214.99833903 194.51346822 244.43976957 185.23217773 272.83105469 C184.30168549 275.73659175 183.41734815 278.65484375 182.53125 281.57421875 C172.01772807 315.82202263 157.44316806 348.3320203 141.4375 380.3125 C140.95684082 381.28171387 140.47618164 382.25092773 139.98095703 383.24951172 C131.38717143 400.51192467 120.85388742 416.54724989 109.875 432.375 C109.30362305 433.20185303 108.73224609 434.02870605 108.14355469 434.88061523 C105.18656768 439.08428689 102.21191644 442.81923189 98.4375 446.3125 C99.92024164 442.04664438 102.18006248 438.60443602 104.75 434.9375 C114.52923487 420.61075714 122.8316848 405.19815726 130.34179688 389.57324219 C131.60925466 386.95812207 132.90664662 384.35866392 134.203125 381.7578125 C141.85910623 366.27284054 148.45163769 350.51276955 154.4375 334.3125 C154.68969299 333.63004211 154.94188599 332.94758423 155.20172119 332.2444458 C161.44374429 315.3041687 167.36626148 298.38653687 171.77978516 280.86474609 C172.46725835 278.19702345 173.20134084 275.54592637 173.94921875 272.89453125 C177.6388506 259.80097922 180.72676993 246.64222045 183.4375 233.3125 C183.69611816 232.04817139 183.69611816 232.04817139 183.95996094 230.75830078 C196.10825714 170.78644865 199.73818488 110.39632348 200.4375 49.3125 C199.84881134 49.2512796 199.26012268 49.1900592 198.65359497 49.12698364 C194.46062393 48.67843923 190.31873789 48.19034603 186.1796875 47.3671875 C185.2417334 47.18115967 184.3037793 46.99513184 183.33740234 46.8034668 C181.84007568 46.49856323 181.84007568 46.49856323 180.3125 46.1875 C179.23049316 45.96940674 178.14848633 45.75131348 177.03369141 45.52661133 C168.59851504 43.80425488 160.20417481 41.92169136 151.8125 40 C134.86499746 36.11967721 117.84176772 32.6360135 100.80029297 29.1953125 C97.06435031 28.44061342 93.33066208 27.67535891 89.59765625 26.90625 C72.27396818 23.35637075 54.87495734 20.24590404 37.4375 17.3125 C35.82536621 17.03696289 35.82536621 17.03696289 34.18066406 16.75585938 C6.7398009 12.15334908 -20.20033066 14.30241288 -47.40551758 19.52514648 C-51.5138847 20.31090569 -55.63150468 21.0342583 -59.75390625 21.7421875 C-75.19332414 24.4034303 -90.54785191 27.22131967 -105.82958984 30.69482422 C-110.73449148 31.80340034 -115.64885763 32.86847212 -120.5625 33.9375 C-121.44574951 34.13158447 -122.32899902 34.32566895 -123.23901367 34.52563477 C-128.29779674 35.63091116 -133.36490341 36.67440424 -138.4453125 37.67578125 C-148.13981209 39.60289753 -157.78622554 41.74364802 -167.4375 43.875 C-169.26820065 44.27812431 -171.09892968 44.68111975 -172.9296875 45.08398438 C-180.80909164 46.81875654 -188.68696174 48.56025681 -196.5625 50.3125 C-197.39428547 102.64284003 -195.02153876 154.75349886 -185.5625 206.3125 C-185.41485199 207.11731812 -185.26720398 207.92213623 -185.11508179 208.75134277 C-179.67090486 239.21358302 -179.67090486 239.21358302 -172.5625 269.3125 C-172.33304687 270.16569824 -172.10359375 271.01889648 -171.8671875 271.89794922 C-156.61617547 327.85511639 -136.07344453 386.49810353 -102.5625 434.3125 C-102.8925 434.9725 -103.2225 435.6325 -103.5625 436.3125 C-140.19554171 387.71336443 -165.20718437 329.37605475 -182.5625 271.3125 C-182.91006348 270.1584668 -183.25762695 269.00443359 -183.61572266 267.81542969 C-193.99833776 233.12381754 -201.2336773 197.59745265 -206.22077942 161.73750305 C-206.55885297 159.33838097 -206.90937433 156.94141732 -207.26391602 154.54467773 C-209.03241291 142.53396065 -210.59258166 130.5231531 -211.75 118.4375 C-211.83721313 117.53680786 -211.92442627 116.63611572 -212.01428223 115.70812988 C-214.39608222 90.3011621 -213.94536253 64.80107348 -213.5625 39.3125 C-202.42463198 36.29877662 -191.32137729 33.49404742 -180 31.25 C-177.47765927 30.73929423 -174.95552263 30.22757942 -172.43359375 29.71484375 C-171.24362793 29.47362793 -170.05366211 29.23241211 -168.82763672 28.98388672 C-164.72796122 28.14089976 -160.64376405 27.23988261 -156.5625 26.3125 C-146.00744707 23.9293805 -135.40588751 21.7713255 -124.80581665 19.59896851 C-120.50306594 18.71571024 -116.20337166 17.818774 -111.90516663 16.91366577 C-93.21386411 12.98002545 -74.49014889 9.30181046 -55.6875 5.9375 C-54.750271 5.76833069 -53.81304199 5.59916138 -52.84741211 5.42486572 C-35.1755982 2.24538709 -17.97769664 -0.09041429 0 0 Z " fill="#FAD800" transform="translate(538.5625,83.6875)"/>
<path d="M0 0 C36.63 0 73.26 0 111 0 C109.07474081 5.77577758 106.72306702 10.57727806 103.8125 15.875 C103.28640137 16.83317627 102.76030273 17.79135254 102.21826172 18.77856445 C92.05277224 37.069631 80.73548429 54.40517045 68 71 C67.40268066 71.78665039 66.80536133 72.57330078 66.18994141 73.38378906 C59.80703709 81.78854358 53.35932998 90.00322347 46.140625 97.7109375 C44.29910268 99.68015663 42.54898123 101.6890248 40.8125 103.75 C32.64496743 113.14266246 23.55782084 122.03220481 14 130 C12.88841666 130.95076439 11.77783606 131.90270173 10.66796875 132.85546875 C9.46641874 133.88313167 8.26459453 134.91047408 7.0625 135.9375 C6.48161621 136.43540039 5.90073242 136.93330078 5.30224609 137.44628906 C1.11474438 141 1.11474438 141 0 141 C0 94.47 0 47.94 0 0 Z " fill="#23201F" transform="translate(540,461)"/>
<path d="M0 0 C3.40751043 1.48018553 5.69783758 3.44495376 8.375 6 C11.75897321 9.08752597 14.40791103 11.05803303 19 12 C18.01 10.68 17.02 9.36 16 8 C16.33 7.34 16.66 6.68 17 6 C19.05078125 7.41601562 19.05078125 7.41601562 21.1015625 8.83203125 C23.08949515 10.13061865 23.08949515 10.13061865 25.84765625 11.12890625 C30.76068017 14.04506295 33.22073347 18.61398283 36.23632812 23.37109375 C38.97510195 27.48350017 38.97510195 27.48350017 43.24267578 29.63476562 C44.80677199 29.77733568 46.37605848 29.87233335 47.94604492 29.91552734 C50.54932613 30.02259204 52.11671835 30.78452826 54.25 32.25 C54.90613281 32.69859375 55.56226563 33.1471875 56.23828125 33.609375 C58 35 58 35 60.4375 37.5 C62.91265618 39.91478652 64.67920918 40.86656858 67.75 42.3125 C71.76707511 44.39098662 71.76707511 44.39098662 72.80078125 47.09375 C73.0625 49.3125 73.0625 49.3125 73 53 C67.63510405 53.90483637 62.49682543 54.12303662 57.0625 54.0625 C56.28326172 54.05798828 55.50402344 54.05347656 54.70117188 54.04882812 C52.80074732 54.03716908 50.90036294 54.01923877 49 54 C49.08870361 54.84896851 49.08870361 54.84896851 49.17919922 55.71508789 C49.46203075 58.47586547 49.73131305 61.23781011 50 64 C50.10602539 65.03753418 50.21205078 66.07506836 50.32128906 67.14404297 C51.85980056 83.39004917 52.2727049 97.5028276 42 111 C39.09968691 114.28312158 35.89438897 116.96078309 32 119 C31.34 119 30.68 119 30 119 C30.66 113.39 31.32 107.78 32 102 C31.58041016 103.80017578 31.58041016 103.80017578 31.15234375 105.63671875 C28.99036719 114.68890451 26.56408406 123.48195251 23.4375 132.25 C20.69545091 140.06673124 18.86515537 147.83007968 17.5 156 C17.32782959 157.02125977 17.15565918 158.04251953 16.97827148 159.09472656 C15.6850501 166.92694437 15.6850501 166.92694437 18.41015625 174.16796875 C19.22806641 175.16763672 19.22806641 175.16763672 20.0625 176.1875 C23 179.80235294 23 179.80235294 23 182 C19.37 182 15.74 182 12 182 C10.99088542 179.94921875 9.98177083 177.8984375 8.97265625 175.84765625 C8.13628173 174.03750973 8.13628173 174.03750973 7 173 C6.71085202 168.08448429 7.16550348 163.54001668 7.91015625 158.67578125 C9.04465873 150.92814412 9.86516701 143.16716481 10.625 135.375 C10.76019037 134.02732103 10.89560628 132.67966467 11.03125 131.33203125 C11.75298547 124.17900872 11.75298547 124.17900872 12 117 C11.34 118.65 10.68 120.3 10 122 C-0.52651714 122.26724585 -10.93532215 121.83528206 -21.4375 121.0625 C-22.64059814 120.97564941 -23.84369629 120.88879883 -25.08325195 120.79931641 C-33.74173125 120.12913438 -33.74173125 120.12913438 -36 119 C-35.90460938 118.30132812 -35.80921875 117.60265625 -35.7109375 116.8828125 C-35.60007812 115.97273438 -35.48921875 115.06265625 -35.375 114.125 C-35.25898438 113.22007812 -35.14296875 112.31515625 -35.0234375 111.3828125 C-35.01570313 110.59648437 -35.00796875 109.81015625 -35 109 C-35.99 108.01 -35.99 108.01 -37 107 C-36.65775391 107.78117187 -36.65775391 107.78117187 -36.30859375 108.578125 C-35.8524828 112.15772996 -37.43925806 114.66949177 -39.0625 117.75 C-39.65160156 118.92046875 -40.24070312 120.0909375 -40.84765625 121.296875 C-41.54971263 122.54006847 -42.26807387 123.77415446 -43 125 C-43.40500732 125.67998047 -43.81001465 126.35996094 -44.22729492 127.06054688 C-48.7324271 133.84092598 -54.5995639 136.09792499 -61.91992188 139.1328125 C-67.67727561 141.6647484 -67.67727561 141.6647484 -71.00390625 146.7421875 C-71.38377685 148.14940915 -71.71479017 149.57058411 -72 151 C-72.16717529 151.73637695 -72.33435059 152.47275391 -72.5065918 153.23144531 C-72.98745827 155.52250256 -73.37972011 157.81367395 -73.75 160.125 C-73.95689453 161.28322266 -73.95689453 161.28322266 -74.16796875 162.46484375 C-75.19137879 168.6580571 -74.92315901 173.34855925 -72 179 C-72 179.99 -72 180.98 -72 182 C-74.97 182 -77.94 182 -81 182 C-84.88930467 175.62154035 -84.15764214 169.69228244 -83.29199219 162.45654297 C-83.08038106 160.67624936 -82.88822065 158.89360876 -82.70800781 157.10986328 C-80.49808795 136.00280588 -80.49808795 136.00280588 -73.9375 130.3125 C-73.08027344 129.75175781 -72.22304688 129.19101563 -71.33984375 128.61328125 C-68.33998087 126.54492838 -67.21864837 125.47860448 -66 122 C-66.37958783 118.18986311 -67.3324303 114.57003051 -68.3125 110.875 C-68.81098019 108.89382809 -69.30717875 106.9120803 -69.80078125 104.9296875 C-70.02934814 104.05554199 -70.25791504 103.18139648 -70.4934082 102.28076172 C-71 100 -71 100 -71 97 C-70.34 97 -69.68 97 -69 97 C-68.60167969 96.12601563 -68.60167969 96.12601563 -68.1953125 95.234375 C-66.96697004 92.93825772 -65.59685061 91.19643982 -63.875 89.25 C-63.33617187 88.63640625 -62.79734375 88.0228125 -62.2421875 87.390625 C-61.83226562 86.93171875 -61.42234375 86.4728125 -61 86 C-61.721875 86.0825 -62.44375 86.165 -63.1875 86.25 C-66.89340735 85.92058601 -68.40311527 84.59688473 -71 82 C-71 81.01 -71 80.02 -71 79 C-61.41676226 78.8276984 -51.83342906 78.66127505 -42.25 78.5 C-41.54442711 78.48812275 -40.83885422 78.4762455 -40.11190033 78.46400833 C-17.73996306 78.08924082 4.62444167 77.84700071 27 78 C26.98839844 76.86046875 26.97679687 75.7209375 26.96484375 74.546875 C26.90340889 65.68513308 27.00885697 56.85265787 27.4375 48 C27.47673584 47.14631836 27.51597168 46.29263672 27.55639648 45.41308594 C27.59837158 44.61676758 27.64034668 43.82044922 27.68359375 43 C27.72025146 42.29875 27.75690918 41.5975 27.79467773 40.875 C28 39 28 39 29 36 C26.69 36 24.38 36 22 36 C20.68 33.69 19.36 31.38 18 29 C20.64 29 23.28 29 26 29 C25.0319143 27.19088985 24.02390192 25.40311538 23 23.625 C22.443125 22.62726563 21.88625 21.62953125 21.3125 20.6015625 C18.85257806 17.83415032 18.47987979 17.68038551 15.08984375 17.0859375 C10.77673523 16.26491684 9.21917954 14.50017422 6.79101562 10.9453125 C6.38560547 10.30335937 5.98019531 9.66140625 5.5625 9 C4.9137793 8.03707031 4.9137793 8.03707031 4.25195312 7.0546875 C2.71627026 4.75717135 1.23690915 2.4738183 0 0 Z " fill="#FBDA00" transform="translate(539,114)"/>
<path d="M0 0 C19.24137931 0 19.24137931 0 26.875 4.8125 C30.93133489 8.98813885 32.199117 12.62996958 32.4375 18.375 C32.23773495 25.0489686 30.32980217 29.60723021 25.6875 34.375 C17.28731389 39.4541823 10.00918116 38 0 38 C0 25.46 0 12.92 0 0 Z " fill="#F4D301" transform="translate(522,300)"/>
<path d="M0 0 C20.4 0 20.4 0 27 5.5 C30.53656496 9.9207062 31.29446711 12.16820676 31.3125 17.8125 C31.32925781 19.01519531 31.34601563 20.21789062 31.36328125 21.45703125 C30.8071682 26.88062839 29.03589724 30.00914177 25.125 33.75 C16.49938403 39.96044349 12.23315764 38 0 38 C0 25.46 0 12.92 0 0 Z " fill="#F7D601" transform="translate(461,300)"/>
<path d="M0 0 C1.98 0 3.96 0 6 0 C4.56864833 4.72664128 2.59260293 9.00822935 0.3046875 13.3671875 C-0.04761932 14.04677521 -0.39992615 14.72636292 -0.76290894 15.42654419 C-1.8795268 17.57817889 -3.00215335 19.72661044 -4.125 21.875 C-4.88711919 23.34093772 -5.64884204 24.80708156 -6.41015625 26.2734375 C-8.26886161 29.85135882 -10.1329592 33.42642173 -12 37 C-12.66 37 -13.32 37 -14 37 C-14.33773438 36.28972656 -14.67546875 35.57945312 -15.0234375 34.84765625 C-15.46945312 33.92855469 -15.91546875 33.00945312 -16.375 32.0625 C-16.81585938 31.14597656 -17.25671875 30.22945313 -17.7109375 29.28515625 C-18.79199162 26.87096198 -18.79199162 26.87096198 -21 26 C-21.268125 26.886875 -21.53625 27.77375 -21.8125 28.6875 C-22.91710819 31.76877548 -24.22849144 34.26221405 -26 37 C-29.31831696 34.22057719 -31.04127828 30.50944761 -33.01171875 26.7421875 C-33.38480667 26.03853058 -33.75789459 25.33487366 -34.14228821 24.6098938 C-34.92727303 23.12687151 -35.709623 21.64245195 -36.48950195 20.15673828 C-37.68830043 17.87347548 -38.8951848 15.59463635 -40.10351562 13.31640625 C-40.86505777 11.8752506 -41.62614163 10.43385268 -42.38671875 8.9921875 C-42.93038338 7.96410477 -42.93038338 7.96410477 -43.48503113 6.91525269 C-46 2.11678598 -46 2.11678598 -46 1 C-44.02 1 -42.04 1 -40 1 C-35.41996353 8.8872092 -30.94470614 16.76921892 -27 25 C-25.24471981 22.8552976 -25.24471981 22.8552976 -24 20 C-24.88434253 14.6939448 -28.11694064 10.01530969 -30.7578125 5.390625 C-32 3 -32 3 -32 1 C-30.02 1 -28.04 1 -26 1 C-25.16151196 2.45537568 -24.32936066 3.91440373 -23.5 5.375 C-22.80390625 6.59316406 -22.80390625 6.59316406 -22.09375 7.8359375 C-21 10 -21 10 -21 12 C-20.34 12 -19.68 12 -19 12 C-18.731875 11.29875 -18.46375 10.5975 -18.1875 9.875 C-16.9318551 6.8350176 -15.49764877 3.9272226 -14 1 C-12.02 1 -10.04 1 -8 1 C-9.15962261 5.29060367 -10.9883834 8.71514848 -13.25 12.5 C-15.75472086 16.79092568 -15.75472086 16.79092568 -15.375 21.6875 C-14.92125 22.450625 -14.4675 23.21375 -14 24 C-11.38019883 21.64924131 -9.90765424 19.23250529 -8.30078125 16.11328125 C-7.81416016 15.17548828 -7.32753906 14.23769531 -6.82617188 13.27148438 C-6.32666016 12.29501953 -5.82714844 11.31855469 -5.3125 10.3125 C-4.80138672 9.32443359 -4.29027344 8.33636719 -3.76367188 7.31835938 C-2.50402545 4.8814733 -1.24969721 2.44199904 0 0 Z " fill="#F6D501" transform="translate(423,300)"/>
<path d="M0 0 C1.14680113 3.96004764 1.24507192 5.52744235 -0.6875 9.25390625 C-1.44176795 10.36816572 -2.21318154 11.47098224 -3 12.5625 C-6.08487 16.54229121 -6.08487 16.54229121 -6.74658203 21.32666016 C-5.25627156 26.66312178 -3.00484985 31.70595841 -0.875 36.8125 C-0.41351562 37.96298828 0.04796875 39.11347656 0.5234375 40.29882812 C3.16186814 46.62308838 5.82266992 51.63620221 10.67529297 56.51831055 C12 58 12 58 12 60 C8.51363459 60.5682004 5.48103694 60.6532134 2 60 C-4.64936069 54.50510558 -8.37136663 44.99182584 -12.04663086 37.35107422 C-13.07229777 35.22973573 -14.12789855 33.12507325 -15.18554688 31.01953125 C-15.84560466 29.66496467 -16.50387522 28.30952542 -17.16015625 26.953125 C-17.47662613 26.32907776 -17.79309601 25.70503052 -18.11915588 25.06207275 C-19.53927414 22.04050951 -20.13697002 20.48641643 -19.21655273 17.21777344 C-18.61435913 16.11997559 -18.61435913 16.11997559 -18 15 C-17.04291243 11.26735846 -16.96829188 7.84196717 -17 4 C-15.10751181 3.32389577 -13.2108398 2.65949561 -11.3125 2 C-10.25675781 1.62875 -9.20101563 1.2575 -8.11328125 0.875 C-5.21637944 0.0608143 -2.98299377 -0.17709796 0 0 Z " fill="#F6D601" transform="translate(515,237)"/>
<path d="M0 0 C2 1 2 1 3.26171875 4.375 C3.74598539 5.9138614 4.22045391 7.45582497 4.6875 9 C4.94370117 9.82854492 5.19990234 10.65708984 5.46386719 11.51074219 C8.30280948 20.79779832 10.89855463 30.15556791 13.484375 39.515625 C13.74984131 40.46775879 14.01530762 41.41989258 14.28881836 42.40087891 C14.7198806 43.97626119 15.13639814 45.55585567 15.52563477 47.14208984 C16.48590448 50.94972395 17.70103778 53.31203454 20.4375 56.125 C27 63.1796875 27 63.1796875 27 67 C23.37 67 19.74 67 16 67 C15.12109375 65.11197917 14.2421875 63.22395833 13.36328125 61.3359375 C12.03819502 58.84307584 12.03819502 58.84307584 9.66796875 56.640625 C5.33381329 51.57331688 3.94274271 44.63579195 2 38.375 C1.17393175 35.75546013 0.33864103 33.1389759 -0.5 30.5234375 C-0.70117432 29.88662048 -0.90234863 29.24980347 -1.10961914 28.59368896 C-2.7919595 23.37062848 -4.92027856 18.42544994 -7.27734375 13.47509766 C-8 11 -8 11 -7.22314453 8.78955078 C-5.87969282 6.82398171 -4.45267393 5.03345749 -2.875 3.25 C-2.33617187 2.63640625 -1.79734375 2.0228125 -1.2421875 1.390625 C-0.62730469 0.70226562 -0.62730469 0.70226562 0 0 Z " fill="#F7D601" transform="translate(580,230)"/>
<path d="M0 0 C1.88645319 0.93820052 3.70809724 2.00477098 5.51171875 3.09375 C5.51171875 4.08375 5.51171875 5.07375 5.51171875 6.09375 C3.82421875 7.28125 3.82421875 7.28125 1.51171875 8.09375 C0.76921875 7.64 0.02671875 7.18625 -0.73828125 6.71875 C-5.21490188 4.07347417 -9.42181142 4.59959417 -14.36328125 5.78125 C-17.1826285 7.52261153 -17.48089106 8.96995673 -18.48828125 12.09375 C-19.11747294 17.18581297 -19.30790566 21.60628348 -16.80078125 26.15625 C-12.51044465 29.75085634 -9.02629991 30.43987617 -3.48828125 30.09375 C-1.81374326 29.802526 -0.1427723 29.48304201 1.51171875 29.09375 C1.51171875 26.12375 1.51171875 23.15375 1.51171875 20.09375 C-2.11828125 20.09375 -5.74828125 20.09375 -9.48828125 20.09375 C-9.48828125 18.11375 -9.48828125 16.13375 -9.48828125 14.09375 C-3.87828125 14.09375 1.73171875 14.09375 7.51171875 14.09375 C7.51171875 19.70375 7.51171875 25.31375 7.51171875 31.09375 C-0.27876948 35.74478775 -6.41080272 37.35417426 -15.48828125 36.09375 C-19.87381019 34.3241506 -21.71282981 32.16556698 -23.86328125 28.09375 C-26.03970652 22.49591044 -26.55042896 17.00798158 -25.48828125 11.09375 C-20.62481586 0.85049241 -10.88510232 -3.96443287 0 0 Z " fill="#F0D002" transform="translate(612.48828125,301.90625)"/>
<path d="M0 0 C0.66 0 1.32 0 2 0 C4.42350663 5.10748713 6.8445182 10.21614624 9.26318359 15.32592773 C10.08703536 17.06551368 10.9115786 18.80477232 11.73681641 20.54370117 C12.9200977 23.03739902 14.10092016 25.53224782 15.28125 28.02734375 C15.65310425 28.80963852 16.0249585 29.59193329 16.40808105 30.39793396 C19 35.88612829 19 35.88612829 19 37 C16.69 37 14.38 37 12 37 C11.01 33.535 11.01 33.535 10 30 C4.06 30 -1.88 30 -8 30 C-8.66 32.31 -9.32 34.62 -10 37 C-12.31 37 -14.62 37 -17 37 C-11.46516321 24.60266131 -5.82913573 12.2618332 0 0 Z " fill="#EFCF02" transform="translate(436,301)"/>
<path d="M0 0 C3.05187385 1.52593693 3.53387488 3.94188327 4.93359375 7.01171875 C5.21219742 7.61756302 5.49080109 8.22340729 5.77784729 8.84761047 C6.67037277 10.79156883 7.55416309 12.73935152 8.4375 14.6875 C9.31907437 16.61692432 10.20242263 18.54552557 11.08644104 20.47383118 C11.89320344 22.23599648 12.69561861 24.00015013 13.49780273 25.7644043 C14.51788863 27.96157614 15.58453575 30.13760493 16.69165039 32.29223633 C18 35 18 35 18 37 C16.02 37 14.04 37 12 37 C11.01 35.02 10.02 33.04 9 31 C3.39 31 -2.22 31 -8 31 C-8.99 32.98 -9.98 34.96 -11 37 C-12.98 37 -14.96 37 -17 37 C-15.5815655 32.46109632 -13.79908381 28.18267731 -11.77734375 23.88671875 C-11.47180069 23.23169876 -11.16625763 22.57667877 -10.85145569 21.90180969 C-10.2100845 20.52877217 -9.56711117 19.156482 -8.92260742 17.78491211 C-7.93313571 15.6782079 -6.94961485 13.56879961 -5.96679688 11.45898438 C-5.34149394 10.12223294 -4.71585494 8.78563865 -4.08984375 7.44921875 C-3.79504623 6.81698898 -3.50024872 6.18475922 -3.19651794 5.53337097 C-1.1155429 1.1155429 -1.1155429 1.1155429 0 0 Z " fill="#F2D201" transform="translate(672,301)"/>
<path d="M0 0 C13.78378378 0 13.78378378 0 18 4 C21.16127331 7.68815219 21.52774774 11.07928723 21.34765625 15.78515625 C20.60631128 20.50810676 18.18464644 23.13318553 14.4375 25.875 C11 27 11 27 0 27 C0 18.09 0 9.18 0 0 Z " fill="#2D281E" transform="translate(466,306)"/>
<path d="M0 0 C12.86206897 0 12.86206897 0 17 3 C20.42811084 6.77092192 20.51171431 10.67059002 20.3515625 15.5625 C19.68186218 20.20575557 17.30185478 22.81649566 13.9375 25.875 C11 27 11 27 0 27 C0 18.09 0 9.18 0 0 Z " fill="#26221F" transform="translate(528,306)"/>
<path d="M0 0 C7.26 0 14.52 0 22 0 C22 1.32 22 2.64 22 4 C16.72 4 11.44 4 6 4 C6 7.96 6 11.92 6 16 C11.28 16 16.56 16 22 16 C22 17.32 22 18.64 22 20 C16.72 20 11.44 20 6 20 C6 23.96 6 27.92 6 32 C11.28 32 16.56 32 22 32 C22 33.65 22 35.3 22 37 C14.74 37 7.48 37 0 37 C0 24.79 0 12.58 0 0 Z " fill="#F5D401" transform="translate(559,301)"/>
<path d="M0 0 C1.65 0 3.3 0 5 0 C5 10.56 5 21.12 5 32 C10.94 32 16.88 32 23 32 C23 33.65 23 35.3 23 37 C15.41 37 7.82 37 0 37 C0 24.79 0 12.58 0 0 Z " fill="#FDDB00" transform="translate(626,301)"/>
<path d="M0 0 C1.98 0 3.96 0 6 0 C6 12.21 6 24.42 6 37 C4.02 37 2.04 37 0 37 C0 24.79 0 12.58 0 0 Z " fill="#EDCE02" transform="translate(498,301)"/>
<path d="M0 0 C3.15702316 3.90869534 6 7.8614939 6 13 C2.37 13 -1.26 13 -5 13 C-4.22998773 9.14993864 -3.6738858 6.99223427 -1.9375 3.6875 C-1.57527344 2.99011719 -1.21304688 2.29273438 -0.83984375 1.57421875 C-0.56269531 1.05472656 -0.28554688 0.53523438 0 0 Z " fill="#3C351C" transform="translate(672,313)"/>
<path d="M0 0 C0.33 0.99 0.66 1.98 1 3 C-0.53823652 5.60293748 -2.11340868 7.99244663 -3.875 10.4375 C-4.37298096 11.14455078 -4.87096191 11.85160156 -5.3840332 12.58007812 C-9.79791002 18.812756 -14.35193794 24.94030428 -19 31 C-19 27.57670223 -18.37056402 26.65059299 -16.55078125 23.83203125 C-16.03193359 23.02056641 -15.51308594 22.20910156 -14.97851562 21.37304688 C-14.42873047 20.52806641 -13.87894531 19.68308594 -13.3125 18.8125 C-12.24595992 17.15242972 -11.17955239 15.49227428 -10.11328125 13.83203125 C-9.59072754 13.02588379 -9.06817383 12.21973633 -8.52978516 11.38916016 C-6.65406827 8.45973701 -4.8515693 5.48847052 -3.06713867 2.50268555 C-2 1 -2 1 0 0 Z " fill="#DFC204" transform="translate(657,499)"/>
<path d="M0 0 C0.66 0 1.32 0 2 0 C2.67408308 1.26691507 3.33900497 2.53870749 4 3.8125 C4.556875 4.87404297 4.556875 4.87404297 5.125 5.95703125 C6 8 6 8 6 11 C2.7 11 -0.6 11 -4 11 C-3.39301257 6.87248551 -1.96189209 3.6678852 0 0 Z " fill="#2D291E" transform="translate(436,314)"/>
<path d="M0 0 C4.34622588 1.51519801 6.30781672 4.83274759 8.75 8.5 C9.36681641 9.39138672 9.36681641 9.39138672 9.99609375 10.30078125 C13 14.72181271 13 14.72181271 13 17 C12.34 17 11.68 17 11 17 C9.22356837 14.76246465 7.56762068 12.52777227 5.9375 10.1875 C5.47794922 9.54490234 5.01839844 8.90230469 4.54492188 8.24023438 C2.58081183 5.4570241 1.08732379 3.26197136 0 0 Z " fill="#473F1A" transform="translate(561,127)"/>
<path d="M0 0 C0.66 0 1.32 0 2 0 C2.54269531 0.96421875 3.08539063 1.9284375 3.64453125 2.921875 C4.3670425 4.19799877 5.08970683 5.47403588 5.8125 6.75 C6.16892578 7.38421875 6.52535156 8.0184375 6.89257812 8.671875 C8.75248735 11.94804537 10.63839084 15.04985101 13 18 C12.67 18.66 12.34 19.32 12 20 C9.31932898 16.34335652 6.6534978 12.67641108 4 9 C3.53078125 8.35289062 3.0615625 7.70578125 2.578125 7.0390625 C0.74535673 4.42271939 0 3.28245541 0 0 Z " fill="#DDC004" transform="translate(423,500)"/>
<path d="M0 0 C0.33 0.99 0.66 1.98 1 3 C-0.43359375 5.48046875 -0.43359375 5.48046875 -2.4375 8.1875 C-3.09621094 9.08855469 -3.75492188 9.98960937 -4.43359375 10.91796875 C-5.20896484 11.94857422 -5.20896484 11.94857422 -6 13 C-6.66 12.34 -7.32 11.68 -8 11 C-7.04801289 9.35048774 -6.08820855 7.70548492 -5.125 6.0625 C-4.59132813 5.14597656 -4.05765625 4.22945313 -3.5078125 3.28515625 C-2 1 -2 1 0 0 Z " fill="#ECCC02" transform="translate(657,499)"/>
<path d="M0 0 C2.0625 1.5625 2.0625 1.5625 4 4 C4 7.625 4 7.625 3 11 C0.9375 12.4375 0.9375 12.4375 -1 13 C-0.07751938 8.25581395 -0.07751938 8.25581395 0.625 5.9375 C1.06506291 3.66384163 0.70205558 2.18417292 0 0 Z " fill="#3D361C" transform="translate(501,219)"/>
<path d="M0 0 C1.22602512 3.67807537 0.70295577 5.88243927 0.0625 9.6875 C-0.13214844 10.86699219 -0.32679688 12.04648438 -0.52734375 13.26171875 C-0.68332031 14.16535156 -0.83929687 15.06898438 -1 16 C-1.99 15.67 -2.98 15.34 -4 15 C-3.52396226 12.87429688 -3.04407402 10.74945573 -2.5625 8.625 C-2.29566406 7.44164062 -2.02882813 6.25828125 -1.75390625 5.0390625 C-1 2 -1 2 0 0 Z " fill="#6D6015" transform="translate(571,214)"/>
<path d="M0 0 C0.66 0 1.32 0 2 0 C3.32 2.64 4.64 5.28 6 8 C5.01 8.495 5.01 8.495 4 9 C0 3.375 0 3.375 0 0 Z " fill="#E6C703" transform="translate(423,500)"/>
</svg>
