<?xml version="1.0" encoding="UTF-8"?>
<svg version="1.1" xmlns="http://www.w3.org/2000/svg" width="1080" height="700">
<path d="M0 0 C14.19 0 28.38 0 43 0 C44.35996094 5.90777344 45.71992187 11.81554687 47.12109375 17.90234375 C47.98202128 21.63485906 48.843162 25.36732257 49.70507812 29.09960938 C51.07444986 35.02938436 52.44300951 40.9593389 53.80688477 46.89038086 C54.90597229 51.66972268 56.00857457 56.44824087 57.11366463 61.2261982 C57.5355785 63.05323699 57.9562045 64.88057367 58.37554741 66.70820427 C58.96111445 69.25930338 59.55116756 71.80932441 60.14233398 74.35913086 C60.31640274 75.12229614 60.4904715 75.88546143 60.66981506 76.67175293 C61.24603589 80.12341779 61.24603589 80.12341779 63 83 C63.23581284 81.98966705 63.47162567 80.97933411 63.71458435 79.93838501 C65.93378633 70.43176161 68.15562401 60.92575761 70.38006496 51.42035866 C71.52367225 46.53315375 72.66633942 41.64573297 73.80688477 36.7578125 C74.90695056 32.04352553 76.00945092 27.32981411 77.11366463 22.61649704 C77.53518068 20.81531567 77.95580882 19.01392628 78.37554741 17.21232986 C78.96214938 14.69520121 79.55186199 12.17882084 80.14233398 9.66259766 C80.31640274 8.91237839 80.4904715 8.16215912 80.66981506 7.38920593 C81.88594784 2.22810432 81.88594784 2.22810432 83 0 C96.86 0 110.72 0 125 0 C125.02254748 15.36801715 125.04097944 30.73602687 125.05181217 46.10405636 C125.05697501 53.23921741 125.06401748 60.37436748 125.07543945 67.50952148 C125.08644675 74.38889737 125.09227617 81.26826181 125.09487724 88.14764595 C125.09673206 90.77881615 125.10035373 93.40998569 125.10573006 96.04115105 C125.11293635 99.7122625 125.11399112 103.38332603 125.11352539 107.05444336 C125.11712067 108.15423523 125.12071594 109.2540271 125.12442017 110.387146 C125.1230455 111.38139084 125.12167084 112.37563568 125.12025452 113.40000916 C125.12117631 114.26925994 125.1220981 115.13851072 125.12304783 116.03410244 C125 118 125 118 124 119 C115.75 119 107.5 119 99 119 C98.67 90.62 98.34 62.24 98 33 C95.74349609 42.18650391 95.74349609 42.18650391 93.44140625 51.55859375 C92.48932214 55.42783125 91.53703058 59.2970153 90.58398438 63.16601562 C89.06981224 69.31305701 87.55643056 75.46028575 86.04760742 81.60864258 C84.83172533 86.56307606 83.61242302 91.51665606 82.39069939 96.46965218 C81.9241626 98.36366571 81.45887925 100.25798843 80.99484444 102.1526165 C80.34692104 104.79714305 79.69463234 107.44055558 79.04125977 110.08374023 C78.84848953 110.87495773 78.6557193 111.66617523 78.45710754 112.48136902 C77.11405216 117.88594784 77.11405216 117.88594784 76 119 C66.43 119 56.86 119 47 119 C40.4 91.61 33.8 64.22 27 36 C26.67 63.39 26.34 90.78 26 119 C17.42 119 8.84 119 0 119 C0 79.73 0 40.46 0 0 Z " fill="#ED1C24" transform="translate(549,268)"/>
<path d="M0 0 C1.45228718 0.05527737 2.90477809 0.10545002 4.35742188 0.15039062 C7.88840354 0.27063026 11.41162573 0.45978795 14.9375 0.6875 C12.76809713 3.99203863 10.60655385 7.2313424 8.08984375 10.28125 C7.57292969 10.91160156 7.05601562 11.54195313 6.5234375 12.19140625 C5.97945313 12.85011719 5.43546875 13.50882812 4.875 14.1875 C0.22275591 19.86428323 -4.36482559 25.58198352 -8.87475586 31.37231445 C-11.41164927 34.61840701 -13.98605141 37.82850528 -16.6015625 41.01171875 C-17.49584961 42.10129883 -17.49584961 42.10129883 -18.40820312 43.21289062 C-19.57235061 44.62750233 -20.74018088 46.03909333 -21.91210938 47.44726562 C-22.43869141 48.08728516 -22.96527344 48.72730469 -23.5078125 49.38671875 C-23.97719238 49.95221436 -24.44657227 50.51770996 -24.93017578 51.1003418 C-26.26583905 52.80827849 -26.26583905 52.80827849 -27.0625 55.6875 C-20.39891956 62.55999799 -20.39891956 62.55999799 -13.0625 68.6875 C-9.01033718 67.14731142 -7.22894322 64.62235159 -4.6875 61.1875 C-3.80421218 60.00849474 -2.920047 58.83014643 -2.03515625 57.65234375 C-1.55965332 57.01538574 -1.08415039 56.37842773 -0.59423828 55.72216797 C1.02429672 53.57220452 2.6660472 51.44203135 4.31640625 49.31640625 C4.89720947 48.5672998 5.4780127 47.81819336 6.07641602 47.04638672 C7.28268519 45.50625263 8.5008298 43.97535135 9.73022461 42.45361328 C12.58169688 38.89658685 15.13769236 35.50729879 17.1875 31.42578125 C19.47994791 27.19120729 21.44723304 23.78346145 25.9375 21.6875 C36.14820444 19.9847668 46.67344256 20.8338036 56.9375 21.6875 C55.63984874 24.47204333 54.21065368 26.75991613 52.25 29.12109375 C51.72148437 29.76304687 51.19296875 30.405 50.6484375 31.06640625 C49.80152344 32.08541016 49.80152344 32.08541016 48.9375 33.125 C44.85544844 38.08819926 40.82910293 43.07337049 36.9375 48.1875 C33.25673521 53.01590228 29.47298751 57.74157341 25.625 62.4375 C18.85822137 70.69979442 12.37838708 79.16992756 5.9375 87.6875 C9.78576649 92.29030732 13.77243055 96.66162457 18.03466797 100.88232422 C18.61100479 101.45720078 19.18734161 102.03207733 19.78114319 102.62437439 C21.01912055 103.85857708 22.2582506 105.09162447 23.49843979 106.32360458 C25.45881562 108.2711246 27.41596923 110.2218326 29.37234497 112.17337036 C33.51625111 116.30590799 37.66410093 120.43447322 41.8125 124.5625 C46.64159887 129.36801454 51.46907683 134.17513453 56.29239273 138.98645401 C58.22487838 140.91243663 60.16033828 142.83539661 62.09591675 144.75827026 C63.26965701 145.92838129 64.44325895 147.09863109 65.61669922 148.26904297 C66.15896652 148.80614395 66.70123383 149.34324493 67.25993347 149.8966217 C68.5049075 151.14141579 69.72431849 152.41170093 70.9375 153.6875 C70.9375 154.0175 70.9375 154.3475 70.9375 154.6875 C35.74264454 157.62306124 35.74264454 157.62306124 27.8359375 151.88671875 C24.46118581 148.53569578 21.88813 144.60376193 19.22167969 140.68212891 C14.71389655 134.77228838 9.21732389 129.73216511 3.90655518 124.55090332 C0.74821839 121.46178151 -2.37337154 118.33599053 -5.5 115.21484375 C-7.35323859 113.3714591 -9.20783966 111.52945451 -11.0625 109.6875 C-14.63044081 113.20323246 -17.7837877 116.75625682 -20.8125 120.75 C-22.04011093 122.36174747 -23.27003928 123.97196817 -24.52563477 125.56201172 C-26.19197515 127.7883893 -26.19197515 127.7883893 -27.83178711 130.77001953 C-33.04458045 139.15185926 -33.04458045 139.15185926 -38.69091797 140.65063477 C-42.85644002 141.01166548 -46.96432152 140.73954218 -51.125 140.4375 C-52.57725173 140.37719889 -54.02974584 140.3224647 -55.48242188 140.2734375 C-59.01421562 140.14223682 -62.53678233 139.93590211 -66.0625 139.6875 C-64.77141619 136.92094582 -63.3560196 134.63787933 -61.41015625 132.2890625 C-60.88655518 131.65194336 -60.3629541 131.01482422 -59.82348633 130.35839844 C-59.26298584 129.68325195 -58.70248535 129.00810547 -58.125 128.3125 C-56.94173128 126.87319853 -55.7594564 125.43307949 -54.578125 123.9921875 C-53.68963867 122.9088916 -53.68963867 122.9088916 -52.78320312 121.80371094 C-49.81449709 118.15264057 -46.92602851 114.4395247 -44.04418945 110.71972656 C-41.80417289 107.84449377 -39.52073632 105.03309455 -37.12109375 102.2890625 C-36.64953857 101.74540039 -36.1779834 101.20173828 -35.69213867 100.64160156 C-34.39376094 99.15550933 -33.080172 97.68274626 -31.765625 96.2109375 C-29.82501734 93.92030373 -29.82501734 93.92030373 -30.2722168 91.73193359 C-31.17891313 89.38634351 -32.20518463 88.19945667 -34.00390625 86.453125 C-34.58720703 85.87949219 -35.17050781 85.30585938 -35.77148438 84.71484375 C-36.38314453 84.12832031 -36.99480469 83.54179687 -37.625 82.9375 C-38.24052734 82.33550781 -38.85605469 81.73351562 -39.49023438 81.11328125 C-41.00764813 79.63115619 -42.53420596 78.1584033 -44.0625 76.6875 C-47.98145491 80.32178506 -51.05329107 84.49270947 -54.25 88.75 C-67.11970899 105.74470899 -67.11970899 105.74470899 -71.0625 109.6875 C-73.28105264 109.77533542 -75.50238496 109.79444609 -77.72265625 109.78515625 C-78.71935585 109.78303383 -78.71935585 109.78303383 -79.7361908 109.78086853 C-81.86583899 109.77525518 -83.99538339 109.76270054 -86.125 109.75 C-87.56575369 109.74498671 -89.00650903 109.74042351 -90.44726562 109.73632812 C-93.98571102 109.72528145 -97.52409539 109.70800792 -101.0625 109.6875 C-99.43494158 105.30014856 -97.20667396 102.22041601 -94.125 98.75 C-90.20859726 94.23469386 -86.41144248 89.66202945 -82.75 84.9375 C-77.83437757 78.59791117 -72.74031598 72.41694209 -67.5690918 66.28417969 C-66.71118042 65.25599121 -66.71118042 65.25599121 -65.8359375 64.20703125 C-65.32466309 63.59964111 -64.81338867 62.99225098 -64.28662109 62.36645508 C-62.86150945 60.59016172 -62.86150945 60.59016172 -62.0625 57.6875 C-62.48845459 57.26598663 -62.91440918 56.84447327 -63.35327148 56.41018677 C-67.77112193 52.03645884 -72.1820152 47.655805 -76.58886719 43.27099609 C-78.23616638 41.63377709 -79.88525301 39.99835455 -81.53613281 38.36474609 C-83.90377404 36.02126447 -86.26498847 33.6714743 -88.625 31.3203125 C-89.3687085 30.58692657 -90.11241699 29.85354065 -90.87866211 29.09793091 C-91.55936768 28.4173764 -92.24007324 27.7368219 -92.94140625 27.03564453 C-93.5454126 26.43607941 -94.14941895 25.83651428 -94.77172852 25.21878052 C-96.0625 23.6875 -96.0625 23.6875 -96.0625 21.6875 C-62.46311728 19.07947531 -62.46311728 19.07947531 -54.33203125 25.02734375 C-50.6058521 28.51157958 -47.72692079 32.35007081 -45.0625 36.6875 C-40.34565988 31.42708678 -35.92673096 26.02555909 -31.6875 20.375 C-30.09260854 18.2531532 -28.49308538 16.14097221 -26.84838867 14.05737305 C-24.97329946 11.64102362 -24.97329946 11.64102362 -23.20825195 8.71801758 C-16.79111103 -0.74118801 -10.45913853 -0.69600248 0 0 Z " fill="#ED1C24" transform="translate(290.0625,277.3125)"/>
<path d="M0 0 C8.58 0 17.16 0 26 0 C26.33 11.88 26.66 23.76 27 36 C29.97 34.35 32.94 32.7 36 31 C47.82318709 27.34872163 59.63065326 28.1231089 71 33 C73.97961267 34.72034209 76.4648384 36.68358022 79 39 C79.60328125 39.50144531 80.2065625 40.00289063 80.828125 40.51953125 C90.45249792 49.11869923 94.23671862 61.95468551 95.02734375 74.4609375 C94.92061088 88.27522042 89.85746123 99.83241272 80.44921875 109.73828125 C71.85246952 117.67690614 61.17010594 121.66255141 49.46484375 121.21875 C41.02149793 120.46941978 34.40436835 118.12754151 27 114 C26.34 115.65 25.68 117.3 25 119 C16.75 119 8.5 119 0 119 C0 79.73 0 40.46 0 0 Z M28.4453125 62.96484375 C24.32268 68.769956 24.28134068 74.00205487 25 81 C26.71559601 86.95584752 29.98576145 90.52073243 35 94 C40.57111066 96.64534281 45.93780746 96.77155178 52 96 C57.71806203 93.73152293 63.43943346 89.26949679 66.109375 83.67578125 C68.05251113 77.83785032 67.96759959 71.3340742 65.4375 65.6875 C62.58266893 60.75734847 58.50461068 57.45003776 53.625 54.625 C43.11385026 52.1223453 35.25605445 54.74443661 28.4453125 62.96484375 Z " fill="#ED1C24" transform="translate(795,268)"/>
<path d="M0 0 C26.07 0 52.14 0 79 0 C79 7.26 79 14.52 79 22 C78 23 78 23 75.94358826 23.12025452 C75.03979935 23.11803391 74.13601044 23.11581329 73.20483398 23.11352539 C72.18385117 23.11344986 71.16286835 23.11337433 70.11094666 23.11329651 C69.0005452 23.10813522 67.89014374 23.10297394 66.74609375 23.09765625 C65.61551041 23.0962413 64.48492706 23.09482635 63.32008362 23.09336853 C59.69252935 23.08775019 56.06503576 23.07519458 52.4375 23.0625 C49.98502693 23.05748736 47.5325529 23.05292405 45.08007812 23.04882812 C39.05334296 23.0386237 33.02673978 23.01905186 27 23 C27 30.59 27 38.18 27 46 C43.17 46 59.34 46 76 46 C76 53.26 76 60.52 76 68 C59.83 68 43.66 68 27 68 C27 77.24 27 86.48 27 96 C44.16 96 61.32 96 79 96 C79 103.59 79 111.18 79 119 C52.93 119 26.86 119 0 119 C0 79.73 0 40.46 0 0 Z " fill="#ED1C24" transform="translate(105,268)"/>
<path d="M0 0 C0.71027344 0.50273437 1.42054688 1.00546875 2.15234375 1.5234375 C11.37946441 8.78470328 16.36321693 19.54251854 18 31 C19.27421748 43.99701831 16.23713318 55.77905464 8 66 C5.6875 68.625 5.6875 68.625 3 71 C2.04673828 71.84884766 2.04673828 71.84884766 1.07421875 72.71484375 C-9.43085461 81.5405981 -21.547823 83.8968118 -35 83 C-48.41635985 80.87281186 -59.64441778 74.50526445 -67.859375 63.51171875 C-73.1521501 55.08782174 -75.55824693 47.0578727 -75.4375 37.125 C-75.42992676 36.24803467 -75.42235352 35.37106934 -75.41455078 34.4675293 C-75.24262829 27.69415969 -74.260224 22.02122621 -71 16 C-70.5875 15.22785156 -70.175 14.45570313 -69.75 13.66015625 C-62.86438951 2.21674109 -52.39588859 -4.90381676 -39.625 -8.3125 C-25.30168627 -10.96780237 -11.84230769 -8.45592867 0 0 Z M-42.91015625 20.68359375 C-48.52223594 27.09542927 -49.5071004 31.96745789 -49.3828125 40.5078125 C-48.69623771 46.771056 -45.93985568 50.20208498 -41.4375 54.375 C-35.0699782 58.62001453 -29.58638786 58.73267071 -22 58 C-16.32435578 56.31346515 -12.2044654 51.81690341 -9 47 C-6.0829802 40.27817176 -6.78923017 33.63230948 -9.0625 26.8125 C-12.63946206 21.62013573 -16.79080754 17.86121062 -22.6875 15.5625 C-30.1300713 14.29866714 -37.09178567 15.55533666 -42.91015625 20.68359375 Z " fill="#ED1C24" transform="translate(414,306)"/>
<path d="M0 0 C10.83235214 9.26875369 17.0237673 19.80113344 18.375 34.12109375 C18.88956497 46.59252368 15.2365771 57.57610188 7.61328125 67.51953125 C-1.91441887 77.60768431 -14.38597008 82.89820714 -28.125 83.30859375 C-41.08776286 83.17993109 -52.86689832 78.7323824 -62.5 70.05859375 C-71.52608016 60.03423744 -76.21748749 47.3000173 -75.7890625 33.78515625 C-74.54345538 22.03605129 -69.4438836 9.77914215 -60.171875 2.140625 C-42.35056703 -10.67869009 -18.44121117 -14.32075305 0 0 Z M-45.05859375 23.10546875 C-49.047665 28.51071435 -50.39325764 34.43036314 -49.5 41.05859375 C-48.15029577 48.48922348 -43.45558751 52.73216152 -37.5 57.05859375 C-31.75314302 58.97421274 -24.7203632 59.27506324 -19.0078125 57.1171875 C-13.30310535 53.68359961 -9.65444332 49.38498875 -7.5 43.05859375 C-6.62550954 35.68643579 -6.95629054 29.1262803 -11.5 23.05859375 C-16.19107847 18.26089986 -21.35173892 15.69678776 -27.9375 14.68359375 C-34.97756485 15.71384714 -40.21567106 17.75690449 -45.05859375 23.10546875 Z " fill="#ED1C24" transform="translate(762.5,305.94140625)"/>
<path d="M0 0 C7.52685473 6.03684472 11.41752649 13.52174083 13 23 C13.2689709 27.7099247 13.23296419 32.40873065 13.1953125 37.125 C13.1915756 38.48119904 13.18873183 39.8374008 13.18673706 41.19360352 C13.1791538 44.73801315 13.15955195 48.28225508 13.1373291 51.82659912 C13.11675534 55.45338677 13.10771085 59.08020189 13.09765625 62.70703125 C13.07630019 69.80476208 13.0411623 76.90235234 13 84 C4.42 84 -4.16 84 -13 84 C-13.04898438 80.32746094 -13.09796875 76.65492188 -13.1484375 72.87109375 C-13.20249024 69.30326358 -13.25978095 65.73549903 -13.31738281 62.16772461 C-13.35559992 59.69349074 -13.39046533 57.21920269 -13.421875 54.74487305 C-13.46768303 51.18258335 -13.52565242 47.62066431 -13.5859375 44.05859375 C-13.59748871 42.95728622 -13.60903992 41.8559787 -13.62094116 40.72129822 C-13.78903527 30.84589448 -13.78903527 30.84589448 -18.125 22.1875 C-22.20384996 19.08402721 -26.01852264 17.59537093 -31.1875 18.296875 C-34.1827004 19.02365157 -37.07757743 20.02585914 -40 21 C-41.18391223 23.37625345 -41.18391223 23.37625345 -42 26 C-42.33 26.99 -42.66 27.98 -43 29 C-43.11591448 30.79403055 -43.17652871 32.59186356 -43.20532227 34.3894043 C-43.22526749 35.49031906 -43.24521271 36.59123383 -43.26576233 37.72550964 C-43.28247482 38.91308365 -43.29918732 40.10065765 -43.31640625 41.32421875 C-43.33718735 42.54075638 -43.35796844 43.75729401 -43.37937927 45.01069641 C-43.44484717 48.90290596 -43.50374715 52.79518385 -43.5625 56.6875 C-43.60568782 59.32357482 -43.6493022 61.95964269 -43.69335938 64.59570312 C-43.80132964 71.06373301 -43.90042425 77.53181358 -44 84 C-52.91 84 -61.82 84 -71 84 C-71 54.96 -71 25.92 -71 -4 C-62.75 -4 -54.5 -4 -46 -4 C-46 -1.69 -46 0.62 -46 3 C-45.40574219 2.60167969 -44.81148438 2.20335937 -44.19921875 1.79296875 C-30.39831364 -7.0284496 -14.27338451 -9.35052332 0 0 Z " fill="#ED1C24" transform="translate(516,303)"/>
<path d="M0 0 C8.91 0 17.82 0 27 0 C27 39.27 27 78.54 27 119 C18.09 119 9.18 119 0 119 C0 79.73 0 40.46 0 0 Z " fill="#ED1C24" transform="translate(949,268)"/>
<path d="M0 0 C8.91 0 17.82 0 27 0 C27 29.04 27 58.08 27 88 C18.09 88 9.18 88 0 88 C0 58.96 0 29.92 0 0 Z " fill="#ED1C24" transform="translate(903,299)"/>
<path d="M0 0 C8.91 0 17.82 0 27 0 C27 7.59 27 15.18 27 23 C18.09 23 9.18 23 0 23 C0 15.41 0 7.82 0 0 Z " fill="#ED1C24" transform="translate(903,268)"/>
</svg>
