<?xml version="1.0" encoding="UTF-8"?>
<svg version="1.1" xmlns="http://www.w3.org/2000/svg" width="1080" height="700">
<path d="M0 0 C2.27552714 1.97212352 2.79826845 2.97168567 3.1484375 5.953125 C3.45146512 14.67099639 1.26794501 21.64643841 -2.125 29.625 C-2.393125 30.39328125 -2.66125 31.1615625 -2.9375 31.953125 C-4.125 33.625 -4.125 33.625 -6.7265625 34.453125 C-7.72429687 34.59234375 -8.72203125 34.7315625 -9.75 34.875 C-10.75289062 35.02453125 -11.75578125 35.1740625 -12.7890625 35.328125 C-13.55992187 35.42609375 -14.33078125 35.5240625 -15.125 35.625 C-13.98794168 32.76312857 -12.82991437 29.91194162 -11.65234375 27.06640625 C-11.1222847 25.77348306 -10.59233899 24.48051339 -10.0625 23.1875 C-9.79373047 22.54490234 -9.52496094 21.90230469 -9.24804688 21.24023438 C-7.6758514 17.37835771 -6.64296649 13.76233723 -6.125 9.625 C-14.61423868 12.25832133 -20.60148048 16.71935126 -27.125 22.625 C-28.03403076 23.44363525 -28.03403076 23.44363525 -28.96142578 24.27880859 C-38.65763024 33.03663959 -38.65763024 33.03663959 -47.47265625 42.66015625 C-49.52599886 45.10183788 -51.70199119 47.41426978 -53.875 49.75 C-59.17548523 55.56447167 -64.01193817 61.68131628 -68.80322266 67.91796875 C-70.01217832 69.47929458 -71.24515565 71.0219437 -72.48046875 72.5625 C-91.80867472 96.9089169 -107.64667709 124.19747708 -122.125 151.625 C-111.05235557 147.93411852 -101.20356077 136.21967572 -92.90771484 128.31054688 C-90.75263085 126.27292706 -88.56259586 124.27684225 -86.36425781 122.28613281 C-78.13259406 114.83175403 -70.12788425 107.15540337 -62.91796875 98.6953125 C-60.79353176 96.2422589 -58.58311363 93.87796853 -56.375 91.5 C-51.91838381 86.62706898 -47.81363705 81.54412385 -43.79199219 76.30810547 C-38.0215591 68.80995944 -38.0215591 68.80995944 -34.64453125 68.11328125 C-33.75121094 68.05527344 -32.85789062 67.99726563 -31.9375 67.9375 C-31.03644531 67.87175781 -30.13539063 67.80601562 -29.20703125 67.73828125 C-28.17642578 67.68220703 -28.17642578 67.68220703 -27.125 67.625 C-28.69559686 72.8569233 -32.03852065 76.47107383 -35.5 80.5625 C-36.12922363 81.31466797 -36.75844727 82.06683594 -37.40673828 82.84179688 C-38.69636298 84.38011401 -39.98916606 85.91577226 -41.28515625 87.44873047 C-42.9160912 89.37789106 -44.53748761 91.31453777 -46.15625 93.25390625 C-58.50038921 107.9453933 -71.65376609 122.46029865 -86.23828125 134.953125 C-88.05959716 136.56704468 -89.74767968 138.24997231 -91.4375 140 C-102.61131306 151.29879979 -116.34058878 161.48018965 -129.8125 169.875 C-135.16527145 173.37770153 -138.21912639 176.96085272 -141.125 182.625 C-141.56199219 183.45773437 -141.99898437 184.29046875 -142.44921875 185.1484375 C-147.99231795 196.50097099 -152.88358971 210.42154355 -150.5 223.1875 C-149.49250614 226.73123293 -149.49250614 226.73123293 -146.80078125 227.97265625 C-144.20183685 228.85647434 -144.20183685 228.85647434 -142.01953125 227.9296875 C-131.52007831 220.71993182 -124.73008733 210.29991783 -117.87890625 199.8046875 C-105.64324936 181.11144781 -92.65358944 162.73562053 -77.125 146.625 C-76.31675781 145.75359375 -75.50851562 144.8821875 -74.67578125 143.984375 C-63.90232888 132.67311744 -51.24691027 123.26218416 -35.21875 122.45703125 C-29.42887981 122.77138026 -25.84084985 125.08073513 -21.625 128.875 C-21.13 129.4525 -20.635 130.03 -20.125 130.625 C-19.76237061 129.8100708 -19.39974121 128.9951416 -19.02612305 128.15551758 C-17.125 125.625 -17.125 125.625 -14.21411133 125.05737305 C-13.0567749 125.08355713 -11.89943848 125.10974121 -10.70703125 125.13671875 C-9.45341797 125.15283203 -8.19980469 125.16894531 -6.90820312 125.18554688 C-5.59787109 125.22744141 -4.28753906 125.26933594 -2.9375 125.3125 C-1.60225471 125.33758339 -0.26696471 125.36039652 1.06835938 125.38085938 C4.33836707 125.43988478 7.60612333 125.52218524 10.875 125.625 C4.70201266 138.19946281 4.70201266 138.19946281 1.3125 143.5 C-2.32400519 149.30043319 -5.83731168 155.16399437 -9.3125 161.0625 C-9.86752197 162.00399902 -10.42254395 162.94549805 -10.99438477 163.91552734 C-12.1363913 165.85348774 -13.2780712 167.79164064 -14.41943359 169.72998047 C-16.61395021 173.45494154 -18.81333824 177.17701012 -21.01342773 180.89868164 C-22.08497003 182.71142408 -23.1560986 184.52441115 -24.22680664 186.33764648 C-27.05374814 191.1247037 -29.88626907 195.90835108 -32.7265625 200.6875 C-33.31630859 201.68136719 -33.90605469 202.67523438 -34.51367188 203.69921875 C-35.64090466 205.59865038 -36.76971935 207.49714443 -37.90039062 209.39453125 C-43.2429527 218.01675964 -43.2429527 218.01675964 -46.125 227.625 C-28.50015848 223.21878962 -15.85561044 202.58905784 -6.125 188.625 C-5.795 187.965 -5.465 187.305 -5.125 186.625 C-1.825 186.625 1.475 186.625 4.875 186.625 C-0.92710603 202.90065126 -16.49169081 218.2523777 -28.125 230.625 C-28.80433594 231.36878906 -29.48367188 232.11257813 -30.18359375 232.87890625 C-39.38067635 242.58225028 -51.99314228 253.56341856 -65.875 254.0625 C-70.05577073 253.87564991 -73.01030678 253.64235906 -76.125 250.625 C-78.86007754 245.64325162 -79.63122965 241.25398199 -80.125 235.625 C-80.70765625 236.19347656 -81.2903125 236.76195312 -81.890625 237.34765625 C-90.14173652 245.11875027 -99.88124213 252.87556747 -111.5625 253.9375 C-117.06900071 253.45447362 -120.67884939 251.81405717 -124.9375 248.3125 C-128.7125995 243.45702664 -128.58343414 236.52564294 -129.125 230.625 C-129.94742188 231.48222656 -130.76984375 232.33945312 -131.6171875 233.22265625 C-151.06748158 253.24958057 -151.06748158 253.24958057 -164.125 254.0625 C-168.69187711 253.85573194 -172.43884945 252.29766348 -176.125 249.625 C-182.51357414 241.59832992 -181.82670628 232.40184618 -181.125 222.625 C-179.46567759 209.86361325 -174.54340445 197.62667724 -170.125 185.625 C-174.415 185.625 -178.705 185.625 -183.125 185.625 C-183.785 187.275 -184.445 188.925 -185.125 190.625 C-185.79186069 191.84453948 -186.49176306 193.04671103 -187.2265625 194.2265625 C-187.62987793 194.87584717 -188.03319336 195.52513184 -188.44873047 196.1940918 C-188.87814941 196.8725415 -189.30756836 197.55099121 -189.75 198.25 C-190.19875488 198.96003174 -190.64750977 199.67006348 -191.10986328 200.40161133 C-199.97077424 214.30678865 -210.1426861 227.31127285 -223.125 237.625 C-224.02734375 238.35332031 -224.9296875 239.08164062 -225.859375 239.83203125 C-236.69675577 248.29698022 -247.08874867 254.71245706 -261.125 253.625 C-266.3205971 251.8931343 -269.02669545 249.10032879 -272.125 244.625 C-278.11060593 230.08852845 -271.82284692 212.88489834 -266.125 199.1875 C-259.33205531 183.55274094 -249.42936555 170.26331489 -238.125 157.625 C-237.36574219 156.74457031 -236.60648438 155.86414063 -235.82421875 154.95703125 C-224.56528387 142.0582515 -206.68111012 123.79226945 -188.41796875 122.421875 C-181.16859454 122.31245048 -176.71359402 122.83387132 -170.875 127.375 C-166.78489685 132.63370405 -166.39843572 139.19490617 -167.125 145.625 C-169.13045108 156.24477505 -172.54304149 165.85015518 -177.125 175.625 C-175.70749437 175.50990339 -174.29098831 175.38246342 -172.875 175.25 C-171.69164062 175.14558594 -171.69164062 175.14558594 -170.484375 175.0390625 C-167.90173114 174.58581705 -166.3453376 174.02399645 -164.125 172.625 C-162.53499744 170.40675256 -162.53499744 170.40675256 -161.19921875 167.69140625 C-160.65773193 166.66354004 -160.11624512 165.63567383 -159.55834961 164.57666016 C-158.98221924 163.4582373 -158.40608887 162.33981445 -157.8125 161.1875 C-156.8797593 159.41904826 -155.94697691 157.65061718 -155.01185608 155.88342285 C-154.36338561 154.65713168 -153.71621888 153.43015028 -153.07029724 152.20251465 C-136.71488138 121.11901925 -118.66738942 91.80758147 -95.125 65.625 C-94.35929688 64.76003906 -93.59359375 63.89507812 -92.8046875 63.00390625 C-80.89217545 49.6188143 -68.77905964 36.2579768 -55.125 24.625 C-54.18011719 23.79097656 -53.23523438 22.95695312 -52.26171875 22.09765625 C-17.99698811 -7.91867477 -17.99698811 -7.91867477 0 0 Z M-197.73828125 141.0546875 C-201.65335198 145.48809154 -204.39128322 150.26437824 -204.6875 156.25 C-204.21185607 163.44724375 -200.36561271 167.78241125 -195.19921875 172.4609375 C-192.27694117 174.10093509 -189.4252413 174.28590711 -186.125 174.625 C-177.42953746 158.43615331 -177.42953746 158.43615331 -176.6875 140.5 C-178.36631015 137.14237969 -179.69936185 136.08089622 -183.125 134.625 C-188.38928171 134.625 -193.9243348 137.56466527 -197.73828125 141.0546875 Z M-43.92431641 143.17724609 C-51.66774798 150.36969892 -58.88675084 158.08844852 -65.125 166.625 C-65.55312988 167.1931543 -65.98125977 167.76130859 -66.42236328 168.34667969 C-86.40864375 194.21400366 -86.40864375 194.21400366 -94.125 224.625 C-92.46496315 227.84837893 -92.46496315 227.84837893 -89.5625 228.25 C-79.19378192 226.36477853 -72.82107657 215.71133475 -67.125 207.625 C-66.73231934 207.06844727 -66.33963867 206.51189453 -65.93505859 205.93847656 C-55.55834442 191.07511819 -46.43475238 175.31438564 -37.19970703 159.72729492 C-35.43834386 156.76271156 -33.62787 153.84342229 -31.73046875 150.96484375 C-31.34552246 150.3713916 -30.96057617 149.77793945 -30.56396484 149.16650391 C-29.50896945 147.54719802 -28.43672613 145.93916625 -27.36328125 144.33203125 C-25.84715238 141.74957883 -25.84715238 141.74957883 -26.66796875 139.32421875 C-28.00653599 137.52153701 -28.00653599 137.52153701 -29.98046875 136.78125 C-35.3571385 136.38950721 -40.00164204 139.79320761 -43.92431641 143.17724609 Z M-215.125 165.625 C-216.39451 166.97246732 -216.39451 166.97246732 -217.62890625 168.78125 C-218.1180249 169.46590332 -218.60714355 170.15055664 -219.11108398 170.85595703 C-219.63130127 171.60474121 -220.15151855 172.35352539 -220.6875 173.125 C-221.2225415 173.89312012 -221.75758301 174.66124023 -222.30883789 175.45263672 C-237.24414093 196.77293271 -237.24414093 196.77293271 -241.125 221.625 C-240.25853917 224.62655751 -240.25853917 224.62655751 -238.125 226.625 C-234.684268 227.95916139 -232.4341449 228.10190278 -228.9375 226.828125 C-212.41926124 218.0256425 -199.95213548 200.16931313 -192.125 183.625 C-192.76566406 183.26148438 -193.40632812 182.89796875 -194.06640625 182.5234375 C-200.73656194 178.64659589 -207.19888067 174.86410929 -211.4375 168.25 C-211.994375 167.38375 -212.55125 166.5175 -213.125 165.625 C-213.785 165.625 -214.445 165.625 -215.125 165.625 Z " fill="#E61D2B" transform="translate(899.125,207.375)"/>
<path d="M0 0 C4.84476801 3.74273923 6.96350723 7.84093574 7.75 13.87890625 C8.19494752 25.2111633 4.95582517 35.73580147 0.375 46 C12.5750217 42.9057916 21.00782809 34.75987743 29.94189453 26.34912109 C60.58644636 -2.49956603 60.58644636 -2.49956603 80.55859375 -2.20703125 C86.67631831 -1.75732334 90.70380464 -0.10524386 94.8125 4.5 C99.10074051 9.82816805 98.98187777 15.41104138 98.375 22 C96.21314592 30.64741631 91.04358946 38.2396958 84.875 44.5625 C81.60067482 46.44523698 79.14789627 46.93262685 75.375 47 C72.42744268 45.65437601 70.83222728 44.91445456 69.375 42 C68.57445857 35.46224503 70.69023657 31.20914501 74.375 26 C79.12253126 21.37115702 83.90885934 19.90225218 90.375 19 C90.03055119 16.52733235 90.03055119 16.52733235 89.375 14 C85.76923668 12.19711834 82.24415165 12.34450654 78.375 13 C54.26533729 22.93633067 37.09486823 54.06550559 27.3203125 76.6015625 C24.56322661 83.26042074 22.23731558 89.24685156 22.1875 96.5 C22.17332031 97.4384375 22.15914063 98.376875 22.14453125 99.34375 C22.385807 102.12455528 22.83646865 103.6871085 24.375 106 C28.32587346 108.41890212 31.02458065 109.38485382 35.625 108.625 C57.22870931 102.49421763 73.84313224 78.32978712 86.65283203 61.28369141 C101.38985082 41.74157718 101.38985082 41.74157718 109.44921875 33.078125 C111.24331463 31.14210267 112.93324766 29.15016339 114.625 27.125 C126.66108128 13.42876958 142.61884238 -0.86888184 161.5625 -2.625 C166.80618528 -1.76537946 170.23632975 0.78103425 174.375 4 C174.92571167 3.26656372 174.92571167 3.26656372 175.48754883 2.51831055 C178.18930128 0.34495671 180.14169863 0.6586859 183.57421875 0.70703125 C185.38696289 0.7215332 185.38696289 0.7215332 187.23632812 0.73632812 C189.1302832 0.7740332 189.1302832 0.7740332 191.0625 0.8125 C192.97385742 0.83280273 192.97385742 0.83280273 194.92382812 0.85351562 C198.07464057 0.88891801 201.22461045 0.9383021 204.375 1 C202.94094155 4.86140222 201.14353075 8.29785785 199.05859375 11.84765625 C198.7306633 12.40757263 198.40273285 12.96748901 198.06486511 13.54437256 C196.98450046 15.38598605 195.89873351 17.22434289 194.8125 19.0625 C194.04534754 20.36609271 193.27825878 21.66972291 192.51123047 22.97338867 C187.40952419 31.62862196 182.22647493 40.23210767 177 48.8125 C175.25099407 51.68894555 173.50208665 54.56545016 171.75398254 57.44244385 C169.77095264 60.7056555 167.78509759 63.9671073 165.79589844 67.2265625 C163.5741464 70.86993824 161.36566354 74.52110538 159.16473389 78.17709351 C158.31323385 79.58691822 157.45755616 80.99422921 156.59747314 82.39883423 C155.39760036 84.359663 154.21292925 86.32895008 153.03125 88.30078125 C152.34869141 89.42653564 151.66613281 90.55229004 150.96289062 91.7121582 C149.27035932 95.21666605 148.71488796 98.14233283 148.375 102 C164.50870104 97.2643525 179.31098125 77.59602812 188.375 64 C190.9765625 63.70703125 190.9765625 63.70703125 194 63.8125 C195.00289063 63.83957031 196.00578125 63.86664063 197.0390625 63.89453125 C197.80992187 63.92933594 198.58078125 63.96414063 199.375 64 C194.36861505 72.63777686 188.37104292 79.87743724 181.8046875 87.34375 C179.79567707 89.6711282 177.90305867 92.08567184 176 94.5 C164.89047548 108.09165251 149.30611159 125.18263445 131.375 129 C126.14296883 129.38755786 122.79113364 128.91063353 118.375 126 C114.83859978 121.8538756 114.70593242 117.23786144 114.375 112 C113.64796875 112.65226562 112.9209375 113.30453125 112.171875 113.9765625 C102.36456466 122.57441426 92.30532301 129.42389508 78.84765625 129.28515625 C74.26030553 128.75612528 71.56390861 126.31189916 68.5625 123 C64.42522248 116.03195365 66.40754946 106.61867303 67.375 99 C66.59898437 99.75023437 65.82296875 100.50046875 65.0234375 101.2734375 C51.64360122 114.03061453 33.77067404 129.81688764 14.1484375 130.0234375 C6.80639718 129.5440603 0.02449178 127.20823789 -5 121.6875 C-9.8633695 115.81448362 -11.16481934 109.83566797 -11.0625 102.4375 C-11.05347656 101.64738525 -11.04445313 100.85727051 -11.03515625 100.04321289 C-10.62971382 86.09909037 -4.75332119 74.23740119 1.375 62 C1.95121094 60.845 2.52742188 59.69 3.12109375 58.5 C3.53488281 57.675 3.94867188 56.85 4.375 56 C0.23060997 56.18909764 -2.96806104 57.01334232 -6.625 59 C-10.28572358 63.01816343 -12.72311329 68.05628264 -15.35253906 72.77734375 C-21.9854258 84.36326103 -30.1678461 94.61921201 -39.625 104 C-40.11613281 104.48839355 -40.60726562 104.97678711 -41.11328125 105.47998047 C-52.21951417 116.38474808 -66.23874431 128.95063325 -82.5 129.5 C-88.83108279 129.14575003 -92.6240278 127.30412768 -96.875 122.625 C-102.86985656 115.56653985 -102.33616634 107.17027326 -101.84570312 98.39892578 C-100.00995809 78.44535196 -87.64691099 59.43407054 -75.625 44 C-74.96757812 43.12085938 -74.31015625 42.24171875 -73.6328125 41.3359375 C-59.86849542 23.60835403 -26.11743812 -14.68489917 0 0 Z M-26 19.5 C-29.34358245 23.74552976 -30.85614557 26.90147301 -30.625 32.375 C-29.85712125 37.56033852 -27.75672239 40.80204687 -23.625 44 C-20.40012537 45.73762655 -17.19834234 47.16355498 -13.625 48 C-10.40281322 47.29461252 -10.40281322 47.29461252 -9.08984375 44.33984375 C-5.12468102 35.50696206 -1.83324665 27.81774148 -2.625 18 C-4.19156785 13.67774504 -4.19156785 13.67774504 -7.625 11 C-15.67042965 10.03454844 -20.80311903 13.72147299 -26 19.5 Z M139.86206055 31.12182617 C138.88579944 32.40376005 137.9104918 33.68642049 136.93603516 34.96972656 C135.3110411 37.08318458 133.65086277 39.16446088 131.98046875 41.2421875 C109.23608477 68.39060062 109.23608477 68.39060062 100.375 101 C102.44663629 103.24300635 102.44663629 103.24300635 105.375 104 C133.59993077 95.59257381 155.94613811 38.132143 169.375 15 C168.385 13.515 168.385 13.515 167.375 12 C155.66689136 10.09402883 146.12886648 22.95238048 139.86206055 31.12182617 Z M-41.625 40 C-43.37153583 42.22902378 -43.37153583 42.22902378 -45.1875 45.125 C-45.8990625 46.22585938 -46.610625 47.32671875 -47.34375 48.4609375 C-47.90449219 49.33637207 -47.90449219 49.33637207 -48.4765625 50.22949219 C-49.59556565 51.95462204 -50.74510768 53.65458481 -51.90625 55.3515625 C-59.5878601 66.70648637 -68.59040022 81.18151723 -67.4375 95.375 C-66.87661311 98.85470978 -66.87661311 98.85470978 -65.375 100.9375 C-63.09642638 102.32091969 -61.27350953 102.68341431 -58.625 103 C-41.56332537 98.19594486 -30.6288483 79.77851743 -21.5 65.8125 C-21.01402344 65.0692749 -20.52804687 64.3260498 -20.02734375 63.56030273 C-19.36025391 62.51918335 -19.36025391 62.51918335 -18.6796875 61.45703125 C-18.28249512 60.83803955 -17.88530273 60.21904785 -17.47607422 59.58129883 C-16.46702348 58.0057761 -16.46702348 58.0057761 -16.625 56 C-17.42164063 55.69707031 -18.21828125 55.39414062 -19.0390625 55.08203125 C-25.1190054 52.67816088 -29.82430242 50.42169513 -34.625 46 C-35.285 46 -35.945 46 -36.625 46 C-37.625 44 -38.625 42 -39.625 40 C-40.285 40 -40.945 40 -41.625 40 Z " fill="#E61D2B" transform="translate(308.625,268)"/>
<path d="M0 0 C3.785373 1.95146558 6.95019825 2.19098618 11.0703125 1.23046875 C12.14410156 0.85664063 13.21789062 0.4828125 14.32421875 0.09765625 C35.16055735 -7.07345427 57.98708335 -4.08423325 77.44921875 5.41015625 C87.50312784 10.56564633 97.18665105 16.45703571 106.90429688 22.21142578 C111.88592061 25.15325892 116.88653934 28.06250768 121.88671875 30.97265625 C120.46751122 34.2136069 118.75363627 36.3310113 116.2265625 38.79296875 C115.51564453 39.49292969 114.80472656 40.19289062 114.07226562 40.9140625 C113.33041016 41.63464844 112.58855469 42.35523438 111.82421875 43.09765625 C110.35198682 44.53553186 108.88182719 45.97553333 107.4140625 47.41796875 C106.76171631 48.05234863 106.10937012 48.68672852 105.43725586 49.34033203 C103.79785875 50.90724792 103.79785875 50.90724792 102.88671875 52.97265625 C98.22585009 51.60264334 94.25315788 49.62789343 90.13671875 47.09765625 C89.17487671 46.51479858 89.17487671 46.51479858 88.19360352 45.92016602 C82.97551502 42.72303163 77.8964688 39.33234519 72.82421875 35.91015625 C46.058336 17.73403036 46.058336 17.73403036 14.88671875 12.97265625 C13.54616699 13.27565768 12.20955984 13.59985558 10.88671875 13.97265625 C10.8609375 14.96523437 10.83515625 15.9578125 10.80859375 16.98046875 C10.45522643 26.4836938 9.04323748 34.9325584 5.88671875 43.97265625 C5.38011719 45.44605469 5.38011719 45.44605469 4.86328125 46.94921875 C-2.75815821 67.0027935 -19.16340378 90.07506604 -39.01953125 99.1328125 C-44.72236527 101.42032988 -50.02430285 101.54450475 -56.11328125 100.97265625 C-59.95810013 99.21887921 -61.55712604 97.75127354 -63.98828125 94.34765625 C-67.45543571 83.94619288 -63.74576685 73.69915711 -59.25244141 64.14160156 C-48.7589966 43.33671208 -32.44826585 27.96069491 -13.91015625 14.31201172 C-11.59824021 12.58875474 -9.34888486 10.7934506 -7.11328125 8.97265625 C-29.21310229 7.53136357 -50.51629142 26.68460046 -66.08984375 40.28515625 C-67.09938482 41.17904116 -68.10718847 42.07489196 -69.11328125 42.97265625 C-69.63116211 43.43414062 -70.14904297 43.895625 -70.68261719 44.37109375 C-80.03212425 52.74344145 -88.9783553 61.40506115 -97.11328125 70.97265625 C-98.34691406 72.38998047 -98.34691406 72.38998047 -99.60546875 73.8359375 C-129.50429475 108.37228632 -167.5162406 161.13938542 -165.4296875 209.33203125 C-164.49250347 217.15346834 -162.38229336 223.85509534 -156.11328125 228.97265625 C-150.59137331 232.29767609 -144.41011447 232.91261831 -138.11328125 231.97265625 C-116.45370288 225.89740866 -98.8131126 204.93605533 -87.86328125 186.03515625 C-80.26769639 172.46581287 -72.80034805 156.93643048 -75.11328125 140.97265625 C-76.95626494 138.46577353 -77.69936971 138.04966305 -80.80078125 137.47265625 C-88.20006654 138.5895295 -93.45672841 143.63714396 -98.1640625 149.1953125 C-103.32878077 156.55425977 -106.62431161 164.78794591 -108.73828125 173.47265625 C-109.88025197 177.08569808 -110.57613899 178.58816688 -113.68359375 180.8125 C-115.87599992 181.91408983 -118.09019058 182.97300957 -120.3203125 183.99609375 C-124.8917396 186.20398807 -128.65664637 189.3125019 -132.55078125 192.53515625 C-133.21239258 193.077771 -133.87400391 193.62038574 -134.55566406 194.17944336 C-137.67151476 196.77979825 -140.59879949 199.43568187 -143.3984375 202.375 C-146.11328125 204.97265625 -146.11328125 204.97265625 -149.11328125 204.97265625 C-147.9369437 182.62224284 -134.21751726 154.24970838 -118.11328125 138.97265625 C-107.1646578 129.64855807 -94.59977875 122.54958207 -80.02734375 122.69140625 C-74.8255018 123.1934607 -72.27814808 125.71071719 -68.86328125 129.41015625 C-63.23413638 137.65283266 -63.70852402 146.51810565 -65.2734375 156.05078125 C-71.89470871 188.94839609 -94.45350643 220.93294077 -122.02197266 239.72851562 C-136.20557036 249.0716465 -152.82695147 256.39722919 -170.10546875 253.46484375 C-181.36950748 251.02102487 -190.12521903 245.40305981 -196.62109375 235.7265625 C-207.13027284 216.56461619 -204.0525332 193.64663429 -198.43017578 173.52832031 C-190.1852522 145.75417856 -174.48770404 119.96929543 -157.11328125 96.97265625 C-156.58089844 96.26512207 -156.04851563 95.55758789 -155.5 94.82861328 C-148.13460198 85.08359316 -140.4983661 75.8517461 -132.11328125 66.97265625 C-130.56707378 65.24754874 -129.02522036 63.51852627 -127.48828125 61.78515625 C-120.77513479 54.33403979 -113.82533328 47.54922278 -105.984375 41.28515625 C-103.0565797 38.92698643 -100.21476956 36.48475695 -97.36328125 34.03515625 C-80.60429784 20.10867708 -60.75514507 8.0165465 -40.11328125 0.97265625 C-39.00339844 0.56273437 -37.89351562 0.1528125 -36.75 -0.26953125 C-25.82397183 -3.92414275 -10.41405872 -6.30265159 0 0 Z M-28.61328125 38.16015625 C-40.83098405 50.46705238 -54.73083548 66.91779094 -56.48828125 84.78515625 C-56.26500514 87.91387227 -56.26500514 87.91387227 -55.11328125 90.41015625 C-52.59580744 92.37693266 -50.56585037 92.66040598 -47.40234375 92.46484375 C-33.67463657 89.51315245 -20.79555908 73.90310235 -13.2421875 62.74267578 C-4.59484619 49.18445249 2.27624281 33.2764052 0.88671875 16.97265625 C-8.98401724 16.97265625 -21.86088371 31.51582851 -28.61328125 38.16015625 Z " fill="#E61D2B" transform="translate(707.11328125,207.02734375)"/>
<path d="M0 0 C5.21284318 4.64201531 8.27079487 9.78694941 8.95703125 16.8046875 C9.1696494 27.66754212 2.9159818 37.69121073 -4.27734375 45.40625 C-7.64401606 48.52099445 -10.60695636 49.83283476 -15.125 50.375 C-18.54580094 49.92880857 -19.8012207 49.68739692 -22 47 C-23.32988952 42.43647499 -23.26102053 38.8555673 -21.875 34.3125 C-18.88977189 29.03859701 -15.71105742 24.52349049 -10 22 C-7.32089113 21.49016958 -4.72539821 21.23096595 -2 21 C-2.04920026 17.99878424 -2.09087717 15.80450619 -3 13 C-7.03475488 10.01778987 -10.01098636 9.71061824 -14.9375 10.3125 C-45.51234433 17.15824124 -73.84936035 47.1448736 -92 71 C-93.08098364 72.35604309 -94.16455728 73.71002354 -95.25 75.0625 C-121.68192756 108.19349805 -151.37952472 154.74595848 -146.68359375 198.98046875 C-145.01330682 210.85304879 -141.06467978 221.19687018 -131.59375 228.9765625 C-113.34752424 241.58792442 -90.62070271 239.96164169 -69.76953125 236.45703125 C-54.26379954 233.60310408 -38.9664279 229.82064386 -23.6647644 226.04946899 C27.38108038 213.47586443 27.38108038 213.47586443 51 211 C52.26203247 210.86295654 52.26203247 210.86295654 53.54956055 210.72314453 C93.62347214 206.68733726 127.65722628 215.59837965 159.28125 240.63964844 C160.82250199 241.85951436 162.3790668 243.05997422 163.9375 244.2578125 C178.08573388 255.25720165 178.08573388 255.25720165 180 261 C176.208419 259.62057267 172.79227489 257.82933879 169.27783203 255.87719727 C149.07222869 244.71118399 125.29139419 238.55979771 102.3515625 243.9140625 C97.34511664 245.53619764 93.22768574 247.90078743 89 251 C87.5459375 252.051875 87.5459375 252.051875 86.0625 253.125 C83.93189188 254.94366365 83.93189188 254.94366365 82.3125 257.25 C81.879375 257.8275 81.44625 258.405 81 259 C80.34 259 79.68 259 79 259 C77.58984375 257.3125 77.58984375 257.3125 75.9375 255 C65.34556444 241.14566129 51.71312244 235.38928023 34.81640625 232.4453125 C0.4088804 228.43051419 -34.17033701 238.6152595 -67.36883545 246.44154358 C-69.3083444 246.89872383 -71.24792162 247.35561442 -73.1875 247.8125 C-74.42064941 248.10310303 -75.65379883 248.39370605 -76.92431641 248.69311523 C-89.11044524 251.53932181 -101.46737599 254.33508586 -114 255 C-115.45019531 255.07927734 -115.45019531 255.07927734 -116.9296875 255.16015625 C-136.74029002 255.71717808 -154.5521723 249.85228494 -169.1875 236.3125 C-183.65930618 221.10979452 -185.50543262 201.82414796 -185.2734375 181.89453125 C-183.99037283 135.93921984 -155.9659832 93.76150045 -126 61 C-125.08911758 59.98502623 -124.178991 58.96937374 -123.26953125 57.953125 C-118.13758095 52.24355259 -112.8987525 46.92408771 -107 42 C-105.96034364 41.0893997 -104.92276547 40.17642387 -103.88671875 39.26171875 C-81.13553087 19.27216117 -31.81090568 -18.81231146 0 0 Z " fill="#E61D2B" transform="translate(304,206)"/>
<path d="M0 0 C0.99 0.495 0.99 0.495 2 1 C-3.75306507 11.27028653 -9.99428979 20.36226004 -18 29 C-18.75023437 29.81597656 -18.75023437 29.81597656 -19.515625 30.6484375 C-38.85975471 51.45803158 -66.10334108 68.94522906 -95.26611328 70.08886719 C-110.73827987 70.4593489 -110.73827987 70.4593489 -118 69 C-117.47403544 64.83124387 -115.19493533 62.73180473 -112.375 59.75 C-108.6344432 55.76932187 -105.06392493 51.7386201 -101.66796875 47.4609375 C-97.90659165 44.16642922 -92.49798606 44.85569789 -87.75 44.6875 C-53.73315519 42.90377148 -23.39168401 23.62405173 0 0 Z " fill="#E61D2B" transform="translate(959,203)"/>
<path d="M0 0 C1.084021 0.00523682 2.16804199 0.01047363 3.28491211 0.01586914 C4.45473633 0.0190918 5.62456055 0.02231445 6.82983398 0.02563477 C8.0615332 0.03401367 9.29323242 0.04239258 10.56225586 0.05102539 C12.41560547 0.05779297 12.41560547 0.05779297 14.30639648 0.06469727 C17.37089703 0.07652931 20.43530307 0.09301366 23.49975586 0.11352539 C23.09853516 0.82420166 22.69731445 1.53487793 22.28393555 2.26708984 C18.77506004 8.46329327 18.77506004 8.46329327 16.07788086 15.03149414 C14.49944912 18.91722169 13.19395864 21.99959959 9.49975586 24.11352539 C0.98730659 25.77651565 -7.92012306 24.89682296 -16.50024414 24.11352539 C-15.85912233 20.79619143 -14.62618116 18.44006166 -12.81274414 15.60180664 C-12.27907227 14.76198242 -11.74540039 13.9221582 -11.19555664 13.05688477 C-10.63610352 12.18870117 -10.07665039 11.32051758 -9.50024414 10.42602539 C-8.94079102 9.54624023 -8.38133789 8.66645508 -7.80493164 7.76000977 C-2.93607776 0.13331473 -2.93607776 0.13331473 0 0 Z " fill="#E61D2B" transform="translate(534.500244140625,268.886474609375)"/>
</svg>
