<?xml version="1.0" encoding="UTF-8"?>
<svg version="1.1" xmlns="http://www.w3.org/2000/svg" width="1080" height="700">
<path d="M0 0 C0.99 0 1.98 0 3 0 C4.32286246 4.96073422 4.08893197 9.91111512 4 15 C4.99 15 5.98 15 7 15 C7 16.32 7 17.64 7 19 C6.01 18.67 5.02 18.34 4 18 C3.67 18.66 3.34 19.32 3 20 C3.99 20.33 4.98 20.66 6 21 C6.99 21.33 7.98 21.66 9 22 C11.35188447 21.40206327 13.68925595 20.74118205 16 20 C16.12117188 19.41992188 16.24234375 18.83984375 16.3671875 18.2421875 C17.33886246 13.7126873 18.50363554 9.38933575 20 5 C20.185625 4.071875 20.37125 3.14375 20.5625 2.1875 C21 0 21 0 22 -1 C24.10131921 -1.12602054 26.20743788 -1.1757922 28.3125 -1.1875 C29.46363281 -1.20167969 30.61476563 -1.21585937 31.80078125 -1.23046875 C34.82412237 -1.01267006 36.46565871 -0.5831811 39 1 C39 1.99 39 2.98 39 4 C39.66 4 40.32 4 41 4 C42.29721449 7.89164348 42.13033993 10.89429226 42 15 C41.67 15.66 41.34 16.32 41 17 C41.64026123 16.99476318 42.28052246 16.98952637 42.94018555 16.98413086 C45.85594695 16.96327571 48.77169262 16.95031271 51.6875 16.9375 C53.19860352 16.92493164 53.19860352 16.92493164 54.74023438 16.91210938 C55.71669922 16.90888672 56.69316406 16.90566406 57.69921875 16.90234375 C59.04246216 16.89448853 59.04246216 16.89448853 60.4128418 16.88647461 C63.03641759 17.00159802 65.44293053 17.41765715 68 18 C68.33 17.34 68.66 16.68 69 16 C70.65 16.66 72.3 17.32 74 18 C74 18.66 74 19.32 74 20 C74.99 20 75.98 20 77 20 C77 20.99 77 21.98 77 23 C77.66 23 78.32 23 79 23 C79 25.66666667 79 28.33333333 79 31 C79.66 31 80.32 31 81 31 C81 35.62 81 40.24 81 45 C73.57142857 46.28571429 73.57142857 46.28571429 70 45 C70 44.34 70 43.68 70 43 C68.02 43 66.04 43 64 43 C64 43.66 64 44.32 64 45 C62.68 44.67 61.36 44.34 60 44 C60 43.34 60 42.68 60 42 C58.85660156 41.93941406 57.71320313 41.87882812 56.53515625 41.81640625 C55.04425695 41.73201572 53.55337225 41.64736698 52.0625 41.5625 C51.30775391 41.52318359 50.55300781 41.48386719 49.77539062 41.44335938 C44.11328125 41.11328125 44.11328125 41.11328125 43 40 C41.48071962 39.92820036 39.95832518 39.91607993 38.4375 39.9375 C37.61121094 39.94652344 36.78492188 39.95554687 35.93359375 39.96484375 C35.29550781 39.97644531 34.65742187 39.98804688 34 40 C33.01 41.98 32.02 43.96 31 46 C30.34 46 29.68 46 29 46 C28.34 49.3 27.68 52.6 27 56 C26.34 56 25.68 56 25 56 C24.67 57.98 24.34 59.96 24 62 C23.34 62 22.68 62 22 62 C21.34 64.31 20.68 66.62 20 69 C19.34 69 18.68 69 18 69 C17.67 73.29 17.34 77.58 17 82 C15.68 82 14.36 82 13 82 C13 82.99 13 83.98 13 85 C12.34 85 11.68 85 11 85 C10.34 87.64 9.68 90.28 9 93 C8.34 93 7.68 93 7 93 C6.938125 93.78375 6.87625 94.5675 6.8125 95.375 C5.8794484 99.5378456 4.17828588 102.7610998 2.2109375 106.51953125 C0.68825364 109.63857721 -0.19467377 112.63227214 -1 116 C2.01031744 116.93423645 2.86650268 117.04449911 6 116 C6.3721042 114.67696283 6.70630173 113.34262065 7 112 C7.66 111.67 8.32 111.34 9 111 C10.13350534 108.98330173 10.13350534 108.98330173 11 107 C9.68 106.67 8.36 106.34 7 106 C7 105.34 7 104.68 7 104 C7.928125 104.061875 8.85625 104.12375 9.8125 104.1875 C12.92476853 104.28826881 12.92476853 104.28826881 14.75 102.75 C16.0672814 100.90580604 17.07360134 99.06658163 18 97 C18.66 97 19.32 97 20 97 C20 94.69 20 92.38 20 90 C20.66 89.67 21.32 89.34 22 89 C21.67 87.68 21.34 86.36 21 85 C22.98 85 24.96 85 27 85 C27.33 81.7 27.66 78.4 28 75 C29.485 74.505 29.485 74.505 31 74 C31.33 73.01 31.66 72.02 32 71 C32.66 71 33.32 71 34 71 C34.66 69.68 35.32 68.36 36 67 C36.66 67 37.32 67 38 67 C38.33 65.68 38.66 64.36 39 63 C39.66 63 40.32 63 41 63 C41.33 62.01 41.66 61.02 42 60 C42.99 60 43.98 60 45 60 C45.33 59.01 45.66 58.02 46 57 C46.66 57 47.32 57 48 57 C48 56.01 48 55.02 48 54 C48.66 54 49.32 54 50 54 C50 54.66 50 55.32 50 56 C50.66 56 51.32 56 52 56 C52 55.34 52 54.68 52 54 C60.7784452 51.95595455 69.03898756 51.78232358 78 52 C79.22503232 60.42209717 79.77343676 67.85302951 77 76 C76.34 76 75.68 76 75 76 C74.855625 76.598125 74.71125 77.19625 74.5625 77.8125 C74.1127561 79.56150404 73.57107659 81.28677023 73 83 C72.34 83 71.68 83 71 83 C70.67 83.99 70.34 84.98 70 86 C69.34 86 68.68 86 68 86 C68 86.99 68 87.98 68 89 C67.401875 89.268125 66.80375 89.53625 66.1875 89.8125 C64.00800674 90.85107111 64.00800674 90.85107111 62.6875 92.375 C60.61414686 94.37156228 58.27538516 95.64412888 55.76171875 97.01953125 C54.28179683 97.84316851 52.85201103 98.75599274 51.4375 99.6875 C48.61938893 101.20494442 46.14752964 101.53801691 43 102 C42.80343776 104.20754516 42.61814541 106.41609539 42.4375 108.625 C42.33308594 109.85476563 42.22867187 111.08453125 42.12109375 112.3515625 C42.00808939 115.75627462 42.30954437 118.67558398 43 122 C46.63 122 50.26 122 54 122 C54 121.34 54 120.68 54 120 C55.65 119.67 57.3 119.34 59 119 C59.33 118.01 59.66 117.02 60 116 C60.66 115.67 61.32 115.34 62 115 C62 113.68 62 112.36 62 111 C62.99 111 63.98 111 65 111 C64.67 110.01 64.34 109.02 64 108 C64.928125 107.896875 65.85625 107.79375 66.8125 107.6875 C70.11257297 106.97571955 71.04720228 106.63627692 73 104 C74.17574711 101.90010348 74.17574711 101.90010348 75 100 C75.66 100 76.32 100 77 100 C77.33 98.68 77.66 97.36 78 96 C78.66 96 79.32 96 80 96 C80.144375 95.21625 80.28875 94.4325 80.4375 93.625 C81 91 81 91 82 89 C82.66 89 83.32 89 84 89 C84.0825 88.195625 84.165 87.39125 84.25 86.5625 C85.20196675 82.04065795 87.01580179 78.15297299 89 74 C89.66 74 90.32 74 91 74 C92.50182702 66.86684764 92.50182702 66.86684764 90.125 60.4375 C89.42375 59.633125 88.7225 58.82875 88 58 C85.32072659 53.98108988 85.84398752 51.75838077 86 47 C85.34 47 84.68 47 84 47 C84.3125 45.0625 84.3125 45.0625 85 43 C86.485 42.505 86.485 42.505 88 42 C88.73323796 39.98491642 88.73323796 39.98491642 89 38 C90.65 37.67 92.3 37.34 94 37 C94.33 35.68 94.66 34.36 95 33 C96.32 33 97.64 33 99 33 C99.33 34.32 99.66 35.64 100 37 C101.65 37.33 103.3 37.66 105 38 C107.50413785 44.48129797 106.82810601 50.18491136 106 57 C109.63 56.67 113.26 56.34 117 56 C117.33 55.01 117.66 54.02 118 53 C120.27076842 52.97300275 122.54162821 52.95360547 124.8125 52.9375 C126.70935547 52.92009766 126.70935547 52.92009766 128.64453125 52.90234375 C132 53 132 53 135 54 C139.59067349 59.84365732 138.64453652 66.98976009 138 74 C137.10271349 77.60942369 135.70249476 80.70335105 134 84 C133.47148438 85.08152344 132.94296875 86.16304688 132.3984375 87.27734375 C130.9593992 90.19975092 129.49246852 93.10461107 128 96 C128.66 96 129.32 96 130 96 C130 96.66 130 97.32 130 98 C129.34 98 128.68 98 128 98 C128 99.32 128 100.64 128 102 C127.01 102 126.02 102 125 102 C124.34 103.32 123.68 104.64 123 106 C122.34 106 121.68 106 121 106 C120.67 107.65 120.34 109.3 120 111 C119.34 111 118.68 111 118 111 C117.855625 111.94875 117.71125 112.8975 117.5625 113.875 C117 117 117 117 116 119 C119.20960041 118.68565769 120.64522728 118.36997726 122.9140625 116.00390625 C123.47867187 115.19824219 124.04328125 114.39257812 124.625 113.5625 C126.7029366 110.63364366 127.96691941 109.02205373 131 107 C131.33 106.01 131.66 105.02 132 104 C132.66 104 133.32 104 134 104 C134.33 102.68 134.66 101.36 135 100 C135.66 100 136.32 100 137 100 C137.144375 99.401875 137.28875 98.80375 137.4375 98.1875 C137.8872439 96.43849596 138.42892341 94.71322977 139 93 C139.66 93 140.32 93 141 93 C141.33 90.69 141.66 88.38 142 86 C143.485 85.505 143.485 85.505 145 85 C145 84.34 145 83.68 145 83 C146.65 83.66 148.3 84.32 150 85 C149.85904936 86.6254308 149.71207913 88.25034051 149.5625 89.875 C149.48128906 90.77992188 149.40007812 91.68484375 149.31640625 92.6171875 C149 95 149 95 148 97 C147.34 97 146.68 97 146 97 C145.67 98.65 145.34 100.3 145 102 C144.34 102 143.68 102 143 102 C142.25073929 105.66305234 141.7619986 108.42355152 143 112 C141.865625 112.391875 140.73125 112.78375 139.5625 113.1875 C135.79660949 114.58610882 135.79660949 114.58610882 135.0625 117.6875 C135.041875 118.450625 135.02125 119.21375 135 120 C133.68 120 132.36 120 131 120 C130.67 120.99 130.34 121.98 130 123 C129.34 123 128.68 123 128 123 C127.896875 123.639375 127.79375 124.27875 127.6875 124.9375 C127.3471875 125.9584375 127.3471875 125.9584375 127 127 C126.01 127.33 125.02 127.66 124 128 C123.2575 128.7734375 123.2575 128.7734375 122.5 129.5625 C121 131 121 131 118 131 C118 131.66 118 132.32 118 133 C113.52233435 135.68659939 109.9509157 134.70581094 105.109375 133.703125 C104.06523438 133.35507812 104.06523438 133.35507812 103 133 C102.67 132.34 102.34 131.68 102 131 C100.68 131 99.36 131 98 131 C98 130.34 98 129.68 98 129 C98.66 129 99.32 129 100 129 C99.67 128.01 99.34 127.02 99 126 C98.92999142 124.41938123 98.91561409 122.83592329 98.9375 121.25390625 C98.94523437 120.33416016 98.95296875 119.41441406 98.9609375 118.46679688 C98.98692664 116.5345045 99.01296809 114.60221283 99.0390625 112.66992188 C99.04679687 111.74888672 99.05453125 110.82785156 99.0625 109.87890625 C99.07990234 108.61929077 99.07990234 108.61929077 99.09765625 107.33422852 C99.00331457 105.07922641 98.63217896 103.16004848 98 101 C99.32 100.67 100.64 100.34 102 100 C102.33 97.69 102.66 95.38 103 93 C103.66 93 104.32 93 105 93 C105 90.36 105 87.72 105 85 C105.66 85 106.32 85 107 85 C107 84.34 107 83.68 107 83 C107.66 83 108.32 83 109 83 C109.66 80.03 110.32 77.06 111 74 C111.66 74 112.32 74 113 74 C113.33 71.69 113.66 69.38 114 67 C110.7 67 107.4 67 104 67 C101.42974154 71.2837641 99.41292095 75.1725201 98 80 C97.34 80 96.68 80 96 80 C95.67 82.31 95.34 84.62 95 87 C94.34 87 93.68 87 93 87 C92.34 89.31 91.68 91.62 91 94 C90.34 94 89.68 94 89 94 C88.67 95.32 88.34 96.64 88 98 C87.34 98 86.68 98 86 98 C85.855625 98.5775 85.71125 99.155 85.5625 99.75 C85.04166667 101.83333333 84.52083333 103.91666667 84 106 C83.34 106 82.68 106 82 106 C81.67 106.99 81.34 107.98 81 109 C80.34 109 79.68 109 79 109 C78.62875 110.0828125 78.62875 110.0828125 78.25 111.1875 C75.97809189 116.29929325 72.5558553 119.81090129 68 123 C66.66666667 123.33333333 65.33333333 123.66666667 64 124 C63.67 124.99 63.34 125.98 63 127 C60.9375 127.6875 60.9375 127.6875 59 128 C59 128.66 59 129.32 59 130 C53.0140024 132.69956754 48.07995218 134.14347692 41.4375 134.125 C40.50808594 134.12757813 39.57867188 134.13015625 38.62109375 134.1328125 C36.25852524 134.01309964 34.25969237 133.66993233 32 133 C32 132.34 32 131.68 32 131 C30.35 130.67 28.7 130.34 27 130 C27 129.34 27 128.68 27 128 C26.01 127.67 25.02 127.34 24 127 C24 126.01 24 125.02 24 124 C23.01 123.67 22.02 123.34 21 123 C19.52333708 119.50970582 19.92835315 115.72563614 20 112 C19.34 112 18.68 112 18 112 C18 114.31 18 116.62 18 119 C17.443125 119.04125 16.88625 119.0825 16.3125 119.125 C13.66813085 119.90801652 13.66813085 119.90801652 11.5625 122.9375 C9.03372529 125.95969417 7.70270571 126.94208408 4 128 C4 129.32 4 130.64 4 132 C2.68 131.67 1.36 131.34 0 131 C0 131.66 0 132.32 0 133 C-3.31544299 134.10514766 -6.20410111 134.32107631 -9.6875 134.5625 C-10.86699219 134.64628906 -12.04648437 134.73007812 -13.26171875 134.81640625 C-14.16535156 134.87699219 -15.06898438 134.93757812 -16 135 C-16 133.68 -16 132.36 -16 131 C-16.495 130.525625 -16.99 130.05125 -17.5 129.5625 C-19 128 -19 128 -19.1875 125.3125 C-19.125625 124.549375 -19.06375 123.78625 -19 123 C-19.7425 123.53625 -20.485 124.0725 -21.25 124.625 C-22.61125 125.305625 -22.61125 125.305625 -24 126 C-26.3125 125.1875 -26.3125 125.1875 -28 124 C-29.11375 125.4540625 -29.11375 125.4540625 -30.25 126.9375 C-31.97309915 129.02387361 -32.73868694 129.90112479 -35.3125 130.875 C-35.869375 130.91625 -36.42625 130.9575 -37 131 C-37 132.32 -37 133.64 -37 135 C-39.0632984 134.93958131 -41.12577414 134.85068362 -43.1875 134.75 C-44.33605469 134.70359375 -45.48460937 134.6571875 -46.66796875 134.609375 C-50.48260114 133.91174 -52.20961189 132.62748409 -55 130 C-55.33 130.66 -55.66 131.32 -56 132 C-56.66 132 -57.32 132 -58 132 C-57.67 128.04 -57.34 124.08 -57 120 C-57.66 120 -58.32 120 -59 120 C-59.33 119.01 -59.66 118.02 -60 117 C-60.020625 117.70125 -60.04125 118.4025 -60.0625 119.125 C-61.28420837 122.87157233 -63.30248772 124.17663538 -66.40625 126.47265625 C-68.27147688 128.26016534 -68.6103614 129.48358404 -69 132 C-68.01 131.67 -67.02 131.34 -66 131 C-65.34 132.32 -64.68 133.64 -64 135 C-65.81242052 135.02687279 -67.62495233 135.04633715 -69.4375 135.0625 C-70.44683594 135.07410156 -71.45617187 135.08570313 -72.49609375 135.09765625 C-75 135 -75 135 -76 134 C-78.7835375 133.96826586 -81.55391063 134.06840075 -84.3359375 134.16015625 C-87 134 -87 134 -90 132 C-90 131.34 -90 130.68 -90 130 C-90.66 130 -91.32 130 -92 130 C-94.20914 126.68629 -94.22481553 125.6553979 -94.125 121.8125 C-94.10695313 120.91144531 -94.08890625 120.01039063 -94.0703125 119.08203125 C-94.04710937 118.39496094 -94.02390625 117.70789063 -94 117 C-94.66 117 -95.32 117 -96 117 C-96.433125 117.8971875 -96.433125 117.8971875 -96.875 118.8125 C-98 121 -98 121 -100 124 C-100.99 124 -101.98 124 -103 124 C-103 124.99 -103 125.98 -103 127 C-102.34 127 -101.68 127 -101 127 C-101.33 127.99 -101.66 128.98 -102 130 C-103.32 130 -104.64 130 -106 130 C-107.67225729 130.30404678 -109.34080104 130.63128912 -111 131 C-110.67 132.32 -110.34 133.64 -110 135 C-110.66 135 -111.32 135 -112 135 C-112 134.34 -112 133.68 -112 133 C-112.66 133.33 -113.32 133.66 -114 134 C-115.49756871 134.09499503 -116.99942932 134.12987198 -118.5 134.125 C-119.2940625 134.12757813 -120.088125 134.13015625 -120.90625 134.1328125 C-123 134 -123 134 -125 133 C-125 133.66 -125 134.32 -125 135 C-125.99 134.67 -126.98 134.34 -128 134 C-128.66 130.7 -129.32 127.4 -130 124 C-130.66 124 -131.32 124 -132 124 C-132 123.34 -132 122.68 -132 122 C-131.34 122 -130.68 122 -130 122 C-130 120.35 -130 118.7 -130 117 C-131.216875 117.495 -132.43375 117.99 -133.6875 118.5 C-136.92486738 119.72479441 -139.50099357 120.32803185 -143 120 C-143 120.66 -143 121.32 -143 122 C-143.969375 122.2475 -144.93875 122.495 -145.9375 122.75 C-149.06160302 123.63885161 -149.06160302 123.63885161 -149.9375 125.8125 C-150.08214848 128.01400258 -150.08214848 128.01400258 -149.5625 130.1875 C-148.77416123 134.12919383 -148.92144545 137.99371801 -149 142 C-148.34 142 -147.68 142 -147 142 C-147 144.64 -147 147.28 -147 150 C-147.66 150 -148.32 150 -149 150 C-148.97679687 150.58007812 -148.95359375 151.16015625 -148.9296875 151.7578125 C-148.81749577 156.61411166 -149.12485085 160.42932395 -151 165 C-151.66 165 -152.32 165 -153 165 C-153.103125 165.928125 -153.20625 166.85625 -153.3125 167.8125 C-154.02358784 171.10936181 -154.50813804 171.92344837 -157 174 C-157.33 174.66 -157.66 175.32 -158 176 C-158.66 176 -159.32 176 -160 176 C-160.268125 176.598125 -160.53625 177.19625 -160.8125 177.8125 C-161.99917406 179.99847854 -163.09599113 181.41332594 -165 183 C-165.66 183 -166.32 183 -167 183 C-167 183.66 -167 184.32 -167 185 C-168.98 185.99 -168.98 185.99 -171 187 C-170.34 187.33 -169.68 187.66 -169 188 C-169 188.66 -169 189.32 -169 190 C-170.03125 190.103125 -171.0625 190.20625 -172.125 190.3125 C-175.98015093 190.99647839 -178.65175135 192.00699485 -182 194 C-182.33 194.66 -182.66 195.32 -183 196 C-186.87918356 197.31745857 -189.88375865 198 -194 198 C-194 198.66 -194 199.32 -194 200 C-202.42857143 203.42857143 -202.42857143 203.42857143 -207 203 C-207.33 204.32 -207.66 205.64 -208 207 C-208.66 206.67 -209.32 206.34 -210 206 C-210 205.34 -210 204.68 -210 204 C-210.80957153 204.24230347 -210.80957153 204.24230347 -211.63549805 204.48950195 C-216.58884018 205.55893287 -221.76603634 205.18473178 -226.8125 205.1875 C-227.97587891 205.19974609 -229.13925781 205.21199219 -230.33789062 205.22460938 C-236.27948791 205.23475439 -241.40471352 205.06658026 -247 203 C-247 202.34 -247 201.68 -247 201 C-248.32 200.67 -249.64 200.34 -251 200 C-251 199.34 -251 198.68 -251 198 C-251.66 198 -252.32 198 -253 198 C-253.99 195.525 -253.99 195.525 -255 193 C-255.99 193 -256.98 193 -258 193 C-258 191.68 -258 190.36 -258 189 C-257.34 189 -256.68 189 -256 189 C-256 186.69 -256 184.38 -256 182 C-255.34 182 -254.68 182 -254 182 C-253.67 179.69 -253.34 177.38 -253 175 C-252.34 175 -251.68 175 -251 175 C-250.896875 174.360625 -250.79375 173.72125 -250.6875 173.0625 C-250.460625 172.381875 -250.23375 171.70125 -250 171 C-249.01 170.67 -248.02 170.34 -247 170 C-247 169.34 -247 168.68 -247 168 C-247.99 168 -248.98 168 -250 168 C-250 167.34 -250 166.68 -250 166 C-248.02 166 -246.04 166 -244 166 C-243.690625 164.824375 -243.690625 164.824375 -243.375 163.625 C-242 161 -242 161 -238.9375 159.875 C-237.4834375 159.441875 -237.4834375 159.441875 -236 159 C-235.67 158.01 -235.34 157.02 -235 156 C-232.99878825 153.63493157 -232.03200339 153.0106678 -229 152 C-228.67 151.34 -228.34 150.68 -228 150 C-225.37418862 148.42451317 -224.12900213 148 -221 148 C-221 147.34 -221 146.68 -221 146 C-220.34 146 -219.68 146 -219 146 C-219 144.68 -219 143.36 -219 142 C-218.34 142 -217.68 142 -217 142 C-217 142.66 -217 143.32 -217 144 C-216.01 144 -215.02 144 -214 144 C-214 143.34 -214 142.68 -214 142 C-212.68 141.67 -211.36 141.34 -210 141 C-210 140.34 -210 139.68 -210 139 C-206.535 138.01 -206.535 138.01 -203 137 C-203 136.34 -203 135.68 -203 135 C-202.36191406 134.89042969 -201.72382812 134.78085937 -201.06640625 134.66796875 C-200.24011719 134.50941406 -199.41382813 134.35085938 -198.5625 134.1875 C-197.73878906 134.03667969 -196.91507813 133.88585937 -196.06640625 133.73046875 C-195.04353516 133.36888672 -195.04353516 133.36888672 -194 133 C-193.67 132.01 -193.34 131.02 -193 130 C-189.5065403 128.25327015 -186.93154432 127 -183 127 C-183 126.01 -183 125.02 -183 124 C-183.66 124 -184.32 124 -185 124 C-185 123.34 -185 122.68 -185 122 C-189.95 122 -194.9 122 -200 122 C-200 122.66 -200 123.32 -200 124 C-200.99 124 -201.98 124 -203 124 C-203 123.34 -203 122.68 -203 122 C-202.34 122 -201.68 122 -201 122 C-201 121.34 -201 120.68 -201 120 C-204.19902639 119.91113816 -206.92677456 120.08941469 -210 121 C-209.01 119.02 -209.01 119.02 -208 117 C-208.66 117 -209.32 117 -210 117 C-211.29758261 114.40483479 -211.13269102 112.45816973 -211.125 109.5625 C-211.12757813 108.59441406 -211.13015625 107.62632812 -211.1328125 106.62890625 C-210.95768881 103.16248733 -210.37488761 101.42326021 -208.0625 98.8125 C-206 97 -206 97 -204 97 C-204 96.01 -204 95.02 -204 94 C-199.64417794 92.92596168 -195.39634885 92.85047837 -190.9375 92.875 C-189.87692383 92.86919922 -189.87692383 92.86919922 -188.79492188 92.86328125 C-185.39105469 92.86967349 -182.25275537 92.93546188 -179 94 C-179 94.66 -179 95.32 -179 96 C-177.68 96 -176.36 96 -175 96 C-172.89229266 93.63624434 -172.89229266 93.63624434 -171 91 C-170.01 90.34 -169.02 89.68 -168 89 C-168.33 88.01 -168.66 87.02 -169 86 C-168.505 84.515 -168.505 84.515 -168 83 C-166.515 83.495 -166.515 83.495 -165 84 C-164.67 83.34 -164.34 82.68 -164 82 C-163.34 82 -162.68 82 -162 82 C-161.855625 81.4225 -161.71125 80.845 -161.5625 80.25 C-161.04166667 78.16666667 -160.52083333 76.08333333 -160 74 C-159.34 74 -158.68 74 -158 74 C-157.67 69.71 -157.34 65.42 -157 61 C-156.34 61 -155.68 61 -155 61 C-155 60.01 -155 59.02 -155 58 C-155.66 58 -156.32 58 -157 58 C-157.33 54.37 -157.66 50.74 -158 47 C-158.66 47 -159.32 47 -160 47 C-160.28875 46.195625 -160.5775 45.39125 -160.875 44.5625 C-161.73262568 41.8673532 -161.73262568 41.8673532 -164 41 C-164.12375 40.195625 -164.2475 39.39125 -164.375 38.5625 C-164.72567164 35.84016601 -164.72567164 35.84016601 -167.0625 34.6875 C-167.701875 34.460625 -168.34125 34.23375 -169 34 C-169 33.34 -169 32.68 -169 32 C-169.969375 31.71125 -170.93875 31.4225 -171.9375 31.125 C-175 30 -175 30 -176 28 C-178.3140622 27.26924352 -180.64828869 26.59861742 -183 26 C-183 25.34 -183 24.68 -183 24 C-195.76865152 23.48195454 -195.76865152 23.48195454 -208.1171875 26.34375 C-210 27 -210 27 -213 27 C-213 28.32 -213 29.64 -213 31 C-213.66 31 -214.32 31 -215 31 C-215 30.01 -215 29.02 -215 28 C-215.66 28 -216.32 28 -217 28 C-217 28.66 -217 29.32 -217 30 C-219.64738916 31.4606285 -220.89448334 32 -224 32 C-224.33 32.99 -224.66 33.98 -225 35 C-225.99 35 -226.98 35 -228 35 C-228 35.66 -228 36.32 -228 37 C-229.32 37.66 -230.64 38.32 -232 39 C-232 40.32 -232 41.64 -232 43 C-233.98 43 -235.96 43 -238 43 C-238.268125 43.556875 -238.53625 44.11375 -238.8125 44.6875 C-240.10899496 47.21225334 -241.42476323 49.63714484 -243 52 C-243.66 52 -244.32 52 -245 52 C-245.66 53.98 -246.32 55.96 -247 58 C-247.66 58 -248.32 58 -249 58 C-250.40074316 68.63064002 -250.71496108 79.39718506 -249 90 C-247.515 90.495 -247.515 90.495 -246 91 C-246 93.97 -246 96.94 -246 100 C-246.99 100 -247.98 100 -249 100 C-249 100.66 -249 101.32 -249 102 C-251.24973447 102.054138 -253.49984383 102.09285491 -255.75 102.125 C-257.00296875 102.14820313 -258.2559375 102.17140625 -259.546875 102.1953125 C-262.8008485 102.01126423 -264.41264331 101.89935502 -267 100 C-268.484375 98.01171875 -268.484375 98.01171875 -269.75 95.6875 C-270.17796875 94.92824219 -270.6059375 94.16898437 -271.046875 93.38671875 C-272.09933613 90.75125256 -272.17914601 88.81159711 -272 86 C-272.66 86 -273.32 86 -274 86 C-274.05434116 83.4580411 -274.0938339 80.91726318 -274.125 78.375 C-274.14175781 77.66214844 -274.15851562 76.94929688 -274.17578125 76.21484375 C-274.21695849 71.72652424 -273.69499706 68.22538552 -272 64 C-271.71898437 63.29875 -271.43796875 62.5975 -271.1484375 61.875 C-270.76558594 60.946875 -270.76558594 60.946875 -270.375 60 C-269.0599962 56.56380917 -268.72201719 53.70643746 -269 50 C-268.34 50 -267.68 50 -267 50 C-267 50.66 -267 51.32 -267 52 C-266.34 52 -265.68 52 -265 52 C-264.67 49.69 -264.34 47.38 -264 45 C-263.01 45 -262.02 45 -261 45 C-260.67 44.01 -260.34 43.02 -260 42 C-258.52993721 40.75861364 -257.0555424 39.52125186 -255.54296875 38.33203125 C-253.78018948 36.90768816 -253.78018948 36.90768816 -252 34.3125 C-249.56978537 31.50256434 -247.55402263 30.88850566 -244 30 C-244 29.34 -244 28.68 -244 28 C-242.02 27.34 -240.04 26.68 -238 26 C-238.495 24.02 -238.495 24.02 -239 22 C-236.69 22.33 -234.38 22.66 -232 23 C-232 22.34 -232 21.68 -232 21 C-228.7 20.34 -225.4 19.68 -222 19 C-222 18.34 -222 17.68 -222 17 C-216.23918159 15.7017874 -210.91260345 14.74293028 -205 15 C-205 13.68 -205 12.36 -205 11 C-204.01 11 -203.02 11 -202 11 C-202 11.66 -202 12.32 -202 13 C-192.1 13 -182.2 13 -172 13 C-172 13.66 -172 14.32 -172 15 C-171.01 14.95875 -170.02 14.9175 -169 14.875 C-164.76164134 14.8576652 -161.06806015 15.85808838 -157 17 C-157 17.66 -157 18.32 -157 19 C-153.7 19.33 -150.4 19.66 -147 20 C-146.505 21.485 -146.505 21.485 -146 23 C-145.01 23.33 -144.02 23.66 -143 24 C-140.8125 25.9375 -140.8125 25.9375 -139 28 C-139 28.66 -139 29.32 -139 30 C-137.68 30.66 -136.36 31.32 -135 32 C-135 32.99 -135 33.98 -135 35 C-134.34 35 -133.68 35 -133 35 C-128.97279835 39.75942013 -128.27293101 43.8590522 -128 50 C-127.34 50 -126.68 50 -126 50 C-126 56.27 -126 62.54 -126 69 C-126.66 69 -127.32 69 -128 69 C-128.02578125 69.6290625 -128.0515625 70.258125 -128.078125 70.90625 C-128.49717868 77.23015102 -129.8457978 81.50558326 -133 87 C-133.66 87 -134.32 87 -135 87 C-135 88.98 -135 90.96 -135 93 C-136.32 93 -137.64 93 -139 93 C-139.103125 93.598125 -139.20625 94.19625 -139.3125 94.8125 C-140 97 -140 97 -141.5625 98.5 C-143.46127024 100.13505943 -143.46127024 100.13505943 -143 104 C-143.66 104 -144.32 104 -145 104 C-145 104.66 -145 105.32 -145 106 C-145.66 106 -146.32 106 -147 106 C-147 105.34 -147 104.68 -147 104 C-147.99 104.66 -148.98 105.32 -150 106 C-150.99 106 -151.98 106 -153 106 C-153.495 107.485 -153.495 107.485 -154 109 C-154.66 109 -155.32 109 -156 109 C-156 109.66 -156 110.32 -156 111 C-156.66 111 -157.32 111 -158 111 C-157.67 112.65 -157.34 114.3 -157 116 C-154.69 114.68 -152.38 113.36 -150 112 C-150 111.01 -150 110.02 -150 109 C-148.68 109 -147.36 109 -146 109 C-146 109.99 -146 110.98 -146 112 C-142.535 111.505 -142.535 111.505 -139 111 C-139 110.34 -139 109.68 -139 109 C-134.545 108.01 -134.545 108.01 -130 107 C-129.34 103.7 -128.68 100.4 -128 97 C-127.34 97 -126.68 97 -126 97 C-125.835 95.700625 -125.67 94.40125 -125.5 93.0625 C-125.4071875 92.33160156 -125.314375 91.60070312 -125.21875 90.84765625 C-124.98040465 89.14458268 -124.98040465 89.14458268 -125 88 C-125.99 88 -126.98 88 -128 88 C-128 87.01 -128 86.02 -128 85 C-127.030625 84.54625 -126.06125 84.0925 -125.0625 83.625 C-121.92920418 82.34213779 -121.92920418 82.34213779 -121 80 C-120.34 80 -119.68 80 -119 80 C-118.7834375 78.6078125 -118.7834375 78.6078125 -118.5625 77.1875 C-118 74 -118 74 -117 71 C-116.34 71 -115.68 71 -115 71 C-114.67 66.38 -114.34 61.76 -114 57 C-111.03 56.505 -111.03 56.505 -108 56 C-108 55.34 -108 54.68 -108 54 C-106.3743193 54.30893932 -104.74947252 54.6222695 -103.125 54.9375 C-102.22007812 55.11152344 -101.31515625 55.28554688 -100.3828125 55.46484375 C-98 56 -98 56 -96 57 C-96 57.66 -96 58.32 -96 59 C-95.34 59 -94.68 59 -94 59 C-92.49837452 62.00325096 -92.85631001 65.08556242 -92.875 68.375 C-92.87113281 69.04789062 -92.86726562 69.72078125 -92.86328125 70.4140625 C-92.86985359 73.75280945 -92.96890997 76.80853085 -94 80 C-94.66 80 -95.32 80 -96 80 C-95.9175 80.845625 -95.835 81.69125 -95.75 82.5625 C-96.02985938 86.41056649 -97.05128655 88.09449657 -99.05078125 91.265625 C-100.40235261 93.7351628 -100.62303133 96.23556306 -101 99 C-101.66 99.99 -102.32 100.98 -103 102 C-103.99 102 -104.98 102 -106 102 C-106 102.66 -106 103.32 -106 104 C-105.34 104 -104.68 104 -104 104 C-103.67 104.99 -103.34 105.98 -103 107 C-101.35 107.33 -99.7 107.66 -98 108 C-97.855625 107.05125 -97.71125 106.1025 -97.5625 105.125 C-97 102 -97 102 -96 100 C-95.01 100 -94.02 100 -93 100 C-92.67 98.68 -92.34 97.36 -92 96 C-91.34 96 -90.68 96 -90 96 C-89.67 94.02 -89.34 92.04 -89 90 C-88.34 90 -87.68 90 -87 90 C-86.855625 89.236875 -86.71125 88.47375 -86.5625 87.6875 C-86 85 -86 85 -85 82 C-84.34 82 -83.68 82 -83 82 C-82.67 79.69 -82.34 77.38 -82 75 C-81.34 75 -80.68 75 -80 75 C-78.97296252 69.44506076 -78.97296252 69.44506076 -80 64 C-78.68 64 -77.36 64 -76 64 C-76 63.01 -76 62.02 -76 61 C-76.66 61 -77.32 61 -78 61 C-77.625 59.0625 -77.625 59.0625 -77 57 C-74.04200997 55.52100499 -71.3516424 55.86821126 -68.0625 55.875 C-66.81597656 55.87242187 -65.56945312 55.86984375 -64.28515625 55.8671875 C-61 56 -61 56 -58 57 C-55.00092657 62.33168609 -54.33597253 66.93521582 -55 73 C-55.9375 76.3125 -55.9375 76.3125 -57 79 C-57.34976758 80.32911682 -57.69096017 81.66082739 -58 83 C-58.66 83 -59.32 83 -60 83 C-60.10957031 83.59167969 -60.21914063 84.18335938 -60.33203125 84.79296875 C-61.24718738 89.35386882 -62.08850143 93.23931435 -65 97 C-65.66 97 -66.32 97 -67 97 C-67.144375 97.763125 -67.28875 98.52625 -67.4375 99.3125 C-68 102 -68 102 -69 105 C-69.99 105.495 -69.99 105.495 -71 106 C-72.99799416 110.24573759 -74.58078953 114.5240285 -76 119 C-76.66 119 -77.32 119 -78 119 C-78 120.32 -78 121.64 -78 123 C-75.525 122.505 -75.525 122.505 -73 122 C-73 121.01 -73 120.02 -73 119 C-72.34 119 -71.68 119 -71 119 C-70.67 118.01 -70.34 117.02 -70 116 C-68.33333333 114.33333333 -66.66666667 112.66666667 -65 111 C-64.67 110.01 -64.34 109.02 -64 108 C-63.34 107.67 -62.68 107.34 -62 107 C-61.07133836 105.51132724 -60.20294664 103.98445294 -59.375 102.4375 C-58.92898438 101.61121094 -58.48296875 100.78492188 -58.0234375 99.93359375 C-57.51683594 98.97646484 -57.51683594 98.97646484 -57 98 C-56.34 98 -55.68 98 -55 98 C-54.5978125 96.700625 -54.5978125 96.700625 -54.1875 95.375 C-53.02888013 92.08208036 -51.61790161 89.08872125 -50 86 C-49.34 86 -48.68 86 -48 86 C-48.66 84.02 -49.32 82.04 -50 80 C-48.68 79.67 -47.36 79.34 -46 79 C-46.33 76.69 -46.66 74.38 -47 72 C-45.68 72 -44.36 72 -43 72 C-42.86722656 71.42765625 -42.73445312 70.8553125 -42.59765625 70.265625 C-42.00619683 68.02349125 -41.26711146 65.91420381 -40.4375 63.75 C-40.03337891 62.69039062 -40.03337891 62.69039062 -39.62109375 61.609375 C-39.41613281 61.07828125 -39.21117187 60.5471875 -39 60 C-38.34 60 -37.68 60 -37 60 C-35.81885861 52.94722941 -35.81885861 52.94722941 -37 46 C-37.81976318 46.09087891 -38.63952637 46.18175781 -39.48413086 46.27539062 C-85.3838633 51.29773632 -85.3838633 51.29773632 -100 45 C-103.39157252 42.04286082 -104.94146041 39.72589097 -105.3125 35.125 C-105.1578125 33.578125 -105.1578125 33.578125 -105 32 C-101.25 30.875 -101.25 30.875 -99 32 C-99 32.66 -99 33.32 -99 34 C-92.4 34.33 -85.8 34.66 -79 35 C-79 35.66 -79 36.32 -79 37 C-77.700625 36.855625 -76.40125 36.71125 -75.0625 36.5625 C-74.33160156 36.48128906 -73.60070312 36.40007812 -72.84765625 36.31640625 C-70.98859771 36.18113386 -70.98859771 36.18113386 -70 35 C-68.23448287 34.78418127 -66.46148596 34.62884982 -64.6875 34.5 C-63.61242187 34.4175 -62.53734375 34.335 -61.4296875 34.25 C-59.14322917 34.08333333 -56.85677083 33.91666667 -54.5703125 33.75 C-53.49523437 33.6675 -52.42015625 33.585 -51.3125 33.5 C-49.82169922 33.39171875 -49.82169922 33.39171875 -48.30078125 33.28125 C-46.03920732 33.24456843 -46.03920732 33.24456843 -45 32 C-43.58879098 31.77428816 -42.16823957 31.60611651 -40.74609375 31.46484375 C-39.46508789 31.33432617 -39.46508789 31.33432617 -38.15820312 31.20117188 C-36.81145508 31.0706543 -36.81145508 31.0706543 -35.4375 30.9375 C-34.53580078 30.84662109 -33.63410156 30.75574219 -32.70507812 30.66210938 C-30.47041566 30.43746077 -28.23542161 30.21694231 -26 30 C-25.67 29.01 -25.34 28.02 -25 27 C-24.34 27 -23.68 27 -23 27 C-23 26.01 -23 25.02 -23 24 C-23.66 24 -24.32 24 -25 24 C-25 22.68 -25 21.36 -25 20 C-24.01 19.67 -23.02 19.34 -22 19 C-21.67 18.01 -21.34 17.02 -21 16 C-20.34 16 -19.68 16 -19 16 C-18.67 13.36 -18.34 10.72 -18 8 C-17.34 8 -16.68 8 -16 8 C-16.66 5.69 -17.32 3.38 -18 1 C-17.01 1 -16.02 1 -15 1 C-15 0.34 -15 -0.32 -15 -1 C-4.78922926 -2.46717871 -4.78922926 -2.46717871 0 0 Z M-7 43 C-8.84890331 45.4748643 -9.38230353 48.00820059 -10 51 C-10.38837929 52.33552362 -10.78361682 53.66908295 -11.1875 55 C-11.455625 55.99 -11.72375 56.98 -12 58 C-12.66 58 -13.32 58 -14 58 C-14.19335938 58.60328125 -14.38671875 59.2065625 -14.5859375 59.828125 C-14.84632813 60.62734375 -15.10671875 61.4265625 -15.375 62.25 C-15.75785156 63.43335938 -15.75785156 63.43335938 -16.1484375 64.640625 C-17 67 -17 67 -18.1015625 69.109375 C-19.21460453 71.10272929 -19.21460453 71.10272929 -19 74 C-19.66 74 -20.32 74 -21 74 C-22.25664978 76.90600261 -23 78.79604584 -23 82 C-23.66 82 -24.32 82 -25 82 C-25.495 84.475 -25.495 84.475 -26 87 C-26.66 87 -27.32 87 -28 87 C-28.66 90.3 -29.32 93.6 -30 97 C-30.66 97 -31.32 97 -32 97 C-32.495 99.475 -32.495 99.475 -33 102 C-33.66 102 -34.32 102 -35 102 C-36.19287411 105.87684087 -37 108.91621923 -37 113 C-37.66 113 -38.32 113 -39 113 C-39.33 114.98 -39.66 116.96 -40 119 C-39.01 119 -38.02 119 -37 119 C-37 118.01 -37 117.02 -37 116 C-36.34 116 -35.68 116 -35 116 C-34.67 116.66 -34.34 117.32 -34 118 C-30.80967502 115.05508463 -28.90855213 113.23990994 -28 109 C-26.515 108.505 -26.515 108.505 -25 108 C-25 107.01 -25 106.02 -25 105 C-23.515 104.505 -23.515 104.505 -22 104 C-21.67 103.01 -21.34 102.02 -21 101 C-20.01 100.505 -20.01 100.505 -19 100 C-18.67 99.01 -18.34 98.02 -18 97 C-17.01 96.505 -17.01 96.505 -16 96 C-13.60017971 91.616932 -11.64246777 86.97912521 -11 82 C-10.34 82 -9.68 82 -9 82 C-8.34 78.7 -7.68 75.4 -7 72 C-6.34 72 -5.68 72 -5 72 C-4.34 69.03 -3.68 66.06 -3 63 C-2.34 63 -1.68 63 -1 63 C-0.67 60.69 -0.34 58.38 0 56 C0.66 56 1.32 56 2 56 C2.66 52.7 3.32 49.4 4 46 C4.66 46 5.32 46 6 46 C6.33 44.35 6.66 42.7 7 41 C2.12078435 41 -2.44652582 41.10206822 -7 43 Z M68 61 C68 61.66 68 62.32 68 63 C67.21625 63.144375 66.4325 63.28875 65.625 63.4375 C63.03578982 63.87798925 63.03578982 63.87798925 61 65 C60.27306096 66.97888961 59.60183749 68.97954558 59 71 C58.34 71 57.68 71 57 71 C56.67 71.99 56.34 72.98 56 74 C55.01 74.495 55.01 74.495 54 75 C53.26924352 77.3140622 52.59861742 79.64828869 52 82 C51.34 82 50.68 82 50 82 C49.01 84.97 48.02 87.94 47 91 C49.31 90.34 51.62 89.68 54 89 C54 88.34 54 87.68 54 87 C54.721875 86.79375 55.44375 86.5875 56.1875 86.375 C59.99861399 84.51178872 61.53480172 82.45127759 64 79 C64 78.01 64 77.02 64 76 C64.99 75.67 65.98 75.34 67 75 C68.28713961 72.82039087 68.28713961 72.82039087 69.25 70.1875 C69.60578125 69.31480469 69.9615625 68.44210937 70.328125 67.54296875 C71.03604136 64.86358764 70.9337741 63.56787877 70 61 C69.34 61 68.68 61 68 61 Z M114 65 C114 65.66 114 66.32 114 67 C114.66 67 115.32 67 116 67 C116 66.34 116 65.68 116 65 C115.34 65 114.68 65 114 65 Z M-147 102 C-146 104 -146 104 -146 104 Z M-110 108 C-111.25664978 110.90600261 -112 112.79604584 -112 116 C-112.66 116 -113.32 116 -114 116 C-114.33 118.31 -114.66 120.62 -115 123 C-113.02463255 122.65213292 -113.02463255 122.65213292 -111 122 C-110.67 121.34 -110.34 120.68 -110 120 C-109.01 119.67 -108.02 119.34 -107 119 C-107 118.01 -107 117.02 -107 116 C-106.01 115.67 -105.02 115.34 -104 115 C-102.95550089 111.86650268 -103.06576355 111.01031744 -104 108 C-105.98 108 -107.96 108 -110 108 Z M139 109 C139 109.66 139 110.32 139 111 C139.66 111 140.32 111 141 111 C141 110.34 141 109.68 141 109 C140.34 109 139.68 109 139 109 Z M-22 116 C-22 117.98 -22 119.96 -22 122 C-21.67 122 -21.34 122 -21 122 C-21 120.02 -21 118.04 -21 116 C-21.33 116 -21.66 116 -22 116 Z M-3 116 C-3 118.31 -3 120.62 -3 123 C-2.01 122.67 -1.02 122.34 0 122 C-0.66 121.67 -1.32 121.34 -2 121 C-1.67 119.35 -1.34 117.7 -1 116 C-1.66 116 -2.32 116 -3 116 Z M-25 121 C-24.67 121.99 -24.34 122.98 -24 124 C-24 123.01 -24 122.02 -24 121 C-24.33 121 -24.66 121 -25 121 Z M-182 135 C-182 135.66 -182 136.32 -182 137 C-183.1446875 137.2165625 -183.1446875 137.2165625 -184.3125 137.4375 C-187.08172908 137.9632594 -187.08172908 137.9632594 -190 139 C-190 139.66 -190 140.32 -190 141 C-191.98 141.33 -193.96 141.66 -196 142 C-196 142.66 -196 143.32 -196 144 C-196.78375 144.144375 -197.5675 144.28875 -198.375 144.4375 C-200.96421018 144.87798925 -200.96421018 144.87798925 -203 146 C-203 146.66 -203 147.32 -203 148 C-203.78375 148.144375 -204.5675 148.28875 -205.375 148.4375 C-207.96421018 148.87798925 -207.96421018 148.87798925 -210 150 C-210 150.66 -210 151.32 -210 152 C-211.051875 152.12375 -211.051875 152.12375 -212.125 152.25 C-215.68527538 153.17876749 -218.07030552 154.80272914 -221 157 C-221.33 157.66 -221.66 158.32 -222 159 C-224.0625 160.125 -224.0625 160.125 -226 161 C-226 161.66 -226 162.32 -226 163 C-226.9075 163.226875 -227.815 163.45375 -228.75 163.6875 C-232.53001048 165.2140427 -233.66297438 166.72816413 -236 170 C-236.7425 170.721875 -237.485 171.44375 -238.25 172.1875 C-240.2315315 173.81989123 -240.2315315 173.81989123 -240 176 C-240.66 176 -241.32 176 -242 176 C-245.16296639 180.84329229 -246.90154874 184.02723957 -246 190 C-244.54951995 192.34350033 -244.54951995 192.34350033 -242 194 C-239.1008843 194.3490772 -236.63282675 194.47025862 -233.75 194.375 C-232.66138672 194.37306641 -232.66138672 194.37306641 -231.55078125 194.37109375 C-226.43149516 194.28896617 -221.92318544 193.39230358 -217 192 C-217 191.34 -217 190.68 -217 190 C-216.175 189.9175 -215.35 189.835 -214.5 189.75 C-210.23246079 188.83552731 -206.80763106 187.07776822 -203 185 C-203 184.34 -203 183.68 -203 183 C-202.030625 182.71125 -201.06125 182.4225 -200.0625 182.125 C-196.89335797 181.35785318 -196.89335797 181.35785318 -196 179 C-195.01 178.67 -194.02 178.34 -193 178 C-190.77068176 176.18739868 -190.77068176 176.18739868 -189 174 C-189 173.01 -189 172.02 -189 171 C-188.01 170.67 -187.02 170.34 -186 170 C-182.15942052 167.38840596 -181.91283196 163.28328844 -181 159 C-180.34 159 -179.68 159 -179 159 C-178.23202204 156.2670814 -177.87194668 153.83222214 -177.8671875 150.99609375 C-177.86589844 150.25552734 -177.86460937 149.51496094 -177.86328125 148.75195312 C-177.86714844 147.98818359 -177.87101563 147.22441406 -177.875 146.4375 C-177.87113281 145.66986328 -177.86726562 144.90222656 -177.86328125 144.11132812 C-177.869019 140.82072861 -177.95252969 138.14241093 -179 135 C-179.99 135 -180.98 135 -182 135 Z " fill="#404142" transform="translate(813,262)"/>
<path d="M0 0 C3.3 0 6.6 0 10 0 C10 0.66 10 1.32 10 2 C11.32 2 12.64 2 14 2 C14.19658808 3.41543415 14.38187546 4.83244031 14.5625 6.25 C14.66691406 7.03890625 14.77132812 7.8278125 14.87890625 8.640625 C15.00027349 11.00532874 14.69633257 12.7511037 14 15 C13.34 15 12.68 15 12 15 C12.99 17.475 12.99 17.475 14 20 C13.34 20.66 12.68 21.32 12 22 C12 22.99 12 23.98 12 25 C12.99 25.33 13.98 25.66 15 26 C17.62225892 27.91626613 17.98538152 28.9322234 18.6875 32.1875 C18.790625 33.115625 18.89375 34.04375 19 35 C20.32 35.33 21.64 35.66 23 36 C23 38.31 23 40.62 23 43 C23.66 43 24.32 43 25 43 C25.10957031 43.63808594 25.21914063 44.27617187 25.33203125 44.93359375 C25.49058594 45.75988281 25.64914062 46.58617187 25.8125 47.4375 C26.03873047 48.67306641 26.03873047 48.67306641 26.26953125 49.93359375 C26.63111328 50.95646484 26.63111328 50.95646484 27 52 C27.99 52.33 28.98 52.66 30 53 C29.67 54.98 29.34 56.96 29 59 C29.99 59 30.98 59 32 59 C32.33 57.68 32.66 56.36 33 55 C33.66 55 34.32 55 35 55 C35.2165625 53.824375 35.2165625 53.824375 35.4375 52.625 C36 50 36 50 37 48 C37.66 48 38.32 48 39 48 C39.33 46.35 39.66 44.7 40 43 C40.66 43 41.32 43 42 43 C42.66 40.69 43.32 38.38 44 36 C44.66 36 45.32 36 46 36 C46.33 34.02 46.66 32.04 47 30 C47.66 30 48.32 30 49 30 C49 28.02 49 26.04 49 24 C47.35 23.67 45.7 23.34 44 23 C44.33 22.34 44.66 21.68 45 21 C45.66 21 46.32 21 47 21 C47 17.04 47 13.08 47 9 C47.66 9 48.32 9 49 9 C49.144375 8.21625 49.28875 7.4325 49.4375 6.625 C50 4 50 4 51 2 C54.61757128 0.18801297 57.66494289 -0.2960366 61.6875 -0.3125 C63.11642578 -0.33763672 63.11642578 -0.33763672 64.57421875 -0.36328125 C65.37472656 -0.24339844 66.17523438 -0.12351562 67 0 C69 3 69 3 69 6 C69.66 6 70.32 6 71 6 C71 6.66 71 7.32 71 8 C70.34 8 69.68 8 69 8 C69.04125 8.969375 69.0825 9.93875 69.125 10.9375 C69.14348933 15.44889724 68.10517422 19.64837652 67 24 C68.32 24 69.64 24 71 24 C71.99 26.97 71.99 26.97 73 30 C73.99 30 74.98 30 76 30 C75.67 31.65 75.34 33.3 75 35 C75.99 35 76.98 35 78 35 C78.12117187 35.61488281 78.24234375 36.22976563 78.3671875 36.86328125 C78.53476562 37.67152344 78.70234375 38.47976563 78.875 39.3125 C79.03742188 40.11300781 79.19984375 40.91351563 79.3671875 41.73828125 C79.94478999 44.25301118 79.94478999 44.25301118 82 47 C82.93081879 51.85439674 83.13519564 56.56530792 83.125 61.5 C83.12757813 62.7478125 83.13015625 63.995625 83.1328125 65.28125 C82.79000592 74.8798343 80.23005506 79.99118806 74 87 C71 89 71 89 68 89 C68 89.66 68 90.32 68 91 C60.89064294 95.66187348 54.2952256 96.47146493 46 96.4375 C45.06776611 96.43492187 44.13553223 96.43234375 43.17504883 96.4296875 C36.4226773 96.28178487 36.4226773 96.28178487 33 94 C32.8125 91.375 32.8125 91.375 33 89 C36.50776784 87.39644899 39.14354879 86.77963136 43 87 C43 86.34 43 85.68 43 85 C46.3 84.34 49.6 83.68 53 83 C53 82.34 53 81.68 53 81 C54.32 80.67 55.64 80.34 57 80 C57.33 78.68 57.66 77.36 58 76 C58.66 76 59.32 76 60 76 C61.72117871 66.31836976 61.05381058 56.72892986 60 47 C59.34 47 58.68 47 58 47 C57.67 44.69 57.34 42.38 57 40 C56.01 40.33 55.02 40.66 54 41 C54 41.99 54 42.98 54 44 C53.01 44 52.02 44 51 44 C51 44.66 51 45.32 51 46 C51.66 46 52.32 46 53 46 C53 46.66 53 47.32 53 48 C52.0409375 48.1546875 52.0409375 48.1546875 51.0625 48.3125 C50.381875 48.539375 49.70125 48.76625 49 49 C47.84188612 51.94729537 47.84188612 51.94729537 48 55 C46.68 55 45.36 55 44 55 C43.731875 55.9075 43.46375 56.815 43.1875 57.75 C42.09868368 60.72991834 41.13608899 62.68590359 39 65 C38.34 65 37.68 65 37 65 C36.34 66.65 35.68 68.3 35 70 C34.34 70 33.68 70 33 70 C32.67 71.32 32.34 72.64 32 74 C31.34 74 30.68 74 30 74 C30 74.66 30 75.32 30 76 C30.66 76 31.32 76 32 76 C32 76.66 32 77.32 32 78 C30.02 78 28.04 78 26 78 C25.67 78.99 25.34 79.98 25 81 C24.34 81 23.68 81 23 81 C22.01 82.98 22.01 82.98 21 85 C20.34 85 19.68 85 19 85 C18.67 85.99 18.34 86.98 18 88 C15.03 88.495 15.03 88.495 12 89 C11.67 89.99 11.34 90.98 11 92 C10.01 92 9.02 92 8 92 C8 92.66 8 93.32 8 94 C1.71428398 96.23156255 -4.181829 96.33325977 -10.8125 96.3125 C-12.38547852 96.33666992 -12.38547852 96.33666992 -13.99023438 96.36132812 C-14.98990234 96.36197266 -15.98957031 96.36261719 -17.01953125 96.36328125 C-18.38235229 96.36775269 -18.38235229 96.36775269 -19.77270508 96.37231445 C-20.5077124 96.24945068 -21.24271973 96.12658691 -22 96 C-22.66 95.01 -23.32 94.02 -24 93 C-23.01 92.34 -22.02 91.68 -21 91 C-21.99 90.67 -22.98 90.34 -24 90 C-22 87 -22 87 -20.15234375 86.59375 C-19.42144531 86.5628125 -18.69054687 86.531875 -17.9375 86.5 C-13.05029256 86.11187494 -8.46224022 85.08171475 -4 83 C-3.67 82.34 -3.34 81.68 -3 81 C-2.21625 80.62875 -1.4325 80.2575 -0.625 79.875 C3.16514085 77.16775653 3.63036944 74.39723495 5 70 C5.66 70 6.32 70 7 70 C6.85966889 68.02043559 6.7125877 66.04134859 6.5625 64.0625 C6.48128906 62.96035156 6.40007812 61.85820312 6.31640625 60.72265625 C6.29581916 58.08890097 6.29581916 58.08890097 5 57 C4.60001092 55.25990151 4.25462198 53.50709069 3.9375 51.75 C3.76089844 50.79609375 3.58429688 49.8421875 3.40234375 48.859375 C3.02694617 46.1915009 2.92639561 43.68901371 3 41 C2.34 41 1.68 41 1 41 C1 39.68 1 38.36 1 37 C0.01 37 -0.98 37 -2 37 C-2.061875 37.804375 -2.12375 38.60875 -2.1875 39.4375 C-3.26536993 44.1635451 -5.51591419 47.87513427 -8 52 C-8.66 52 -9.32 52 -10 52 C-10.33 53.98 -10.66 55.96 -11 58 C-11.66 58 -12.32 58 -13 58 C-13.0825 58.680625 -13.165 59.36125 -13.25 60.0625 C-14.22332528 63.8746907 -15.95807455 66.64070329 -18 70 C-18.66 70 -19.32 70 -20 70 C-20.66 71.98 -21.32 73.96 -22 76 C-22.66 76 -23.32 76 -24 76 C-24.0825 76.5775 -24.165 77.155 -24.25 77.75 C-25.21797787 80.6539336 -26.68694284 82.03740604 -29 84 C-29.66 84 -30.32 84 -31 84 C-31.12375 84.61875 -31.2475 85.2375 -31.375 85.875 C-32 88 -32 88 -34 90 C-34 90.66 -34 91.32 -34 92 C-35.32 92 -36.64 92 -38 92 C-38.33 92.66 -38.66 93.32 -39 94 C-44.60672812 96.46149039 -49.86100081 96.76731091 -55.8125 95.3125 C-58.77506544 93.53496073 -59.55356989 92.16661959 -61 89 C-61.4134187 85.74214153 -61.37313866 82.52933899 -61.3125 79.25 C-61.31572266 78.3940625 -61.31894531 77.538125 -61.32226562 76.65625 C-61.20181197 62.20181197 -61.20181197 62.20181197 -58 59 C-61.96 58.34 -65.92 57.68 -70 57 C-70.33 58.65 -70.66 60.3 -71 62 C-69.515 62.495 -69.515 62.495 -68 63 C-68.66 63.66 -69.32 64.32 -70 65 C-71.32 65 -72.64 65 -74 65 C-74.93380961 69.53140653 -74.93380961 69.53140653 -74 74 C-74.99 74 -75.98 74 -77 74 C-78.71140469 75.96185416 -80.37873325 77.96302383 -82 80 C-82.99 80.495 -82.99 80.495 -84 81 C-84.65213292 83.02463255 -84.65213292 83.02463255 -85 85 C-86.32 85 -87.64 85 -89 85 C-89 85.66 -89 86.32 -89 87 C-91.64738916 88.4606285 -92.89448334 89 -96 89 C-96 89.66 -96 90.32 -96 91 C-97.98 91.33 -99.96 91.66 -102 92 C-102 92.66 -102 93.32 -102 94 C-110.67977847 95.92354065 -122.27874029 98.24142799 -130.40625 93.63671875 C-132 92 -132 92 -132 89 C-132.66 89 -133.32 89 -134 89 C-135.14814997 86.70370006 -135.30769809 84.92301914 -135.5625 82.375 C-135.64628906 81.55773437 -135.73007812 80.74046875 -135.81640625 79.8984375 C-135.90728516 78.95871094 -135.90728516 78.95871094 -136 78 C-136.66 78 -137.32 78 -138 78 C-138 78.99 -138 79.98 -138 81 C-138.99 81 -139.98 81 -141 81 C-141.226875 81.94875 -141.45375 82.8975 -141.6875 83.875 C-143 87 -143 87 -145.5625 88.1875 C-146.7690625 88.5896875 -146.7690625 88.5896875 -148 89 C-148.33 89.99 -148.66 90.98 -149 92 C-149.99 92 -150.98 92 -152 92 C-152 92.66 -152 93.32 -152 94 C-155.56086658 95.18695553 -158.97331024 95.35095418 -162.6875 95.5625 C-163.7403418 95.62727539 -163.7403418 95.62727539 -164.81445312 95.69335938 C-166.54275206 95.7991736 -168.2713511 95.90006581 -170 96 C-170 95.34 -170 94.68 -170 94 C-169.34 94 -168.68 94 -168 94 C-168 93.34 -168 92.68 -168 92 C-168.99 92 -169.98 92 -171 92 C-171 91.01 -171 90.02 -171 89 C-171.66 89 -172.32 89 -173 89 C-175.7851896 78.55553899 -173.57668553 67.92024099 -170 58 C-169.34 58 -168.68 58 -168 58 C-168 56.68 -168 55.36 -168 54 C-168.66 54 -169.32 54 -170 54 C-170 53.01 -170 52.02 -170 51 C-168.515 50.505 -168.515 50.505 -167 50 C-165.75501391 47.67730041 -165.75501391 47.67730041 -164.8125 44.9375 C-164.46832031 44.01839844 -164.12414062 43.09929687 -163.76953125 42.15234375 C-163.51558594 41.44207031 -163.26164063 40.73179687 -163 40 C-162.34 40 -161.68 40 -161 40 C-160.83564453 39.14728516 -160.83564453 39.14728516 -160.66796875 38.27734375 C-159.62061834 33.17683242 -158.20728247 28.715558 -156 24 C-155.34 24 -154.68 24 -154 24 C-154 20.7 -154 17.4 -154 14 C-148.00154723 12.50038681 -142.67065618 12.29355046 -137 15 C-133.04600727 19.61454211 -133.65431198 24.57311401 -133.8125 30.3125 C-133.83280273 31.70952148 -133.83280273 31.70952148 -133.85351562 33.13476562 C-133.88873118 35.42377646 -133.93797901 37.71158458 -134 40 C-135.98 40.495 -135.98 40.495 -138 41 C-138 41.66 -138 42.32 -138 43 C-136.02 42.505 -136.02 42.505 -134 42 C-134.66 43.98 -135.32 45.96 -136 48 C-137.65 48 -139.3 48 -141 48 C-141.0825 48.825 -141.165 49.65 -141.25 50.5 C-142.16447269 54.76753921 -143.92223178 58.19236894 -146 62 C-146.66 62 -147.32 62 -148 62 C-148 62.99 -148 63.98 -148 65 C-147.34 65 -146.68 65 -146 65 C-146.33 66.32 -146.66 67.64 -147 69 C-147.66 68.67 -148.32 68.34 -149 68 C-149.33 68.66 -149.66 69.32 -150 70 C-150.66 70 -151.32 70 -152 70 C-152.144375 70.61875 -152.28875 71.2375 -152.4375 71.875 C-153 74 -153 74 -154 76 C-153.34 76 -152.68 76 -152 76 C-152 76.66 -152 77.32 -152 78 C-153.32 77.67 -154.64 77.34 -156 77 C-155.34 77.99 -154.68 78.98 -154 80 C-150.82966958 79.66032174 -150.00117393 79.00130809 -147.8125 76.5625 C-146.01873797 74.16363259 -146.01873797 74.16363259 -145 72 C-144.34 72 -143.68 72 -143 72 C-142.71125 71.030625 -142.4225 70.06125 -142.125 69.0625 C-141 66 -141 66 -139 65 C-137.74172877 63.15017528 -137.74172877 63.15017528 -137 61 C-137.33 60.01 -137.66 59.02 -138 58 C-137.01 57.34 -136.02 56.68 -135 56 C-135 55.34 -135 54.68 -135 54 C-134.01 54 -133.02 54 -132 54 C-132 53.01 -132 52.02 -132 51 C-132.66 51 -133.32 51 -134 51 C-133.67 50.01 -133.34 49.02 -133 48 C-131.68 48 -130.36 48 -129 48 C-128.34 45.36 -127.68 42.72 -127 40 C-126.34 40 -125.68 40 -125 40 C-125.66 38.35 -126.32 36.7 -127 35 C-125.68 35 -124.36 35 -123 35 C-121.515 29.555 -121.515 29.555 -120 24 C-119.34 24 -118.68 24 -118 24 C-118 22.35 -118 20.7 -118 19 C-118.66 19 -119.32 19 -120 19 C-120 19.66 -120 20.32 -120 21 C-120.66 21 -121.32 21 -122 21 C-122 20.01 -122 19.02 -122 18 C-121.34 18 -120.68 18 -120 18 C-119.77570313 17.35675781 -119.55140625 16.71351563 -119.3203125 16.05078125 C-118 14 -118 14 -115.6796875 13.35546875 C-109.94167795 13.01182751 -104.67382552 13.03652019 -99 14 C-98.7834375 15.7015625 -98.7834375 15.7015625 -98.5625 17.4375 C-98.38828522 20.80777201 -98.38828522 20.80777201 -97 22 C-96.28966562 28.88477936 -97.41695827 34.63464717 -100 41 C-100.66 41 -101.32 41 -102 41 C-102 45.29 -102 49.58 -102 54 C-102.66 54 -103.32 54 -104 54 C-104 53.34 -104 52.68 -104 52 C-104.66 52 -105.32 52 -106 52 C-106.33 53.65 -106.66 55.3 -107 57 C-107.66 57 -108.32 57 -109 57 C-109.66 59.64 -110.32 62.28 -111 65 C-111.66 65 -112.32 65 -113 65 C-113.33 66.65 -113.66 68.3 -114 70 C-114.66 70 -115.32 70 -116 70 C-116.16747412 72.45828079 -116.3340144 74.91661865 -116.5 77.375 C-116.54769531 78.07367188 -116.59539062 78.77234375 -116.64453125 79.4921875 C-116.90655786 83.2427781 -116.90655786 83.2427781 -117 87 C-115.02 87 -113.04 87 -111 87 C-111 86.34 -111 85.68 -111 85 C-109.515 84.505 -109.515 84.505 -108 84 C-108 83.01 -108 82.02 -108 81 C-107.34 81 -106.68 81 -106 81 C-106 81.99 -106 82.98 -106 84 C-104.68 83.67 -103.36 83.34 -102 83 C-102 82.34 -102 81.68 -102 81 C-100.5390625 79.7109375 -100.5390625 79.7109375 -98.625 78.375 C-97.99851562 77.92898438 -97.37203125 77.48296875 -96.7265625 77.0234375 C-95 76 -95 76 -93 76 C-92.67 73.69 -92.34 71.38 -92 69 C-91.01 69 -90.02 69 -89 69 C-89 68.01 -89 67.02 -89 66 C-87.68 65.67 -86.36 65.34 -85 65 C-85 63.68 -85 62.36 -85 61 C-84.34 61 -83.68 61 -83 61 C-83 60.01 -83 59.02 -83 58 C-81.02 58.495 -81.02 58.495 -79 59 C-79 57.35 -79 55.7 -79 54 C-79.66 54 -80.32 54 -81 54 C-81.45375 53.505 -81.9075 53.01 -82.375 52.5 C-84.12128967 50.54781326 -84.12128967 50.54781326 -88 51 C-87.34 49.35 -86.68 47.7 -86 46 C-86.66 46 -87.32 46 -88 46 C-88.495 41.545 -88.495 41.545 -89 37 C-89.66 37 -90.32 37 -91 37 C-91.21428767 29.29754885 -90.95710672 22.46146936 -89 15 C-89 14.34 -89 13.68 -89 13 C-86.66666667 13 -84.33333333 13 -82 13 C-82 12.34 -82 11.68 -82 11 C-79.69 11 -77.38 11 -75 11 C-75 11.66 -75 12.32 -75 13 C-74.01 13 -73.02 13 -72 13 C-72 12.34 -72 11.68 -72 11 C-71.34 11 -70.68 11 -70 11 C-70 13.97 -70 16.94 -70 20 C-69.34 20 -68.68 20 -68 20 C-66.9691368 26.95832663 -66.92930542 33.77334088 -67.03710938 40.79052734 C-67.07403651 44.12888222 -67.06396662 46.80810013 -66 50 C-64.3954444 49.85851011 -62.79136233 49.71164314 -61.1875 49.5625 C-60.29417969 49.48128906 -59.40085937 49.40007812 -58.48046875 49.31640625 C-55.87256441 49.06510233 -55.87256441 49.06510233 -53 48 C-52.896875 47.13375 -52.79375 46.2675 -52.6875 45.375 C-51.96601586 41.83316877 -50.72876739 39.15687958 -49 36 C-48.34 36 -47.68 36 -47 36 C-46.855625 34.906875 -46.71125 33.81375 -46.5625 32.6875 C-46 29 -46 29 -45 26 C-44.34 26 -43.68 26 -43 26 C-43.01160156 25.21753906 -43.02320313 24.43507813 -43.03515625 23.62890625 C-43.04417969 22.61699219 -43.05320312 21.60507812 -43.0625 20.5625 C-43.07410156 19.55316406 -43.08570313 18.54382813 -43.09765625 17.50390625 C-43 15 -43 15 -42 14 C-39.7101179 13.90043991 -37.41704063 13.8703128 -35.125 13.875 C-33.24167969 13.87113281 -33.24167969 13.87113281 -31.3203125 13.8671875 C-28 14 -28 14 -25 15 C-21.58502783 19.16324113 -21.6329294 23.16020522 -21.8125 28.3125 C-21.82603516 29.05306641 -21.83957031 29.79363281 -21.85351562 30.55664062 C-21.88864021 32.37141075 -21.94244028 34.18580288 -22 36 C-22.66 36 -23.32 36 -24 36 C-24.33 38.64 -24.66 41.28 -25 44 C-25.66 44 -26.32 44 -27 44 C-27 44.66 -27 45.32 -27 46 C-26.01 46 -25.02 46 -24 46 C-24 46.66 -24 47.32 -24 48 C-25.32 48 -26.64 48 -28 48 C-28.33 49.32 -28.66 50.64 -29 52 C-29.66 52 -30.32 52 -31 52 C-30.54177532 55.46941546 -30.10868317 58.67395049 -29 62 C-29.99 62 -30.98 62 -32 62 C-32.33 61.01 -32.66 60.02 -33 59 C-33.99 61.31 -34.98 63.62 -36 66 C-36.66 66 -37.32 66 -38 66 C-38.1546875 67.36125 -38.1546875 67.36125 -38.3125 68.75 C-39.02060566 72.09740858 -39.9155136 73.394392 -42 76 C-43.10959246 79.05137926 -43.06739919 79.79780242 -42 83 C-41.34 83 -40.68 83 -40 83 C-38.87483915 81.16715557 -38.87483915 81.16715557 -38 79 C-38.33 78.01 -38.66 77.02 -39 76 C-36.525 75.505 -36.525 75.505 -34 75 C-33.67 73.35 -33.34 71.7 -33 70 C-32.360625 69.87625 -31.72125 69.7525 -31.0625 69.625 C-30.381875 69.41875 -29.70125 69.2125 -29 69 C-28.67 68.34 -28.34 67.68 -28 67 C-28.99 67 -29.98 67 -31 67 C-31 66.34 -31 65.68 -31 65 C-29.02 65 -27.04 65 -25 65 C-24.896875 64.27039063 -24.79375 63.54078125 -24.6875 62.7890625 C-23.93471159 59.73513679 -22.8201028 57.92139381 -21 55.375 C-19.18765887 52.82203869 -17.99770625 50.99311875 -17 48 C-16.34 48 -15.68 48 -15 48 C-14.34 45.03 -13.68 42.06 -13 39 C-12.34 39 -11.68 39 -11 39 C-10.67 37.02 -10.34 35.04 -10 33 C-9.34 33 -8.68 33 -8 33 C-7.814375 31.741875 -7.62875 30.48375 -7.4375 29.1875 C-7.33308594 28.47980469 -7.22867188 27.77210938 -7.12109375 27.04296875 C-6.86095201 24.7974658 -6.86095201 24.7974658 -8 22 C-8.12040604 19.87749355 -8.17533819 17.75088413 -8.1875 15.625 C-8.20167969 14.50351562 -8.21585938 13.38203125 -8.23046875 12.2265625 C-7.99951482 8.99320749 -7.51647624 6.85157991 -6 4 C-3 2 -3 2 0 2 C0 1.34 0 0.68 0 0 Z M-157 81 C-156 84 -156 84 -156 84 Z " fill="#404142" transform="translate(399,301)"/>
<path d="M0 0 C0.66 0 1.32 0 2 0 C2 0.99 2 1.98 2 3 C3.98 3.66 5.96 4.32 8 5 C8 5.66 8 6.32 8 7 C10.97 7.495 10.97 7.495 14 8 C14 8.66 14 9.32 14 10 C16.64 10.33 19.28 10.66 22 11 C21.67 12.32 21.34 13.64 21 15 C21.99 15 22.98 15 24 15 C24 14.01 24 13.02 24 12 C25.5 13.0625 25.5 13.0625 27 15 C27.1875 18.6875 27.1875 18.6875 27 22 C27.99 22.33 28.98 22.66 30 23 C30 23.99 30 24.98 30 26 C30.99 26.33 31.98 26.66 33 27 C33.33 28.65 33.66 30.3 34 32 C34.66 32 35.32 32 36 32 C36.33 34.97 36.66 37.94 37 41 C37.66 41 38.32 41 39 41 C39.08172936 43.5215021 39.14083373 46.04029917 39.1875 48.5625 C39.21263672 49.26697266 39.23777344 49.97144531 39.26367188 50.69726562 C39.33532304 55.88003315 38.32172598 59.36264182 36 64 C35.01 64 34.02 64 33 64 C33.33 65.65 33.66 67.3 34 69 C33.34 69 32.68 69 32 69 C32 68.01 32 67.02 32 66 C31.01 66.495 31.01 66.495 30 67 C30 67.99 30 68.98 30 70 C28.68 70 27.36 70 26 70 C26 69.01 26 68.02 26 67 C25.01 67 24.02 67 23 67 C23 67.99 23 68.98 23 70 C22.34 70 21.68 70 21 70 C21 69.01 21 68.02 21 67 C19.5459375 66.814375 19.5459375 66.814375 18.0625 66.625 C17.051875 66.41875 16.04125 66.2125 15 66 C13.61773984 63.23547967 13.90474613 60.9538637 13.9375 57.875 C13.94652344 56.77929688 13.95554687 55.68359375 13.96484375 54.5546875 C13.97644531 53.71164062 13.98804688 52.86859375 14 52 C15.32 51.67 16.64 51.34 18 51 C18 46.05 18 41.1 18 36 C17.34 36 16.68 36 16 36 C16 34.35 16 32.7 16 31 C15.34 31 14.68 31 14 31 C14 29.68 14 28.36 14 27 C13.01 26.34 12.02 25.68 11 25 C11 24.01 11 23.02 11 22 C9.68 21.67 8.36 21.34 7 21 C7 20.34 7 19.68 7 19 C5.68 18.67 4.36 18.34 3 18 C3 17.34 3 16.68 3 16 C1.72125 15.938125 0.4425 15.87625 -0.875 15.8125 C-1.59429687 15.77769531 -2.31359375 15.74289062 -3.0546875 15.70703125 C-3.69664062 15.80371094 -4.33859375 15.90039062 -5 16 C-5.99 17.485 -5.99 17.485 -7 19 C-7.66 19 -8.32 19 -9 19 C-8.85962479 20.81293089 -8.71255111 22.6253443 -8.5625 24.4375 C-8.48128906 25.44683594 -8.40007812 26.45617187 -8.31640625 27.49609375 C-8.26788532 29.93640779 -8.26788532 29.93640779 -7 31 C-6.59853244 33.07473748 -6.25372524 35.16057103 -5.9375 37.25 C-5.67259766 38.95929688 -5.67259766 38.95929688 -5.40234375 40.703125 C-5.05871212 43.51890262 -4.92019921 46.16973183 -5 49 C-4.34 49 -3.68 49 -3 49 C-2.505 53.455 -2.505 53.455 -2 58 C-1.34 58 -0.68 58 0 58 C1.13764351 62.26616316 2 65.56486311 2 70 C2.66 70 3.32 70 4 70 C4.495 73.465 4.495 73.465 5 77 C5.66 77 6.32 77 7 77 C8.19287411 80.87684087 9 83.91621923 9 88 C9.66 88 10.32 88 11 88 C11.33 89.65 11.66 91.3 12 93 C13.32 92.67 14.64 92.34 16 92 C16 92.66 16 93.32 16 94 C15.34 94 14.68 94 14 94 C14.495 95.85625 14.495 95.85625 15 97.75 C15.79891159 100.74591845 16 102.80107719 16 106 C16.66 106 17.32 106 18 106 C18.13277344 106.92683594 18.26554687 107.85367188 18.40234375 108.80859375 C18.66724609 110.60490234 18.66724609 110.60490234 18.9375 112.4375 C19.19853516 114.22994141 19.19853516 114.22994141 19.46484375 116.05859375 C19.68985213 118.87955676 19.68985213 118.87955676 21 120 C21.28496247 123.95061604 21.23200164 127.91536182 21.25 131.875 C21.2809375 133.51855469 21.2809375 133.51855469 21.3125 135.1953125 C21.34756429 142.59387838 20.33722048 148.97952552 18 156 C17.34 156 16.68 156 16 156 C15.9175 156.886875 15.835 157.77375 15.75 158.6875 C14.90015652 162.44097537 13.65972191 164.25968046 11 167 C10.34 167 9.68 167 9 167 C8.34 168.32 7.68 169.64 7 171 C6.34 171 5.68 171 5 171 C4.67 171.99 4.34 172.98 4 174 C3.34 174 2.68 174 2 174 C2 174.66 2 175.32 2 176 C-1.87036007 179.08284263 -6.00786149 181.53198701 -11 182 C-11 182.66 -11 183.32 -11 184 C-12.89453221 184.64964023 -14.79068649 185.29455115 -16.6875 185.9375 C-18.27111328 186.47697266 -18.27111328 186.47697266 -19.88671875 187.02734375 C-24.28840428 188.4025253 -28.20159503 189.13131948 -32.8125 189.0625 C-33.60269531 189.05347656 -34.39289063 189.04445313 -35.20703125 189.03515625 C-36.09455078 189.01775391 -36.09455078 189.01775391 -37 189 C-37 189.66 -37 190.32 -37 191 C-43.53162622 192.10914408 -49.43507888 191.78441153 -56 191 C-56 190.34 -56 189.68 -56 189 C-56.99 189.04125 -57.98 189.0825 -59 189.125 C-63.23835866 189.1423348 -66.93193985 188.14191162 -71 187 C-71 186.34 -71 185.68 -71 185 C-72.98 184.67 -74.96 184.34 -77 184 C-77 183.34 -77 182.68 -77 182 C-77.598125 181.855625 -78.19625 181.71125 -78.8125 181.5625 C-83.25026024 180.42136165 -84.94299717 179.09470238 -87.796875 175.484375 C-89.01725944 173.90748519 -89.01725944 173.90748519 -90.75 172.375 C-92.29675426 170.67357031 -92.61402447 169.23865805 -93 167 C-93.66 167 -94.32 167 -95 167 C-95.33 165.68 -95.66 164.36 -96 163 C-96.66 163 -97.32 163 -98 163 C-99.25664978 160.09399739 -100 158.20395416 -100 155 C-101.65 155 -103.3 155 -105 155 C-104.67 154.4225 -104.34 153.845 -104 153.25 C-102.72924102 150.80116138 -102.72924102 150.80116138 -103 147 C-103.66 147 -104.32 147 -105 147 C-107.9198497 132.47896174 -108.24125703 117.49883727 -105 103 C-104.34 103 -103.68 103 -103 103 C-102.814375 101.5459375 -102.814375 101.5459375 -102.625 100.0625 C-102.41875 99.051875 -102.2125 98.04125 -102 97 C-101.01 96.505 -101.01 96.505 -100 96 C-99.53476937 94.10466658 -99.53476937 94.10466658 -99.375 91.9375 C-99.25125 90.638125 -99.1275 89.33875 -99 88 C-96.69 88 -94.38 88 -92 88 C-91.67 87.01 -91.34 86.02 -91 85 C-88.03 84.505 -88.03 84.505 -85 84 C-85 83.34 -85 82.68 -85 82 C-82.69 82 -80.38 82 -78 82 C-78 81.34 -78 80.68 -78 80 C-77.01 80 -76.02 80 -75 80 C-74.773125 80.598125 -74.54625 81.19625 -74.3125 81.8125 C-73.11458333 84.19791667 -73.11458333 84.19791667 -70.5 85.5 C-67.71376879 87.17173873 -66.96190513 87.93939276 -66 91 C-65.67857143 96.35714286 -65.67857143 96.35714286 -67 99 C-67.66 99 -68.32 99 -69 99 C-68.67 99.99 -68.34 100.98 -68 102 C-68.99 102.33 -69.98 102.66 -71 103 C-71 102.34 -71 101.68 -71 101 C-71.66 101 -72.32 101 -73 101 C-73 101.66 -73 102.32 -73 103 C-73.66 103 -74.32 103 -75 103 C-76.20628008 105.33214148 -77.1654738 107.49642139 -78 110 C-78.66 110 -79.32 110 -80 110 C-80.66 112.64 -81.32 115.28 -82 118 C-82.66 118 -83.32 118 -84 118 C-84 128.56 -84 139.12 -84 150 C-83.34 150 -82.68 150 -82 150 C-81.34 152.64 -80.68 155.28 -80 158 C-79.34 158 -78.68 158 -78 158 C-77.67 159.65 -77.34 161.3 -77 163 C-76.34 163 -75.68 163 -75 163 C-73.75923923 164.50197356 -72.52078183 166.00612315 -71.30859375 167.53125 C-69.74465039 169.28660135 -68.19739866 170.18614864 -66 171 C-66 171.66 -66 172.32 -66 173 C-64.02 173.33 -62.04 173.66 -60 174 C-60 174.66 -60 175.32 -60 176 C-49.16831994 176.32667237 -49.16831994 176.32667237 -39 173 C-39 172.01 -39 171.02 -39 170 C-37.68 170 -36.36 170 -35 170 C-34.67 170.66 -34.34 171.32 -34 172 C-33.071875 171.2575 -33.071875 171.2575 -32.125 170.5 C-30 169 -30 169 -28 169 C-28 167.68 -28 166.36 -28 165 C-26.68 165 -25.36 165 -24 165 C-23.67 164.34 -23.34 163.68 -23 163 C-22.34 163 -21.68 163 -21 163 C-20.814375 162.0409375 -20.814375 162.0409375 -20.625 161.0625 C-20.315625 160.0415625 -20.315625 160.0415625 -20 159 C-19.34 158.67 -18.68 158.34 -18 158 C-17.27306096 156.02111039 -16.60183749 154.02045442 -16 152 C-15.34 152 -14.68 152 -14 152 C-13.92652344 150.58847656 -13.92652344 150.58847656 -13.8515625 149.1484375 C-13.77679688 147.90320313 -13.70203125 146.65796875 -13.625 145.375 C-13.55539063 144.14523437 -13.48578125 142.91546875 -13.4140625 141.6484375 C-13.0185513 138.16346145 -12.23738151 135.26950399 -11 132 C-11.66 132 -12.32 132 -13 132 C-13.33 126.39 -13.66 120.78 -14 115 C-14.66 115 -15.32 115 -16 115 C-18.29612756 105.58997722 -18.29612756 105.58997722 -18 101 C-18.66 101 -19.32 101 -20 101 C-20.4125 99.865625 -20.825 98.73125 -21.25 97.5625 C-22.56685398 93.90456616 -22.56685398 93.90456616 -25.1875 93.0625 C-25.785625 93.041875 -26.38375 93.02125 -27 93 C-27 91.68 -27 90.36 -27 89 C-26.34 88.67 -25.68 88.34 -25 88 C-25 86.68 -25 85.36 -25 84 C-25.66 84 -26.32 84 -27 84 C-27.84161854 81.91999989 -28.67300763 79.83585854 -29.5 77.75 C-30.19609375 76.00976562 -30.19609375 76.00976562 -30.90625 74.234375 C-32 71 -32 71 -32 67 C-32.66 67 -33.32 67 -34 67 C-35.19287411 63.12315913 -36 60.08378077 -36 56 C-36.66 56 -37.32 56 -38 56 C-38.13277344 55.36191406 -38.26554687 54.72382813 -38.40234375 54.06640625 C-38.57894531 53.24011719 -38.75554687 52.41382813 -38.9375 51.5625 C-39.11152344 50.73878906 -39.28554687 49.91507812 -39.46484375 49.06640625 C-39.80752994 47.02338796 -39.80752994 47.02338796 -41 46 C-41.26864682 43.49262967 -41.47415162 41.01507961 -41.625 38.5 C-41.67003662 37.77619141 -41.71507324 37.05238281 -41.76147461 36.30664062 C-42.04291416 31.07806713 -41.83286847 26.18229267 -41 21 C-40.34 21 -39.68 21 -39 21 C-38.67 18.69 -38.34 16.38 -38 14 C-37.34 14 -36.68 14 -36 14 C-36 13.34 -36 12.68 -36 12 C-36.66 12 -37.32 12 -38 12 C-38 11.34 -38 10.68 -38 10 C-36.68 10 -35.36 10 -34 10 C-34 9.34 -34 8.68 -34 8 C-27.16714816 3.92936486 -21.96475086 2.23741747 -14 3 C-14 2.34 -14 1.68 -14 1 C-12.68 1 -11.36 1 -10 1 C-10 1.66 -10 2.32 -10 3 C-6.7 3 -3.4 3 0 3 C0 2.01 0 1.02 0 0 Z " fill="#404142" transform="translate(192,267)"/>
<path d="M0 0 C0.495 1.485 0.495 1.485 1 3 C4.4934597 4.74672985 7.06845568 6 11 6 C11 6.66 11 7.32 11 8 C10.01 8 9.02 8 8 8 C8 8.66 8 9.32 8 10 C8.66 10 9.32 10 10 10 C10.3690205 20.55808656 10.3690205 20.55808656 8 25 C8.99 25 9.98 25 11 25 C10.67 26.32 10.34 27.64 10 29 C9.34 28.67 8.68 28.34 8 28 C7.505 29.485 7.505 29.485 7 31 C6.34 31 5.68 31 5 31 C4.81824219 32.06541016 4.81824219 32.06541016 4.6328125 33.15234375 C4.46523438 34.07144531 4.29765625 34.99054688 4.125 35.9375 C3.88136719 37.31228516 3.88136719 37.31228516 3.6328125 38.71484375 C3.42398438 39.46894531 3.21515625 40.22304688 3 41 C2.01 41.495 2.01 41.495 1 42 C-0.37891032 44.6852464 -1.11387536 46.29776859 -0.625 49.3125 C-0.41875 49.869375 -0.2125 50.42625 0 51 C-1.98 51.66 -3.96 52.32 -6 53 C-6.33 54.98 -6.66 56.96 -7 59 C-7.66 59 -8.32 59 -9 59 C-9 59.99 -9 60.98 -9 62 C-8.01 62.495 -8.01 62.495 -7 63 C-7 63.99 -7 64.98 -7 66 C-8.98 66 -10.96 66 -13 66 C-13.33 67.32 -13.66 68.64 -14 70 C-13.01 70.33 -12.02 70.66 -11 71 C-11.99 71.33 -12.98 71.66 -14 72 C-15.23950042 74.09138456 -15.23950042 74.09138456 -16.1875 76.5625 C-16.53167969 77.38878906 -16.87585938 78.21507812 -17.23046875 79.06640625 C-17.48441406 79.70449219 -17.73835937 80.34257812 -18 81 C-18.66 81 -19.32 81 -20 81 C-20.12375 82.2375 -20.2475 83.475 -20.375 84.75 C-20.61467497 87.14674967 -20.89725757 88.80356908 -22.01953125 90.94921875 C-23.20303512 93.42467504 -23.23426085 95.33236562 -23.3125 98.0625 C-23.71693548 102.71693548 -23.71693548 102.71693548 -26.125 105.125 C-29.53948428 106.16419087 -32.45030331 106.20880569 -36 106 C-36 105.34 -36 104.68 -36 104 C-38.31 104 -40.62 104 -43 104 C-43.22786458 102.01432292 -43.45572917 100.02864583 -43.68359375 98.04296875 C-43.97170735 95.80603607 -43.97170735 95.80603607 -45 93 C-45.03874921 91.33378384 -45.0450286 89.66605828 -45 88 C-44.34 88 -43.68 88 -43 88 C-42.67 84.7 -42.34 81.4 -42 78 C-41.34 78 -40.68 78 -40 78 C-39.855625 76.7625 -39.71125 75.525 -39.5625 74.25 C-39.21311498 71.43495501 -38.79620634 68.7298503 -38 66 C-37.34 66 -36.68 66 -36 66 C-35.855625 64.906875 -35.71125 63.81375 -35.5625 62.6875 C-35 59 -35 59 -34 56 C-33.34 56 -32.68 56 -32 56 C-32 53.03 -32 50.06 -32 47 C-31.01 47 -30.02 47 -29 47 C-28.34 44.69 -27.68 42.38 -27 40 C-26.34 40 -25.68 40 -25 40 C-24.87625 39.21625 -24.7525 38.4325 -24.625 37.625 C-24 35 -24 35 -22 33 C-21.28591666 31.01643517 -20.61382258 29.01684563 -20 27 C-21.32 27 -22.64 27 -24 27 C-24 26.34 -24 25.68 -24 25 C-22.02 25 -20.04 25 -18 25 C-18 24.34 -18 23.68 -18 23 C-18.99 23 -19.98 23 -21 23 C-21 22.34 -21 21.68 -21 21 C-20.37609375 20.90976562 -19.7521875 20.81953125 -19.109375 20.7265625 C-16.90193569 20.20738674 -16.90193569 20.20738674 -15.953125 18.3984375 C-14.32659747 13.71765272 -13.69029043 9.9553531 -14 5 C-10.535 4.505 -10.535 4.505 -7 4 C-7 3.01 -7 2.02 -7 1 C-4.50935112 0.31292445 -2.62113708 0 0 0 Z " fill="#404142" transform="translate(609,300)"/>
<path d="M0 0 C0.99773437 0.02320313 1.99546875 0.04640625 3.0234375 0.0703125 C4.52777344 0.09738281 4.52777344 0.09738281 6.0625 0.125 C6.83335937 0.14820313 7.60421875 0.17140625 8.3984375 0.1953125 C8.7284375 1.1853125 9.0584375 2.1753125 9.3984375 3.1953125 C11.7084375 3.1953125 14.0184375 3.1953125 16.3984375 3.1953125 C16.3984375 3.8553125 16.3984375 4.5153125 16.3984375 5.1953125 C15.7384375 5.1953125 15.0784375 5.1953125 14.3984375 5.1953125 C14.7284375 5.8553125 15.0584375 6.5153125 15.3984375 7.1953125 C15.46906674 10.51047231 15.39520363 13.81370716 15.3359375 17.12890625 C15.24753025 20.23730724 15.24753025 20.23730724 16.3984375 23.1953125 C15.0784375 23.1953125 13.7584375 23.1953125 12.3984375 23.1953125 C12.0684375 24.1853125 11.7384375 25.1753125 11.3984375 26.1953125 C8.5459529 29.822546 5.3449091 30.14183811 0.984375 30.921875 C-2.45211653 31.28525024 -5.23552694 30.92705936 -8.6015625 30.1953125 C-12.05218189 20.92177289 -10.90771493 10.82818666 -9.6015625 1.1953125 C-8.4259375 1.5046875 -8.4259375 1.5046875 -7.2265625 1.8203125 C-6.3603125 1.9440625 -5.4940625 2.0678125 -4.6015625 2.1953125 C-2.6015625 0.1953125 -2.6015625 0.1953125 0 0 Z " fill="#404142" transform="translate(369.6015625,277.8046875)"/>
<path d="M0 0 C0.33 0.66 0.66 1.32 1 2 C1.66 2 2.32 2 3 2 C3 3.32 3 4.64 3 6 C1.68 6.33 0.36 6.66 -1 7 C-0.67 4.69 -0.34 2.38 0 0 Z " fill="#525252" transform="translate(706,364)"/>
<path d="M0 0 C0.66 0 1.32 0 2 0 C2.33 2.31 2.66 4.62 3 7 C2.34 7 1.68 7 1 7 C1 6.01 1 5.02 1 4 C0.34 4 -0.32 4 -1 4 C-0.67 2.68 -0.34 1.36 0 0 Z " fill="#4E4E4E" transform="translate(896,297)"/>
<path d="M0 0 C2.475 0.99 2.475 0.99 5 2 C5 2.66 5 3.32 5 4 C4.01 4.33 3.02 4.66 2 5 C1.01 4.34 0.02 3.68 -1 3 C-0.67 2.01 -0.34 1.02 0 0 Z " fill="#4F4F4F" transform="translate(882,278)"/>
<path d="M0 0 C2.475 0.495 2.475 0.495 5 1 C5.33 1.99 5.66 2.98 6 4 C4.35 3.67 2.7 3.34 1 3 C0.67 2.01 0.34 1.02 0 0 Z " fill="#505050" transform="translate(560,289)"/>
<path d="M0 0 C2.475 0.99 2.475 0.99 5 2 C5 2.66 5 3.32 5 4 C3.35 3.67 1.7 3.34 0 3 C0 2.01 0 1.02 0 0 Z " fill="#454545" transform="translate(594,400)"/>
<path d="M0 0 C1.65 0 3.3 0 5 0 C4.67 0.99 4.34 1.98 4 3 C2.68 3 1.36 3 0 3 C0 2.01 0 1.02 0 0 Z " fill="#505050" transform="translate(284,374)"/>
<path d="M0 0 C0.99 0 1.98 0 3 0 C3.33 1.65 3.66 3.3 4 5 C3.34 5 2.68 5 2 5 C2 4.01 2 3.02 2 2 C1.34 2 0.68 2 0 2 C0 1.34 0 0.68 0 0 Z " fill="#555555" transform="translate(727,321)"/>
<path d="M0 0 C0.99 0 1.98 0 3 0 C3 1.32 3 2.64 3 4 C2.01 3.67 1.02 3.34 0 3 C0 2.01 0 1.02 0 0 Z " fill="#4A4A4A" transform="translate(393,377)"/>
<path d="M0 0 C-0.66 1.32 -1.32 2.64 -2 4 C-2.66 3.67 -3.32 3.34 -4 3 C-4 2.34 -4 1.68 -4 1 C-2 0 -2 0 0 0 Z " fill="#555555" transform="translate(724,395)"/>
<path d="M0 0 C0.66 0.33 1.32 0.66 2 1 C2 1.99 2 2.98 2 4 C1.01 4 0.02 4 -1 4 C-0.67 2.68 -0.34 1.36 0 0 Z " fill="#555555" transform="translate(742,371)"/>
<path d="M0 0 C0.99 0 1.98 0 3 0 C3 0.99 3 1.98 3 3 C2.01 3 1.02 3 0 3 C0 2.01 0 1.02 0 0 Z " fill="#3D3D3D" transform="translate(838,393)"/>
<path d="M0 0 C0.99 0 1.98 0 3 0 C2.67 0.99 2.34 1.98 2 3 C1.34 3 0.68 3 0 3 C0 2.01 0 1.02 0 0 Z " fill="#4C4C4C" transform="translate(716,396)"/>
<path d="M0 0 C0.99 0 1.98 0 3 0 C2.67 0.99 2.34 1.98 2 3 C1.34 3 0.68 3 0 3 C0 2.01 0 1.02 0 0 Z " fill="#464646" transform="translate(830,385)"/>
<path d="M0 0 C1.32 0 2.64 0 4 0 C4 0.66 4 1.32 4 2 C2.68 2 1.36 2 0 2 C0 1.34 0 0.68 0 0 Z " fill="#424242" transform="translate(603,384)"/>
<path d="M0 0 C0.99 0 1.98 0 3 0 C3 0.99 3 1.98 3 3 C2.01 2.67 1.02 2.34 0 2 C0 1.34 0 0.68 0 0 Z " fill="#424242" transform="translate(838,333)"/>
<path d="M0 0 C0.66 0 1.32 0 2 0 C2 1.32 2 2.64 2 4 C1.34 4 0.68 4 0 4 C0 2.68 0 1.36 0 0 Z " fill="#424242" transform="translate(238,316)"/>
<path d="M0 0 C1.32 0 2.64 0 4 0 C4 0.66 4 1.32 4 2 C2.68 2 1.36 2 0 2 C0 1.34 0 0.68 0 0 Z " fill="#515151" transform="translate(708,314)"/>
<path d="M0 0 C0.66 0 1.32 0 2 0 C2 1.32 2 2.64 2 4 C1.34 4 0.68 4 0 4 C0 2.68 0 1.36 0 0 Z " fill="#484848" transform="translate(783,279)"/>
<path d="M0 0 C0.66 0 1.32 0 2 0 C2 0.99 2 1.98 2 3 C1.01 3 0.02 3 -1 3 C-0.67 2.01 -0.34 1.02 0 0 Z " fill="#4C4C4C" transform="translate(223,279)"/>
<path d="M0 0 C0.66 0.33 1.32 0.66 2 1 C2 1.66 2 2.32 2 3 C1.01 3 0.02 3 -1 3 C-0.67 2.01 -0.34 1.02 0 0 Z " fill="#424242" transform="translate(646,449)"/>
<path d="M0 0 C0.66 0.33 1.32 0.66 2 1 C2 1.66 2 2.32 2 3 C1.01 3 0.02 3 -1 3 C-0.67 2.01 -0.34 1.02 0 0 Z " fill="#404040" transform="translate(184,449)"/>
<path d="M0 0 C0.66 0.33 1.32 0.66 2 1 C2 1.66 2 2.32 2 3 C1.01 3 0.02 3 -1 3 C-0.67 2.01 -0.34 1.02 0 0 Z " fill="#4C4C4C" transform="translate(561,423)"/>
<path d="M0 0 C0.66 0.33 1.32 0.66 2 1 C2 1.66 2 2.32 2 3 C1.01 3 0.02 3 -1 3 C-0.67 2.01 -0.34 1.02 0 0 Z " fill="#555555" transform="translate(568,404)"/>
<path d="M0 0 C0.99 0.33 1.98 0.66 3 1 C2.67 1.66 2.34 2.32 2 3 C1.34 3 0.68 3 0 3 C0 2.01 0 1.02 0 0 Z " fill="#555555" transform="translate(563,404)"/>
<path d="M0 0 C0.66 0 1.32 0 2 0 C2 0.99 2 1.98 2 3 C1.01 2.67 0.02 2.34 -1 2 C-0.67 1.34 -0.34 0.68 0 0 Z " fill="#4C4C4C" transform="translate(120,348)"/>
<path d="M0 0 C0.99 0.33 1.98 0.66 3 1 C2.67 1.66 2.34 2.32 2 3 C1.34 3 0.68 3 0 3 C0 2.01 0 1.02 0 0 Z " fill="#4C4C4C" transform="translate(641,345)"/>
<path d="M0 0 C0.66 0 1.32 0 2 0 C2 0.99 2 1.98 2 3 C1.01 2.67 0.02 2.34 -1 2 C-0.67 1.34 -0.34 0.68 0 0 Z " fill="#4C4C4C" transform="translate(889,341)"/>
<path d="M0 0 C0.99 0.33 1.98 0.66 3 1 C2.67 1.66 2.34 2.32 2 3 C1.34 3 0.68 3 0 3 C0 2.01 0 1.02 0 0 Z " fill="#4C4C4C" transform="translate(723,341)"/>
<path d="M0 0 C0.99 0 1.98 0 3 0 C2.67 0.99 2.34 1.98 2 3 C1.34 2.67 0.68 2.34 0 2 C0 1.34 0 0.68 0 0 Z " fill="#555555" transform="translate(389,326)"/>
<path d="M0 0 C0.66 0 1.32 0 2 0 C1.67 1.32 1.34 2.64 1 4 C0.67 2.68 0.34 1.36 0 0 Z " fill="#464646" transform="translate(388,321)"/>
<path d="M0 0 C0.99 0.33 1.98 0.66 3 1 C2.67 1.66 2.34 2.32 2 3 C1.34 3 0.68 3 0 3 C0 2.01 0 1.02 0 0 Z " fill="#4C4C4C" transform="translate(698,315)"/>
<path d="M0 0 C0.99 0.33 1.98 0.66 3 1 C2.34 1.66 1.68 2.32 1 3 C0.67 2.01 0.34 1.02 0 0 Z " fill="#555555" transform="translate(129,437)"/>
<path d="M0 0 C0.66 0 1.32 0 2 0 C2 0.99 2 1.98 2 3 C1.34 3 0.68 3 0 3 C0 2.01 0 1.02 0 0 Z " fill="#404040" transform="translate(210,426)"/>
<path d="M0 0 C0.99 0 1.98 0 3 0 C3 0.66 3 1.32 3 2 C2.01 2 1.02 2 0 2 C0 1.34 0 0.68 0 0 Z " fill="#555555" transform="translate(873,391)"/>
<path d="M0 0 C0.99 0 1.98 0 3 0 C3 0.66 3 1.32 3 2 C2.01 2 1.02 2 0 2 C0 1.34 0 0.68 0 0 Z " fill="#4C4C4C" transform="translate(111,384)"/>
<path d="M0 0 C0.66 0 1.32 0 2 0 C1.67 0.99 1.34 1.98 1 3 C0.34 2.34 -0.32 1.68 -1 1 C-0.67 0.67 -0.34 0.34 0 0 Z " fill="#4C4C4C" transform="translate(679,381)"/>
<path d="M0 0 C0.99 0 1.98 0 3 0 C3 0.66 3 1.32 3 2 C2.01 2 1.02 2 0 2 C0 1.34 0 0.68 0 0 Z " fill="#555555" transform="translate(435,381)"/>
<path d="M0 0 C0.66 0 1.32 0 2 0 C2 0.99 2 1.98 2 3 C1.34 3 0.68 3 0 3 C0 2.01 0 1.02 0 0 Z " fill="#555555" transform="translate(865,378)"/>
<path d="M0 0 C0.66 0 1.32 0 2 0 C2 0.99 2 1.98 2 3 C1.34 3 0.68 3 0 3 C0 2.01 0 1.02 0 0 Z " fill="#404040" transform="translate(452,378)"/>
<path d="M0 0 C0.66 0 1.32 0 2 0 C2 0.99 2 1.98 2 3 C1.34 3 0.68 3 0 3 C0 2.01 0 1.02 0 0 Z " fill="#464646" transform="translate(566,374)"/>
<path d="M0 0 C0.66 0 1.32 0 2 0 C2 0.99 2 1.98 2 3 C1.34 3 0.68 3 0 3 C0 2.01 0 1.02 0 0 Z " fill="#555555" transform="translate(445,363)"/>
<path d="M0 0 C0.66 0 1.32 0 2 0 C2 0.99 2 1.98 2 3 C1.34 3 0.68 3 0 3 C0 2.01 0 1.02 0 0 Z " fill="#555555" transform="translate(445,358)"/>
<path d="M0 0 C0.66 0 1.32 0 2 0 C2 0.99 2 1.98 2 3 C1.34 3 0.68 3 0 3 C0 2.01 0 1.02 0 0 Z " fill="#555555" transform="translate(605,356)"/>
<path d="M0 0 C0.99 0 1.98 0 3 0 C3 0.66 3 1.32 3 2 C2.01 2 1.02 2 0 2 C0 1.34 0 0.68 0 0 Z " fill="#4C4C4C" transform="translate(887,355)"/>
<path d="M0 0 C0.66 0 1.32 0 2 0 C2 0.99 2 1.98 2 3 C1.34 3 0.68 3 0 3 C0 2.01 0 1.02 0 0 Z " fill="#555555" transform="translate(309,352)"/>
<path d="M0 0 C0.66 0 1.32 0 2 0 C2 0.99 2 1.98 2 3 C1.34 3 0.68 3 0 3 C0 2.01 0 1.02 0 0 Z " fill="#555555" transform="translate(911,345)"/>
<path d="M0 0 C0.66 0.66 1.32 1.32 2 2 C1.01 2.33 0.02 2.66 -1 3 C-0.67 2.01 -0.34 1.02 0 0 Z " fill="#555555" transform="translate(920,338)"/>
<path d="M0 0 C0.66 0 1.32 0 2 0 C2 0.99 2 1.98 2 3 C1.34 3 0.68 3 0 3 C0 2.01 0 1.02 0 0 Z " fill="#4C4C4C" transform="translate(687,338)"/>
<path d="M0 0 C0.66 0 1.32 0 2 0 C2 0.99 2 1.98 2 3 C1.34 3 0.68 3 0 3 C0 2.01 0 1.02 0 0 Z " fill="#555555" transform="translate(384,337)"/>
<path d="M0 0 C0.66 0 1.32 0 2 0 C2 0.99 2 1.98 2 3 C1.34 3 0.68 3 0 3 C0 2.01 0 1.02 0 0 Z " fill="#464646" transform="translate(420,333)"/>
<path d="M0 0 C0.99 0 1.98 0 3 0 C3 0.66 3 1.32 3 2 C2.01 2 1.02 2 0 2 C0 1.34 0 0.68 0 0 Z " fill="#404040" transform="translate(760,332)"/>
<path d="M0 0 C0.66 0 1.32 0 2 0 C2 0.99 2 1.98 2 3 C1.34 3 0.68 3 0 3 C0 2.01 0 1.02 0 0 Z " fill="#404040" transform="translate(619,330)"/>
<path d="M0 0 C0.66 0 1.32 0 2 0 C2 0.99 2 1.98 2 3 C1.34 3 0.68 3 0 3 C0 2.01 0 1.02 0 0 Z " fill="#555555" transform="translate(865,312)"/>
<path d="M0 0 C0.66 0 1.32 0 2 0 C2 0.99 2 1.98 2 3 C1.34 3 0.68 3 0 3 C0 2.01 0 1.02 0 0 Z " fill="#555555" transform="translate(188,308)"/>
<path d="M0 0 C0.99 0 1.98 0 3 0 C3 0.66 3 1.32 3 2 C2.01 2 1.02 2 0 2 C0 1.34 0 0.68 0 0 Z " fill="#555555" transform="translate(549,299)"/>
<path d="M0 0 C0.99 0 1.98 0 3 0 C3 0.66 3 1.32 3 2 C2.01 2 1.02 2 0 2 C0 1.34 0 0.68 0 0 Z " fill="#3D3D3D" transform="translate(641,296)"/>
<path d="M0 0 C0.99 0 1.98 0 3 0 C3 0.66 3 1.32 3 2 C2.01 2 1.02 2 0 2 C0 1.34 0 0.68 0 0 Z " fill="#555555" transform="translate(784,284)"/>
<path d="M0 0 C0.66 0.33 1.32 0.66 2 1 C2 1.66 2 2.32 2 3 C1.01 2.67 0.02 2.34 -1 2 C-0.67 1.34 -0.34 0.68 0 0 Z " fill="#555555" transform="translate(825,279)"/>
<path d="M0 0 C0.99 0 1.98 0 3 0 C3 0.66 3 1.32 3 2 C2.01 1.67 1.02 1.34 0 1 C0 0.67 0 0.34 0 0 Z " fill="#555555" transform="translate(888,347)"/>
<path d="M0 0 C0.99 0 1.98 0 3 0 C3 0.66 3 1.32 3 2 C2.01 1.67 1.02 1.34 0 1 C0 0.67 0 0.34 0 0 Z " fill="#555555" transform="translate(304,343)"/>
<path d="M0 0 C0.66 0 1.32 0 2 0 C2 0.66 2 1.32 2 2 C1.34 2 0.68 2 0 2 C0 1.34 0 0.68 0 0 Z " fill="#4C4C4C" transform="translate(566,425)"/>
<path d="M0 0 C0.66 0 1.32 0 2 0 C2 0.66 2 1.32 2 2 C1.34 2 0.68 2 0 2 C0 1.34 0 0.68 0 0 Z " fill="#4C4C4C" transform="translate(936,395)"/>
<path d="M0 0 C0.66 0 1.32 0 2 0 C2 0.66 2 1.32 2 2 C1.34 2 0.68 2 0 2 C0 1.34 0 0.68 0 0 Z " fill="#4C4C4C" transform="translate(779,395)"/>
<path d="M0 0 C0.66 0 1.32 0 2 0 C2 0.66 2 1.32 2 2 C1.34 2 0.68 2 0 2 C0 1.34 0 0.68 0 0 Z " fill="#4C4C4C" transform="translate(267,395)"/>
<path d="M0 0 C0.66 0 1.32 0 2 0 C2 0.66 2 1.32 2 2 C1.34 2 0.68 2 0 2 C0 1.34 0 0.68 0 0 Z " fill="#555555" transform="translate(737,381)"/>
<path d="M0 0 C0.66 0 1.32 0 2 0 C2 0.66 2 1.32 2 2 C1.34 2 0.68 2 0 2 C0 1.34 0 0.68 0 0 Z " fill="#555555" transform="translate(299,377)"/>
<path d="M0 0 C0.66 0 1.32 0 2 0 C2 0.66 2 1.32 2 2 C1.34 2 0.68 2 0 2 C0 1.34 0 0.68 0 0 Z " fill="#555555" transform="translate(933,373)"/>
<path d="M0 0 C0.66 0 1.32 0 2 0 C2 0.66 2 1.32 2 2 C1.34 2 0.68 2 0 2 C0 1.34 0 0.68 0 0 Z " fill="#555555" transform="translate(819,370)"/>
<path d="M0 0 C0.66 0 1.32 0 2 0 C2 0.66 2 1.32 2 2 C1.34 2 0.68 2 0 2 C0 1.34 0 0.68 0 0 Z " fill="#555555" transform="translate(943,355)"/>
<path d="M0 0 C0.66 0 1.32 0 2 0 C2 0.66 2 1.32 2 2 C1.34 2 0.68 2 0 2 C0 1.34 0 0.68 0 0 Z " fill="#4C4C4C" transform="translate(883,355)"/>
<path d="M0 0 C0.66 0 1.32 0 2 0 C2 0.66 2 1.32 2 2 C1.34 2 0.68 2 0 2 C0 1.34 0 0.68 0 0 Z " fill="#555555" transform="translate(231,328)"/>
<path d="M0 0 C0.66 0 1.32 0 2 0 C2 0.66 2 1.32 2 2 C1.34 2 0.68 2 0 2 C0 1.34 0 0.68 0 0 Z " fill="#555555" transform="translate(637,295)"/>
<path d="M0 0 C0.66 0 1.32 0 2 0 C2 0.66 2 1.32 2 2 C1.34 2 0.68 2 0 2 C0 1.34 0 0.68 0 0 Z " fill="#404040" transform="translate(160,270)"/>
<path d="M0 0 C0.66 0 1.32 0 2 0 C2 0.66 2 1.32 2 2 C1.34 2 0.68 2 0 2 C0 1.34 0 0.68 0 0 Z " fill="#3D3D3D" transform="translate(833,259)"/>
</svg>
