<?xml version="1.0" encoding="UTF-8"?>
<svg version="1.1" xmlns="http://www.w3.org/2000/svg" width="1080" height="700">
<path d="M0 0 C1.31548828 -0.00773438 2.63097656 -0.01546875 3.98632812 -0.0234375 C15.28167314 -0.00108155 26.2305648 0.90311577 36.875 4.875 C37.93485107 5.26196045 37.93485107 5.26196045 39.01611328 5.65673828 C55.80217263 11.97527494 69.4982859 20.9298115 82.5625 33.25 C83.23925781 33.86230469 83.91601562 34.47460938 84.61328125 35.10546875 C103.10903633 52.48925459 115.4611588 79.76026559 116.7019043 105.09667969 C117.785825 140.82056483 109.38922437 170.13129326 85.14453125 196.921875 C69.99161928 212.76864261 51.66364099 223.41069054 30.5625 229.25 C29.41523438 229.5696875 28.26796875 229.889375 27.0859375 230.21875 C9.2984541 234.33234359 -11.90945418 234.50643764 -29.4375 229.25 C-30.14374512 229.04600586 -30.84999023 228.84201172 -31.57763672 228.63183594 C-51.09650685 222.92203658 -66.62724958 213.21601791 -81.4375 199.25 C-82.18773437 198.57582031 -82.93796875 197.90164063 -83.7109375 197.20703125 C-102.1276563 179.98578367 -114.1822855 152.76198573 -115.64257812 127.73535156 C-115.7406504 123.9875895 -115.76691848 120.2489927 -115.75 116.5 C-115.74751251 115.83914398 -115.74502502 115.17828796 -115.74246216 114.49740601 C-115.5507798 81.5404876 -102.54381121 53.72454196 -79.22827148 30.62109375 C-73.41379083 25.03155444 -67.36393349 20.42393619 -60.4375 16.25 C-59.86596191 15.90388672 -59.29442383 15.55777344 -58.70556641 15.20117188 C-51.51650027 10.91731683 -44.17546526 7.56541854 -36.25 4.875 C-35.20066284 4.51692261 -35.20066284 4.51692261 -34.13012695 4.15161133 C-22.87217211 0.55088893 -11.75765192 -0.06892615 0 0 Z " fill="#E60000" transform="translate(185.4375,233.75)"/>
<path d="M0 0 C-1 2 -1 2 -2.6796875 2.60546875 C-3.40414062 2.79753906 -4.12859375 2.98960937 -4.875 3.1875 C-18.23471711 7.44218698 -26.30704651 16.27234443 -32.73828125 28.2890625 C-35.16843258 33.51050219 -36.2729694 38.12516694 -36.625 43.875 C-36.69976562 45.02742188 -36.77453125 46.17984375 -36.8515625 47.3671875 C-36.92503906 48.67042969 -36.92503906 48.67042969 -37 50 C-35.63875 50.0928125 -35.63875 50.0928125 -34.25 50.1875 C-20.35565736 52.22831894 -5.73549925 61.20218519 3 72 C13.11836539 86.59569277 16.24611003 103.42862432 13.3515625 120.91796875 C9.37221689 137.32851797 0.72257076 151.42266726 -13.375 160.9375 C-19.2873903 164.40542564 -25.51652197 166.82182365 -32 169 C-32.67289062 169.2475 -33.34578125 169.495 -34.0390625 169.75 C-47.79088677 174.1118121 -64.29314883 170.65577598 -76.75 164.3125 C-94.30671449 153.9404529 -106.14119546 138.88075087 -111.30859375 119.25390625 C-116.57725994 94.45843203 -111.88188282 70.07041562 -98.25 48.8125 C-96.86398233 46.85295778 -95.44582192 44.91584177 -94 43 C-93.60329102 42.4730957 -93.20658203 41.94619141 -92.79785156 41.40332031 C-75.72719176 19.08829954 -49.03108357 4.57092005 -21.34423828 0.26367188 C-14.25944202 -0.53320169 -7.1097994 -0.2837614 0 0 Z " fill="#FEFDFD" transform="translate(235,244)"/>
<path d="M0 0 C7.59 0 15.18 0 23 0 C23 38.61 23 77.22 23 117 C16.07 117 9.14 117 2 117 C1.34 115.68 0.68 114.36 0 113 C-0.70125 113.61875 -1.4025 114.2375 -2.125 114.875 C-9.24785003 120.13971524 -17.49320152 119.72761423 -26 119 C-29.3499565 118.11338776 -32.0629007 116.81848918 -35 115 C-35.62261719 114.649375 -36.24523437 114.29875 -36.88671875 113.9375 C-45.81150715 108.3619272 -50.88117665 97.3273481 -53.25 87.375 C-55.75311808 72.85240503 -54.24494694 57.50040342 -46 45 C-38.87064109 36.34389502 -31.14071971 31.43983453 -20 30 C-12.7140462 29.49388454 -7.33541197 30.36990845 0 32 C0 21.44 0 10.88 0 0 Z M-27 56 C-32.11326212 63.97274479 -33.14194665 71.68467592 -32 81 C-30.47559203 87.5598194 -28.43717165 92.75635383 -23 97 C-22.236875 97.598125 -21.47375 98.19625 -20.6875 98.8125 C-16.2464556 100.77482195 -12.28036372 100.8175645 -7.77734375 99.203125 C-4.09647601 97.46623641 -2.31419671 96.47129506 0 93 C0.28807713 91.00239911 0.28807713 91.00239911 0.22705078 88.80395508 C0.22682419 87.54298759 0.22682419 87.54298759 0.22659302 86.25654602 C0.21627045 85.35333115 0.20594788 84.45011627 0.1953125 83.51953125 C0.1924826 82.59154221 0.18965271 81.66355316 0.18673706 80.70744324 C0.17553836 77.74233121 0.15043435 74.77752079 0.125 71.8125 C0.1149698 69.80273874 0.10584402 67.79297274 0.09765625 65.78320312 C0.07560004 60.85535247 0.04107229 55.92772738 0 51 C-1.86978516 50.51466797 -1.86978516 50.51466797 -3.77734375 50.01953125 C-4.47851318 49.83753174 -5.17968262 49.65553223 -5.90209961 49.46801758 C-13.90242756 47.68323593 -21.36813549 50.07172156 -27 56 Z " fill="#E60000" transform="translate(578,281)"/>
<path d="M0 0 C9.65426125 7.63829022 13.69341867 17.39098077 15.68359375 29.33203125 C15.68359375 34.28203125 15.68359375 39.23203125 15.68359375 44.33203125 C-2.13640625 44.33203125 -19.95640625 44.33203125 -38.31640625 44.33203125 C-36.882805 53.39603103 -36.882805 53.39603103 -31.7421875 60.55078125 C-25.05712305 64.61112409 -17.95689282 65.07207838 -10.31640625 64.33203125 C-5.4285892 63.03970266 -0.94614389 61.32168353 3.37890625 58.6953125 C5.68359375 57.33203125 5.68359375 57.33203125 7.68359375 57.33203125 C8.55287651 59.72331082 9.40410976 62.11864851 10.24609375 64.51953125 C10.49294922 65.19306641 10.73980469 65.86660156 10.99414062 66.56054688 C12.34520919 70.4615195 13.33624396 73.4309256 11.68359375 77.33203125 C9.86328125 78.625 9.86328125 78.625 7.55859375 79.51953125 C6.74261719 79.83921875 5.92664063 80.15890625 5.0859375 80.48828125 C-9.49440723 85.60918281 -25.4016966 86.40647077 -39.8203125 80.265625 C-50.6361003 74.72047491 -55.86935814 66.37022437 -60.1328125 55.19140625 C-63.25669497 44.09397761 -62.4572973 29.97232085 -58.31640625 19.33203125 C-58.06117188 18.64238281 -57.8059375 17.95273437 -57.54296875 17.2421875 C-53.51803023 7.91836203 -45.73112495 0.08807756 -36.31640625 -3.66796875 C-24.68090101 -7.60902698 -10.49506814 -6.71986377 0 0 Z M-34.75390625 19.64453125 C-36.8354772 22.83795217 -36.8354772 22.83795217 -37.31640625 29.33203125 C-27.41640625 29.33203125 -17.51640625 29.33203125 -7.31640625 29.33203125 C-8.021721 22.52768662 -8.021721 22.52768662 -11.31640625 17.33203125 C-19.97461057 11.58493684 -27.20464555 12.48241212 -34.75390625 19.64453125 Z " fill="#E60000" transform="translate(994.31640625,315.66796875)"/>
<path d="M0 0 C8.25137841 6.31409826 10.55133511 15.93168199 11.859375 25.75 C12.10627119 30.1949724 12.09401658 34.6235288 12.0546875 39.07421875 C12.0518576 40.30163284 12.04902771 41.52904694 12.04611206 42.7936554 C12.0350075 46.67504038 12.00992106 50.55618595 11.984375 54.4375 C11.97433263 57.0852831 11.96520899 59.73306986 11.95703125 62.38085938 C11.93510004 68.8373304 11.90063791 75.29362475 11.859375 81.75 C4.269375 81.75 -3.320625 81.75 -11.140625 81.75 C-11.17800781 78.02847656 -11.21539063 74.30695313 -11.25390625 70.47265625 C-11.30018307 66.84849334 -11.35139449 63.22443119 -11.40307617 59.6003418 C-11.43622832 57.09129006 -11.46429014 54.58216548 -11.48706055 52.07299805 C-11.5207847 48.45590319 -11.57311127 44.83946998 -11.62890625 41.22265625 C-11.63529617 40.10979752 -11.6416861 38.99693878 -11.64826965 37.85035706 C-11.7890054 30.31080905 -12.05883699 22.75662245 -17.703125 17.25 C-21.1025359 15.15805483 -22.73114663 14.57007879 -26.703125 14.8125 C-27.50878906 14.84472656 -28.31445312 14.87695312 -29.14453125 14.91015625 C-33.93333692 16.25252029 -37.7403639 18.03895202 -41.140625 21.75 C-42.46515354 26.30872202 -42.3288089 30.74092501 -42.23828125 35.4609375 C-42.24393965 36.79759909 -42.25355761 38.13424926 -42.26695251 39.47085571 C-42.29149407 42.97336311 -42.26255506 46.47342778 -42.22216797 49.97570801 C-42.19045058 53.55550324 -42.20972674 57.13499261 -42.22460938 60.71484375 C-42.24629795 67.72723464 -42.20672922 74.73789245 -42.140625 81.75 C-49.730625 81.75 -57.320625 81.75 -65.140625 81.75 C-65.140625 53.7 -65.140625 25.65 -65.140625 -3.25 C-58.210625 -3.25 -51.280625 -3.25 -44.140625 -3.25 C-43.480625 -1.6 -42.820625 0.05 -42.140625 1.75 C-41.5115625 1.41226562 -40.8825 1.07453125 -40.234375 0.7265625 C-26.78463974 -6.28188389 -13.7254372 -8.01485384 0 0 Z " fill="#E60000" transform="translate(909.140625,316.25)"/>
<path d="M0 0 C4.90211712 3.85821304 8.21381719 7.88238001 11.125 13.375 C11.51300781 14.09558594 11.90101563 14.81617188 12.30078125 15.55859375 C18.79346391 28.80366637 18.04177913 42.50833841 14.125 56.375 C9.9146178 67.82596372 2.84454677 75.15863104 -8.140625 80.28125 C-17.53488126 84.03895251 -30.53928629 83.98252747 -40.0625 80.75 C-50.02932656 76.31345278 -56.77094682 69.47669742 -61.1640625 59.42578125 C-66.49981532 45.049958 -66.77880635 29.91832422 -60.73828125 15.69921875 C-56.24800289 6.13790047 -50.14205922 -0.91128698 -40.08203125 -4.66796875 C-26.52305878 -8.48310896 -11.88457372 -8.06223785 0 0 Z M-35.875 16.375 C-42.7582102 25.47811998 -43.90646597 34.28674082 -42.875 45.375 C-41.10470189 53.01422121 -37.68751791 57.91804401 -31.0625 62.1875 C-25.45286162 64.27736528 -21.59982336 64.07662306 -16.1875 61.875 C-11.14919246 58.61965518 -8.82314645 53.63249155 -6.5625 48.25 C-4.87755488 38.7530366 -4.49387955 28.75225676 -9.875 20.375 C-14.08048794 15.75488649 -17.69400739 12.68686202 -24.0625 12.0625 C-28.81277327 12.45186666 -32.12719263 13.37827144 -35.875 16.375 Z " fill="#E60000" transform="translate(496.875,317.625)"/>
<path d="M0 0 C9.29383236 7.21755066 14.77830258 16.75253203 16.8359375 28.42578125 C18.3357335 43.54914227 16.26274092 58.05990518 6.8359375 70.42578125 C0.82432471 77.03474246 -7.13726934 81.74540785 -16.15600586 82.61865234 C-28.94640508 83.10984654 -40.11810153 82.55410932 -50.6015625 74.23828125 C-59.64441105 65.40484603 -64.19952687 53.58262338 -64.63671875 41.10839844 C-64.77249153 28.09845626 -62.47651817 15.85640014 -54.1640625 5.42578125 C-48.56629517 -0.16244985 -42.89699764 -3.83825372 -35.1640625 -5.57421875 C-34.37902344 -5.75597656 -33.59398437 -5.93773437 -32.78515625 -6.125 C-21.44303292 -8.06888105 -9.58070441 -6.62828326 0 0 Z M-36.71484375 18.26171875 C-42.3245936 26.89974065 -43.01449997 35.28352695 -42.1640625 45.42578125 C-40.3403349 53.0558632 -36.98889295 57.96089052 -30.3515625 62.23828125 C-25.61943004 64.00123256 -21.75073523 64.4155063 -17.05078125 62.6171875 C-11.43505941 59.56079652 -8.50859314 55.30220139 -6.1640625 49.42578125 C-3.65879616 39.70984447 -4.07357631 29.17609411 -9.1640625 20.42578125 C-13.13257663 15.38469573 -17.75109265 12.93409591 -24.1015625 11.98828125 C-29.13959737 12.70800052 -33.36515483 14.29609206 -36.71484375 18.26171875 Z " fill="#E60000" transform="translate(814.1640625,317.57421875)"/>
<path d="M0 0 C6.50461426 5.37551141 11.13084333 12.1441503 12.6328125 20.5234375 C12.9073509 25.27176811 12.866057 30.01538314 12.828125 34.76953125 C12.82438945 36.14957981 12.82154504 37.52963105 12.81954956 38.90968323 C12.81195574 42.52150952 12.79234444 46.13317199 12.7701416 49.74493408 C12.74959096 53.43865748 12.74052823 57.13240764 12.73046875 60.82617188 C12.70909395 68.05867667 12.67394717 75.29101315 12.6328125 82.5234375 C6.0328125 82.5234375 -0.5671875 82.5234375 -7.3671875 82.5234375 C-8.0271875 81.2034375 -8.6871875 79.8834375 -9.3671875 78.5234375 C-9.84027344 78.86117187 -10.31335938 79.19890625 -10.80078125 79.546875 C-18.45786482 84.71130173 -25.40212181 86.21523696 -34.58984375 85.1328125 C-41.47227435 83.62274334 -49.43281285 79.77528648 -53.515625 73.859375 C-58.01930756 66.3532374 -58.0334583 59.12702134 -57.3671875 50.5234375 C-55.49860118 43.06099404 -49.72072495 38.40730944 -43.52734375 34.3046875 C-33.65263359 28.79322137 -21.38128388 27.92703299 -10.3671875 26.5234375 C-11.54237443 20.66991629 -11.54237443 20.66991629 -15.3671875 16.5234375 C-21.82530292 14.14413182 -26.85701961 14.29952613 -33.3671875 16.5234375 C-37.15293437 18.33714133 -40.77585189 20.35224981 -44.3671875 22.5234375 C-45.59554075 20.28244181 -46.79948245 18.0332997 -47.9921875 15.7734375 C-48.3428125 15.13921875 -48.6934375 14.505 -49.0546875 13.8515625 C-51.49728178 9.16178148 -51.49728178 9.16178148 -50.90625 6.26171875 C-40.16031632 -5.87518604 -13.56804779 -8.46323773 0 0 Z M-31.4921875 48.4609375 C-34.59123877 51.8698939 -35.41057019 53.30872215 -35.2421875 58.0234375 C-34.26904497 61.91600764 -33.65714322 63.27241517 -30.3671875 65.5234375 C-24.42326054 67.27165131 -19.85277461 65.9657837 -14.3671875 63.5234375 C-13.45839844 63.17152344 -12.54960938 62.81960938 -11.61328125 62.45703125 C-9.23425502 60.80224128 -9.23425502 60.80224128 -8.97167969 58.68896484 C-8.873509 56.38505393 -8.93190754 54.13853396 -9.0546875 51.8359375 C-9.07724609 51.03865234 -9.09980469 50.24136719 -9.12304688 49.41992188 C-9.18191806 47.45362416 -9.27159995 45.48829259 -9.3671875 43.5234375 C-17.16004658 43.32812775 -24.7719788 44.29440811 -31.4921875 48.4609375 Z " fill="#E60000" transform="translate(670.3671875,315.4765625)"/>
<path d="M0 0 C0.495 0.495 0.495 0.495 1 1 C0.93499891 3.06526175 0.79717323 5.12840126 0.625 7.1875 C0.48964844 8.87939453 0.48964844 8.87939453 0.3515625 10.60546875 C0.0239199 13.76904012 -0.43958013 16.8701975 -1 20 C-2.175625 19.67 -3.35125 19.34 -4.5625 19 C-9.88456613 17.67418494 -15.77115853 17.05785888 -21 19 C-23.51216921 23.1450792 -23.37755084 27.02040671 -24 32 C-18.06 32 -12.12 32 -6 32 C-6 38.27 -6 44.54 -6 51 C-11.94 51 -17.88 51 -24 51 C-24 72.78 -24 94.56 -24 117 C-31.26 117 -38.52 117 -46 117 C-46 94.89 -46 72.78 -46 50 C-49.96 50 -53.92 50 -58 50 C-58 44.06 -58 38.12 -58 32 C-54.37 32 -50.74 32 -47 32 C-47.061875 30.22625 -47.12375 28.4525 -47.1875 26.625 C-47.14413004 17.40888378 -45.43283305 10.4704764 -38.96875 3.69140625 C-28.18858848 -5.57012141 -12.66504851 -4.74631915 0 0 Z " fill="#E60000" transform="translate(752,281)"/>
<path d="M0 0 C7.92 0 15.84 0 24 0 C30.93 17.16 37.86 34.32 45 52 C47.24684608 49.75315392 47.85651606 48.14071072 48.97119141 45.18310547 C49.54155624 43.68177567 49.54155624 43.68177567 50.1234436 42.15011597 C50.52872284 41.06674957 50.93400208 39.98338318 51.3515625 38.8671875 C51.77045746 37.76021515 52.18935242 36.6532428 52.62094116 35.51272583 C53.96071244 31.96871292 55.29292943 28.42191361 56.625 24.875 C57.53075473 22.47507344 58.4369985 20.07533138 59.34375 17.67578125 C61.568185 11.7859819 63.78584801 5.89367233 66 0 C73.59 0 81.18 0 89 0 C88.15796479 5.05221127 86.91921764 9.10446412 84.96484375 13.74609375 C84.65418976 14.49833725 84.34353577 15.25058075 84.02346802 16.02561951 C83.00065836 18.49871531 81.96914126 20.96807679 80.9375 23.4375 C80.22324712 25.15940685 79.50963345 26.88157897 78.79663086 28.60400391 C77.6832822 31.29288101 76.56929092 33.98147873 75.45283508 36.66906738 C72.75050862 43.17513087 70.07506834 49.6917799 67.4140625 56.21484375 C66.67716518 58.01961282 65.9402674 59.8243817 65.20336914 61.62915039 C64.13507772 64.24601209 63.06734738 66.86309507 62.00143433 69.48092651 C61.01500447 71.90230623 60.02544693 74.32238475 59.03515625 76.7421875 C58.74109894 77.46635361 58.44704163 78.19051971 58.14407349 78.93663025 C56.11392246 83.88607754 56.11392246 83.88607754 55 85 C53.5112814 85.08669432 52.018555 85.10703494 50.52734375 85.09765625 C49.62822266 85.09443359 48.72910156 85.09121094 47.80273438 85.08789062 C46.38444336 85.07532227 46.38444336 85.07532227 44.9375 85.0625 C43.98810547 85.05798828 43.03871094 85.05347656 42.06054688 85.04882812 C39.70696935 85.0370011 37.35351523 85.02052025 35 85 C29.91680911 74.31635581 25.37704408 63.43742488 20.875 52.5 C20.1272481 50.6879815 19.37928035 48.87605207 18.63110352 47.06420898 C17.50288038 44.33172864 16.37492639 41.59913983 15.24812317 38.86607361 C12.91943289 33.21898445 10.57702634 27.57783254 8.22265625 21.94140625 C7.38873257 19.94132836 6.55507067 17.94114158 5.72149658 15.94091797 C4.95111355 14.09511742 4.1774898 12.25067053 3.40380859 10.40625 C2.7224585 8.76849609 2.7224585 8.76849609 2.02734375 7.09765625 C1.63281006 6.15414307 1.23827637 5.21062988 0.83178711 4.23852539 C0 2 0 2 0 0 Z " fill="#E60000" transform="translate(341,313)"/>
</svg>
